<svg xmlns="http://www.w3.org/2000/svg" viewBox="0 0 72.87 72.87"><defs><style>.a{fill:#ea5740;}.b{fill:none;stroke:#fff;stroke-miterlimit:10;stroke-width:2px;}.c{fill:#8fc037;}.d{fill:#643e4c;}.e{fill:#fff;}.f{fill:#449346;}</style></defs><title>apple</title><rect class="a" x="1" y="1" width="70.87" height="70.87" rx="14.17"/><rect class="b" x="1" y="1" width="70.87" height="70.87" rx="14.17"/><path class="c" d="M42.4,52c1.37,0,1.32,1.26,3,1.61C51.92,55,55.51,45.68,56,39.32c.4-5.83-2-8.64-7.12-10-3-.8-4.78.42-6.43.42S39,28.51,36,29.31c-5.15,1.37-7.17,4.45-7.12,10,.05,6.38,4,15.68,10.59,14.28C41.09,53.25,41,52,42.4,52Z" transform="translate(-5.99 -5.82)"/><path class="d" d="M46.67,54.49a6.82,6.82,0,0,1-1.47-.16,3.65,3.65,0,0,1-1.93-1.11c-.36-.35-.5-.48-.87-.48s-.51.13-.86.48a3.69,3.69,0,0,1-1.93,1.11,6.88,6.88,0,0,1-5.9-1.49c-3.63-2.9-5.56-9-5.6-13.51-.06-6,2.31-9.32,7.67-10.74a9.35,9.35,0,0,1,5,.12A6.71,6.71,0,0,0,42.4,29,6.7,6.7,0,0,0,44,28.71,9.35,9.35,0,0,1,49,28.59c5.71,1.51,8.08,4.84,7.67,10.78-.32,4.68-2.32,11-6,13.69A6.64,6.64,0,0,1,46.67,54.49ZM38,29.79a7,7,0,0,0-1.83.25c-4.71,1.24-6.61,3.93-6.56,9.28,0,4.06,1.81,9.77,5,12.35a5.32,5.32,0,0,0,4.64,1.19,2.15,2.15,0,0,0,1.2-.71,2.47,2.47,0,0,1,3.83,0,2.12,2.12,0,0,0,1.2.71,5.11,5.11,0,0,0,4.32-1c3.26-2.46,5.07-8.25,5.36-12.6.36-5.23-1.54-7.9-6.56-9.23a7.88,7.88,0,0,0-4.3.13,8.25,8.25,0,0,1-1.94.31,8.25,8.25,0,0,1-1.93-.31A9.93,9.93,0,0,0,38,29.79Z" transform="translate(-5.99 -5.82)"/><path class="e" d="M33.15,47.13a.75.75,0,0,1-.68-.43,18.85,18.85,0,0,1-1.69-7.39c0-4.83,1.5-7,5.69-8.14a.75.75,0,0,1,.38,1.45c-3.5.93-4.61,2.55-4.57,6.67a17.39,17.39,0,0,0,1.55,6.78.76.76,0,0,1-.37,1A.81.81,0,0,1,33.15,47.13Z" transform="translate(-5.99 -5.82)"/><path class="e" d="M36,51a.69.69,0,0,1-.45-.16,7.73,7.73,0,0,1-1.14-1.09.75.75,0,1,1,1.13-1,6.26,6.26,0,0,0,.92.88.75.75,0,0,1,.14,1A.77.77,0,0,1,36,51Z" transform="translate(-5.99 -5.82)"/><path class="d" d="M41.16,55.44a.7.7,0,0,1-.31-.07.76.76,0,0,1-.37-1l1.24-2.69a.76.76,0,0,1,1-.37.77.77,0,0,1,.37,1L41.85,55A.75.75,0,0,1,41.16,55.44Z" transform="translate(-5.99 -5.82)"/><path class="d" d="M44,56a.77.77,0,0,1-.68-.42l-1.54-3.21a.75.75,0,0,1,1.35-.65l1.54,3.21a.74.74,0,0,1-.35,1A.71.71,0,0,1,44,56Z" transform="translate(-5.99 -5.82)"/><path class="d" d="M42.39,30a.74.74,0,0,1-.74-.65,7.77,7.77,0,0,1,1-5,7.56,7.56,0,0,1,2.45-2.52.76.76,0,0,1,1,.23.74.74,0,0,1-.23,1,6.16,6.16,0,0,0-2,2,6.27,6.27,0,0,0-.77,4,.74.74,0,0,1-.64.84Z" transform="translate(-5.99 -5.82)"/><path class="f" d="M41.38,21.77c-1.25-1.25-6-1.51-6-1.51s.26,4.79,1.51,6a3.2,3.2,0,0,0,4.53-4.53Z" transform="translate(-5.99 -5.82)"/><path class="d" d="M39.12,28a3.93,3.93,0,0,1-2.8-1.16c-1.38-1.38-1.68-5.68-1.73-6.53a.75.75,0,0,1,.79-.79c.85,0,5.15.35,6.53,1.73a3.94,3.94,0,0,1,0,5.59A3.89,3.89,0,0,1,39.12,28Zm-3-6.91c.17,1.81.61,4.08,1.23,4.69a2.49,2.49,0,0,0,3.46,0,2.44,2.44,0,0,0,0-3.46C40.23,21.69,38,21.25,36.16,21.08Z" transform="translate(-5.99 -5.82)"/><path class="e" d="M33.21,65.53l-.33.82h-1l1.83-4.2h1l1.8,4.2h-1l-.33-.82Zm1-2.39-.67,1.63h1.33Z" transform="translate(-5.99 -5.82)"/><path class="e" d="M39,62.15c1.07,0,1.68.53,1.68,1.46A1.47,1.47,0,0,1,39,65.15h-.84v1.2h-.94v-4.2Zm-.84,2.21h.79c.53,0,.83-.24.83-.72s-.3-.71-.83-.71h-.79Z" transform="translate(-5.99 -5.82)"/><path class="e" d="M43.27,62.15c1.06,0,1.68.53,1.68,1.46a1.48,1.48,0,0,1-1.68,1.54h-.84v1.2h-.94v-4.2Zm-.84,2.21h.79c.53,0,.83-.24.83-.72s-.3-.71-.83-.71h-.79Z" transform="translate(-5.99 -5.82)"/><path class="e" d="M48.54,65.52v.83H45.79v-4.2h1v3.37Z" transform="translate(-5.99 -5.82)"/><path class="e" d="M50.29,62.93v.92h2v.78h-2v.93h2.32v.79H49.34v-4.2h3.2v.78Z" transform="translate(-5.99 -5.82)"/></svg>