<svg xmlns="http://www.w3.org/2000/svg" viewBox="0 0 72.87 72.87"><defs><style>.a{fill:#ece97c;}.b{fill:none;stroke:#fff;stroke-miterlimit:10;stroke-width:2px;}.c{fill:#f6a025;}.d{fill:#d48300;}.e{fill:#b58059;}.f{fill:#643e4c;}.g{fill:#9c6842;}.h{fill:#fff;}</style></defs><title>apricots</title><rect class="a" x="1" y="1" width="70.87" height="70.87" rx="14.17"/><rect class="b" x="1" y="1" width="70.87" height="70.87" rx="14.17"/><path class="c" d="M52.06,51.36c5.5-5.49,5.89-14,.87-19s-13.55-4.64-19,.86c-8.6,8.6-4.39,18.5-3.13,21.31C33.56,53.52,43.29,60.79,52.06,51.36Z" transform="translate(-5.95 -5.82)"/><path class="d" d="M30.75,54.49c2.81-1,12.54,6.3,21.31-3.13,5.5-5.49,5.89-14,.87-19Z" transform="translate(-5.95 -5.82)"/><path class="e" d="M48.87,36.37S43,31.88,38.3,36.86c-4.07,4.28-2.42,12.51-2.42,12.51Z" transform="translate(-5.95 -5.82)"/><path class="f" d="M35.88,50.12a.77.77,0,0,1-.74-.6c-.07-.36-1.78-8.78,2.63-13.2,3.34-3.33,8.55-3.55,11.63-.48a.75.75,0,0,1,0,1.06.74.74,0,0,1-1.06,0c-2.49-2.48-6.75-2.27-9.51.49C35,41.23,36.59,49.13,36.61,49.21a.74.74,0,0,1-.58.89Z" transform="translate(-5.95 -5.82)"/><path class="f" d="M41.46,57a26.31,26.31,0,0,1-7.13-1.22A8.55,8.55,0,0,0,31,55.2a.74.74,0,0,1-.93-.4c-4.82-10.77-.87-18,3.29-22.15a15.48,15.48,0,0,1,10.2-4.6,13,13,0,0,1,9.91,3.74c5.3,5.3,4.91,14.31-.86,20.1A14.67,14.67,0,0,1,41.46,57ZM31.39,53.65a13.94,13.94,0,0,1,3.34.68c4.28,1.19,10.76,3,16.78-3.48l0,0c5.2-5.19,5.59-13.26.87-18a11.51,11.51,0,0,0-8.78-3.3,14,14,0,0,0-9.21,4.16C30.65,37.47,27.09,44,31.2,53.66Z" transform="translate(-5.95 -5.82)"/><path class="f" d="M30.75,55.24a.71.71,0,0,1-.53-.22.74.74,0,0,1,0-1.06L52.4,31.79a.74.74,0,0,1,1.06,0,.75.75,0,0,1,0,1.06L31.28,55A.74.74,0,0,1,30.75,55.24Z" transform="translate(-5.95 -5.82)"/><path class="g" d="M46.91,51.67a.74.74,0,0,1-.66-.39.75.75,0,0,1,.31-1A10.59,10.59,0,0,0,48,49.37a.75.75,0,1,1,.9,1.2,11.33,11.33,0,0,1-1.59,1A.72.72,0,0,1,46.91,51.67Z" transform="translate(-5.95 -5.82)"/><path class="g" d="M51.26,47.45a.74.74,0,0,1-.37-.1.75.75,0,0,1-.28-1,13.69,13.69,0,0,0,1-2.39,13.43,13.43,0,0,0,.72-3.3.75.75,0,0,1,1.5.14,15.77,15.77,0,0,1-.8,3.65,16.35,16.35,0,0,1-1.15,2.64A.77.77,0,0,1,51.26,47.45Z" transform="translate(-5.95 -5.82)"/><path class="h" d="M39,40.14a.41.41,0,0,1-.21,0,.49.49,0,0,1-.24-.66,5.81,5.81,0,0,1,2.69-2.74,5.69,5.69,0,0,1,2.7-.55.5.5,0,1,1,0,1,4.77,4.77,0,0,0-2.22.45,4.86,4.86,0,0,0-2.23,2.27A.48.48,0,0,1,39,40.14Z" transform="translate(-5.95 -5.82)"/><path class="h" d="M30.51,62.25h1.42l1.69,4.37H32.34L32,65.68H30.37l-.34.94H28.85Zm.71.9h0l-.57,1.71h1.1Z" transform="translate(-5.95 -5.82)"/><path class="h" d="M34,62.25h1.39c1.34,0,2,.45,2,1.43s-.64,1.41-1.73,1.41h-.45v1.53H34Zm1.17,2h.3c.4,0,.72-.14.72-.6s-.32-.58-.72-.58h-.3Z" transform="translate(-5.95 -5.82)"/><path class="h" d="M37.85,62.25h2.08c.78,0,1.41.35,1.41,1.1a1,1,0,0,1-.84,1.1h0c.38.11.4.44.62,1l.43,1.19H40.33l-.25-.79c-.24-.75-.39-.94-.82-.94H39v1.73H37.85ZM39,64.06h.31c.37,0,.85,0,.85-.5s-.41-.48-.85-.48H39Z" transform="translate(-5.95 -5.82)"/><path class="h" d="M42.11,62.25h1.16v4.37H42.11Z" transform="translate(-5.95 -5.82)"/><path class="h" d="M47.78,66.52a4.9,4.9,0,0,1-1.29.17A2.25,2.25,0,0,1,44,64.45a2.21,2.21,0,0,1,2.5-2.27,4.72,4.72,0,0,1,1.3.22l-.1,1A2.25,2.25,0,0,0,46.54,63a1.33,1.33,0,0,0-1.36,1.41,1.34,1.34,0,0,0,1.46,1.38,3,3,0,0,0,1.09-.23Z" transform="translate(-5.95 -5.82)"/><path class="h" d="M50.34,62.18a2.26,2.26,0,1,1-2.19,2.25A2,2,0,0,1,50.34,62.18Zm0,3.65c.71,0,1-.68,1-1.4s-.28-1.39-1-1.39-1,.64-1,1.39S49.63,65.83,50.34,65.83Z" transform="translate(-5.95 -5.82)"/><path class="h" d="M53.92,63.11H52.85v-.86h3.31v.86H55.09v3.51H53.92Z" transform="translate(-5.95 -5.82)"/></svg>