<svg xmlns="http://www.w3.org/2000/svg" viewBox="0 0 72.87 72.87"><defs><style>.a{fill:#8b7ab7;}.b{fill:none;stroke:#fff;stroke-miterlimit:10;stroke-width:2px;}.c{fill:#77bf84;}.d{fill:#fff;}.e{fill:#643e4c;}</style></defs><title>artichoke</title><rect class="a" x="1" y="1" width="70.87" height="70.87" rx="14.17"/><rect class="b" x="1" y="1" width="70.87" height="70.87" rx="14.17"/><path class="c" d="M54.35,30.86a4.09,4.09,0,0,0,0-2.07,4.25,4.25,0,0,0-1.55-2.1,2.69,2.69,0,0,1,0,1.59,2.8,2.8,0,0,1-.34.67s-5-5.56-9.83-5.56S32.86,29,32.86,29a2.48,2.48,0,0,1-.34-.67,2.73,2.73,0,0,1,0-1.59A4.26,4.26,0,0,0,31,28.79a4.09,4.09,0,0,0,0,2.07l-1,.33A41.62,41.62,0,0,0,31.45,40h0a17.67,17.67,0,0,0,.95,2.51,10.07,10.07,0,0,0,2.61,3h0c.29.24.6.47.92.7a49.23,49.23,0,0,0,4.93,2.23v7.61h3.63V48.44a46.64,46.64,0,0,0,4.85-1.91A12,12,0,0,0,53,42.47c2-3.09,2.39-11.28,2.39-11.28Z" transform="translate(-5.95 -5.82)"/><path class="d" d="M32.59,36.19a.75.75,0,0,1-.64-.36,4.38,4.38,0,0,1-.46-1.07A4.18,4.18,0,0,1,31.42,33a.75.75,0,1,1,1.48.25,2.64,2.64,0,0,0,0,1.12,3.13,3.13,0,0,0,.3.68.75.75,0,0,1-.26,1A.77.77,0,0,1,32.59,36.19Z" transform="translate(-5.95 -5.82)"/><path class="d" d="M40.22,43.69a.74.74,0,0,1-.64-.37,3.77,3.77,0,0,1-.46-1.07,4.18,4.18,0,0,1,.07-2.35.75.75,0,0,1,1.43.45,2.79,2.79,0,0,0,0,1.52,2.68,2.68,0,0,0,.29.68.75.75,0,0,1-.25,1A.79.79,0,0,1,40.22,43.69Z" transform="translate(-5.95 -5.82)"/><path class="d" d="M51.78,36.25a.71.71,0,0,1-.54-.24.74.74,0,0,1,0-1.06,2.81,2.81,0,0,0,.64-.89,2.86,2.86,0,0,0,.25-.85.75.75,0,0,1,.85-.64.74.74,0,0,1,.64.84,4.49,4.49,0,0,1-.38,1.28,4.19,4.19,0,0,1-1,1.35A.75.75,0,0,1,51.78,36.25Z" transform="translate(-5.95 -5.82)"/><path class="d" d="M39.65,28a.53.53,0,0,1-.21,0,3.25,3.25,0,0,1-1.1-.55,3.4,3.4,0,0,1-1.15-1.51.75.75,0,1,1,1.39-.56,2,2,0,0,0,1.29,1.19A.75.75,0,0,1,39.65,28Z" transform="translate(-5.95 -5.82)"/><path class="d" d="M46,27.37A.75.75,0,0,1,45.62,26a1.27,1.27,0,0,0,.27-.18,1.31,1.31,0,0,0,.41-.72.75.75,0,0,1,1.47.33,2.89,2.89,0,0,1-.89,1.52,2.73,2.73,0,0,1-.6.4A.78.78,0,0,1,46,27.37Z" transform="translate(-5.95 -5.82)"/><path class="e" d="M35,46.26a.75.75,0,0,1-.69-.46c-1.3-3.08,1-10.12,1.3-10.91a.75.75,0,0,1,.46-.46.73.73,0,0,1,.64.07s1.15.7,3.34,1.72a.75.75,0,0,1-.64,1.36c-1.19-.56-2.08-1-2.66-1.33-.74,2.44-1.86,7.06-1.06,9a.75.75,0,0,1-.4,1A.58.58,0,0,1,35,46.26Z" transform="translate(-5.95 -5.82)"/><path class="e" d="M42.67,48.6a6.24,6.24,0,0,1-6.24-6.24c0-3.22,5.1-9,5.68-9.69a.77.77,0,0,1,1.12,0c.59.65,5.68,6.47,5.68,9.69A6.24,6.24,0,0,1,42.67,48.6Zm0-14.29c-1.7,2-4.74,6-4.74,8a4.74,4.74,0,1,0,9.48,0C47.41,40.36,44.38,36.34,42.67,34.31Z" transform="translate(-5.95 -5.82)"/><path class="e" d="M47.61,36.5a.76.76,0,0,1-.7-.47,48.18,48.18,0,0,0-4.24-8,50.09,50.09,0,0,0-4.23,8,.75.75,0,0,1-1.4-.55,53.34,53.34,0,0,1,5-9.21.75.75,0,0,1,.61-.32h0a.75.75,0,0,1,.62.32,52.46,52.46,0,0,1,5,9.22.75.75,0,0,1-.43,1A.65.65,0,0,1,47.61,36.5Z" transform="translate(-5.95 -5.82)"/><path class="e" d="M33.92,38h0a.75.75,0,0,1-.71-.79,52.92,52.92,0,0,1,1.54-9.46.73.73,0,0,1,.47-.51.74.74,0,0,1,.69.09c.08.06,2,1.47,4.33,3.49a.75.75,0,0,1-1,1.13c-1.31-1.16-2.53-2.13-3.32-2.73a50.55,50.55,0,0,0-1.22,8.07A.75.75,0,0,1,33.92,38Z" transform="translate(-5.95 -5.82)"/><path class="e" d="M42.87,49.31h-.23a12.71,12.71,0,0,1-7.14-2.48,11.78,11.78,0,0,1-3.78-4c-2.12-4.4-2.45-11.28-2.46-11.57a.75.75,0,0,1,.63-.77,9.12,9.12,0,0,1,5,.7.74.74,0,0,1,.34,1,.76.76,0,0,1-1,.34,7.27,7.27,0,0,0-3.38-.62c.14,1.87.66,6.94,2.26,10.27a10.27,10.27,0,0,0,3.29,3.46,11.17,11.17,0,0,0,6.31,2.21,10.62,10.62,0,0,0,6.24-1.89,10.91,10.91,0,0,0,3.28-3.64l.13-.21c1.49-2.35,2-8,2.21-10.12a9.17,9.17,0,0,0-3.32.48.75.75,0,1,1-1-1.14c1-.82,4.16-.86,5.1-.85a.75.75,0,0,1,.75.79c0,.34-.46,8.42-2.51,11.64l-.09.16a12.14,12.14,0,0,1-10.62,6.28Z" transform="translate(-5.95 -5.82)"/><path class="e" d="M53.41,31.88a.76.76,0,0,1-.7-.47,11,11,0,0,0-10.05-7.27,11,11,0,0,0-10,7.24.75.75,0,0,1-1.4-.56,12.49,12.49,0,0,1,11.44-8.18A12.47,12.47,0,0,1,54.1,30.86a.74.74,0,0,1-.42,1A.65.65,0,0,1,53.41,31.88Z" transform="translate(-5.95 -5.82)"/><path class="e" d="M31,31.36a.5.5,0,0,1-.48-.37,4.47,4.47,0,0,1-.05-2.32,4.74,4.74,0,0,1,1.75-2.4.51.51,0,0,1,.59,0,.5.5,0,0,1,.17.56,2.2,2.2,0,0,0,0,1.27,2,2,0,0,0,.27.53.5.5,0,1,1-.8.59,2.91,2.91,0,0,1-.42-.8,4.21,4.21,0,0,1-.12-.48,3,3,0,0,0-.48,1,3.55,3.55,0,0,0,0,1.8.5.5,0,0,1-.34.62Z" transform="translate(-5.95 -5.82)"/><path class="e" d="M54.35,31.36l-.14,0a.51.51,0,0,1-.35-.62,3.35,3.35,0,0,0,0-1.8,2.63,2.63,0,0,0-.48-1,2.77,2.77,0,0,1-.11.48,2.91,2.91,0,0,1-.42.8.5.5,0,0,1-.7.11.51.51,0,0,1-.11-.7,1.8,1.8,0,0,0,.28-.53,2.2,2.2,0,0,0,0-1.27.5.5,0,0,1,.17-.56.51.51,0,0,1,.59,0,4.81,4.81,0,0,1,1.74,2.4,4.36,4.36,0,0,1,0,2.32A.51.51,0,0,1,54.35,31.36Z" transform="translate(-5.95 -5.82)"/><path class="e" d="M44.49,56.8H40.86a.75.75,0,0,1-.75-.75V48.44a.76.76,0,0,1,.75-.75h3.63a.76.76,0,0,1,.75.75v7.61A.75.75,0,0,1,44.49,56.8Zm-2.88-1.5h2.13V49.19H41.61Z" transform="translate(-5.95 -5.82)"/><path class="e" d="M42.13,51.22H40.86a.51.51,0,0,1-.5-.5.5.5,0,0,1,.5-.5h1.27a.5.5,0,0,1,.5.5A.51.51,0,0,1,42.13,51.22Z" transform="translate(-5.95 -5.82)"/><path class="e" d="M44.49,53.5h-1.3a.5.5,0,0,1-.5-.5.5.5,0,0,1,.5-.5h1.3a.5.5,0,0,1,.5.5A.5.5,0,0,1,44.49,53.5Z" transform="translate(-5.95 -5.82)"/><path class="e" d="M31.45,40.46A.48.48,0,0,1,31,39.8l1.12-3.16a.5.5,0,0,1,.3-.3.53.53,0,0,1,.43,0l2.81,1.68a.51.51,0,0,1,.17.69.5.5,0,0,1-.69.17l-2.28-1.37-.92,2.58A.49.49,0,0,1,31.45,40.46Z" transform="translate(-5.95 -5.82)"/><path class="e" d="M50.34,46.26a.58.58,0,0,1-.29-.06.74.74,0,0,1-.4-1c.8-1.91-.32-6.53-1.06-9-.58.31-1.47.77-2.67,1.33a.75.75,0,0,1-.63-1.36c2.19-1,3.32-1.72,3.33-1.72a.75.75,0,0,1,.65-.07.77.77,0,0,1,.46.46c.27.79,2.6,7.83,1.3,10.91A.75.75,0,0,1,50.34,46.26Z" transform="translate(-5.95 -5.82)"/><path class="e" d="M51.43,38a.75.75,0,0,1-.75-.71,50.4,50.4,0,0,0-1.22-8.06c-.8.61-2.05,1.6-3.37,2.77a.75.75,0,0,1-1-1.13c2.29-2,4.29-3.47,4.37-3.53a.75.75,0,0,1,1.17.41,53.94,53.94,0,0,1,1.54,9.46.75.75,0,0,1-.71.79Z" transform="translate(-5.95 -5.82)"/><path class="e" d="M53.9,40.46a.48.48,0,0,1-.47-.33l-.92-2.58-2.29,1.37a.49.49,0,0,1-.68-.17.5.5,0,0,1,.17-.69l2.81-1.68a.51.51,0,0,1,.73.26l1.12,3.16a.5.5,0,0,1-.3.64A.5.5,0,0,1,53.9,40.46Z" transform="translate(-5.95 -5.82)"/><path class="d" d="M24.73,65.76l-.33.81h-1l1.82-4.2h1L28,66.57H27l-.33-.81Zm1-2.4L25.05,65h1.32Z" transform="translate(-5.95 -5.82)"/><path class="d" d="M30.61,65.37h-1v1.2H28.7v-4.2h1.82c1.1,0,1.72.53,1.72,1.46a1.39,1.39,0,0,1-.78,1.36l.89,1.38H31.28Zm-.09-.79c.52,0,.82-.24.82-.72s-.3-.7-.82-.7h-.87v1.42Z" transform="translate(-5.95 -5.82)"/><path class="d" d="M35.09,63.18v3.39h-.94V63.18H32.87v-.81h3.51v.81Z" transform="translate(-5.95 -5.82)"/><path class="d" d="M37.13,66.57v-4.2h.95v4.2Z" transform="translate(-5.95 -5.82)"/><path class="d" d="M42.84,63l-.55.67a1.51,1.51,0,0,0-1.09-.54,1.29,1.29,0,0,0,0,2.58,1.63,1.63,0,0,0,1.09-.49l.55.6a2.42,2.42,0,0,1-1.69.75,2.14,2.14,0,1,1,0-4.27A2.37,2.37,0,0,1,42.84,63Z" transform="translate(-5.95 -5.82)"/><path class="d" d="M46.5,66.57V64.92H44.6v1.65h-1v-4.2h1v1.76h1.9V62.37h1v4.2Z" transform="translate(-5.95 -5.82)"/><path class="d" d="M52.82,64.47a2.26,2.26,0,1,1-2.25-2.13A2.16,2.16,0,0,1,52.82,64.47Zm-3.54,0a1.31,1.31,0,0,0,1.3,1.32,1.31,1.31,0,1,0-1.3-1.32Z" transform="translate(-5.95 -5.82)"/><path class="d" d="M55.24,64.86l-.6.67v1h-1v-4.2h1v1.91l1.74-1.91h1.1L55.9,64.13l1.69,2.44H56.45Z" transform="translate(-5.95 -5.82)"/><path class="d" d="M59.3,63.16v.91h2v.79h-2v.93h2.31v.78H58.35v-4.2h3.2v.79Z" transform="translate(-5.95 -5.82)"/></svg>