<?xml version="1.0" encoding="utf-8"?>
<!-- Generator: Adobe Illustrator 23.0.2, SVG Export Plug-In . SVG Version: 6.00 Build 0)  -->
<svg version="1.1" id="Layer_1" xmlns="http://www.w3.org/2000/svg" xmlns:xlink="http://www.w3.org/1999/xlink" x="0px" y="0px"
	 viewBox="0 0 72.9 72.9" style="enable-background:new 0 0 72.9 72.9;" xml:space="preserve">
<style type="text/css">
	.st0{fill:#77BF84;}
	.st1{fill:none;stroke:#FFFFFF;stroke-width:2;stroke-miterlimit:10;}
	.st2{fill:#8B7AB7;}
	.st3{fill:#643E4C;}
	.st4{fill:#8FC037;}
	.st5{fill:#FFFFFF;}
	.st6{fill:#66589F;}
</style>
<title>eggplant</title>
<path class="st0" d="M15.2,1h42.5c7.8,0,14.2,6.3,14.2,14.2v42.5c0,7.8-6.3,14.2-14.2,14.2H15.2C7.3,71.9,1,65.5,1,57.7V15.2
	C1,7.3,7.3,1,15.2,1z"/>
<path class="st1" d="M15.2,1h42.5c7.8,0,14.2,6.3,14.2,14.2v42.5c0,7.8-6.3,14.2-14.2,14.2H15.2C7.3,71.9,1,65.5,1,57.7V15.2
	C1,7.3,7.3,1,15.2,1z"/>
<path class="st2" d="M40.5,29.5c-2.3,1.7-5.2,2.5-8.1,2.2c-5.9-0.6-9.6,3.6-9.6,8s4.3,8.5,9.6,8c9-1,15.3-8.3,17.1-14.3
	c-0.1-1.8-1.1-3.4-2.6-4.3C44.1,27.2,40.5,29.5,40.5,29.5z"/>
<path class="st3" d="M31.4,48.5c-2.4,0-4.7-0.9-6.5-2.5c-1.8-1.6-2.9-3.9-3-6.3c0-2.5,1.1-4.9,2.9-6.5c2.1-1.8,4.8-2.6,7.6-2.2
	c2.7,0.3,5.4-0.5,7.6-2.1c0.3-0.2,0.8-0.1,1,0.2c0.2,0.3,0.1,0.8-0.2,1c-2.5,1.8-5.5,2.7-8.6,2.4c-2.3-0.3-4.7,0.3-6.4,1.9
	c-1.5,1.4-2.4,3.3-2.4,5.4c0,2,0.9,3.9,2.5,5.2c1.7,1.5,4,2.3,6.3,2c8.3-0.9,14.6-7.6,16.5-13.8c0.1-0.4,0.6-0.6,1-0.5
	c0.4,0.1,0.6,0.5,0.5,0.9c-2.1,6.6-8.8,13.8-17.8,14.8C32.1,48.4,31.8,48.5,31.4,48.5z"/>
<path class="st4" d="M52.4,31.7c-1-0.4-1.7-1.5-1.7-2.6c0.1-1.6-0.9-3.1-2.3-3.6c-1.6-0.5-3.4-0.1-4.6,1.1c-2,2-4.7,0.6-4.7,0.6
	c0,1.1,0.7,2.2,1.8,2.5c1.1,0.5,2.4,0.7,3.6,0.4c-0.2,1.8-0.4,5.3-0.4,5.3l3.2-4c0.3,0.8,0.9,1.5,1.7,1.9c1.1,0.5,1.8-0.3,2.8,0.2
	c1.2,0.5,1.1,1.3,1.1,1.3S53.8,32.2,52.4,31.7z"/>
<path class="st3" d="M44,36.1c-0.4,0-0.8-0.3-0.8-0.8c0,0,0,0,0,0c0-0.1,0.2-2.5,0.3-4.4c-1.1,0.1-2.1-0.1-3.1-0.6
	c-1.3-0.5-2.2-1.8-2.2-3.3c0-0.2,0.2-0.5,0.4-0.6c0.2-0.1,0.5-0.1,0.7,0c1.3,0.6,2.8,0.4,3.8-0.5c1.4-1.4,3.5-1.9,5.3-1.3
	c1.8,0.7,2.9,2.4,2.8,4.3c0,0.8,0.4,1.6,1.2,1.9c0.5,0.2,0.9,0.5,1.1,1c0.3,1,0.2,2.1-0.3,3c-0.2,0.3-0.7,0.4-1.1,0.1
	c-0.2-0.1-0.3-0.3-0.3-0.5l0,0c0,0,0-0.3-0.7-0.6c-0.3-0.1-0.6-0.1-0.8,0c-0.6,0.2-1.3,0.1-1.9-0.1c-0.6-0.3-1.1-0.7-1.5-1.2
	l-2.5,3.2C44.6,36,44.3,36.1,44,36.1z M44.4,29.4c0.4,0,0.7,0.3,0.7,0.7c0,0,0,0.1,0,0.1C45.1,30.9,45,32,45,33l1.7-2.1
	c0.2-0.3,0.7-0.4,1.1-0.1c0.1,0.1,0.2,0.2,0.2,0.3c0.2,0.7,0.7,1.2,1.3,1.5c0.3,0.1,0.7,0.1,1,0c0.6-0.2,1.2-0.1,1.7,0.1
	c0.1,0.1,0.3,0.1,0.4,0.2c0-0.1,0-0.3-0.1-0.4c0-0.1-0.1-0.2-0.2-0.2c-1.3-0.5-2.2-1.8-2.2-3.3c0.1-1.3-0.7-2.4-1.9-2.9
	c-1.3-0.4-2.8,0-3.8,0.9c-1.1,1.1-2.6,1.5-4.1,1.2c0.3,0.3,0.6,0.6,1,0.8c1,0.4,2.1,0.6,3.1,0.3L44.4,29.4z"/>
<path class="st5" d="M27.9,36.6c-0.2,0-0.5-0.1-0.6-0.3c-0.2-0.3-0.2-0.8,0.2-1c1.3-0.9,2.9-1.4,4.5-1.4c0.4,0,0.8,0.3,0.8,0.8
	s-0.3,0.8-0.8,0.8c-1.3,0-2.5,0.4-3.5,1.1C28.2,36.5,28.1,36.6,27.9,36.6z"/>
<path class="st5" d="M26,38.9c-0.1,0-0.2,0-0.3-0.1c-0.4-0.2-0.5-0.6-0.3-1c0.1-0.3,0.3-0.5,0.4-0.8c0.2-0.4,0.7-0.5,1-0.3
	c0.4,0.2,0.5,0.7,0.3,1c0,0,0,0.1-0.1,0.1c-0.1,0.2-0.2,0.4-0.3,0.6C26.6,38.7,26.3,38.9,26,38.9z"/>
<path class="st6" d="M39.7,43.5c-0.1,0-0.1,0-0.2,0c-0.3-0.1-0.4-0.4-0.3-0.7c0,0,0,0,0,0c0.5-1,0.5-2.2,0.1-3.2
	c-0.1-0.3,0.1-0.5,0.3-0.6c0.3-0.1,0.5,0.1,0.6,0.3c0.3,0.8,0.3,1.6,0.2,2.5c-0.1,0.5-0.2,1-0.4,1.4C40.1,43.4,39.9,43.5,39.7,43.5z
	"/>
<path class="st6" d="M38.6,37.7c-0.1,0-0.3-0.1-0.4-0.2c-0.2-0.2-0.4-0.4-0.7-0.6c-0.2-0.2-0.2-0.5-0.1-0.7c0.2-0.2,0.5-0.2,0.7-0.1
	c0.3,0.2,0.5,0.5,0.8,0.7c0.2,0.2,0.2,0.5,0,0.7c0,0,0,0,0,0C38.9,37.6,38.7,37.7,38.6,37.7z"/>
<path class="st3" d="M48.8,25.9c-0.2,0-0.4-0.1-0.5-0.3c-0.5-1.3-0.6-3.1,0.4-4c0.4-0.4,1-0.7,1.5-0.7c0.3,0,0.5,0.2,0.5,0.5
	c0,0,0,0,0,0c0,0.3-0.2,0.5-0.5,0.5c0,0,0,0,0,0c-0.4,0-0.7,0.2-0.9,0.5c-0.7,0.6-0.5,1.9-0.2,2.9c0.1,0.3,0,0.5-0.3,0.6
	c0,0,0,0,0,0C48.9,25.9,48.9,25.9,48.8,25.9z"/>
<g>
	<path class="st5" d="M19.6,56.4H21l1.7,4.4h-1.3l-0.3-0.9h-1.6l-0.3,0.9h-1.2L19.6,56.4z M20.3,57.3L20.3,57.3L19.7,59h1.1
		L20.3,57.3z"/>
	<path class="st5" d="M26.9,59.1c0,1.2-0.8,1.7-1.9,1.7s-1.9-0.5-1.9-1.7v-2.7h1.2v2.5c0,0.6,0.2,1.1,0.8,1.1c0.6,0,0.8-0.5,0.8-1.1
		v-2.5h1.2V59.1z"/>
	<path class="st5" d="M27.6,56.4h2c0.8,0,1.4,0.4,1.4,1.1c0,0.6-0.3,0.9-0.8,1v0c0.6,0.1,0.9,0.4,0.9,1c0,1-0.9,1.3-1.7,1.3h-1.8
		V56.4z M28.8,58.2h0.3c0.4,0,0.8-0.1,0.8-0.5c0-0.4-0.4-0.4-0.8-0.4h-0.3V58.2z M28.8,60h0.3c0.4,0,0.9-0.1,0.9-0.5
		c0-0.5-0.5-0.5-0.9-0.5h-0.4V60z"/>
	<path class="st5" d="M31.8,56.4h3.1v0.8h-1.9v0.9h1.8V59h-1.8v1h2v0.8h-3.1V56.4z"/>
	<path class="st5" d="M35.6,56.4h2.1c0.8,0,1.4,0.4,1.4,1.1c0,0.6-0.3,1-0.8,1.1v0c0.4,0.1,0.4,0.4,0.6,1l0.4,1.2h-1.2L37.8,60
		c-0.2-0.8-0.4-0.9-0.8-0.9h-0.2v1.7h-1.2V56.4z M36.8,58.2h0.3c0.4,0,0.9,0,0.9-0.5c0-0.4-0.4-0.5-0.9-0.5h-0.3V58.2z"/>
	<path class="st5" d="M43.8,60.7c-0.7,0.2-1.3,0.2-1.7,0.2c-1.2,0-2.5-0.6-2.5-2.2c0-1.6,1.2-2.3,2.8-2.3c0.3,0,0.9,0,1.3,0.2
		l-0.1,1c-0.4-0.2-0.8-0.3-1.1-0.3c-0.9,0-1.7,0.4-1.7,1.4c0,0.9,0.6,1.4,1.5,1.4c0.2,0,0.3,0,0.4-0.1v-0.9H42v-0.8h1.8V60.7z"/>
	<path class="st5" d="M44.7,56.4h1.2v4.4h-1.2V56.4z"/>
	<path class="st5" d="M46.8,56.4h1.5l1.5,3h0l0-3h1.1v4.4h-1.4l-1.5-3h0l0,3h-1.1V56.4z"/>
	<path class="st5" d="M51.6,56.4h3.1v0.8h-1.9v0.9h1.8V59h-1.8v1h2v0.8h-3.1V56.4z"/>
</g>
</svg>
