<svg xmlns="http://www.w3.org/2000/svg" viewBox="0 0 72.87 72.87"><defs><style>.a{fill:#ece97c;}.b{fill:none;stroke:#fff;stroke-miterlimit:10;stroke-width:2px;}.c{fill:#8fc037;}.d{fill:#c4d985;}.e{fill:#643e4c;}.f{fill:#fff;}.g{fill:#b58059;}</style></defs><title>avocado</title><rect class="a" x="1" y="1" width="70.87" height="70.87" rx="14.17"/><rect class="b" x="1" y="1" width="70.87" height="70.87" rx="14.17"/><path class="c" d="M29,49.79a13.19,13.19,0,0,0,15.5,5.49c4.58-1.64,7.76-5.9,8.13-9.5A15,15,0,0,1,52.86,43c.71-3.23,2.25-4.42,3-6.38a8.79,8.79,0,0,0-2.51-8.93Z" transform="translate(-5.95 -5.82)"/><path class="d" d="M46.08,48c1.92-3.88,3.15-7.84,6.25-10.85l.7-.7c2.88-2.88,2.88-6.15,0-9s-6.16-2.89-9,0c0,0,.23-.22-.5.53-2.61,2.69-7.25,4.71-10.68,6.24a10,10,0,0,0-3.67,2.76,10.18,10.18,0,0,0,15,13.74A10,10,0,0,0,46.08,48Z" transform="translate(-5.95 -5.82)"/><path class="e" d="M37,54.38h-.6a10.88,10.88,0,0,1-8-4.11,10.94,10.94,0,0,1,4.1-16.8l.3-.13c3.26-1.45,7.72-3.43,10.15-5.94.22-.22.34-.36.42-.43a.31.31,0,0,1,.09-.11c3.16-3.17,6.93-3.17,10.1,0s3.16,6.93,0,10.1l-.71.7c-2.26,2.19-3.49,4.93-4.79,7.84-.42.93-.84,1.87-1.3,2.8h0a11.15,11.15,0,0,1-2.07,2.89A11,11,0,0,1,37,54.38ZM44.5,27.93c-.13.15-.29.31-.47.5-2.63,2.72-7.25,4.77-10.62,6.27l-.3.13a9.35,9.35,0,0,0-3.39,2.57,9.52,9.52,0,0,0-.15,11.92,9.35,9.35,0,0,0,6.86,3.55,9.48,9.48,0,0,0,7.19-2.75,9.11,9.11,0,0,0,1.79-2.49h0c.45-.92.87-1.84,1.28-2.76,1.36-3,2.65-5.91,5.11-8.3l.7-.69c2.6-2.6,2.6-5.36,0-8s-5.36-2.61-8,0h0Z" transform="translate(-5.95 -5.82)"/><path class="f" d="M42.81,32.48a.75.75,0,0,1-.43-1.36,17.1,17.1,0,0,0,2.37-2,5.24,5.24,0,0,0,.4-.46.86.86,0,0,1,.2-.18A4.25,4.25,0,0,1,49.07,27a.75.75,0,0,1-.25,1.47c-.5-.08-1.3,0-2.53,1.18l-.07.06-.39.44a18.29,18.29,0,0,1-2.59,2.17A.69.69,0,0,1,42.81,32.48Z" transform="translate(-5.95 -5.82)"/><path class="f" d="M39,34.77a.73.73,0,0,1-.66-.4.75.75,0,0,1,.32-1l1.2-.65a.76.76,0,0,1,1,.29.75.75,0,0,1-.29,1l-1.25.67A.72.72,0,0,1,39,34.77Z" transform="translate(-5.95 -5.82)"/><path class="g" d="M41,47.71c2.29-2.29,2.16-10.45,2.16-10.45S35,37.13,32.7,39.42A5.86,5.86,0,0,0,41,47.71Z" transform="translate(-5.95 -5.82)"/><path class="e" d="M36.84,50.17a6.6,6.6,0,0,1-4.67-11.28c2.44-2.45,10.11-2.39,11-2.38a.74.74,0,0,1,.73.74c0,.87.07,8.54-2.37,11h0A6.61,6.61,0,0,1,36.84,50.17ZM42.39,38c-2.57,0-7.64.41-9.16,1.94a5.11,5.11,0,1,0,7.22,7.22h0C42,45.65,42.36,40.58,42.39,38Z" transform="translate(-5.95 -5.82)"/><path class="f" d="M34,45.13a.74.74,0,0,1-.71-.53,3.56,3.56,0,0,1-.16-1.17.77.77,0,0,1,.76-.73.75.75,0,0,1,.74.77,2.11,2.11,0,0,0,.09.7.74.74,0,0,1-.5.93A.78.78,0,0,1,34,45.13Z" transform="translate(-5.95 -5.82)"/><path class="f" d="M35.12,41.9a.75.75,0,0,1-.39-1.39,9,9,0,0,1,3.87-.9.75.75,0,0,1,.1,1.5,7.91,7.91,0,0,0-3.19.68A.79.79,0,0,1,35.12,41.9Z" transform="translate(-5.95 -5.82)"/><path class="e" d="M40.21,56.74a13.81,13.81,0,0,1-11.87-6.56.75.75,0,0,1,1.28-.79,12.41,12.41,0,0,0,14.61,5.18c4.53-1.62,7.31-5.78,7.63-8.87,0-.31,0-.57,0-.83a9.07,9.07,0,0,1,.23-2,13.12,13.12,0,0,1,2-4.56,11,11,0,0,0,1-1.92,8,8,0,0,0-2.32-8.11.75.75,0,1,1,1-1.11,9.54,9.54,0,0,1,2.71,9.76,12.64,12.64,0,0,1-1.17,2.18,11.67,11.67,0,0,0-1.8,4.09,7.49,7.49,0,0,0-.19,1.71,8.08,8.08,0,0,1,0,1C53,49.49,49.9,54.13,44.73,56A13.4,13.4,0,0,1,40.21,56.74Z" transform="translate(-5.95 -5.82)"/><path class="e" d="M53.77,28.07a.78.78,0,0,1-.56-.25.76.76,0,0,1,.07-1.06,4.34,4.34,0,0,0,1.38-2.48,4.23,4.23,0,0,0-.21-2.16.75.75,0,1,1,1.4-.52,5.68,5.68,0,0,1,.29,2.92,5.8,5.8,0,0,1-1.87,3.36A.78.78,0,0,1,53.77,28.07Z" transform="translate(-5.95 -5.82)"/><path class="f" d="M27.74,65.76l-.33.81h-1l1.83-4.2h1l1.8,4.2H30l-.33-.81Zm1-2.4L28.05,65h1.33Z" transform="translate(-5.95 -5.82)"/><path class="f" d="M32.57,66.57l-1.64-4.2h1l1.14,3.17,1.15-3.17h1l-1.67,4.2Z" transform="translate(-5.95 -5.82)"/><path class="f" d="M40.12,64.47a2.26,2.26,0,0,1-4.51,0,2.26,2.26,0,0,1,4.51,0Zm-3.54,0a1.31,1.31,0,0,0,1.29,1.32,1.31,1.31,0,1,0-1.29-1.32Z" transform="translate(-5.95 -5.82)"/><path class="f" d="M44.47,63l-.56.67a1.5,1.5,0,0,0-1.09-.54,1.29,1.29,0,0,0,0,2.58,1.61,1.61,0,0,0,1.09-.49l.56.61a2.46,2.46,0,0,1-1.7.74,2.14,2.14,0,1,1,0-4.27A2.39,2.39,0,0,1,44.47,63Z" transform="translate(-5.95 -5.82)"/><path class="f" d="M46.06,65.76l-.33.81h-1l1.82-4.2h1l1.79,4.2h-1L48,65.76Zm1-2.4L46.38,65H47.7Z" transform="translate(-5.95 -5.82)"/><path class="f" d="M51.81,62.37a2.1,2.1,0,1,1,0,4.2H50v-4.2ZM51,65.78h.85a1.21,1.21,0,0,0,1.22-1.3,1.24,1.24,0,0,0-1.26-1.31H51Z" transform="translate(-5.95 -5.82)"/><path class="f" d="M59,64.47a2.25,2.25,0,1,1-2.25-2.13A2.16,2.16,0,0,1,59,64.47Zm-3.53,0a1.31,1.31,0,0,0,1.29,1.32,1.31,1.31,0,1,0-1.29-1.32Z" transform="translate(-5.95 -5.82)"/></svg>