<svg xmlns="http://www.w3.org/2000/svg" viewBox="0 0 72.87 72.87"><defs><style>.a{fill:#f6a025;}.b{fill:none;stroke:#fff;stroke-miterlimit:10;stroke-width:2px;}.c{fill:#ffe943;}.d{fill:#643e4c;}.e{fill:#fff;}</style></defs><title>banana</title><rect class="a" x="1" y="1" width="70.87" height="70.87" rx="14.17"/><rect class="b" x="1" y="1" width="70.87" height="70.87" rx="14.17"/><path class="c" d="M59.09,36.57a12.4,12.4,0,0,0-8.87-7.35V23.78H48.09V28l-1,1.88a15.1,15.1,0,0,1-8,6.2,19.26,19.26,0,0,1-10.31,0l-2.43-1.83-1.48,1.58,2.65,2.13a16.23,16.23,0,0,0,3.7,4.46c1.89,1.34,5.29,1.56,8.66.69a20.47,20.47,0,0,1-5.49,2l-3-.5-.59,2.09,3.34.66a16,16,0,0,0,5.33,2.25c3.8.53,9.83-3.58,12-8.92a12,12,0,0,0,.88-4,15.11,15.11,0,0,1,.8,5.09,19.24,19.24,0,0,1-3.32,9.75L47.3,53.3l1,1.91,2.86-1.83a16.09,16.09,0,0,0,5.41-2.06C59.7,49.07,61.22,41.93,59.09,36.57Z" transform="translate(-6.03 -5.82)"/><path class="a" d="M37.91,42a.75.75,0,0,1-.08-1.5A17.72,17.72,0,0,0,44.54,38a.75.75,0,1,1,.92,1.18A18.54,18.54,0,0,1,38,42Z" transform="translate(-6.03 -5.82)"/><path class="d" d="M40.15,50.43a7,7,0,0,1-.8,0,16.33,16.33,0,0,1-5.52-2.29l-3.19-.64a.7.7,0,0,1-.49-.34.77.77,0,0,1-.09-.59l.59-2.09a.75.75,0,0,1,.84-.54l2.86.48A18.52,18.52,0,0,0,43,39.86c4.65-4.7,4.36-11.74,4.36-11.81a.75.75,0,0,1,.68-.81.73.73,0,0,1,.81.68c.14,1.59-.27,8.44-4.78,13a19.83,19.83,0,0,1-9.55,5,.57.57,0,0,1-.26,0l-2.33-.38-.18.65,2.53.51a.64.64,0,0,1,.27.11,15.41,15.41,0,0,0,5,2.13c3.3.47,9.14-3.36,11.21-8.47a11.54,11.54,0,0,0-1.09-10.66l-.1-.17a.76.76,0,0,1,.28-1,.75.75,0,0,1,1,.28L51,29a13,13,0,0,1,1.19,12C50.08,46.09,44.46,50.43,40.15,50.43Z" transform="translate(-6.03 -5.82)"/><path class="d" d="M35.93,44.36A9.05,9.05,0,0,1,30.76,43a16.47,16.47,0,0,1-3.84-4.57l-2.54-2a.79.79,0,0,1-.28-.53.75.75,0,0,1,.21-.57l1.47-1.58a.76.76,0,0,1,1-.09l2.32,1.75a18.52,18.52,0,0,0,9.74,0,14.25,14.25,0,0,0,8.55-7.65.76.76,0,0,1,1-.41.75.75,0,0,1,.41,1,15.89,15.89,0,0,1-9.48,8.5,19.8,19.8,0,0,1-10.76,0,1,1,0,0,1-.23-.12l-1.89-1.42-.47.5,2,1.62a.67.67,0,0,1,.19.22,15.33,15.33,0,0,0,3.47,4.21c1.67,1.18,4.83,1.41,8.05.57a.75.75,0,1,1,.37,1.45A16.46,16.46,0,0,1,35.93,44.36Z" transform="translate(-6.03 -5.82)"/><path class="d" d="M48.32,56a.69.69,0,0,1-.2,0,.76.76,0,0,1-.47-.37l-1-1.91a.75.75,0,0,1,.24-1L49.27,51a18.59,18.59,0,0,0,3.11-9.22A14.23,14.23,0,0,0,51.61,37,.75.75,0,1,1,53,36.47a15.89,15.89,0,0,1,.85,5.37A19.91,19.91,0,0,1,50.42,52a.8.8,0,0,1-.19.18l-2,1.34.33.6,2.18-1.39a.63.63,0,0,1,.27-.1,15.72,15.72,0,0,0,5.1-1.94c2.71-2,4.27-8.74,2.24-13.86A11.3,11.3,0,0,0,50.25,30L50,29.93A.75.75,0,0,1,49.5,29a.77.77,0,0,1,.93-.51l.21.06a12.79,12.79,0,0,1,9.14,7.74C62,41.74,60.61,49.34,57,51.93a16.36,16.36,0,0,1-5.56,2.16l-2.75,1.75A.72.72,0,0,1,48.32,56Z" transform="translate(-6.03 -5.82)"/><path class="d" d="M50.22,30a.75.75,0,0,1-.75-.75V24.53h-.63V28a.75.75,0,0,1-1.5,0V23.78a.75.75,0,0,1,.75-.75h2.13a.75.75,0,0,1,.75.75v5.43A.74.74,0,0,1,50.22,30Z" transform="translate(-6.03 -5.82)"/><path class="a" d="M45.72,45.16a.75.75,0,0,1-.49-1.32A13.94,13.94,0,0,0,48.31,40a13.16,13.16,0,0,0,1.3-3.72.75.75,0,1,1,1.47.27,14.6,14.6,0,0,1-1.44,4.15A15.2,15.2,0,0,1,46.22,45,.75.75,0,0,1,45.72,45.16Z" transform="translate(-6.03 -5.82)"/><path class="a" d="M40.28,48.16a.74.74,0,0,1-.71-.54.74.74,0,0,1,.5-.93,15,15,0,0,0,2.32-.93.75.75,0,0,1,1,.32.76.76,0,0,1-.33,1,15,15,0,0,1-2.57,1A.54.54,0,0,1,40.28,48.16Z" transform="translate(-6.03 -5.82)"/><path class="a" d="M55.47,50.22a.69.69,0,0,1-.41-.13.74.74,0,0,1-.21-1,13.18,13.18,0,0,0,.68-1.14.75.75,0,0,1,1-.32.76.76,0,0,1,.32,1c-.23.43-.49.86-.76,1.27A.77.77,0,0,1,55.47,50.22Z" transform="translate(-6.03 -5.82)"/><path class="a" d="M57.45,45.55l-.16,0a.75.75,0,0,1-.58-.89,12.51,12.51,0,0,0,0-5.38,12.31,12.31,0,0,0-2.06-4.47.74.74,0,0,1,.16-1,.75.75,0,0,1,1,.16,13.75,13.75,0,0,1,2.31,5,14,14,0,0,1,0,6A.75.75,0,0,1,57.45,45.55Z" transform="translate(-6.03 -5.82)"/><path class="a" d="M34.84,41.84l-.14,0a12.25,12.25,0,0,1-1.33-.32.76.76,0,0,1-.49-.94.74.74,0,0,1,.94-.49,11.33,11.33,0,0,0,1.15.28.75.75,0,0,1-.13,1.49Z" transform="translate(-6.03 -5.82)"/><path class="e" d="M30.44,62.15c.93,0,1.5.4,1.5,1.05a.91.91,0,0,1-.72.92,1,1,0,0,1,.87,1.06c0,.72-.6,1.17-1.58,1.17h-2v-4.2Zm-1,1.69h.94c.35,0,.57-.17.57-.47s-.22-.45-.57-.45h-.94Zm0,1.73h.94c.45,0,.72-.18.72-.51s-.27-.49-.72-.49h-.94Z" transform="translate(-6.03 -5.82)"/><path class="e" d="M33.85,65.53l-.33.82h-1l1.83-4.2h1l1.79,4.2h-1l-.32-.82Zm1-2.39-.67,1.63h1.33Z" transform="translate(-6.03 -5.82)"/><path class="e" d="M40.76,66.35l-2-2.7v2.7h-.9v-4.2h.86l2,2.7v-2.7h.9v4.2Z" transform="translate(-6.03 -5.82)"/><path class="e" d="M43.61,65.53l-.33.82h-1l1.82-4.2h1l1.79,4.2h-1l-.33-.82Zm1-2.39-.66,1.63h1.32Z" transform="translate(-6.03 -5.82)"/><path class="e" d="M50.52,66.35l-2-2.7v2.7h-.91v-4.2h.86l2,2.7v-2.7h.9v4.2Z" transform="translate(-6.03 -5.82)"/><path class="e" d="M53.38,65.53l-.33.82h-1l1.82-4.2h1l1.79,4.2h-1l-.33-.82Zm1-2.39-.66,1.63H55Z" transform="translate(-6.03 -5.82)"/></svg>