<svg xmlns="http://www.w3.org/2000/svg" viewBox="0 0 72.87 72.87"><defs><style>.a{fill:#ece97c;}.b{fill:none;stroke:#fff;stroke-miterlimit:10;stroke-width:2px;}.c{fill:#66589f;}.d{fill:#fff;}.e{fill:#643e4c;}.f{fill:#8fc037;}</style></defs><title>beetroot</title><rect class="a" x="1" y="1" width="70.87" height="70.87" rx="14.17"/><rect class="b" x="1" y="1" width="70.87" height="70.87" rx="14.17"/><path class="c" d="M54.67,39.74c0-6.83-5.53-9.08-12.36-9.08S30,32.91,30,39.74A12.34,12.34,0,0,0,40.72,52h-.1l1.69,2.89L44,52h-.09A12.34,12.34,0,0,0,54.67,39.74Z" transform="translate(-5.95 -5.82)"/><path class="d" d="M42.08,31a20.81,20.81,0,0,0-5.17.58c-2.3.59-3.94,1.51-3.87,1.71s1.09-.29,2.25.21c.64.28.64.56,1.16.87,1.46.88,2.06.47,3.75,1,1,.33,1.61,0,2.81.59a5.08,5.08,0,0,0,1.86.58A6.25,6.25,0,0,0,48,35.44a8.32,8.32,0,0,0,2.08-1.59c.43-.49.67-.77.62-1.08s-.35-.81-3.2-1.33A27.1,27.1,0,0,0,42.08,31Z" transform="translate(-5.95 -5.82)"/><path class="e" d="M39.74,35.93l-.34,0a2,2,0,0,1-.93-.4.82.82,0,0,0-.36-.18.76.76,0,0,0-.5.07,2.37,2.37,0,0,1-1.25.15,2.22,2.22,0,0,1-1.18-.61,2.11,2.11,0,0,0-.5-.35,2.7,2.7,0,0,0-1.85-.09A.75.75,0,0,1,32.49,33a4.24,4.24,0,0,1,2.85.21,3.44,3.44,0,0,1,.82.57.76.76,0,0,0,.94.18,2.19,2.19,0,0,1,1.34-.12,2.11,2.11,0,0,1,.89.41.53.53,0,0,0,.3.14,1.18,1.18,0,0,0,.83-.25.75.75,0,1,1,.82,1.26A2.86,2.86,0,0,1,39.74,35.93Z" transform="translate(-5.95 -5.82)"/><path class="e" d="M44.24,37.74a3.59,3.59,0,0,1-1.82-.57.75.75,0,1,1,.77-1.29,1.75,1.75,0,0,0,1.29.33.73.73,0,0,0,.36-.23,2.9,2.9,0,0,1,1-.59,2.69,2.69,0,0,1,1.37-.13c.26,0,.31,0,.43,0s.11-.08.2-.23a2.38,2.38,0,0,1,.83-.92,3.08,3.08,0,0,1,.83-.39,1,1,0,0,0,.39-.2,1.33,1.33,0,0,0,.36-.64.75.75,0,0,1,.92-.53.75.75,0,0,1,.53.92,2.86,2.86,0,0,1-.79,1.35,2.4,2.4,0,0,1-.93.52,1.57,1.57,0,0,0-.48.22,1,1,0,0,0-.36.41,1.88,1.88,0,0,1-.77.8,2,2,0,0,1-1.33.22,1.36,1.36,0,0,0-.71,0,1.44,1.44,0,0,0-.51.32,2.33,2.33,0,0,1-1,.54A2.57,2.57,0,0,1,44.24,37.74Z" transform="translate(-5.95 -5.82)"/><path class="e" d="M43,33.93a.78.78,0,0,1-.64-.35.76.76,0,0,1,.24-1A3.29,3.29,0,0,1,44.13,32a2.81,2.81,0,0,1,.87.09.62.62,0,0,0,.35,0,3.65,3.65,0,0,0,.76-.44c.31-.2.55-.38.72-.5a.75.75,0,0,1,1.05.13.76.76,0,0,1-.14,1.06c-.18.14-.46.34-.81.57a3.92,3.92,0,0,1-1.23.64,2.06,2.06,0,0,1-1,0,1.52,1.52,0,0,0-.44,0,1.85,1.85,0,0,0-.81.29A.77.77,0,0,1,43,33.93Z" transform="translate(-5.95 -5.82)"/><path class="e" d="M32.9,41.91a6.22,6.22,0,0,1-.86-.06,6,6,0,0,1-1.66-.52.76.76,0,0,1-.34-1A.75.75,0,0,1,31,40a4.09,4.09,0,0,0,1.23.38,3.81,3.81,0,0,0,1.26,0,.75.75,0,0,1,.85.63.76.76,0,0,1-.63.86A6.07,6.07,0,0,1,32.9,41.91Z" transform="translate(-5.95 -5.82)"/><path class="e" d="M42.46,46.59h-.28a3.62,3.62,0,0,1-1.92-.74.75.75,0,1,1,.9-1.19,2.08,2.08,0,0,0,1.14.43,2.19,2.19,0,0,0,1.37-.36.74.74,0,0,1,1,.2.75.75,0,0,1-.2,1A3.77,3.77,0,0,1,42.46,46.59Z" transform="translate(-5.95 -5.82)"/><path class="e" d="M50,43h-.31a.75.75,0,0,1-.7-.8.76.76,0,0,1,.81-.69,2.67,2.67,0,0,0,1.33-.25,2.5,2.5,0,0,0,.77-.56.75.75,0,1,1,1.09,1A4,4,0,0,1,50,43Z" transform="translate(-5.95 -5.82)"/><path class="e" d="M36.19,49.56a12.79,12.79,0,0,1-1.52-.1A.75.75,0,0,1,34.86,48a9,9,0,0,0,1.55.08A8.83,8.83,0,0,0,37.5,48a.77.77,0,0,1,.85.65.76.76,0,0,1-.65.84c-.41,0-.83.08-1.25.09Z" transform="translate(-5.95 -5.82)"/><path class="e" d="M39.08,33.19A3.3,3.3,0,0,1,37.92,33a3.47,3.47,0,0,1-1.17-.76.75.75,0,0,1,0-1.06.75.75,0,0,1,1.06,0,1.88,1.88,0,0,0,.63.42,1.84,1.84,0,0,0,.89.09.75.75,0,0,1,.22,1.48A2.59,2.59,0,0,1,39.08,33.19Z" transform="translate(-5.95 -5.82)"/><polygon class="f" points="32.01 25.21 30.41 18.05 32.71 18.76 34.06 24.93 32.01 25.21"/><path class="e" d="M38,31.53a.5.5,0,0,1-.49-.39L35.88,24A.48.48,0,0,1,36,23.5a.5.5,0,0,1,.48-.11l2.3.71a.49.49,0,0,1,.34.37l1.35,6.18a.49.49,0,0,1-.08.39.51.51,0,0,1-.34.21L38,31.52ZM37,24.6l1.31,5.87,1.06-.14L38.23,25Z" transform="translate(-5.95 -5.82)"/><polygon class="f" points="39.42 24.84 41.02 17.68 38.72 18.39 37.37 24.57 39.42 24.84"/><path class="e" d="M45.38,31.16h-.07l-2.05-.28a.5.5,0,0,1-.43-.6l1.35-6.18a.5.5,0,0,1,.35-.37L46.82,23a.51.51,0,0,1,.49.11.5.5,0,0,1,.15.48l-1.6,7.16A.49.49,0,0,1,45.38,31.16ZM43.93,30,45,30.1l1.3-5.87-1.19.37Z" transform="translate(-5.95 -5.82)"/><path class="e" d="M41.09,31.07a.76.76,0,0,1-.74-.64l-1.43-9.66a.75.75,0,1,1,1.48-.22l1.43,9.66a.74.74,0,0,1-.63.85Z" transform="translate(-5.95 -5.82)"/><path class="e" d="M42.16,30.87h0a.73.73,0,0,1-.71-.78L42,20.15a.74.74,0,0,1,.79-.71.75.75,0,0,1,.71.79l-.54,9.93A.76.76,0,0,1,42.16,30.87Z" transform="translate(-5.95 -5.82)"/><path class="e" d="M42.31,55.62a.75.75,0,0,1-.64-.38l-1.52-2.59A13.12,13.12,0,0,1,29.21,39.74c0-6.43,4.53-9.83,13.1-9.83s13.11,3.4,13.11,9.83A13.12,13.12,0,0,1,44.48,52.65L43,55.24A.75.75,0,0,1,42.31,55.62Zm-.85-3.69.85,1.45.91-1.54a.68.68,0,0,1,.59-.6,11.63,11.63,0,0,0,10.11-11.5c0-5.53-3.91-8.33-11.61-8.33s-11.6,2.8-11.6,8.33a11.62,11.62,0,0,0,10.1,11.5A.74.74,0,0,1,41.46,51.93Z" transform="translate(-5.95 -5.82)"/><path class="d" d="M27.22,62.37c.93,0,1.5.41,1.5,1.05a.92.92,0,0,1-.72.93,1,1,0,0,1,.87,1.06c0,.72-.6,1.16-1.58,1.16h-2v-4.2Zm-1,1.7h.93c.36,0,.58-.18.58-.47s-.22-.45-.58-.45h-.93Zm0,1.73h.93c.45,0,.72-.19.72-.51s-.27-.49-.72-.49h-.93Z" transform="translate(-5.95 -5.82)"/><path class="d" d="M30.75,63.16v.91h2v.79h-2v.93h2.32v.78H29.8v-4.2H33v.79Z" transform="translate(-5.95 -5.82)"/><path class="d" d="M35,63.16v.91h2v.79H35v.93h2.31v.78H34.05v-4.2h3.2v.79Z" transform="translate(-5.95 -5.82)"/><path class="d" d="M40.11,63.18v3.39h-1V63.18H37.89v-.81h3.5v.81Z" transform="translate(-5.95 -5.82)"/><path class="d" d="M44.06,65.37h-1v1.2h-.94v-4.2H44c1.1,0,1.72.53,1.72,1.46a1.39,1.39,0,0,1-.79,1.36l.9,1.38H44.72ZM44,64.58c.52,0,.82-.24.82-.72s-.3-.7-.82-.7h-.88v1.42Z" transform="translate(-5.95 -5.82)"/><path class="d" d="M50.94,64.47a2.26,2.26,0,1,1-2.26-2.13A2.16,2.16,0,0,1,50.94,64.47Zm-3.54,0a1.31,1.31,0,0,0,1.3,1.32,1.31,1.31,0,1,0-1.3-1.32Z" transform="translate(-5.95 -5.82)"/><path class="d" d="M55.91,64.47a2.26,2.26,0,1,1-2.26-2.13A2.16,2.16,0,0,1,55.91,64.47Zm-3.54,0a1.31,1.31,0,0,0,1.29,1.32,1.31,1.31,0,1,0-1.29-1.32Z" transform="translate(-5.95 -5.82)"/><path class="d" d="M58.46,63.18v3.39h-.94V63.18H56.24v-.81h3.51v.81Z" transform="translate(-5.95 -5.82)"/></svg>