<svg xmlns="http://www.w3.org/2000/svg" viewBox="0 0 72.87 72.87"><defs><style>.a{fill:#ece97c;}.b{fill:none;stroke:#fff;stroke-miterlimit:10;stroke-width:2px;}.c{fill:#8fc037;}.d{fill:#643e4c;}.e{fill:#8b7ab7;}.f{fill:#fff;}</style></defs><title>blackerry</title><rect class="a" x="1" y="1" width="70.87" height="70.87" rx="14.17"/><rect class="b" x="1" y="1" width="70.87" height="70.87" rx="14.17"/><path class="c" d="M51.56,33.55a8.74,8.74,0,0,1-.21-1.42A6.78,6.78,0,0,1,52,29.84l1.77.63a4.87,4.87,0,0,1-.24-1.9,2.87,2.87,0,0,1,1-1.76,2.85,2.85,0,0,1,1.56,1.27,4.87,4.87,0,0,1,.48,1.86L58,28.69a7,7,0,0,1,1.46,1.88,8.69,8.69,0,0,1,.43,2.68l1.77-1.19A6.89,6.89,0,0,1,62,34.38a6.5,6.5,0,0,1-1.17,3.56,5.73,5.73,0,0,1-1.46,1.31,6.44,6.44,0,0,1-1.76.8l-3.44.2Z" transform="translate(-5.95 -5.82)"/><path class="d" d="M51.34,29.51a.75.75,0,0,1,.93-.38l.53.19a4.62,4.62,0,0,1,0-.83A3.57,3.57,0,0,1,54,26.26a.74.74,0,0,1,.79-.15,3.63,3.63,0,0,1,1.95,1.62,5.39,5.39,0,0,1,.31.77l.42-.37a.75.75,0,0,1,1,0,7.27,7.27,0,0,1,1.67,2.2,10.44,10.44,0,0,1,.36,1.57l.7-.47a.75.75,0,0,1,1.13.4,7.52,7.52,0,0,1,.35,2.64l0,.27a6.73,6.73,0,0,1-1.3,3.64,6.4,6.4,0,0,1-1.64,1.49,7.22,7.22,0,0,1-2,.89.76.76,0,0,1-.93-.52.74.74,0,0,1,.52-.92,6.1,6.1,0,0,0,1.56-.71,5.14,5.14,0,0,0,1.26-1.14,5.33,5.33,0,0,0,1-2.88c0-.12,0-.23,0-.32a3.51,3.51,0,0,0-.06-1l-.86.58a.75.75,0,0,1-1.17-.64,7.94,7.94,0,0,0-.39-2.42A4,4,0,0,0,58,29.72l-.88.78A.75.75,0,0,1,55.82,30a4.1,4.1,0,0,0-.39-1.53,1.89,1.89,0,0,0-.72-.71,1.83,1.83,0,0,0-.41.92,4,4,0,0,0,.2,1.58.75.75,0,0,1-.18.78.73.73,0,0,1-.78.18l-1.11-.4a4.23,4.23,0,0,0-.33,1.3,8.32,8.32,0,0,0,.19,1.3.75.75,0,1,1-1.46.34,10.17,10.17,0,0,1-.23-1.55,6.83,6.83,0,0,1,.74-2.65Z" transform="translate(-5.95 -5.82)"/><path class="d" d="M55.36,31.94a.75.75,0,0,1,.42-.38.74.74,0,0,1,1,.44,8,8,0,0,1,.46,1.85,8.79,8.79,0,0,1-1.27,5.63.75.75,0,0,1-1.28-.79,6.84,6.84,0,0,0,.69-6.17A.78.78,0,0,1,55.36,31.94Z" transform="translate(-5.95 -5.82)"/><path class="e" d="M28.81,40.68A2.9,2.9,0,1,0,25.4,43,2.91,2.91,0,0,0,28.81,40.68Z" transform="translate(-5.95 -5.82)"/><path class="d" d="M26,43.78a3.33,3.33,0,0,1-.7-.07,3.6,3.6,0,0,1-2.33-1.54A3.65,3.65,0,1,1,29,38.09a3.57,3.57,0,0,1,.56,2.73h0A3.65,3.65,0,0,1,26,43.78ZM26,38a2.16,2.16,0,0,0-2.12,1.74,2.19,2.19,0,0,0,.33,1.61,2.12,2.12,0,0,0,1.38.91,2.15,2.15,0,0,0,2.52-1.7h0a2.16,2.16,0,0,0-.33-1.62,2.11,2.11,0,0,0-1.37-.9A2,2,0,0,0,26,38Z" transform="translate(-5.95 -5.82)"/><path class="f" d="M25.23,40.49h-.1a.51.51,0,0,1-.39-.59,1.23,1.23,0,0,1,.52-.79,1.19,1.19,0,0,1,.93-.19.49.49,0,0,1,.4.58.5.5,0,0,1-.59.4.25.25,0,0,0-.28.19A.51.51,0,0,1,25.23,40.49Z" transform="translate(-5.95 -5.82)"/><path class="e" d="M30.86,46.32a2.9,2.9,0,1,0-3.4,2.29A2.9,2.9,0,0,0,30.86,46.32Z" transform="translate(-5.95 -5.82)"/><path class="d" d="M28,49.42a3.39,3.39,0,0,1-.7-.07A3.64,3.64,0,0,1,25,47.81,3.66,3.66,0,0,1,31,43.72a3.63,3.63,0,0,1,.55,2.74h0A3.66,3.66,0,0,1,28,49.42Zm0-5.81a2.15,2.15,0,1,0,2.11,2.57h0a2.16,2.16,0,0,0-1.7-2.53A3,3,0,0,0,28,43.61Z" transform="translate(-5.95 -5.82)"/><path class="f" d="M27.28,46.12h-.09a.49.49,0,0,1-.4-.58,1.24,1.24,0,0,1,1.46-1,.49.49,0,0,1,.39.58.5.5,0,0,1-.58.4.24.24,0,0,0-.29.19A.49.49,0,0,1,27.28,46.12Z" transform="translate(-5.95 -5.82)"/><path class="e" d="M32.71,35.78a2.9,2.9,0,1,0-3.41,2.29A2.91,2.91,0,0,0,32.71,35.78Z" transform="translate(-5.95 -5.82)"/><path class="d" d="M29.86,38.88a4.26,4.26,0,0,1-.7-.07,3.65,3.65,0,1,1,1.4-7.17,3.64,3.64,0,0,1,2.88,4.28h0A3.66,3.66,0,0,1,29.86,38.88Zm0-5.81a2.16,2.16,0,0,0-1.79,3.36,2.19,2.19,0,0,0,1.38.91A2.16,2.16,0,0,0,32,35.63h0a2.16,2.16,0,0,0-1.7-2.52A2,2,0,0,0,29.86,33.07Z" transform="translate(-5.95 -5.82)"/><path class="f" d="M29.13,35.58H29a.49.49,0,0,1-.4-.58,1.25,1.25,0,0,1,.52-.8A1.3,1.3,0,0,1,30.1,34a.51.51,0,0,1,.39.59.5.5,0,0,1-.58.4.24.24,0,0,0-.29.19A.49.49,0,0,1,29.13,35.58Z" transform="translate(-5.95 -5.82)"/><path class="e" d="M34.76,41.42a2.9,2.9,0,1,0-3.4,2.29A2.91,2.91,0,0,0,34.76,41.42Z" transform="translate(-5.95 -5.82)"/><path class="d" d="M31.91,44.51a4.23,4.23,0,0,1-.7-.06,3.68,3.68,0,0,1-2.33-1.55,3.65,3.65,0,0,1,6.06-4.08,3.68,3.68,0,0,1,.56,2.74h0A3.67,3.67,0,0,1,31.91,44.51Zm0-5.8a2.15,2.15,0,0,0-2.11,1.74,2.15,2.15,0,0,0,4.22.82h0a2.16,2.16,0,0,0-1.7-2.52A1.9,1.9,0,0,0,31.91,38.71Z" transform="translate(-5.95 -5.82)"/><path class="f" d="M31.18,41.22h-.09a.5.5,0,0,1-.4-.58,1.23,1.23,0,0,1,.53-.8,1.26,1.26,0,0,1,.93-.19.49.49,0,0,1,.39.59.48.48,0,0,1-.58.39.25.25,0,0,0-.29.19A.49.49,0,0,1,31.18,41.22Z" transform="translate(-5.95 -5.82)"/><path class="e" d="M36.8,47.17a2.9,2.9,0,1,0-3.4,2.29A2.91,2.91,0,0,0,36.8,47.17Z" transform="translate(-5.95 -5.82)"/><path class="d" d="M34,50.26a4.23,4.23,0,0,1-.7-.06,3.66,3.66,0,1,1,4.28-2.89h0A3.65,3.65,0,0,1,34,50.26Zm0-5.8a2.16,2.16,0,0,0-1.79,3.36,2.17,2.17,0,0,0,1.38.9A2.14,2.14,0,0,0,36.06,47h0a2.16,2.16,0,0,0-1.7-2.52A2,2,0,0,0,34,44.46Z" transform="translate(-5.95 -5.82)"/><path class="f" d="M33.22,47h-.09a.49.49,0,0,1-.4-.58,1.25,1.25,0,0,1,.52-.8,1.3,1.3,0,0,1,.94-.19.5.5,0,0,1,.39.59.48.48,0,0,1-.58.39.25.25,0,0,0-.29.2A.49.49,0,0,1,33.22,47Z" transform="translate(-5.95 -5.82)"/><path class="e" d="M38.85,52.8a2.9,2.9,0,1,0-3.4,2.3A2.9,2.9,0,0,0,38.85,52.8Z" transform="translate(-5.95 -5.82)"/><path class="d" d="M36,55.9a3.39,3.39,0,0,1-.7-.07A3.65,3.65,0,1,1,39,50.21,3.68,3.68,0,0,1,39.59,53h0A3.67,3.67,0,0,1,36,55.9Zm0-5.8a2.15,2.15,0,0,0-1.78,3.35,2.15,2.15,0,0,0,3.89-.79h0a2.16,2.16,0,0,0-1.7-2.52A1.9,1.9,0,0,0,36,50.1Z" transform="translate(-5.95 -5.82)"/><path class="f" d="M35.27,52.61h-.09a.51.51,0,0,1-.4-.59,1.23,1.23,0,0,1,.53-.79,1.26,1.26,0,0,1,.93-.19.49.49,0,0,1,.39.59.48.48,0,0,1-.58.39.26.26,0,0,0-.29.19A.49.49,0,0,1,35.27,52.61Z" transform="translate(-5.95 -5.82)"/><path class="e" d="M42.88,48.31a2.9,2.9,0,1,0-3.41,2.3A2.9,2.9,0,0,0,42.88,48.31Z" transform="translate(-5.95 -5.82)"/><path class="d" d="M40,51.41a3.39,3.39,0,0,1-.7-.07A3.6,3.6,0,0,1,37,49.8a3.65,3.65,0,1,1,6.06-4.08,3.61,3.61,0,0,1,.55,2.73h0A3.65,3.65,0,0,1,40,51.41Zm0-5.8a2.15,2.15,0,1,0,2.11,2.56h0a2.16,2.16,0,0,0-.33-1.62,2.11,2.11,0,0,0-1.37-.9A2,2,0,0,0,40,45.61Z" transform="translate(-5.95 -5.82)"/><path class="f" d="M39.3,48.12h-.09a.51.51,0,0,1-.4-.59,1.23,1.23,0,0,1,.52-.79,1.19,1.19,0,0,1,.93-.19.49.49,0,0,1,.4.58.5.5,0,0,1-.58.4.25.25,0,0,0-.29.19A.5.5,0,0,1,39.3,48.12Z" transform="translate(-5.95 -5.82)"/><path class="e" d="M45,54a2.9,2.9,0,1,0-3.4,2.29A2.89,2.89,0,0,0,45,54Z" transform="translate(-5.95 -5.82)"/><path class="d" d="M42.17,57.14a4,4,0,0,1-.69-.07,3.65,3.65,0,1,1,4.28-2.89h0A3.67,3.67,0,0,1,42.17,57.14Zm0-5.81a2.15,2.15,0,1,0,2.11,2.57h0a2.14,2.14,0,0,0-1.7-2.53A2.85,2.85,0,0,0,42.17,51.33Z" transform="translate(-5.95 -5.82)"/><path class="f" d="M41.44,53.84h-.09a.5.5,0,0,1-.4-.58,1.22,1.22,0,0,1,.53-.79,1.18,1.18,0,0,1,.93-.19.48.48,0,0,1,.39.58.5.5,0,0,1-.58.4.25.25,0,0,0-.29.19A.49.49,0,0,1,41.44,53.84Z" transform="translate(-5.95 -5.82)"/><path class="e" d="M49,48.79a2.9,2.9,0,1,0-3.4,2.3A2.89,2.89,0,0,0,49,48.79Z" transform="translate(-5.95 -5.82)"/><path class="d" d="M46.13,51.89a3.33,3.33,0,0,1-.7-.07,3.58,3.58,0,0,1-2.33-1.54,3.65,3.65,0,1,1,6-4.08,3.57,3.57,0,0,1,.56,2.73h0A3.65,3.65,0,0,1,46.13,51.89Zm0-5.81A2.17,2.17,0,0,0,44,47.83a2.15,2.15,0,0,0,4.23.82h0a2.16,2.16,0,0,0-1.7-2.53A3,3,0,0,0,46.13,46.08Z" transform="translate(-5.95 -5.82)"/><path class="f" d="M45.4,48.6h-.1a.5.5,0,0,1-.39-.59,1.23,1.23,0,0,1,.52-.79,1.19,1.19,0,0,1,.93-.19.5.5,0,1,1-.19,1,.24.24,0,0,0-.28.19A.51.51,0,0,1,45.4,48.6Z" transform="translate(-5.95 -5.82)"/><path class="e" d="M51.21,54.23a2.9,2.9,0,1,0-3.4,2.3A2.9,2.9,0,0,0,51.21,54.23Z" transform="translate(-5.95 -5.82)"/><path class="d" d="M48.36,57.33a3.39,3.39,0,0,1-.7-.07,3.65,3.65,0,1,1,3.73-5.62A3.68,3.68,0,0,1,52,54.38h0A3.66,3.66,0,0,1,48.36,57.33Zm0-5.8a2.15,2.15,0,0,0-1.78,3.35,2.15,2.15,0,0,0,3.89-.79h0a2.12,2.12,0,0,0-1.7-2.52A1.9,1.9,0,0,0,48.36,51.53Z" transform="translate(-5.95 -5.82)"/><path class="f" d="M47.63,54h-.09a.51.51,0,0,1-.4-.59,1.24,1.24,0,0,1,.53-.79,1.22,1.22,0,0,1,.93-.19.5.5,0,0,1-.19,1,.26.26,0,0,0-.29.19A.49.49,0,0,1,47.63,54Z" transform="translate(-5.95 -5.82)"/><path class="e" d="M54.44,48.93a2.9,2.9,0,1,0-3.4,2.3A2.9,2.9,0,0,0,54.44,48.93Z" transform="translate(-5.95 -5.82)"/><path class="d" d="M51.6,52a3.33,3.33,0,0,1-.7-.07,3.58,3.58,0,0,1-2.33-1.54,3.64,3.64,0,0,1,3.72-5.62,3.65,3.65,0,0,1,2.89,4.28h0A3.65,3.65,0,0,1,51.6,52Zm0-5.8A2.16,2.16,0,0,0,49.48,48a2.15,2.15,0,0,0,4.23.82h0A2.16,2.16,0,0,0,52,46.27,2,2,0,0,0,51.6,46.23Z" transform="translate(-5.95 -5.82)"/><path class="f" d="M50.87,48.74h-.1a.49.49,0,0,1-.39-.59,1.25,1.25,0,0,1,.52-.79,1.28,1.28,0,0,1,.93-.19.51.51,0,0,1,.4.59.49.49,0,0,1-.59.39.24.24,0,0,0-.28.19A.51.51,0,0,1,50.87,48.74Z" transform="translate(-5.95 -5.82)"/><path class="e" d="M33,51.79a2.9,2.9,0,1,0-3.4,2.29A2.9,2.9,0,0,0,33,51.79Z" transform="translate(-5.95 -5.82)"/><path class="d" d="M30.16,54.88a4.14,4.14,0,0,1-.7-.06,3.67,3.67,0,0,1-2.89-4.29,3.66,3.66,0,0,1,4.28-2.88,3.65,3.65,0,0,1,2.89,4.28h0A3.65,3.65,0,0,1,30.16,54.88Zm0-5.8A2.16,2.16,0,0,0,28,50.82a2.15,2.15,0,0,0,4.23.82h0a2.16,2.16,0,0,0-1.7-2.52A2,2,0,0,0,30.16,49.08Z" transform="translate(-5.95 -5.82)"/><path class="f" d="M29.43,51.59h-.1a.48.48,0,0,1-.39-.58,1.25,1.25,0,0,1,.52-.8,1.28,1.28,0,0,1,.93-.19.51.51,0,0,1,.4.59.49.49,0,0,1-.59.39.24.24,0,0,0-.28.19A.51.51,0,0,1,29.43,51.59Z" transform="translate(-5.95 -5.82)"/><path class="e" d="M36.48,31.15a2.9,2.9,0,1,0-3.4,2.29A2.89,2.89,0,0,0,36.48,31.15Z" transform="translate(-5.95 -5.82)"/><path class="d" d="M33.63,34.25a4.26,4.26,0,0,1-.7-.07,3.65,3.65,0,1,1,4.29-2.89h0A3.67,3.67,0,0,1,33.63,34.25Zm0-5.81A2.15,2.15,0,1,0,35.74,31h0A2.14,2.14,0,0,0,34,28.48,2.85,2.85,0,0,0,33.63,28.44Z" transform="translate(-5.95 -5.82)"/><path class="f" d="M32.9,31h-.09a.5.5,0,0,1-.4-.58,1.25,1.25,0,0,1,1.46-1,.48.48,0,0,1,.39.58.5.5,0,0,1-.58.4.25.25,0,0,0-.29.19A.49.49,0,0,1,32.9,31Z" transform="translate(-5.95 -5.82)"/><path class="e" d="M38.53,36.79a2.9,2.9,0,1,0-3.4,2.29A2.9,2.9,0,0,0,38.53,36.79Z" transform="translate(-5.95 -5.82)"/><path class="d" d="M35.68,39.89a4,4,0,0,1-.69-.07,3.65,3.65,0,0,1-2.33-1.54,3.6,3.6,0,0,1-.56-2.74,3.66,3.66,0,0,1,4.28-2.89,3.58,3.58,0,0,1,2.33,1.54,3.64,3.64,0,0,1,.56,2.74h0A3.67,3.67,0,0,1,35.68,39.89Zm0-5.81a2.16,2.16,0,1,0,2.12,2.56h0a2.15,2.15,0,0,0-1.71-2.52A1.84,1.84,0,0,0,35.68,34.08Z" transform="translate(-5.95 -5.82)"/><path class="f" d="M35,36.59h-.1a.5.5,0,0,1-.4-.58,1.25,1.25,0,0,1,1.46-1,.5.5,0,1,1-.19,1,.23.23,0,0,0-.28.19A.5.5,0,0,1,35,36.59Z" transform="translate(-5.95 -5.82)"/><path class="e" d="M40.38,26.24a2.9,2.9,0,1,0-3.4,2.3A2.9,2.9,0,0,0,40.38,26.24Z" transform="translate(-5.95 -5.82)"/><path class="d" d="M37.53,29.34a4,4,0,0,1-.69-.06,3.65,3.65,0,1,1,4.28-2.89h0A3.66,3.66,0,0,1,37.53,29.34Zm0-5.8a2.15,2.15,0,0,0-2.11,1.74,2.15,2.15,0,1,0,4.22.82h0a2.14,2.14,0,0,0-1.7-2.52A1.84,1.84,0,0,0,37.53,23.54Z" transform="translate(-5.95 -5.82)"/><path class="f" d="M36.8,26.05h-.09a.5.5,0,0,1-.4-.59,1.25,1.25,0,0,1,1.46-1,.51.51,0,0,1,.4.59.5.5,0,0,1-.59.39.24.24,0,0,0-.28.19A.51.51,0,0,1,36.8,26.05Z" transform="translate(-5.95 -5.82)"/><path class="e" d="M46.47,27.23a2.9,2.9,0,1,0-3.4,2.3A2.9,2.9,0,0,0,46.47,27.23Z" transform="translate(-5.95 -5.82)"/><path class="d" d="M43.62,30.33a3.23,3.23,0,0,1-.69-.07A3.65,3.65,0,0,1,40,26a3.65,3.65,0,0,1,6.61-1.34,3.61,3.61,0,0,1,.56,2.73h0A3.66,3.66,0,0,1,43.62,30.33Zm0-5.8a2.15,2.15,0,0,0-1.78,3.35,2.15,2.15,0,0,0,3.89-.79h0A2.12,2.12,0,0,0,44,24.57,1.9,1.9,0,0,0,43.62,24.53Z" transform="translate(-5.95 -5.82)"/><path class="f" d="M42.89,27H42.8a.51.51,0,0,1-.4-.59,1.24,1.24,0,0,1,.53-.79,1.23,1.23,0,0,1,.93-.19.48.48,0,0,1,.39.58.49.49,0,0,1-.58.4.26.26,0,0,0-.29.19A.49.49,0,0,1,42.89,27Z" transform="translate(-5.95 -5.82)"/><path class="e" d="M51.68,28.78a2.9,2.9,0,1,0-3.4,2.29A2.89,2.89,0,0,0,51.68,28.78Z" transform="translate(-5.95 -5.82)"/><path class="d" d="M48.84,31.88a3.33,3.33,0,0,1-.7-.07,3.65,3.65,0,0,1-2.89-4.28,3.66,3.66,0,0,1,4.28-2.89,3.65,3.65,0,0,1,2.89,4.28h0A3.66,3.66,0,0,1,48.84,31.88Zm0-5.81a2.15,2.15,0,0,0-1.79,3.36,2.12,2.12,0,0,0,1.38.91A2.16,2.16,0,0,0,51,28.64h0a2.16,2.16,0,0,0-1.7-2.53A3,3,0,0,0,48.84,26.07Z" transform="translate(-5.95 -5.82)"/><path class="f" d="M48.11,28.58H48a.48.48,0,0,1-.39-.58,1.2,1.2,0,0,1,.52-.79,1.19,1.19,0,0,1,.93-.19.5.5,0,1,1-.19,1,.23.23,0,0,0-.28.19A.5.5,0,0,1,48.11,28.58Z" transform="translate(-5.95 -5.82)"/><path class="e" d="M53.71,34.64a2.9,2.9,0,1,0-3.41,2.3A2.91,2.91,0,0,0,53.71,34.64Z" transform="translate(-5.95 -5.82)"/><path class="d" d="M50.86,37.74a3.33,3.33,0,0,1-.7-.07,3.6,3.6,0,0,1-2.33-1.54,3.65,3.65,0,1,1,6.61-1.35h0A3.65,3.65,0,0,1,50.86,37.74Zm0-5.81a2.15,2.15,0,0,0-1.79,3.36,2.12,2.12,0,0,0,1.38.91A2.15,2.15,0,0,0,53,34.5h0A2.16,2.16,0,0,0,51.27,32,3,3,0,0,0,50.86,31.93Z" transform="translate(-5.95 -5.82)"/><path class="f" d="M50.13,34.45H50a.51.51,0,0,1-.39-.59,1.2,1.2,0,0,1,.52-.79,1.19,1.19,0,0,1,.93-.19.5.5,0,1,1-.19,1,.25.25,0,0,0-.28.19A.51.51,0,0,1,50.13,34.45Z" transform="translate(-5.95 -5.82)"/><path class="e" d="M55.86,39.33a2.9,2.9,0,1,0-3.4,2.29A2.9,2.9,0,0,0,55.86,39.33Z" transform="translate(-5.95 -5.82)"/><path class="d" d="M53,42.42a4.14,4.14,0,0,1-.7-.06A3.63,3.63,0,0,1,50,40.81a3.57,3.57,0,0,1-.56-2.73,3.66,3.66,0,0,1,4.28-2.89A3.58,3.58,0,0,1,56,36.73a3.64,3.64,0,0,1,.56,2.74h0A3.65,3.65,0,0,1,53,42.42Zm0-5.8a2.15,2.15,0,1,0,2.12,2.56h0a2.15,2.15,0,0,0-1.71-2.52A1.84,1.84,0,0,0,53,36.62Z" transform="translate(-5.95 -5.82)"/><path class="f" d="M52.29,39.13h-.1a.5.5,0,0,1-.4-.58,1.26,1.26,0,0,1,.53-.8,1.28,1.28,0,0,1,.93-.19.51.51,0,0,1,.4.59.5.5,0,0,1-.59.39.24.24,0,0,0-.28.2A.51.51,0,0,1,52.29,39.13Z" transform="translate(-5.95 -5.82)"/><path class="e" d="M57.48,44.64a2.9,2.9,0,1,0-3.4,2.29A2.91,2.91,0,0,0,57.48,44.64Z" transform="translate(-5.95 -5.82)"/><path class="d" d="M54.63,47.74a4.26,4.26,0,0,1-.7-.07,3.7,3.7,0,0,1-2.33-1.54A3.66,3.66,0,0,1,57.66,42a3.68,3.68,0,0,1,.56,2.74h0A3.67,3.67,0,0,1,54.63,47.74Zm0-5.81a2.15,2.15,0,1,0,2.11,2.56h0A2.16,2.16,0,0,0,55,42,1.9,1.9,0,0,0,54.63,41.93Z" transform="translate(-5.95 -5.82)"/><path class="f" d="M53.9,44.44h-.09a.5.5,0,0,1-.4-.58,1.23,1.23,0,0,1,.53-.8,1.26,1.26,0,0,1,.93-.19.5.5,0,0,1-.19,1,.24.24,0,0,0-.29.19A.49.49,0,0,1,53.9,44.44Z" transform="translate(-5.95 -5.82)"/><path class="e" d="M48.31,33a2.9,2.9,0,1,0-3.4,2.3A2.9,2.9,0,0,0,48.31,33Z" transform="translate(-5.95 -5.82)"/><path class="d" d="M45.46,36.14a3.39,3.39,0,0,1-.7-.07,3.62,3.62,0,0,1-2.33-1.54,3.65,3.65,0,1,1,6.06-4.08A3.61,3.61,0,0,1,49,33.18h0A3.65,3.65,0,0,1,45.46,36.14Zm0-5.8a2.15,2.15,0,0,0-2.11,1.74,2.16,2.16,0,0,0,1.7,2.52,2.15,2.15,0,0,0,2.52-1.7h0a2.16,2.16,0,0,0-.33-1.62,2.11,2.11,0,0,0-1.37-.9A2,2,0,0,0,45.46,30.34Z" transform="translate(-5.95 -5.82)"/><path class="f" d="M44.73,32.85h-.09a.51.51,0,0,1-.4-.59,1.23,1.23,0,0,1,.52-.79,1.21,1.21,0,0,1,.94-.19.49.49,0,0,1,.39.58.5.5,0,0,1-.58.4.25.25,0,0,0-.29.19A.49.49,0,0,1,44.73,32.85Z" transform="translate(-5.95 -5.82)"/><path class="e" d="M50.63,38.92a2.9,2.9,0,1,0-3.4,2.29A2.89,2.89,0,0,0,50.63,38.92Z" transform="translate(-5.95 -5.82)"/><path class="d" d="M47.79,42a3.33,3.33,0,0,1-.7-.07,3.65,3.65,0,0,1-2.89-4.28,3.66,3.66,0,0,1,4.28-2.89,3.65,3.65,0,0,1,2.89,4.28h0A3.66,3.66,0,0,1,47.79,42Zm0-5.81A2.15,2.15,0,0,0,46,39.57a2.13,2.13,0,0,0,1.37.91,2.16,2.16,0,0,0,2.53-1.7h0a2.16,2.16,0,0,0-1.7-2.53A3,3,0,0,0,47.78,36.21Z" transform="translate(-5.95 -5.82)"/><path class="f" d="M47.06,38.72H47a.48.48,0,0,1-.39-.58,1.17,1.17,0,0,1,.52-.79,1.19,1.19,0,0,1,.93-.19.5.5,0,0,1,.4.58.51.51,0,0,1-.59.4.23.23,0,0,0-.28.19A.5.5,0,0,1,47.06,38.72Z" transform="translate(-5.95 -5.82)"/><path class="e" d="M52.19,43.86a2.9,2.9,0,1,0-3.4,2.29A2.91,2.91,0,0,0,52.19,43.86Z" transform="translate(-5.95 -5.82)"/><path class="d" d="M49.34,47a4.23,4.23,0,0,1-.7-.06,3.68,3.68,0,0,1-2.33-1.55A3.65,3.65,0,1,1,52.92,44h0A3.65,3.65,0,0,1,49.34,47Zm0-5.8a2.15,2.15,0,0,0-2.11,1.74,2.08,2.08,0,0,0,.33,1.61,2.15,2.15,0,0,0,3.89-.79h0a2.09,2.09,0,0,0-.33-1.61,2.13,2.13,0,0,0-1.37-.91A1.9,1.9,0,0,0,49.34,41.15Z" transform="translate(-5.95 -5.82)"/><path class="f" d="M48.61,43.66h-.09a.5.5,0,0,1-.4-.58,1.23,1.23,0,0,1,.53-.8,1.26,1.26,0,0,1,.93-.19.49.49,0,0,1,.39.59.48.48,0,0,1-.58.39.25.25,0,0,0-.29.19A.49.49,0,0,1,48.61,43.66Z" transform="translate(-5.95 -5.82)"/><path class="e" d="M42.43,31.88a2.9,2.9,0,1,0-3.4,2.3A2.9,2.9,0,0,0,42.43,31.88Z" transform="translate(-5.95 -5.82)"/><path class="d" d="M39.59,35a3.33,3.33,0,0,1-.7-.07A3.65,3.65,0,0,1,36,30.63a3.67,3.67,0,0,1,4.28-2.89A3.67,3.67,0,0,1,43.17,32h0A3.65,3.65,0,0,1,39.59,35Zm0-5.8a2.16,2.16,0,0,0-2.11,1.74,2.16,2.16,0,0,0,1.7,2.52,2.16,2.16,0,0,0,2.53-1.7h0A2.16,2.16,0,0,0,40,29.22,2,2,0,0,0,39.58,29.18Z" transform="translate(-5.95 -5.82)"/><path class="f" d="M38.86,31.69h-.1a.49.49,0,0,1-.39-.59,1.22,1.22,0,0,1,.52-.79,1.23,1.23,0,0,1,.93-.19.5.5,0,0,1,.4.59.49.49,0,0,1-.59.39.24.24,0,0,0-.28.19A.51.51,0,0,1,38.86,31.69Z" transform="translate(-5.95 -5.82)"/><path class="e" d="M44.47,37.63a2.9,2.9,0,1,0-3.4,2.3A2.9,2.9,0,0,0,44.47,37.63Z" transform="translate(-5.95 -5.82)"/><path class="d" d="M41.62,40.73a3.23,3.23,0,0,1-.69-.07A3.65,3.65,0,0,1,38,36.38a3.67,3.67,0,0,1,4.28-2.89,3.67,3.67,0,0,1,2.89,4.29h0A3.66,3.66,0,0,1,41.62,40.73Zm0-5.8a2.15,2.15,0,0,0-1.78,3.35,2.13,2.13,0,0,0,1.37.91,2.16,2.16,0,0,0,2.53-1.7h0A2.15,2.15,0,0,0,42,35,1.84,1.84,0,0,0,41.62,34.93Z" transform="translate(-5.95 -5.82)"/><path class="f" d="M40.9,37.44h-.1a.51.51,0,0,1-.4-.59,1.27,1.27,0,0,1,.53-.79,1.23,1.23,0,0,1,.93-.19.5.5,0,1,1-.19,1,.24.24,0,0,0-.28.19A.51.51,0,0,1,40.9,37.44Z" transform="translate(-5.95 -5.82)"/><path class="e" d="M46.52,43.27a2.9,2.9,0,1,0-3.4,2.3A2.9,2.9,0,0,0,46.52,43.27Z" transform="translate(-5.95 -5.82)"/><path class="d" d="M43.68,46.37a3.33,3.33,0,0,1-.7-.07A3.65,3.65,0,0,1,40.09,42a3.65,3.65,0,0,1,6.61-1.34,3.57,3.57,0,0,1,.56,2.73h0A3.65,3.65,0,0,1,43.68,46.37Zm0-5.8a2.15,2.15,0,0,0-1.78,3.35,2.13,2.13,0,0,0,1.37.91,2.16,2.16,0,0,0,2.53-1.7h0a2.16,2.16,0,0,0-.33-1.62,2.11,2.11,0,0,0-1.37-.9A2,2,0,0,0,43.67,40.57Z" transform="translate(-5.95 -5.82)"/><path class="f" d="M43,43.08h-.1a.5.5,0,0,1-.39-.59,1.24,1.24,0,0,1,1.45-1,.5.5,0,1,1-.19,1,.24.24,0,0,0-.28.19A.51.51,0,0,1,43,43.08Z" transform="translate(-5.95 -5.82)"/><path class="e" d="M40.68,42.25a2.9,2.9,0,1,0-3.4,2.3A2.91,2.91,0,0,0,40.68,42.25Z" transform="translate(-5.95 -5.82)"/><path class="d" d="M37.83,45.35a3.39,3.39,0,0,1-.7-.07,3.65,3.65,0,0,1,1.4-7.17,3.68,3.68,0,0,1,2.33,1.55,3.63,3.63,0,0,1,.55,2.74h0A3.65,3.65,0,0,1,37.83,45.35Zm0-5.8a2.15,2.15,0,0,0-1.78,3.35,2.15,2.15,0,0,0,3.89-.79h0a2.16,2.16,0,0,0-1.7-2.52A1.9,1.9,0,0,0,37.83,39.55Z" transform="translate(-5.95 -5.82)"/><path class="f" d="M37.1,42.06H37a.51.51,0,0,1-.4-.59,1.23,1.23,0,0,1,.53-.79,1.22,1.22,0,0,1,.93-.19.5.5,0,0,1-.19,1,.25.25,0,0,0-.29.19A.49.49,0,0,1,37.1,42.06Z" transform="translate(-5.95 -5.82)"/><path class="f" d="M22,62.25h2c.81,0,1.42.36,1.42,1.11a1,1,0,0,1-.77,1h0c.58.12.88.43.88,1,0,1.05-.92,1.27-1.7,1.27H22ZM23.16,64h.33c.38,0,.77-.1.77-.47s-.37-.43-.76-.43h-.34Zm0,1.81h.34c.43,0,.87-.06.87-.51s-.45-.51-.85-.51h-.36Z" transform="translate(-5.95 -5.82)"/><path class="f" d="M26.2,62.25h1.16v3.5h1.8v.87h-3Z" transform="translate(-5.95 -5.82)"/><path class="f" d="M31,62.25H32.4l1.68,4.37H32.81l-.33-.94H30.84l-.34.94H29.32Zm.72.9h0l-.56,1.71h1.1Z" transform="translate(-5.95 -5.82)"/><path class="f" d="M38.18,66.52a5.05,5.05,0,0,1-1.3.17,2.26,2.26,0,0,1-2.51-2.24,2.21,2.21,0,0,1,2.5-2.27,4.72,4.72,0,0,1,1.3.22l-.09,1A2.28,2.28,0,0,0,36.94,63,1.4,1.4,0,1,0,37,65.83a3,3,0,0,0,1.09-.23Z" transform="translate(-5.95 -5.82)"/><path class="f" d="M38.7,62.25h1.17V64h0l1.31-1.78h1.4l-1.61,2,1.74,2.34H41.24l-1.36-2h0v2H38.7Z" transform="translate(-5.95 -5.82)"/><path class="f" d="M43.18,62.25h2c.82,0,1.42.36,1.42,1.11a1,1,0,0,1-.77,1h0c.59.12.89.43.89,1,0,1.05-.92,1.27-1.71,1.27H43.18ZM44.35,64h.32c.39,0,.78-.1.78-.47s-.38-.43-.76-.43h-.34Zm0,1.81h.34c.43,0,.87-.06.87-.51s-.45-.51-.85-.51h-.36Z" transform="translate(-5.95 -5.82)"/><path class="f" d="M47.35,62.25h3.08v.83H48.52V64h1.81v.82H48.52v1h2v.83H47.35Z" transform="translate(-5.95 -5.82)"/><path class="f" d="M51.17,62.25h2.08c.78,0,1.41.35,1.41,1.1a1,1,0,0,1-.84,1.1h0c.37.11.4.44.62,1l.42,1.19H53.65l-.25-.79c-.24-.75-.39-.94-.82-.94h-.24v1.73H51.17Zm1.17,1.81h.3c.38,0,.85,0,.85-.5s-.4-.48-.85-.48h-.3Z" transform="translate(-5.95 -5.82)"/><path class="f" d="M55.34,62.25h2.08c.77,0,1.41.35,1.41,1.1a1,1,0,0,1-.84,1.1h0c.37.11.4.44.62,1L59,66.62H57.82l-.25-.79c-.24-.75-.39-.94-.82-.94h-.24v1.73H55.34Zm1.17,1.81h.3c.38,0,.85,0,.85-.5s-.4-.48-.85-.48h-.3Z" transform="translate(-5.95 -5.82)"/><path class="f" d="M60.59,65,59,62.25h1.34L61.17,64,62,62.25h1.34L61.75,65v1.65H60.59Z" transform="translate(-5.95 -5.82)"/></svg>