<svg xmlns="http://www.w3.org/2000/svg" viewBox="0 0 72.87 72.87"><defs><style>.a{fill:#b58059;}.b{fill:none;stroke:#fff;stroke-miterlimit:10;stroke-width:2px;}.c{fill:#77bf84;}.d{fill:#643e4c;}.e{fill:#fff;}</style></defs><title>cabbage</title><rect class="a" x="1" y="1" width="70.87" height="70.87" rx="14.17"/><rect class="b" x="1" y="1" width="70.87" height="70.87" rx="14.17"/><path class="c" d="M56.89,33.21c-.3-1.48-.89-1.43-.8-2.83.09-1.6.62-2.57.26-3.14s-.93-.52-1.77-.32c-.26.06-.48.13-.68.19l-.8-.39a2.91,2.91,0,0,0-1.28-1.48c-.91-.47-1.5,0-2.22-.47-1-.64-.61-1.51-1.32-1.72a8.49,8.49,0,0,0-2.42.18c-1.16.09-1.81-1.32-3-1-.47.12-.76.64-1.38.94a4.18,4.18,0,0,1-2.22.08c-.39,0-1.19.69-1.55.82h-.12c-.43-.45-.81-.79-1.26-.71-2,.4-.6.46-2.64,1.84-.25.17-.48,1-.86,1.66a2.2,2.2,0,0,0-.51,1.58c-.9-.46-1-1.06-1.9-1.18a2.26,2.26,0,0,0-2.42,1.28c-.1.51.36.77.74,1.82.27.74.92,1,.46,2.59h0a13.55,13.55,0,0,0-.34,3c0,11,10.94,13.48,10.94,13.48v5.13a10.15,10.15,0,0,0,2.53.53,10,10,0,0,0,2.52-.53V49.45h0a13.68,13.68,0,0,0,7.74-4.18h0l0,0a13.62,13.62,0,0,0,3.32-6.37h0l.06-.34c0-.12.06-.24.08-.36h0C56.44,36.27,57.06,34,56.89,33.21Z" transform="translate(-5.95 -5.82)"/><path class="d" d="M42.59,50.39A14.44,14.44,0,0,1,28.16,36a14.29,14.29,0,0,1,.57-4,.75.75,0,0,1,1.44.42A12.77,12.77,0,0,0,29.66,36a12.93,12.93,0,0,0,25.69,2.09.74.74,0,0,1,.86-.62.76.76,0,0,1,.62.86A14.36,14.36,0,0,1,42.59,50.39Z" transform="translate(-5.95 -5.82)"/><path class="d" d="M48.86,48.28l-.15,0a.75.75,0,0,1-.59-.88c.36-1.85.26-3.13-.28-3.59a2.56,2.56,0,0,0-.44-.26,2.13,2.13,0,0,1-1.18-1.09,2,2,0,0,1,0-1.55c.09-.29.1-.36.07-.43s-.26-.29-.69-.44a3.21,3.21,0,0,1-1.34-.8c-1-1.07-.75-2.58-.56-3.8.09-.56.24-1.49,0-1.64a1.29,1.29,0,0,0-.52,0A3.07,3.07,0,0,1,41,33.57a2.72,2.72,0,0,1-1-1,1.09,1.09,0,0,0-.5-.52,1.48,1.48,0,0,0-1-.13,2.74,2.74,0,0,1-1.77-.28,2.7,2.7,0,0,1-1.17-1.26,1.38,1.38,0,0,0-.59-.69,1.15,1.15,0,0,0-.78-.13,3.76,3.76,0,0,1-1.67-.23A4.15,4.15,0,0,1,31,28.38a1.06,1.06,0,0,0-.65-.38,1.66,1.66,0,0,0-1.59.68s.1.18.16.29a6,6,0,0,1,.55,1.13,2.84,2.84,0,0,0,.2.39A2.87,2.87,0,0,1,30,33.16a.75.75,0,0,1-.93.51.74.74,0,0,1-.51-.92,1.48,1.48,0,0,0-.12-1.49,3.91,3.91,0,0,1-.33-.65,4.51,4.51,0,0,0-.43-.88,1.81,1.81,0,0,1-.34-1.34c.23-1.16,1.82-2.07,3.26-1.87a2.52,2.52,0,0,1,1.46.75,2.77,2.77,0,0,0,1,.63,2.35,2.35,0,0,0,1.09.14,2.62,2.62,0,0,1,1.57.31,2.85,2.85,0,0,1,1.2,1.31,1.2,1.2,0,0,0,.55.64,1.4,1.4,0,0,0,.91.11,2.9,2.9,0,0,1,1.85.3,2.68,2.68,0,0,1,1.06,1,1.21,1.21,0,0,0,.49.51,1.67,1.67,0,0,0,1.22.09,2,2,0,0,1,1.71.24c.9.69.71,1.9.52,3.06-.15,1-.32,2,.17,2.55a2,2,0,0,0,.76.41,2.42,2.42,0,0,1,1.52,1.17,1.91,1.91,0,0,1,0,1.56c-.09.3-.11.4-.07.5s.16.2.47.35a3.58,3.58,0,0,1,.74.45c1,.87,1.29,2.51.79,5A.75.75,0,0,1,48.86,48.28Z" transform="translate(-5.95 -5.82)"/><path class="d" d="M56,39.63h-.11a.76.76,0,0,1-.63-.86c.12-.76.3-1.61.48-2.42a13.88,13.88,0,0,0,.47-3,3.82,3.82,0,0,0-.41-1.11,3.18,3.18,0,0,1-.41-1.92,11.27,11.27,0,0,1,.26-1.76,3.22,3.22,0,0,0,.12-.94c-.1-.15-.12-.19-1,0a6.72,6.72,0,0,0-2.09.84,4.89,4.89,0,0,1-1.87.72,7.19,7.19,0,0,1-3.06-.2c-.78-.19-1-.22-1.22,0a1.31,1.31,0,0,0-.33.66,2.43,2.43,0,0,1-1.14,1.58,2.87,2.87,0,0,1-.89.31,1.28,1.28,0,0,0-.56.23,1.61,1.61,0,0,0-.46,1.33.75.75,0,0,1-.66.83.73.73,0,0,1-.83-.65,3.11,3.11,0,0,1,1-2.68,2.6,2.6,0,0,1,1.18-.52,1.53,1.53,0,0,0,.47-.15c.26-.15.32-.33.45-.73a2.65,2.65,0,0,1,.78-1.34,2.58,2.58,0,0,1,2.56-.29,5.74,5.74,0,0,0,2.45.18,3.57,3.57,0,0,0,1.37-.54,8.29,8.29,0,0,1,2.48-1c.85-.2,1.89-.45,2.59.65a2.66,2.66,0,0,1,.08,2,11.46,11.46,0,0,0-.24,1.56,1.73,1.73,0,0,0,.25,1.13,4.9,4.9,0,0,1,.55,1.5,10.93,10.93,0,0,1-.48,3.6c-.17.8-.35,1.62-.46,2.34A.74.74,0,0,1,56,39.63Z" transform="translate(-5.95 -5.82)"/><path class="d" d="M45.77,29.46a.75.75,0,0,1-.75-.7c-.13-1.87-2.61-2.59-2.64-2.6a2.24,2.24,0,0,0-1,.08,3.76,3.76,0,0,1-1.88.07,4.9,4.9,0,0,1-2.25-1.57c-.22-.23-.59-.62-.73-.64a2.84,2.84,0,0,0-.84.22,4.19,4.19,0,0,1-1.46,1.46c-.06.1-.16.34-.24.52s-.28.63-.45.94l-.15.23a1.34,1.34,0,0,0-.26,1,.75.75,0,1,1-1.5,0,2.8,2.8,0,0,1,.53-1.84l.07-.11c.15-.26.27-.54.39-.79a2.33,2.33,0,0,1,.71-1.12,2.87,2.87,0,0,0,1-1c.35-.57.68-.74,1.86-1,.91-.18,1.55.49,2.11,1.08a3.67,3.67,0,0,0,1.55,1.15,2.51,2.51,0,0,0,1.17-.08,3.44,3.44,0,0,1,1.73-.06c1.31.37,3.57,1.62,3.72,3.94a.75.75,0,0,1-.69.8Z" transform="translate(-5.95 -5.82)"/><path class="d" d="M53.1,27.47a.76.76,0,0,1-.69-.45,2.22,2.22,0,0,0-.93-1.12,1.68,1.68,0,0,0-.83-.14,2.39,2.39,0,0,1-1.47-.37,2.57,2.57,0,0,1-1-1.41,1,1,0,0,0-.1-.24,3.66,3.66,0,0,0-1,.09,10.74,10.74,0,0,1-1.13.15A2.87,2.87,0,0,1,44,23.31c-.47-.32-.69-.44-.93-.38a1.83,1.83,0,0,0-.36.27,3.56,3.56,0,0,1-.88.62,3.75,3.75,0,0,1-2.13.21L39.25,24s-.35.25-.52.37c-.5.33-.89.59-1.36.42a.75.75,0,0,1-.43-1,.74.74,0,0,1,.62-.48,3.13,3.13,0,0,0,.33-.22,2.5,2.5,0,0,1,1.48-.61l.5,0a2.54,2.54,0,0,0,1.33-.05,2.39,2.39,0,0,0,.55-.41,2.49,2.49,0,0,1,1-.59,2.57,2.57,0,0,1,2.14.59c.4.27.66.44.94.42s.68-.09,1-.13a3.54,3.54,0,0,1,1.71,0,1.59,1.59,0,0,1,1,1.13,1.18,1.18,0,0,0,.47.68,1.07,1.07,0,0,0,.63.12,3.1,3.1,0,0,1,1.52.31,3.61,3.61,0,0,1,1.63,1.85.76.76,0,0,1-.39,1A.8.8,0,0,1,53.1,27.47Z" transform="translate(-5.95 -5.82)"/><path class="d" d="M41.13,50.12a.66.66,0,0,1-.3-.07c-2.92-1.3-4.79-3-5.56-5.14a8.32,8.32,0,0,1-.42-3.12,11.67,11.67,0,0,0-.37-3.36,12.29,12.29,0,0,0-2.07-4.24.75.75,0,0,1,.15-1,.76.76,0,0,1,1,.16A13.68,13.68,0,0,1,35.93,38a13.48,13.48,0,0,1,.42,3.74,7,7,0,0,0,.33,2.62c.62,1.71,2.22,3.15,4.76,4.28a.76.76,0,0,1,.38,1A.77.77,0,0,1,41.13,50.12Z" transform="translate(-5.95 -5.82)"/><path class="d" d="M36.22,46h0a.75.75,0,0,1-.75-.75,6.54,6.54,0,0,1,1.44-3.78,4.88,4.88,0,0,1,1-.91,3.42,3.42,0,0,0,.63-.58,4.12,4.12,0,0,0,.77-2.75.76.76,0,0,1,.74-.76h0a.75.75,0,0,1,.75.74,5.56,5.56,0,0,1-1.11,3.72,4.79,4.79,0,0,1-.87.81,3.54,3.54,0,0,0-.69.66A5.07,5.07,0,0,0,37,45.23.76.76,0,0,1,36.22,46Z" transform="translate(-5.95 -5.82)"/><path class="d" d="M38.71,48.19h-.06a.75.75,0,0,1-.69-.81,2.47,2.47,0,0,1,.88-1.89,2.27,2.27,0,0,1,1.57-.37,2.17,2.17,0,0,0,.58,0c.54-.14,1-.92,1.45-2.19a.75.75,0,0,1,.94-.5.76.76,0,0,1,.49.94c-.58,1.87-1.4,2.92-2.5,3.2a3.45,3.45,0,0,1-1,.07c-.35,0-.49,0-.59.07a1.11,1.11,0,0,0-.29.8A.75.75,0,0,1,38.71,48.19Z" transform="translate(-5.95 -5.82)"/><path class="d" d="M35.16,44.87a.72.72,0,0,1-.32-.08,4.44,4.44,0,0,1-2-1.84,4.34,4.34,0,0,1-.49-1.57,2.21,2.21,0,0,0-.28-.93,2.68,2.68,0,0,0-1.77-.94A.75.75,0,0,1,30.55,38a4.05,4.05,0,0,1,2.72,1.57,3.68,3.68,0,0,1,.53,1.54,2.76,2.76,0,0,0,.31,1.08,3.07,3.07,0,0,0,1.38,1.21.75.75,0,0,1-.33,1.43Z" transform="translate(-5.95 -5.82)"/><path class="d" d="M42.38,55.86a10.36,10.36,0,0,1-2.77-.57.75.75,0,0,1-.51-.71V49.45a.75.75,0,0,1,1.5,0V54a7.62,7.62,0,0,0,1.78.33A7.63,7.63,0,0,0,44.15,54V49.45a.75.75,0,0,1,1.5,0v5.13a.75.75,0,0,1-.51.71A10.36,10.36,0,0,1,42.38,55.86Z" transform="translate(-5.95 -5.82)"/><path class="d" d="M41.54,52.34a10.94,10.94,0,0,1-1.51-.1.75.75,0,0,1,.2-1.49,10.39,10.39,0,0,0,1.37.09c.31,0,.6,0,.87,0a.73.73,0,0,1,.81.67.75.75,0,0,1-.67.82c-.31,0-.65.05-1,.05Z" transform="translate(-5.95 -5.82)"/><path class="d" d="M43.2,54.29a3.83,3.83,0,0,1-1-.13.75.75,0,0,1,.38-1.45,2.66,2.66,0,0,0,.84.07,2.57,2.57,0,0,0,.86-.24.75.75,0,0,1,.66,1.35,4,4,0,0,1-1.39.38Z" transform="translate(-5.95 -5.82)"/><path class="d" d="M52.6,46a.71.71,0,0,1-.4-.11.76.76,0,0,1-.23-1c.84-1.32.86-3,.89-4.68v-.32a7,7,0,0,0-.61-3.48A8,8,0,0,0,49.35,33a.76.76,0,0,1-.2-1,.75.75,0,0,1,1-.2,9.56,9.56,0,0,1,3.44,4.08,8.47,8.47,0,0,1,.73,4.08v.34a10.19,10.19,0,0,1-1.13,5.46A.74.74,0,0,1,52.6,46Z" transform="translate(-5.95 -5.82)"/><path class="d" d="M53.61,40.9a.76.76,0,0,1-.7-.47,2.42,2.42,0,0,0-1.22-1.49,1.5,1.5,0,0,0-.65-.07,4,4,0,0,1-1-.07,4.71,4.71,0,0,1-2.53-1.52.75.75,0,0,1,.05-1.06.73.73,0,0,1,1,.05,3.28,3.28,0,0,0,1.72,1.06,3,3,0,0,0,.72,0,3.08,3.08,0,0,1,1.18.15,3.82,3.82,0,0,1,2.11,2.34.75.75,0,0,1-.41,1A.71.71,0,0,1,53.61,40.9Z" transform="translate(-5.95 -5.82)"/><path class="e" d="M30.85,63l-.56.67a1.5,1.5,0,0,0-1.09-.54,1.29,1.29,0,0,0,0,2.58,1.61,1.61,0,0,0,1.09-.49l.56.6a2.42,2.42,0,0,1-1.7.75,2.14,2.14,0,1,1,0-4.27A2.39,2.39,0,0,1,30.85,63Z" transform="translate(-5.95 -5.82)"/><path class="e" d="M32.44,65.76l-.33.81h-1L33,62.37h1l1.79,4.2h-1l-.33-.81Zm1-2.4L32.75,65h1.33Z" transform="translate(-5.95 -5.82)"/><path class="e" d="M38.34,62.37c.92,0,1.5.41,1.5,1.05a.93.93,0,0,1-.73.93A1,1,0,0,1,40,65.41c0,.72-.61,1.16-1.58,1.16h-2v-4.2Zm-1,1.7h.93c.36,0,.58-.18.58-.47s-.22-.45-.58-.45h-.93Zm0,1.73h.93c.45,0,.72-.19.72-.51s-.27-.49-.72-.49h-.93Z" transform="translate(-5.95 -5.82)"/><path class="e" d="M42.85,62.37c.93,0,1.5.41,1.5,1.05a.92.92,0,0,1-.72.93,1,1,0,0,1,.87,1.06c0,.72-.6,1.16-1.58,1.16h-2v-4.2Zm-1,1.7h.93c.36,0,.58-.18.58-.47s-.22-.45-.58-.45h-.93Zm0,1.73h.93c.45,0,.72-.19.72-.51s-.27-.49-.72-.49h-.93Z" transform="translate(-5.95 -5.82)"/><path class="e" d="M46.26,65.76l-.33.81H45l1.83-4.2h1l1.8,4.2h-1l-.33-.81Zm1-2.4L46.57,65H47.9Z" transform="translate(-5.95 -5.82)"/><path class="e" d="M53.75,64.46v1.61a3.12,3.12,0,0,1-1.7.54,2.15,2.15,0,0,1-2.24-2.14,2.17,2.17,0,0,1,2.29-2.13,2.62,2.62,0,0,1,1.69.62l-.53.67a1.82,1.82,0,0,0-1.16-.46,1.31,1.31,0,1,0,0,2.62,1.89,1.89,0,0,0,.82-.23v-1.1Z" transform="translate(-5.95 -5.82)"/><path class="e" d="M55.77,63.16v.91h2v.79h-2v.93h2.32v.78H54.82v-4.2H58v.79Z" transform="translate(-5.95 -5.82)"/></svg>