<svg xmlns="http://www.w3.org/2000/svg" viewBox="0 0 72.87 72.87"><defs><style>.a{fill:#77bf84;}.b{fill:none;stroke:#fff;stroke-miterlimit:10;stroke-width:2px;}.c{fill:#5fb561;}.d{fill:#449346;}.e{fill:#f6a025;}.f{fill:#643e4c;}.g{fill:#fff;}</style></defs><title>carrot</title><rect class="a" x="1" y="1" width="70.87" height="70.87" rx="14.17"/><rect class="b" x="1" y="1" width="70.87" height="70.87" rx="14.17"/><path class="c" d="M51.4,23.35a.5.5,0,0,1-.46-.3l-1.43-3.27a.49.49,0,0,1,.26-.66.49.49,0,0,1,.65.26l1.44,3.27a.5.5,0,0,1-.26.66A.48.48,0,0,1,51.4,23.35Z" transform="translate(-5.95 -5.86)"/><path class="c" d="M49.55,25.66a.5.5,0,0,1-.46-.3l-1.43-3.27a.5.5,0,0,1,.26-.66.5.5,0,0,1,.66.26L50,25a.5.5,0,0,1-.26.66A.45.45,0,0,1,49.55,25.66Z" transform="translate(-5.95 -5.86)"/><path class="c" d="M47.6,27.87a.51.51,0,0,1-.46-.3l-1.43-3.28a.5.5,0,1,1,.91-.4l1.43,3.28a.49.49,0,0,1-.25.65A.53.53,0,0,1,47.6,27.87Z" transform="translate(-5.95 -5.86)"/><path class="c" d="M59.39,28.58a.46.46,0,0,1-.2,0L55.91,27.1a.5.5,0,1,1,.4-.91l3.28,1.43a.5.5,0,0,1,.26.66A.53.53,0,0,1,59.39,28.58Z" transform="translate(-5.95 -5.86)"/><path class="c" d="M56.89,30.23a.45.45,0,0,1-.2,0l-3.28-1.43a.5.5,0,0,1,.4-.92l3.28,1.43a.5.5,0,0,1,.25.66A.49.49,0,0,1,56.89,30.23Z" transform="translate(-5.95 -5.86)"/><path class="c" d="M55.64,32.32a.48.48,0,0,1-.2,0l-3.28-1.43a.5.5,0,0,1,.41-.92l3.27,1.43a.51.51,0,0,1,.26.66A.5.5,0,0,1,55.64,32.32Z" transform="translate(-5.95 -5.86)"/><path class="d" d="M46.39,30.78a.75.75,0,0,1-.43-.13.76.76,0,0,1-.19-1L52.51,20a.75.75,0,0,1,1.23.86L47,30.46A.74.74,0,0,1,46.39,30.78Z" transform="translate(-5.95 -5.86)"/><path class="d" d="M48.55,32.94a.76.76,0,0,1-.6-.29.77.77,0,0,1,.14-1.06l9.2-7a.75.75,0,0,1,1.05.14.74.74,0,0,1-.14,1.05l-9.2,7A.74.74,0,0,1,48.55,32.94Z" transform="translate(-5.95 -5.86)"/><path class="e" d="M47.61,39.86A6.29,6.29,0,0,0,38.72,31C36.27,33.43,23.51,50.17,26,52.62S45.15,42.31,47.61,39.86Z" transform="translate(-5.95 -5.86)"/><path class="f" d="M26.82,53.62a1.86,1.86,0,0,1-1.39-.47c-.56-.55-2-2,4.45-11.77a98.46,98.46,0,0,1,8.31-10.94,7,7,0,0,1,10,10h0C47.28,41.24,32.2,53.62,26.82,53.62ZM43.16,29.89a5.55,5.55,0,0,0-3.91,1.61,98.58,98.58,0,0,0-8.12,10.71c-5.74,8.62-4.65,9.87-4.64,9.88,1.66,1.67,17.12-9.3,20.59-12.76h0a5.53,5.53,0,0,0-3.92-9.44Z" transform="translate(-5.95 -5.86)"/><path class="f" d="M38.79,34a.47.47,0,0,1-.35-.15l-1-1a.5.5,0,0,1,0-.71.5.5,0,0,1,.7,0l1,1a.5.5,0,0,1,0,.71A.47.47,0,0,1,38.79,34Z" transform="translate(-5.95 -5.86)"/><path class="f" d="M39.5,39.24a.47.47,0,0,1-.35-.15l-.91-.91a.49.49,0,0,1,.7-.7l.91.91a.48.48,0,0,1,0,.7A.47.47,0,0,1,39.5,39.24Z" transform="translate(-5.95 -5.86)"/><path class="f" d="M40.38,45.23a.5.5,0,0,1-.35-.15l-1.41-1.41a.5.5,0,1,1,.71-.71l1.41,1.41a.51.51,0,0,1,0,.71A.51.51,0,0,1,40.38,45.23Z" transform="translate(-5.95 -5.86)"/><path class="f" d="M46.48,38.28a.5.5,0,0,1-.35-.15l-.76-.75a.5.5,0,0,1,.71-.71l.76.76a.5.5,0,0,1,0,.7A.51.51,0,0,1,46.48,38.28Z" transform="translate(-5.95 -5.86)"/><path class="f" d="M34.43,43.4a.54.54,0,0,1-.36-.14l-.88-.89a.5.5,0,0,1,0-.71.51.51,0,0,1,.71,0l.88.89a.5.5,0,0,1,0,.71A.52.52,0,0,1,34.43,43.4Z" transform="translate(-5.95 -5.86)"/><path class="f" d="M32.36,48.88a.47.47,0,0,1-.35-.15L31.23,48a.51.51,0,0,1,0-.71.5.5,0,0,1,.71,0l.77.78a.48.48,0,0,1,0,.7A.47.47,0,0,1,32.36,48.88Z" transform="translate(-5.95 -5.86)"/><path class="c" d="M54.89,23.43h0l-3.31-.26a.5.5,0,1,1,.08-1l3.3.26a.5.5,0,0,1,0,1Z" transform="translate(-5.95 -5.86)"/><path class="c" d="M52.52,26.17h-.06l-2.59-.3a.5.5,0,0,1-.45-.55.51.51,0,0,1,.56-.44l2.6.29a.5.5,0,0,1-.06,1Z" transform="translate(-5.95 -5.86)"/><path class="g" d="M32.94,62.81l-.55.67a1.51,1.51,0,0,0-1.09-.54,1.29,1.29,0,0,0,0,2.58A1.61,1.61,0,0,0,32.39,65l.56.61a2.51,2.51,0,0,1-1.7.75,2.14,2.14,0,1,1,0-4.27A2.4,2.4,0,0,1,32.94,62.81Z" transform="translate(-5.95 -5.86)"/><path class="g" d="M34.54,65.53l-.33.81h-1l1.82-4.19h1l1.79,4.19h-1l-.33-.81Zm1-2.39-.67,1.63h1.32Z" transform="translate(-5.95 -5.86)"/><path class="g" d="M40.42,65.14h-1v1.2h-1V62.15h1.83c1.09,0,1.72.52,1.72,1.45A1.39,1.39,0,0,1,41.26,65l.9,1.38H41.08Zm-.09-.79c.52,0,.82-.24.82-.72s-.3-.7-.82-.7h-.88v1.42Z" transform="translate(-5.95 -5.86)"/><path class="g" d="M45,65.14H44v1.2h-.95V62.15h1.82c1.1,0,1.72.52,1.72,1.45A1.39,1.39,0,0,1,45.85,65l.89,1.38H45.67Zm-.09-.79c.52,0,.82-.24.82-.72s-.3-.7-.82-.7H44v1.42Z" transform="translate(-5.95 -5.86)"/><path class="g" d="M51.88,64.25a2.26,2.26,0,1,1-2.25-2.13A2.16,2.16,0,0,1,51.88,64.25Zm-3.54,0a1.31,1.31,0,0,0,1.3,1.31,1.31,1.31,0,1,0-1.3-1.31Z" transform="translate(-5.95 -5.86)"/><path class="g" d="M54.44,63v3.39h-.95V63H52.21v-.8h3.51V63Z" transform="translate(-5.95 -5.86)"/></svg>