<svg xmlns="http://www.w3.org/2000/svg" viewBox="0 0 72.87 72.87"><defs><style>.a{fill:#ea5740;}.b{fill:none;stroke:#fff;stroke-miterlimit:10;stroke-width:2px;}.c{fill:#643e4c;}.d{fill:#fff;}.e{fill:#bb4135;}.f{fill:#b58059;}.g{fill:#8fc037;}</style></defs><title>cherry</title><rect class="a" x="1" y="1" width="70.87" height="70.87" rx="14.17"/><rect class="b" x="1" y="1" width="70.87" height="70.87" rx="14.17"/><path class="a" d="M40.55,50.9c1.37-3.55-1.13-6.27-4.93-7.74S28.14,42,26.77,45.57A7.67,7.67,0,0,0,31,55.23,7.68,7.68,0,0,0,40.55,50.9Z" transform="translate(-6.03 -5.9)"/><path class="c" d="M33.41,56.43a7.62,7.62,0,0,1-2.73-.5A8.42,8.42,0,0,1,26.07,45.3c1.4-3.61,5.07-4.67,9.82-2.84s6.75,5.1,5.36,8.71h0A8.51,8.51,0,0,1,33.41,56.43ZM31.66,43.09a4.13,4.13,0,0,0-4.19,2.75,7,7,0,0,0,3.75,8.69,7,7,0,0,0,8.63-3.9h0c1.52-4-2.64-6.05-4.5-6.77A10.76,10.76,0,0,0,31.66,43.09Z" transform="translate(-6.03 -5.9)"/><path class="d" d="M30.82,53.23a.74.74,0,0,1-.44-.14,5.84,5.84,0,0,1-2-2.53A6.14,6.14,0,0,1,28,47.25a.75.75,0,0,1,.86-.63.74.74,0,0,1,.62.85A4.87,4.87,0,0,0,29.8,50a4.29,4.29,0,0,0,1.46,1.89.75.75,0,0,1,.17,1.05A.74.74,0,0,1,30.82,53.23Z" transform="translate(-6.03 -5.9)"/><path class="d" d="M33.42,54.07a4.65,4.65,0,0,1-.75-.06.75.75,0,1,1,.21-1.48,4.9,4.9,0,0,0,.54,0,.75.75,0,0,1,0,1.5Z" transform="translate(-6.03 -5.9)"/><path class="e" d="M37.51,48.23a.75.75,0,0,1-.08-1.49c.3,0,.54-.08.72-.11a.75.75,0,0,1,.89.58.77.77,0,0,1-.58.89c-.22,0-.51.09-.88.13Z" transform="translate(-6.03 -5.9)"/><path class="e" d="M35,48.08a.5.5,0,0,1-.17,0,7.27,7.27,0,0,1-.93-.26A8.72,8.72,0,0,1,30,45.1.76.76,0,0,1,30.11,44a.75.75,0,0,1,1.05.11,7.23,7.23,0,0,0,3.19,2.23,6,6,0,0,0,.77.22.75.75,0,0,1,.56.9A.75.75,0,0,1,35,48.08Z" transform="translate(-6.03 -5.9)"/><path class="a" d="M58,44.19c-1.56-3.47-5.25-3.6-9-1.92s-6.06,4.52-4.5,8A7.39,7.39,0,1,0,58,44.19Z" transform="translate(-6.03 -5.9)"/><path class="c" d="M51.53,55.42a8.64,8.64,0,0,1-7.66-4.85,5.46,5.46,0,0,1,.32-5.38,10.14,10.14,0,0,1,4.55-3.6,10.17,10.17,0,0,1,5.72-1,5.45,5.45,0,0,1,4.24,3.32h0a8.36,8.36,0,0,1,.18,6.17,8,8,0,0,1-4.2,4.7A7.78,7.78,0,0,1,51.53,55.42ZM53.33,42a9.85,9.85,0,0,0-4,1,8.8,8.8,0,0,0-3.91,3,4,4,0,0,0-.22,4,6.87,6.87,0,0,0,3.7,3.44,6.28,6.28,0,0,0,8.54-3.84,6.86,6.86,0,0,0-.13-5h0A4,4,0,0,0,54.22,42,5.1,5.1,0,0,0,53.33,42Z" transform="translate(-6.03 -5.9)"/><path class="d" d="M51.54,53A6.25,6.25,0,0,1,46,49.59.75.75,0,1,1,47.4,49a4.75,4.75,0,0,0,4.14,2.56.75.75,0,0,1,0,1.5Z" transform="translate(-6.03 -5.9)"/><path class="d" d="M53.93,52.36a.76.76,0,0,1-.64-.35.75.75,0,0,1,.24-1,3.19,3.19,0,0,0,.43-.32.75.75,0,0,1,1.06.09.76.76,0,0,1-.09,1.06,5.13,5.13,0,0,1-.6.44A.76.76,0,0,1,53.93,52.36Z" transform="translate(-6.03 -5.9)"/><path class="e" d="M53.45,44.71a.73.73,0,0,1-.46-.17.74.74,0,0,1-.12-1,6.84,6.84,0,0,0,.43-.59.74.74,0,0,1,1-.23.76.76,0,0,1,.23,1c-.12.18-.29.43-.52.72A.77.77,0,0,1,53.45,44.71Z" transform="translate(-6.03 -5.9)"/><path class="e" d="M47.3,47.66c-.3,0-.57,0-.82,0a.75.75,0,0,1,.14-1.5,7.07,7.07,0,0,0,3.83-.7,6.68,6.68,0,0,0,.7-.39A.75.75,0,0,1,52,46.3a8.57,8.57,0,0,1-4.66,1.36Z" transform="translate(-6.03 -5.9)"/><rect class="f" x="42.74" y="24.42" width="2.25" height="5.06" rx="0.6" transform="translate(4.4 -18.1) rotate(17.94)"/><path class="c" d="M43.78,30.3a1.41,1.41,0,0,1-.41-.07l-1-.33a1.34,1.34,0,0,1-.87-1.69l1.19-3.68a1.34,1.34,0,0,1,1.7-.86l1,.32a1.33,1.33,0,0,1,.78.67,1.36,1.36,0,0,1,.08,1l-1.19,3.67a1.35,1.35,0,0,1-.67.79A1.31,1.31,0,0,1,43.78,30.3ZM43,28.52l.72.24,1.1-3.39-.72-.23Z" transform="translate(-6.03 -5.9)"/><path class="c" d="M35.06,45.47a.76.76,0,0,1-.75-.75,19.53,19.53,0,0,1,7.4-15.46.75.75,0,1,1,.93,1.17,18.05,18.05,0,0,0-6.83,14.28.76.76,0,0,1-.74.76Z" transform="translate(-6.03 -5.9)"/><path class="c" d="M50,44.93a.74.74,0,0,1-.46-.16,18.69,18.69,0,0,1-7.1-15.12.77.77,0,0,1,.77-.73.75.75,0,0,1,.73.76,17.17,17.17,0,0,0,6.53,13.91A.75.75,0,0,1,50,44.93Z" transform="translate(-6.03 -5.9)"/><path class="g" d="M40.31,22.6c-1.78-1-9-.89-9-.89S34.82,28,36.6,29.05a3.72,3.72,0,0,0,3.71-6.45Z" transform="translate(-6.03 -5.9)"/><path class="c" d="M38.45,30.3a4.38,4.38,0,0,1-2.22-.6c-1.91-1.1-5.21-7-5.58-7.62a.78.78,0,0,1,0-.74.75.75,0,0,1,.63-.38c.76,0,7.49-.1,9.39,1h0a4.47,4.47,0,0,1-1.06,8.19A4.29,4.29,0,0,1,38.45,30.3ZM32.6,22.46C34,24.8,36,27.83,37,28.4a3,3,0,0,0,3-5.15h0C38.94,22.68,35.32,22.47,32.6,22.46Z" transform="translate(-6.03 -5.9)"/><path class="c" d="M41.68,28.43a.75.75,0,0,1-.38-.1l-6.93-4a.75.75,0,1,1,.75-1.3l6.93,4a.76.76,0,0,1,.28,1A.75.75,0,0,1,41.68,28.43Z" transform="translate(-6.03 -5.9)"/><path class="d" d="M31,62.85l-.55.67A1.51,1.51,0,0,0,29.33,63a1.29,1.29,0,0,0,0,2.58,1.61,1.61,0,0,0,1.09-.49l.56.61a2.49,2.49,0,0,1-1.7.75,2.14,2.14,0,1,1,0-4.27A2.4,2.4,0,0,1,31,62.85Z" transform="translate(-6.03 -5.9)"/><path class="d" d="M34.63,66.38V64.73h-1.9v1.65h-.94V62.19h.94v1.75h1.9V62.19h.95v4.19Z" transform="translate(-6.03 -5.9)"/><path class="d" d="M37.7,63v.91h2v.79h-2v.93H40v.78H36.75V62.19h3.19V63Z" transform="translate(-6.03 -5.9)"/><path class="d" d="M42.91,65.18h-1v1.2H41V62.19h1.82c1.1,0,1.72.52,1.72,1.45A1.39,1.39,0,0,1,43.75,65l.9,1.38H43.57Zm-.09-.79c.52,0,.82-.24.82-.72s-.3-.7-.82-.7h-.88v1.42Z" transform="translate(-6.03 -5.9)"/><path class="d" d="M47.49,65.18h-1v1.2h-1V62.19H47.4c1.1,0,1.72.52,1.72,1.45A1.39,1.39,0,0,1,48.34,65l.89,1.38H48.16Zm-.09-.79c.52,0,.82-.24.82-.72s-.3-.7-.82-.7h-.87v1.42Z" transform="translate(-6.03 -5.9)"/><path class="d" d="M52.14,66.38H51.2V65.05l-1.56-2.86h1l1.07,1.88,1-1.88h1L52.14,65Z" transform="translate(-6.03 -5.9)"/></svg>