<svg xmlns="http://www.w3.org/2000/svg" viewBox="0 0 72.87 72.87"><defs><style>.a{fill:#8fc037;}.b{fill:none;stroke:#fff;stroke-miterlimit:10;stroke-width:2px;}.c{fill:#643e4c;}.d{fill:#bb4135;}.e{fill:#ea5740;}.f{fill:#fff;}</style></defs><title>chili</title><rect class="a" x="1" y="1" width="70.87" height="70.87" rx="14.17"/><rect class="b" x="1" y="1" width="70.87" height="70.87" rx="14.17"/><path class="a" d="M53.13,34.73a11.13,11.13,0,0,0,.34-3.25,3.69,3.69,0,0,0-2.53-3.87,3.56,3.56,0,0,0-4.28,1.59c-.29.43-.59,1.25-1.2,2.34Z" transform="translate(-5.95 -5.82)"/><path class="c" d="M53.12,35.48a.78.78,0,0,1-.47-.17.74.74,0,0,1-.17-1,14.13,14.13,0,0,0,.24-2.87,3,3,0,0,0-2-3.17,2.83,2.83,0,0,0-3.4,1.31,8.7,8.7,0,0,0-.42.8c-.19.41-.43.91-.75,1.48a.74.74,0,0,1-1,.29.75.75,0,0,1-.29-1c.3-.54.53-1,.71-1.39a8.06,8.06,0,0,1,.53-1A4.32,4.32,0,0,1,51.2,26.9a4.46,4.46,0,0,1,3,4.58c0,.12,0,3.1-.52,3.73A.74.74,0,0,1,53.12,35.48Z" transform="translate(-5.95 -5.82)"/><path class="d" d="M51.57,40c1.81-3.82,2.22-6.88.28-8.82-2.47-2.47-6-1-7.31,1.79-1.14,2.5-.57,10.52-15.94,23C42.72,55.9,50.4,42.44,51.57,40Z" transform="translate(-5.95 -5.82)"/><path class="c" d="M28.6,56.65a.76.76,0,0,1-.71-.5.74.74,0,0,1,.24-.83C40.67,45.16,42.44,38,43.29,34.52a10.44,10.44,0,0,1,.57-1.9,5.93,5.93,0,0,1,4.23-3.41,4.73,4.73,0,0,1,4.29,1.4c2,2,2,5.19-.13,9.67h0C52.17,40.44,44.32,56.65,28.6,56.65ZM49,30.63a3.61,3.61,0,0,0-.59.05,4.51,4.51,0,0,0-3.14,2.56,10.56,10.56,0,0,0-.48,1.63C43.9,38.32,42.17,45.31,30.81,55c13.31-1.41,20-15.24,20.08-15.39h0c1.84-3.89,2-6.42.43-8A3.3,3.3,0,0,0,49,30.63Z" transform="translate(-5.95 -5.82)"/><path class="e" d="M44.19,42.45a.8.8,0,0,1-.33-.08.75.75,0,0,1-.34-1,28.1,28.1,0,0,0,2.19-6.26,10.51,10.51,0,0,1,.42-1.46,3.34,3.34,0,0,1,2.82-2,.75.75,0,0,1,0,1.5,1.85,1.85,0,0,0-1.45,1.15,11.11,11.11,0,0,0-.33,1.19A29.82,29.82,0,0,1,44.86,42,.73.73,0,0,1,44.19,42.45Z" transform="translate(-5.95 -5.82)"/><path class="e" d="M41.45,47a.69.69,0,0,1-.43-.14.74.74,0,0,1-.18-1c.28-.4.54-.78.79-1.16a.75.75,0,0,1,1-.22.76.76,0,0,1,.22,1c-.26.39-.54.79-.83,1.21A.74.74,0,0,1,41.45,47Z" transform="translate(-5.95 -5.82)"/><path class="c" d="M51.56,28.07a.78.78,0,0,1-.22,0,.74.74,0,0,1-.5-.93,1.76,1.76,0,0,0,.06-.71,1.38,1.38,0,0,0-.23-.54,2.32,2.32,0,0,1-.4-1,2.25,2.25,0,0,1,3.14-2.45.75.75,0,0,1,.43,1,.76.76,0,0,1-1,.42,1,1,0,0,0-.78,0,1,1,0,0,0-.32.86.93.93,0,0,0,.18.41,2.67,2.67,0,0,1,.44,1.11,3.07,3.07,0,0,1-.11,1.37A.73.73,0,0,1,51.56,28.07Z" transform="translate(-5.95 -5.82)"/><path class="f" d="M24.31,63l-.56.67a1.5,1.5,0,0,0-1.09-.54,1.29,1.29,0,0,0,0,2.58,1.61,1.61,0,0,0,1.09-.49l.56.61a2.46,2.46,0,0,1-1.7.74,2.14,2.14,0,1,1,0-4.27A2.39,2.39,0,0,1,24.31,63Z" transform="translate(-5.95 -5.82)"/><path class="f" d="M28,66.57V64.92h-1.9v1.65h-.95v-4.2h.95v1.76H28V62.37h.94v4.2Z" transform="translate(-5.95 -5.82)"/><path class="f" d="M30.08,66.57v-4.2h1v4.2Z" transform="translate(-5.95 -5.82)"/><path class="f" d="M34.94,65.74v.83H32.2v-4.2h.95v3.37Z" transform="translate(-5.95 -5.82)"/><path class="f" d="M35.75,66.57v-4.2h1v4.2Z" transform="translate(-5.95 -5.82)"/><path class="f" d="M41.33,62.37c1.07,0,1.68.53,1.68,1.46a1.47,1.47,0,0,1-1.68,1.54H40.5v1.2h-1v-4.2Zm-.83,2.21h.79c.52,0,.82-.24.82-.72s-.3-.7-.82-.7H40.5Z" transform="translate(-5.95 -5.82)"/><path class="f" d="M44.81,63.16v.91h2v.79h-2v.93h2.31v.78H43.86v-4.2h3.2v.79Z" transform="translate(-5.95 -5.82)"/><path class="f" d="M49.89,62.37c1.07,0,1.68.53,1.68,1.46a1.47,1.47,0,0,1-1.68,1.54h-.83v1.2h-1v-4.2Zm-.83,2.21h.78c.53,0,.83-.24.83-.72s-.3-.7-.83-.7h-.78Z" transform="translate(-5.95 -5.82)"/><path class="f" d="M54.2,62.37c1.07,0,1.68.53,1.68,1.46a1.47,1.47,0,0,1-1.68,1.54h-.84v1.2h-.94v-4.2Zm-.84,2.21h.79c.53,0,.83-.24.83-.72s-.3-.7-.83-.7h-.79Z" transform="translate(-5.95 -5.82)"/><path class="f" d="M57.67,63.16v.91h2v.79h-2v.93H60v.78H56.73v-4.2h3.19v.79Z" transform="translate(-5.95 -5.82)"/><path class="f" d="M62.89,65.37h-1v1.2H61v-4.2H62.8c1.09,0,1.72.53,1.72,1.46a1.39,1.39,0,0,1-.79,1.36l.9,1.38H63.55Zm-.09-.79c.52,0,.82-.24.82-.72s-.3-.7-.82-.7h-.88v1.42Z" transform="translate(-5.95 -5.82)"/></svg>