<svg xmlns="http://www.w3.org/2000/svg" viewBox="0 0 72.87 72.87"><defs><style>.a{fill:#66589f;}.b{fill:none;stroke:#fff;stroke-miterlimit:10;stroke-width:2px;}.c{fill:#b58059;}.d{fill:#643e4c;}.e{fill:#895b3c;}.f{fill:#fff;}</style></defs><title>coconut</title><rect class="a" x="1" y="1" width="70.87" height="70.87" rx="14.17"/><rect class="b" x="1" y="1" width="70.87" height="70.87" rx="14.17"/><path class="c" d="M42.22,50.86a13.15,13.15,0,1,0-3.54-17.29Z" transform="translate(-5.95 -5.82)"/><path class="d" d="M50,54.16a13.79,13.79,0,0,1-8.22-2.7.74.74,0,0,1-.16-1.05.76.76,0,0,1,1.05-.16A12.29,12.29,0,0,0,50,52.66,12.4,12.4,0,1,0,39.32,34a.74.74,0,0,1-1,.27.76.76,0,0,1-.27-1,13.9,13.9,0,1,1,12,21Z" transform="translate(-5.95 -5.82)"/><path class="d" d="M40.48,33.09A1.21,1.21,0,0,1,40,33c-.9-.34-1.33-1.6-1.06-3a.5.5,0,0,1,.58-.4.5.5,0,0,1,.4.59c-.21,1.11.14,1.81.44,1.92a.59.59,0,0,0,.37,0A.5.5,0,1,1,41,33,1.81,1.81,0,0,1,40.48,33.09Z" transform="translate(-5.95 -5.82)"/><path class="d" d="M56.75,37.45a.49.49,0,0,1-.42-.23.5.5,0,0,1,.15-.69,1.65,1.65,0,0,0,.77-1.61.5.5,0,0,1,.44-.55.48.48,0,0,1,.55.43A2.74,2.74,0,0,1,58,36.27a2.78,2.78,0,0,1-1,1.1A.53.53,0,0,1,56.75,37.45Z" transform="translate(-5.95 -5.82)"/><path class="d" d="M52.46,32.17a2.27,2.27,0,0,1-.46-.05.5.5,0,0,1-.35-.61.5.5,0,0,1,.61-.36.76.76,0,0,0,.53-.06.8.8,0,0,0,.38-.6.5.5,0,1,1,1,.1A1.82,1.82,0,0,1,53.26,32,1.63,1.63,0,0,1,52.46,32.17Z" transform="translate(-5.95 -5.82)"/><path class="d" d="M50.25,46.36a1.91,1.91,0,0,1-.7-.13.5.5,0,1,1,.35-.93,1,1,0,0,0,.69,0,1,1,0,0,0,.55-.56.49.49,0,0,1,.65-.28.48.48,0,0,1,.28.64,1.94,1.94,0,0,1-1.13,1.13A1.79,1.79,0,0,1,50.25,46.36Z" transform="translate(-5.95 -5.82)"/><path class="d" d="M62.76,37.89a1.91,1.91,0,0,1-.47-.06.5.5,0,0,1-.36-.61.51.51,0,0,1,.61-.36.75.75,0,0,0,.93-1,.51.51,0,0,1,.36-.62.5.5,0,0,1,.61.36,1.8,1.8,0,0,1-.63,1.92A1.73,1.73,0,0,1,62.76,37.89Z" transform="translate(-5.95 -5.82)"/><path class="d" d="M38.72,44.41l-.13,0-1.14-.3a.5.5,0,0,1-.36-.61.51.51,0,0,1,.61-.36l1.14.3a.5.5,0,0,1-.12,1Z" transform="translate(-5.95 -5.82)"/><path class="d" d="M49.1,29.9a.49.49,0,0,1-.42-.24l-.4-.63a.5.5,0,1,1,.85-.53l.39.63a.51.51,0,0,1-.42.77Z" transform="translate(-5.95 -5.82)"/><path class="d" d="M59.39,31a.48.48,0,0,1-.26-.07.49.49,0,0,1-.18-.68l.5-.85a.5.5,0,1,1,.86.51l-.49.84A.51.51,0,0,1,59.39,31Z" transform="translate(-5.95 -5.82)"/><path class="d" d="M52.63,40.18h-.5a.5.5,0,0,1-.5-.5.5.5,0,0,1,.5-.5h.5a.51.51,0,0,1,.5.5A.5.5,0,0,1,52.63,40.18Z" transform="translate(-5.95 -5.82)"/><path class="d" d="M48.45,34.82l-.13,0L48,34.7a.5.5,0,0,1-.34-.62.48.48,0,0,1,.61-.34l.35.1a.48.48,0,0,1,.34.61A.5.5,0,0,1,48.45,34.82Z" transform="translate(-5.95 -5.82)"/><path class="e" d="M55.6,49.14a.75.75,0,0,1-.42-1.36,9.15,9.15,0,0,0,4-7.52,9.34,9.34,0,0,0-.23-2,.74.74,0,0,1,.57-.89.75.75,0,0,1,.9.56,11.05,11.05,0,0,1,.26,2.38A10.64,10.64,0,0,1,56,49,.75.75,0,0,1,55.6,49.14Z" transform="translate(-5.95 -5.82)"/><path class="d" d="M50,50.63a.5.5,0,0,1-.5-.5.51.51,0,0,1,.5-.5,8.79,8.79,0,0,0,1.26-.08.5.5,0,1,1,.13,1A10.58,10.58,0,0,1,50,50.63Z" transform="translate(-5.95 -5.82)"/><path class="c" d="M21.29,40.26a13.15,13.15,0,0,0,26.3,0Z" transform="translate(-5.95 -5.82)"/><path class="d" d="M34.44,54.16a13.92,13.92,0,0,1-13.9-13.9.74.74,0,0,1,.75-.75h26.3a.75.75,0,0,1,.75.75A13.92,13.92,0,0,1,34.44,54.16ZM22.06,41a12.4,12.4,0,0,0,24.75,0Z" transform="translate(-5.95 -5.82)"/><ellipse class="f" cx="28.48" cy="34.44" rx="13.15" ry="6.68"/><path class="d" d="M34.44,47.69c-7.8,0-13.9-3.27-13.9-7.43s6.1-7.44,13.9-7.44,13.9,3.27,13.9,7.44S42.23,47.69,34.44,47.69Zm0-13.37C27.71,34.32,22,37,22,40.26s5.67,5.93,12.4,5.93,12.4-2.72,12.4-5.93S41.16,34.32,34.44,34.32Z" transform="translate(-5.95 -5.82)"/><ellipse class="d" cx="28.48" cy="34.44" rx="9.27" ry="3.65"/><path class="d" d="M34.44,44.66c-4.86,0-10-1.55-10-4.4s5.17-4.41,10-4.41,10,1.55,10,4.41S39.3,44.66,34.44,44.66Zm0-7.31c-5.29,0-8.53,1.69-8.53,2.91s3.24,2.9,8.53,2.9S43,41.47,43,40.26,39.72,37.35,34.44,37.35Z" transform="translate(-5.95 -5.82)"/><path class="d" d="M34.78,53.09a.45.45,0,0,1-.2,0A1.68,1.68,0,0,1,33.65,52a1.75,1.75,0,0,1,.21-1.35.51.51,0,0,1,.7-.14.5.5,0,0,1,.14.69.67.67,0,0,0-.09.53.73.73,0,0,0,.37.43.5.5,0,0,1,.26.66A.52.52,0,0,1,34.78,53.09Z" transform="translate(-5.95 -5.82)"/><path class="d" d="M26.18,50.27a1.75,1.75,0,0,1-1.43-.77.5.5,0,1,1,.82-.57.74.74,0,0,0,.68.33.77.77,0,0,0,.5-.29.5.5,0,0,1,.7-.11.51.51,0,0,1,.1.7,1.73,1.73,0,0,1-1.19.7Z" transform="translate(-5.95 -5.82)"/><path class="d" d="M40.8,49h-.49a.5.5,0,0,1,0-1h.49a.5.5,0,0,1,0,1Z" transform="translate(-5.95 -5.82)"/><path class="f" d="M29.44,63l-.55.67a1.51,1.51,0,0,0-1.09-.54,1.29,1.29,0,0,0,0,2.58,1.61,1.61,0,0,0,1.09-.49l.56.6a2.44,2.44,0,0,1-1.7.75,2.14,2.14,0,1,1,0-4.27A2.37,2.37,0,0,1,29.44,63Z" transform="translate(-5.95 -5.82)"/><path class="f" d="M34.38,64.47a2.26,2.26,0,1,1-2.25-2.13A2.16,2.16,0,0,1,34.38,64.47Zm-3.54,0a1.31,1.31,0,0,0,1.3,1.32,1.31,1.31,0,1,0-1.3-1.32Z" transform="translate(-5.95 -5.82)"/><path class="f" d="M38.73,63l-.55.67a1.51,1.51,0,0,0-1.09-.54,1.29,1.29,0,0,0,0,2.58,1.61,1.61,0,0,0,1.09-.49l.56.6a2.46,2.46,0,0,1-1.7.75,2.14,2.14,0,1,1,0-4.27A2.37,2.37,0,0,1,38.73,63Z" transform="translate(-5.95 -5.82)"/><path class="f" d="M43.67,64.47a2.26,2.26,0,1,1-2.26-2.13A2.16,2.16,0,0,1,43.67,64.47Zm-3.54,0a1.31,1.31,0,0,0,1.3,1.32,1.31,1.31,0,1,0-1.3-1.32Z" transform="translate(-5.95 -5.82)"/><path class="f" d="M47.47,66.57l-2-2.69v2.69h-.9v-4.2h.86l2,2.7v-2.7h.9v4.2Z" transform="translate(-5.95 -5.82)"/><path class="f" d="M53.22,64.82a1.9,1.9,0,0,1-3.79,0V62.37h.94v2.45a.91.91,0,0,0,1,1,.89.89,0,0,0,.94-1V62.37h.95Z" transform="translate(-5.95 -5.82)"/><path class="f" d="M56.11,63.18v3.39h-.94V63.18H53.89v-.81H57.4v.81Z" transform="translate(-5.95 -5.82)"/></svg>