<svg xmlns="http://www.w3.org/2000/svg" viewBox="0 0 72.87 72.87"><defs><style>.a{fill:#f6a025;}.b{fill:none;stroke:#fff;stroke-miterlimit:10;stroke-width:2px;}.c{fill:#449346;}.d{fill:#ffe943;}.e{fill:#fef7c2;}.f{fill:#5fb561;}.g{fill:#643e4c;}.h{fill:#fff;}</style></defs><title>corn</title><rect class="a" x="1" y="1" width="70.87" height="70.87" rx="14.17"/><rect class="b" x="1" y="1" width="70.87" height="70.87" rx="14.17"/><path class="c" d="M35.48,42.62,31,40.49l-5.56,3.56,4.69-.79s1.31,2.81,2.43,3.41,4,3.81,4,3.81Z" transform="translate(-5.95 -5.82)"/><path class="d" d="M49.27,41c-1.1-7.94-3.58-20.11-6.46-20.11-3.9,0-7.06,22.36-7.06,26.26a7.06,7.06,0,0,0,7.06,7.06Z" transform="translate(-5.95 -5.82)"/><path class="e" d="M38.66,28.94a10.44,10.44,0,0,0,8.31,0s-1.63-8.08-4.16-8.08S38.66,28.94,38.66,28.94Z" transform="translate(-5.95 -5.82)"/><path class="f" d="M51.38,31.4S50,38.66,49.27,41c-.5,1.47-1.05,2.68-1.43,3.62A21.87,21.87,0,0,1,46,47.37l.77-2.78c-.33-.38-6.41,1.06-7.59,4.44s2.18,4.66,2.18,4.66,2.86,1.65,6.49-.83a10.23,10.23,0,0,0,3.39-5.71C51.42,44.05,52.45,35,52.45,35l5.72,4.58Z" transform="translate(-5.95 -5.82)"/><path class="g" d="M42.81,54.93A7.83,7.83,0,0,1,35,47.12c0-2.56,2.78-27,7.81-27,3.9,0,6.34,14.52,7.2,20.76a.75.75,0,1,1-1.49.21c-1.68-12.19-4.22-19.47-5.71-19.47-2.72,0-6.31,19.77-6.31,25.51a6.32,6.32,0,0,0,6.31,6.31.75.75,0,0,1,0,1.5Z" transform="translate(-5.95 -5.82)"/><path class="g" d="M45.54,45.22a.74.74,0,0,1-.75-.72c-.14-3.53-.5-9.46-1-14.76a.75.75,0,0,1,1.49-.15c.52,5.33.88,11.3,1,14.85a.76.76,0,0,1-.73.78Z" transform="translate(-5.95 -5.82)"/><path class="g" d="M40,48a.72.72,0,0,1-.74-.69.75.75,0,0,1,0-.15h0c0-2.39.66-12.41,1.31-19.07a.77.77,0,0,1,.82-.68.75.75,0,0,1,.67.82c-.64,6.63-1.29,16.57-1.29,18.88a1,1,0,0,1-.35.72.73.73,0,0,0,.34-.64.79.79,0,0,1-.73.81Z" transform="translate(-5.95 -5.82)"/><path class="g" d="M42.81,30.55a10.8,10.8,0,0,1-4.46-.93A.75.75,0,1,1,39,28.26a9.7,9.7,0,0,0,7.69,0,.75.75,0,1,1,.62,1.36A10.81,10.81,0,0,1,42.81,30.55Z" transform="translate(-5.95 -5.82)"/><path class="g" d="M42.81,34.24a13,13,0,0,1-5.33-1.1.75.75,0,0,1-.37-1,.74.74,0,0,1,1-.37,12,12,0,0,0,9.43,0,.75.75,0,0,1,.62,1.36A13,13,0,0,1,42.81,34.24Z" transform="translate(-5.95 -5.82)"/><path class="g" d="M42.81,37.82a14.4,14.4,0,0,1-5.92-1.23.75.75,0,1,1,.62-1.36,13.4,13.4,0,0,0,10.61,0,.75.75,0,1,1,.62,1.36A14.41,14.41,0,0,1,42.81,37.82Z" transform="translate(-5.95 -5.82)"/><path class="g" d="M42.81,41.23a15.75,15.75,0,0,1-6.45-1.33A.75.75,0,1,1,37,38.53a14.7,14.7,0,0,0,11.67,0,.75.75,0,1,1,.62,1.37A15.76,15.76,0,0,1,42.81,41.23Z" transform="translate(-5.95 -5.82)"/><path class="g" d="M42.81,44.65a15.79,15.79,0,0,1-6.45-1.34A.75.75,0,1,1,37,41.94a14.85,14.85,0,0,0,11.32.15.75.75,0,0,1,.58,1.39A16,16,0,0,1,42.81,44.65Z" transform="translate(-5.95 -5.82)"/><path class="g" d="M40.38,47.87h-.1a13.52,13.52,0,0,1-3.92-1.14A.75.75,0,1,1,37,45.35a12.54,12.54,0,0,0,3.52,1,.75.75,0,0,1-.11,1.49Z" transform="translate(-5.95 -5.82)"/><path class="g" d="M41.76,27h-.1a.75.75,0,0,1-.64-.85l.09-.69a.75.75,0,1,1,1.49.21l-.1.68A.74.74,0,0,1,41.76,27Z" transform="translate(-5.95 -5.82)"/><path class="g" d="M44,28.65a.76.76,0,0,1-.75-.68l-.06-.65a.75.75,0,0,1,.68-.82.73.73,0,0,1,.81.67l.07.66a.76.76,0,0,1-.68.82Z" transform="translate(-5.95 -5.82)"/><path class="g" d="M36.61,51.23a.72.72,0,0,1-.56-.25,26.78,26.78,0,0,0-3.8-3.65c-1-.55-2-2.3-2.51-3.24l-4.14.7a.75.75,0,0,1-.82-.47.73.73,0,0,1,.3-.9l5.56-3.56a.76.76,0,0,1,.73,0L35.8,42a.75.75,0,0,1,.36,1,.76.76,0,0,1-1,.35l-4.06-1.95L29,42.7,30,42.52a.77.77,0,0,1,.81.42A8.82,8.82,0,0,0,33,46c1.2.64,3.9,3.63,4.2,4a.76.76,0,0,1,0,1.06A.76.76,0,0,1,36.61,51.23Z" transform="translate(-5.95 -5.82)"/><path class="g" d="M43.77,55A6.08,6.08,0,0,1,41,54.37a4.3,4.3,0,0,1-2.58-5.59c1-3,5.13-4.5,7.14-4.9.89-.17,1.36-.13,1.66.15l.16-.38c.34-.8.76-1.79,1.14-2.91.75-2.24,2.06-9.4,2.08-9.47A.74.74,0,0,1,52,30.92l6.79,8.21a.75.75,0,0,1-1,1.06l-4.65-3.73c-.3,2.64-.93,8.41-1.07,10.74a11,11,0,0,1-3.72,6.28A7.91,7.91,0,0,1,43.77,55Zm2.67-9.7c-1,0-5.65,1.41-6.57,4A2.88,2.88,0,0,0,41.62,53l.11,0a4.33,4.33,0,0,0,1.57.42,4.94,4.94,0,0,1-.21-1.86c0-.68.3-1.63,1.86-4.06.14-.22.39-.56.67-.95s.63-.84.93-1.28l-.09,0Zm5.38-12.17c-.44,2.28-1.28,6.42-1.84,8.1-.4,1.18-.83,2.2-1.18,3l-.27.64a16.51,16.51,0,0,1-1.7,2.61c-.26.36-.49.67-.62.87-1.56,2.44-1.61,3.1-1.63,3.35a3.79,3.79,0,0,0,.27,1.67,7,7,0,0,0,2.56-1.13,9.58,9.58,0,0,0,3.07-5.13c.19-3.09,1.19-11.8,1.23-12.17a.75.75,0,0,1,1.2-.51Z" transform="translate(-5.95 -5.82)"/><path class="g" d="M47.23,53.4a.75.75,0,0,1-.75-.69,10.33,10.33,0,0,1,.07-2.29c.28-2,3-6.79,4.58-8a.75.75,0,0,1,1,.14.74.74,0,0,1-.13,1c-1.14.88-3.78,5.28-4,7a9.18,9.18,0,0,0-.05,2,.76.76,0,0,1-.69.81Z" transform="translate(-5.95 -5.82)"/><path class="h" d="M37.51,63l-.55.67a1.5,1.5,0,0,0-1.09-.54,1.29,1.29,0,0,0,0,2.58A1.61,1.61,0,0,0,37,65.26l.56.6a2.42,2.42,0,0,1-1.7.75,2.14,2.14,0,1,1,0-4.27A2.35,2.35,0,0,1,37.51,63Z" transform="translate(-5.95 -5.82)"/><path class="h" d="M42.45,64.47a2.26,2.26,0,1,1-2.25-2.13A2.16,2.16,0,0,1,42.45,64.47Zm-3.54,0a1.31,1.31,0,0,0,1.3,1.32,1.31,1.31,0,1,0-1.3-1.32Z" transform="translate(-5.95 -5.82)"/><path class="h" d="M45.23,65.37h-1v1.2h-1v-4.2h1.82c1.1,0,1.72.53,1.72,1.46a1.39,1.39,0,0,1-.78,1.36L47,66.57H45.9Zm-.09-.79c.52,0,.82-.24.82-.72s-.3-.7-.82-.7h-.87v1.42Z" transform="translate(-5.95 -5.82)"/><path class="h" d="M50.84,66.57l-2-2.69v2.69H47.9v-4.2h.87l2,2.7v-2.7h.89v4.2Z" transform="translate(-5.95 -5.82)"/></svg>