<svg xmlns="http://www.w3.org/2000/svg" viewBox="0 0 72.87 72.87"><defs><style>.a{fill:#bfb9ce;}.b{fill:none;stroke:#fff;stroke-miterlimit:10;stroke-width:2px;}.c{fill:#643e4c;}.d{fill:#8fc037;}.e{fill:#bb4135;}.f{fill:#fff;}</style></defs><title>cranberry</title><rect class="a" x="1" y="1" width="70.87" height="70.87" rx="14.17"/><rect class="b" x="1" y="1" width="70.87" height="70.87" rx="14.17"/><path class="c" d="M30.42,48.78a.76.76,0,0,1-.73-.56.76.76,0,0,1,.54-.92c4.16-1.11,8.13-3.34,9.41-4.77a17.52,17.52,0,0,0,3.47-7c.87-2.77,1.7-5.39,4.35-7.33a11.34,11.34,0,0,1,6.13-2,.74.74,0,0,1,.79.71.75.75,0,0,1-.7.79,9.86,9.86,0,0,0-5.34,1.77c-2.25,1.64-3,3.92-3.8,6.56a19.07,19.07,0,0,1-3.78,7.51c-1.46,1.62-5.65,4-10.15,5.22A.63.63,0,0,1,30.42,48.78Z" transform="translate(-5.95 -5.82)"/><rect class="d" x="53.9" y="25.14" width="4.81" height="2.49" transform="translate(-8.18 -0.43) rotate(-5.38)"/><path class="c" d="M54,28.6a.78.78,0,0,1-.48-.17.77.77,0,0,1-.26-.51L53,25.44a.74.74,0,0,1,.68-.81l4.79-.45a.76.76,0,0,1,.55.16.78.78,0,0,1,.27.51l.23,2.48a.74.74,0,0,1-.67.81l-4.8.45Zm.59-2.55.09,1,3.3-.31-.09-1Z" transform="translate(-5.95 -5.82)"/><path class="e" d="M46.67,26a1.89,1.89,0,1,0-2.22,1.5A1.89,1.89,0,0,0,46.67,26Z" transform="translate(-5.95 -5.82)"/><path class="c" d="M44.82,28.26a2.94,2.94,0,0,1-.51-.05,2.64,2.64,0,1,1,3.09-2.09h0a2.62,2.62,0,0,1-2.58,2.14Zm0-3.78a1.14,1.14,0,0,0-.22,2.26,1.18,1.18,0,0,0,.86-.17,1.15,1.15,0,0,0,.48-.73h0A1.14,1.14,0,0,0,45,24.5Z" transform="translate(-5.95 -5.82)"/><path class="e" d="M52.34,32.83a1.89,1.89,0,1,0-2.22,1.5A1.89,1.89,0,0,0,52.34,32.83Z" transform="translate(-5.95 -5.82)"/><path class="c" d="M50.49,35.11a2.21,2.21,0,0,1-.51,0A2.6,2.6,0,0,1,48.3,34a2.64,2.64,0,1,1,4.78-1h0a2.64,2.64,0,0,1-2.59,2.14Zm0-3.78a1.14,1.14,0,0,0-1,1.78,1.15,1.15,0,0,0,.73.48,1.11,1.11,0,0,0,.85-.17,1.08,1.08,0,0,0,.48-.73h0a1.14,1.14,0,0,0-.9-1.34Z" transform="translate(-5.95 -5.82)"/><circle class="e" cx="39.1" cy="30.97" r="3.33" transform="translate(-6.91 54.88) rotate(-74.96)"/><path class="c" d="M39.11,35.05a4.15,4.15,0,0,1-.79-.07,4.09,4.09,0,0,1-3.23-4.79,4.08,4.08,0,1,1,8,1.56h0a4.05,4.05,0,0,1-4,3.3Zm0-6.66a2.58,2.58,0,0,0-.49,5.12,2.59,2.59,0,0,0,3-2h0a2.57,2.57,0,0,0-2-3A2.83,2.83,0,0,0,39.09,28.39Z" transform="translate(-5.95 -5.82)"/><path class="f" d="M38,31.25h-.1a.49.49,0,0,1-.39-.59,1.67,1.67,0,0,1,2-1.32.5.5,0,0,1,.39.59.5.5,0,0,1-.58.39.71.71,0,0,0-.51.11.64.64,0,0,0-.28.42A.51.51,0,0,1,38,31.25Z" transform="translate(-5.95 -5.82)"/><path class="e" d="M51.38,41.51a3.33,3.33,0,1,0-3.91,2.63A3.34,3.34,0,0,0,51.38,41.51Z" transform="translate(-5.95 -5.82)"/><path class="c" d="M48.12,45a4.15,4.15,0,0,1-.79-.08,4.08,4.08,0,0,1-1.5-7.39,4.08,4.08,0,0,1,6.28,4.16h0a4.08,4.08,0,0,1-4,3.31Zm0-6.67a2.59,2.59,0,0,0-1.44.44,2.64,2.64,0,0,0-1.09,1.65,2.58,2.58,0,0,0,5.07,1h0a2.6,2.6,0,0,0-.39-1.94,2.57,2.57,0,0,0-1.65-1.09A2.83,2.83,0,0,0,48.1,38.29Z" transform="translate(-5.95 -5.82)"/><path class="f" d="M47,41.15h-.1a.48.48,0,0,1-.39-.58,1.64,1.64,0,0,1,.7-1.07,1.7,1.7,0,0,1,1.26-.26.5.5,0,0,1,.39.59.49.49,0,0,1-.58.39.71.71,0,0,0-.51.11.64.64,0,0,0-.28.43A.5.5,0,0,1,47,41.15Z" transform="translate(-5.95 -5.82)"/><path class="e" d="M39.11,39.77a2.9,2.9,0,1,0-3.41,2.3A2.91,2.91,0,0,0,39.11,39.77Z" transform="translate(-5.95 -5.82)"/><path class="c" d="M36.26,42.87a3.33,3.33,0,0,1-.7-.07,3.6,3.6,0,0,1-2.33-1.54,3.65,3.65,0,1,1,6.05-4.08,3.59,3.59,0,0,1,.56,2.74h0A3.65,3.65,0,0,1,36.26,42.87Zm0-5.8a2.16,2.16,0,0,0-2.12,1.74,2.15,2.15,0,0,0,4.23.82h0a2.16,2.16,0,0,0-1.7-2.52A2,2,0,0,0,36.26,37.07Z" transform="translate(-5.95 -5.82)"/><path class="f" d="M35.53,39.58h-.1A.5.5,0,0,1,35,39a1.25,1.25,0,0,1,.52-.79,1.23,1.23,0,0,1,.93-.19.5.5,0,0,1,.4.58.49.49,0,0,1-.59.4.25.25,0,0,0-.28.19A.51.51,0,0,1,35.53,39.58Z" transform="translate(-5.95 -5.82)"/><path class="e" d="M45.33,49.1a2.9,2.9,0,1,0-3.4,2.29A2.9,2.9,0,0,0,45.33,49.1Z" transform="translate(-5.95 -5.82)"/><path class="c" d="M42.49,52.2a4.27,4.27,0,0,1-.71-.07,3.64,3.64,0,0,1-2.88-4.28A3.65,3.65,0,0,1,43.18,45a3.67,3.67,0,0,1,2.89,4.28h0a3.68,3.68,0,0,1-3.58,3Zm0-5.81a2.15,2.15,0,0,0-1.2.37,2.13,2.13,0,0,0-.91,1.37,2.16,2.16,0,0,0,1.7,2.53A2.16,2.16,0,0,0,44.59,49a2.15,2.15,0,0,0-1.7-2.53A3,3,0,0,0,42.48,46.39Z" transform="translate(-5.95 -5.82)"/><path class="f" d="M41.75,48.9h-.09a.49.49,0,0,1-.4-.58,1.24,1.24,0,0,1,1.46-1,.49.49,0,0,1,.39.58.5.5,0,0,1-.58.4.25.25,0,0,0-.29.19A.49.49,0,0,1,41.75,48.9Z" transform="translate(-5.95 -5.82)"/><path class="e" d="M33,43.53A1.62,1.62,0,1,0,31,44.82,1.62,1.62,0,0,0,33,43.53Z" transform="translate(-5.95 -5.82)"/><path class="c" d="M31.36,45.6a2.4,2.4,0,0,1-.46-.05,2.32,2.32,0,0,1-1.51-1A2.35,2.35,0,0,1,29,42.77a2.38,2.38,0,0,1,2.79-1.88,2.33,2.33,0,0,1,1.51,1,2.28,2.28,0,0,1,.36,1.78,2.38,2.38,0,0,1-2.32,1.92Zm0-3.25a.88.88,0,0,0-.49.15.88.88,0,0,0,.33,1.58.87.87,0,0,0,1-.69h0a.89.89,0,0,0-.69-1Z" transform="translate(-5.95 -5.82)"/><path class="e" d="M30.31,48.58A1.81,1.81,0,1,0,28.19,50,1.81,1.81,0,0,0,30.31,48.58Z" transform="translate(-5.95 -5.82)"/><path class="c" d="M28.53,50.8a2.81,2.81,0,0,1-.49,0,2.57,2.57,0,0,1-2-3,2.51,2.51,0,0,1,1.08-1.64,2.56,2.56,0,0,1,3.95,2.61h0A2.57,2.57,0,0,1,28.53,50.8Zm0-3.63a1,1,0,0,0-.59.18,1,1,0,0,0-.45.68,1.06,1.06,0,0,0,.84,1.25,1.08,1.08,0,0,0,1.25-.84h0a1.08,1.08,0,0,0-.84-1.25Z" transform="translate(-5.95 -5.82)"/><path class="e" d="M37.16,51.43A1.81,1.81,0,1,0,35,52.87,1.81,1.81,0,0,0,37.16,51.43Z" transform="translate(-5.95 -5.82)"/><path class="c" d="M35.39,53.65a2.83,2.83,0,0,1-.5,0,2.52,2.52,0,0,1-1.63-1.08,2.47,2.47,0,0,1-.39-1.92A2.51,2.51,0,0,1,34,49a2.56,2.56,0,0,1,3.95,2.61,2.58,2.58,0,0,1-2.51,2.08Zm0-3.63a1.07,1.07,0,0,0-.88,1.66,1.07,1.07,0,0,0,.68.45A1.08,1.08,0,0,0,36,52a1.07,1.07,0,0,0-.4-1.93Z" transform="translate(-5.95 -5.82)"/><path class="c" d="M43,26.77h-.06l-.83-.06a.75.75,0,0,1-.69-.81.74.74,0,0,1,.8-.69l.84.07a.73.73,0,0,1,.68.8A.74.74,0,0,1,43,26.77Z" transform="translate(-5.95 -5.82)"/><path class="c" d="M34.71,32.69a.75.75,0,0,1-.16-1.48L35.69,31A.75.75,0,0,1,36,32.42l-1.13.25A.5.5,0,0,1,34.71,32.69Z" transform="translate(-5.95 -5.82)"/><path class="c" d="M33.36,39.79h0l-.81-.06a.75.75,0,0,1,.11-1.5l.81.06a.75.75,0,0,1-.06,1.5Z" transform="translate(-5.95 -5.82)"/><path class="c" d="M29.76,44.28h0l-.76,0a.75.75,0,1,1,0-1.5l.77,0a.76.76,0,0,1,.73.77A.74.74,0,0,1,29.76,44.28Z" transform="translate(-5.95 -5.82)"/><path class="c" d="M26.24,49.78a.76.76,0,0,1-.73-.57.75.75,0,0,1,.55-.91l.6-.15A.75.75,0,1,1,27,49.6l-.6.15A.57.57,0,0,1,26.24,49.78Z" transform="translate(-5.95 -5.82)"/><path class="c" d="M35.35,54.37h-.07a.75.75,0,0,1-.68-.81l.07-.68a.74.74,0,0,1,.81-.68.76.76,0,0,1,.68.82l-.06.68A.77.77,0,0,1,35.35,54.37Z" transform="translate(-5.95 -5.82)"/><path class="c" d="M42.75,53.27a.75.75,0,0,1-.75-.69l-.09-1.08a.75.75,0,1,1,1.5-.12l.08,1.08a.73.73,0,0,1-.68.8Z" transform="translate(-5.95 -5.82)"/><path class="c" d="M49.15,46a.75.75,0,0,1-.73-.6l-.22-1.1a.74.74,0,0,1,.58-.88.77.77,0,0,1,.89.58l.22,1.1a.75.75,0,0,1-.59.88Z" transform="translate(-5.95 -5.82)"/><path class="c" d="M51.34,35.92a.74.74,0,0,1-.71-.52l-.29-.91a.75.75,0,1,1,1.44-.44l.28.9a.75.75,0,0,1-.49.94A.91.91,0,0,1,51.34,35.92Z" transform="translate(-5.95 -5.82)"/><path class="c" d="M48.09,28.93a.72.72,0,0,1-.46-.16l-1.77-1.41a.75.75,0,0,1-.11-1.05.74.74,0,0,1,1-.12l1.76,1.41a.75.75,0,0,1-.47,1.33Z" transform="translate(-5.95 -5.82)"/><path class="c" d="M49.45,31.64a.75.75,0,0,1-.7-.48l-.94-2.44a.75.75,0,1,1,1.4-.54l.94,2.44a.75.75,0,0,1-.43,1A.65.65,0,0,1,49.45,31.64Z" transform="translate(-5.95 -5.82)"/><path class="c" d="M44.24,33.93h-.1L42,33.65a.75.75,0,1,1,.19-1.48l2.12.27a.75.75,0,0,1,.65.84A.74.74,0,0,1,44.24,33.93Z" transform="translate(-5.95 -5.82)"/><path class="c" d="M45.44,39.42a.69.69,0,0,1-.45-.16l-1.57-1.18a.76.76,0,0,1-.15-1,.75.75,0,0,1,1-.14l1.57,1.18a.75.75,0,0,1,.15,1A.77.77,0,0,1,45.44,39.42Z" transform="translate(-5.95 -5.82)"/><path class="c" d="M40.84,42.51a.75.75,0,0,1-.26,0l-2-.75a.75.75,0,1,1,.53-1.4l2,.75a.75.75,0,0,1,.43,1A.73.73,0,0,1,40.84,42.51Z" transform="translate(-5.95 -5.82)"/><path class="c" d="M40.37,46.73a.74.74,0,0,1-.68-.45l-.76-1.76a.75.75,0,0,1,1.37-.59l.76,1.75a.74.74,0,0,1-.39,1A.63.63,0,0,1,40.37,46.73Z" transform="translate(-5.95 -5.82)"/><path class="c" d="M34.15,46.92a.74.74,0,0,1-.51-.2l-1.45-1.37a.75.75,0,1,1,1-1.09l1.45,1.36a.75.75,0,0,1-.51,1.3Z" transform="translate(-5.95 -5.82)"/><path class="c" d="M36.21,49.58h-.15a.74.74,0,0,1-.58-.89L36,46a.76.76,0,0,1,.89-.59.74.74,0,0,1,.58.89L36.94,49A.74.74,0,0,1,36.21,49.58Z" transform="translate(-5.95 -5.82)"/><path class="f" d="M27.23,66.52a4.9,4.9,0,0,1-1.29.17,2.25,2.25,0,0,1-2.51-2.24,2.21,2.21,0,0,1,2.5-2.27,4.79,4.79,0,0,1,1.3.22l-.1,1A2.25,2.25,0,0,0,26,63a1.33,1.33,0,0,0-1.36,1.41,1.34,1.34,0,0,0,1.46,1.38,3,3,0,0,0,1.09-.23Z" transform="translate(-5.95 -5.82)"/><path class="f" d="M27.73,62.25h2.08c.77,0,1.4.35,1.4,1.1a1,1,0,0,1-.84,1.1h0c.38.11.41.44.62,1l.43,1.19H30.21L30,65.83c-.24-.75-.39-.94-.82-.94h-.25v1.73H27.73Zm1.16,1.81h.31c.37,0,.85,0,.85-.5s-.41-.48-.85-.48h-.31Z" transform="translate(-5.95 -5.82)"/><path class="f" d="M33.23,62.25h1.43l1.68,4.37H35.06l-.32-.94H33.1l-.35.94H31.57Zm.71.9h0l-.56,1.71h1.09Z" transform="translate(-5.95 -5.82)"/><path class="f" d="M36.81,62.25h1.48l1.48,3h0l0-3h1.07v4.37H39.38l-1.53-3h0l0,3H36.81Z" transform="translate(-5.95 -5.82)"/><path class="f" d="M41.62,62.25h2c.81,0,1.42.36,1.42,1.11a1,1,0,0,1-.77,1h0c.58.12.88.43.88,1,0,1.05-.92,1.27-1.7,1.27H41.62ZM42.79,64h.32c.38,0,.78-.1.78-.47s-.38-.43-.77-.43h-.33Zm0,1.81h.34c.43,0,.87-.06.87-.51s-.46-.51-.86-.51h-.35Z" transform="translate(-5.95 -5.82)"/><path class="f" d="M45.79,62.25h3.08v.83H47V64h1.8v.82H47v1h2v.83H45.79Z" transform="translate(-5.95 -5.82)"/><path class="f" d="M49.61,62.25h2.08c.77,0,1.41.35,1.41,1.1a1,1,0,0,1-.84,1.1h0c.37.11.4.44.62,1l.42,1.19H52.09l-.25-.79c-.24-.75-.39-.94-.82-.94h-.25v1.73H49.61Zm1.16,1.81h.31c.38,0,.85,0,.85-.5s-.41-.48-.85-.48h-.31Z" transform="translate(-5.95 -5.82)"/><path class="f" d="M53.78,62.25h2.08c.77,0,1.4.35,1.4,1.1a1,1,0,0,1-.83,1.1h0c.37.11.4.44.61,1l.43,1.19H56.26L56,65.83c-.24-.75-.39-.94-.82-.94h-.25v1.73H53.78Zm1.16,1.81h.31c.37,0,.85,0,.85-.5s-.41-.48-.85-.48h-.31Z" transform="translate(-5.95 -5.82)"/><path class="f" d="M59,65l-1.61-2.72h1.34L59.61,64l.84-1.75h1.34L60.19,65v1.65H59Z" transform="translate(-5.95 -5.82)"/></svg>