<svg xmlns="http://www.w3.org/2000/svg" viewBox="0 0 72.87 72.87"><defs><style>.a{fill:#66589f;}.b{fill:none;stroke:#fff;stroke-miterlimit:10;stroke-width:2px;}.c{fill:#5fb561;}.d{fill:#643e4c;}.e{fill:#449346;}.f{fill:#fff;}.g{fill:#ece97c;}</style></defs><title>cucumber</title><rect class="a" x="1" y="1" width="70.87" height="70.87" rx="14.17"/><rect class="b" x="1" y="1" width="70.87" height="70.87" rx="14.17"/><path class="c" d="M31,53.56a29.94,29.94,0,0,0,22-22c.94-3.86-1.14-7.18-3.56-7.06s-4.34,2.44-5,5A21.1,21.1,0,0,1,28.92,45c-2.54.64-4.88,2.55-5,5S27.14,54.5,31,53.56Z" transform="translate(-5.95 -5.82)"/><path class="d" d="M29.13,54.53a6.91,6.91,0,0,1-4.42-1.45A3.77,3.77,0,0,1,23.19,50c.13-3,3-5,5.55-5.68a20.24,20.24,0,0,0,15-14.94c.66-2.59,2.72-5.43,5.69-5.56A3.8,3.8,0,0,1,52.5,25.3a7.53,7.53,0,0,1,1.2,6.47A30.49,30.49,0,0,1,31.18,54.29,9,9,0,0,1,29.13,54.53ZM49.54,25.27h-.09c-2.21.09-3.78,2.36-4.3,4.42a21.74,21.74,0,0,1-16,16c-2.05.52-4.32,2.09-4.41,4.29a2.34,2.34,0,0,0,1,1.9,6,6,0,0,0,5.17.9h0A29.37,29.37,0,0,0,52.24,31.42a6,6,0,0,0-.9-5.17A2.4,2.4,0,0,0,49.54,25.27Z" transform="translate(-5.95 -5.82)"/><path class="e" d="M29,51.74a8.47,8.47,0,0,1-1-.06.51.51,0,0,1-.44-.56.5.5,0,0,1,.56-.43,5.79,5.79,0,0,0,3-.36,6.36,6.36,0,0,0,.59-.31,9.79,9.79,0,0,1,1.25-.61A10.35,10.35,0,0,1,34,49c.25-.08.48-.15.82-.29a4.35,4.35,0,0,0,1.07-.64,7,7,0,0,1,.88-.59A5.42,5.42,0,0,1,39,46.73a2.85,2.85,0,0,0,1.39-.52,2.38,2.38,0,0,0,.75-.8A5,5,0,0,1,42.39,44a9.85,9.85,0,0,1,1.07-.73,4.75,4.75,0,0,0,1.11-.83,16.2,16.2,0,0,0,1.26-1.58,14.87,14.87,0,0,0,1.48-2.18,2.9,2.9,0,0,0,.21-1.18,2.46,2.46,0,0,1,.41-1.43.5.5,0,0,1,.84.55,1.42,1.42,0,0,0-.25.91,4.15,4.15,0,0,1-.27,1.5,13.13,13.13,0,0,1-1.6,2.4,18,18,0,0,1-1.37,1.72,5.94,5.94,0,0,1-1.31,1,8.17,8.17,0,0,0-1,.65A4.15,4.15,0,0,0,42,45.94a3.39,3.39,0,0,1-1,1.09,3.72,3.72,0,0,1-1.8.68,4.86,4.86,0,0,0-1.83.65,6.43,6.43,0,0,0-.78.53,5.21,5.21,0,0,1-1.27.75,8,8,0,0,1-.93.34,9,9,0,0,0-1,.35,9,9,0,0,0-1.13.56c-.22.12-.42.23-.69.35A6.23,6.23,0,0,1,29,51.74Z" transform="translate(-5.95 -5.82)"/><path class="e" d="M50.18,33.7h-.1a.49.49,0,0,1-.39-.59,24.47,24.47,0,0,1,.7-2.67A.49.49,0,0,1,51,30.1a.51.51,0,0,1,.33.63,22.64,22.64,0,0,0-.67,2.57A.5.5,0,0,1,50.18,33.7Z" transform="translate(-5.95 -5.82)"/><path class="f" d="M25.84,49.53a.53.53,0,0,1-.24-.06.5.5,0,0,1-.2-.68,4.07,4.07,0,0,1,1.22-1.38,5.35,5.35,0,0,1,1.91-.76,7.39,7.39,0,0,1,1.25-.23,2,2,0,0,0,.59-.13,1.6,1.6,0,0,0,.71-.54,4.46,4.46,0,0,1,1-.86,4.05,4.05,0,0,1,1.55-.66,3.51,3.51,0,0,0,1.35-.56,4.55,4.55,0,0,0,.71-.57,3,3,0,0,1,1-.69,3.93,3.93,0,0,1,1-.26,1.71,1.71,0,0,0,.71-.24,1.31,1.31,0,0,0,.4-.39c.15-.18.35-.43.71-.82s.64-.64.84-.83a4.82,4.82,0,0,0,.59-.6,3.65,3.65,0,0,0,.5-.72c.12-.2.26-.44.54-.84a.5.5,0,0,1,.7-.12.52.52,0,0,1,.12.7c-.26.36-.38.58-.49.76a5.07,5.07,0,0,1-.61.87,6.39,6.39,0,0,1-.68.69c-.19.18-.41.38-.78.77s-.53.6-.66.77a2.29,2.29,0,0,1-.66.61,2.57,2.57,0,0,1-1.07.37,3.52,3.52,0,0,0-.75.2,1.89,1.89,0,0,0-.74.5,5.87,5.87,0,0,1-.85.68,4.64,4.64,0,0,1-1.67.69,3.1,3.1,0,0,0-1.22.52,3.58,3.58,0,0,0-.76.69,2.5,2.5,0,0,1-1.08.8,2.54,2.54,0,0,1-.87.2,6.87,6.87,0,0,0-1.1.21,4.31,4.31,0,0,0-1.58.6,3.12,3.12,0,0,0-.92,1.05A.49.49,0,0,1,25.84,49.53Z" transform="translate(-5.95 -5.82)"/><path class="f" d="M44.34,36.06a.5.5,0,0,1-.44-.73,5.24,5.24,0,0,0,.55-1.81.5.5,0,0,1,.55-.43.5.5,0,0,1,.44.55,5.88,5.88,0,0,1-.67,2.16A.47.47,0,0,1,44.34,36.06Z" transform="translate(-5.95 -5.82)"/><path class="d" d="M52.15,25.46a.45.45,0,0,1-.16,0,.51.51,0,0,1-.32-.63l.15-.43a.48.48,0,0,0-.3-.6l-.93-.3a.46.46,0,0,0-.59.3l-.14.43a.5.5,0,0,1-1-.31l.14-.43a1.48,1.48,0,0,1,1.86-.94l.92.3a1.48,1.48,0,0,1,.94,1.86l-.15.43A.49.49,0,0,1,52.15,25.46Z" transform="translate(-5.95 -5.82)"/><path class="g" d="M61.3,46.45s-3.2-1.13-4.4-.74a2.59,2.59,0,0,0-.6.3,2.41,2.41,0,0,0,.1-.67c0-1.25-2.06-4-2.06-4s-2.07,2.7-2.07,4a2.41,2.41,0,0,0,.1.67,2.41,2.41,0,0,0-.6-.3c-1.2-.39-4.4.74-4.4.74s1.92,2.8,3.12,3.19a2.53,2.53,0,0,0,.66.11,2.68,2.68,0,0,0-.47.48c-.74,1-.65,4.41-.65,4.41s3.26-1,4-2a2.85,2.85,0,0,0,.31-.6,2.14,2.14,0,0,0,.31.6c.74,1,4,2,4,2s.09-3.39-.65-4.41a2.68,2.68,0,0,0-.47-.48,2.53,2.53,0,0,0,.66-.11C59.38,49.25,61.3,46.45,61.3,46.45Zm-6,1.28A1.5,1.5,0,0,0,55,47.5a2.64,2.64,0,0,0,.38-.18A1.84,1.84,0,0,0,55.3,47.73Zm-1.92,0a2.7,2.7,0,0,0-.06-.41,2.64,2.64,0,0,0,.38.18A1.24,1.24,0,0,0,53.38,47.73ZM53,48.94a1.63,1.63,0,0,0,.13.39,2.07,2.07,0,0,0-.42-.08A1.42,1.42,0,0,0,53,48.94Zm1.36,1.15.2,0a1.72,1.72,0,0,0-.2.38,1.76,1.76,0,0,0-.21-.38Zm1.35-1.15a1.72,1.72,0,0,0,.29.31,2.07,2.07,0,0,0-.42.08A1.28,1.28,0,0,0,55.69,48.94Z" transform="translate(-5.95 -5.82)"/><path class="d" d="M50,55.14a.46.46,0,0,1-.29-.1.5.5,0,0,1-.21-.39c0-.35-.06-3.37.66-4.59-1.3-.56-3-3-3.23-3.32a.49.49,0,0,1-.06-.44.47.47,0,0,1,.31-.32c.33-.12,3.18-1.1,4.57-.79.12-1.41,1.95-3.82,2.16-4.1a.51.51,0,0,1,.4-.2h0a.5.5,0,0,1,.39.2c.22.28,2,2.69,2.17,4.1,1.38-.31,4.24.67,4.57.79a.48.48,0,0,1,.3.32.49.49,0,0,1-.06.44c-.2.29-1.93,2.76-3.23,3.32.73,1.22.67,4.24.66,4.59a.51.51,0,0,1-.64.47c-.34-.1-3.23-1-4.16-2-.94,1.07-3.83,2-4.17,2Zm-1.85-8.43a8.14,8.14,0,0,0,2.46,2.45,2.1,2.1,0,0,0,.54.09.51.51,0,0,1,.45.35.51.51,0,0,1-.16.54,1.7,1.7,0,0,0-.38.38A8.35,8.35,0,0,0,50.53,54a8.52,8.52,0,0,0,3.09-1.59,2,2,0,0,0,.25-.48.5.5,0,0,1,.47-.33h0a.51.51,0,0,1,.47.33,2,2,0,0,0,.24.48A8.52,8.52,0,0,0,58.14,54a8.37,8.37,0,0,0-.55-3.44,2.27,2.27,0,0,0-.38-.38A.49.49,0,0,1,57,49.6a.52.52,0,0,1,.46-.35,2.09,2.09,0,0,0,.53-.09,8.16,8.16,0,0,0,2.47-2.45,8.57,8.57,0,0,0-3.44-.53,1.7,1.7,0,0,0-.48.25.5.5,0,0,1-.57,0,.49.49,0,0,1-.19-.54,1.71,1.71,0,0,0,.08-.53,8.27,8.27,0,0,0-1.56-3.1,8.32,8.32,0,0,0-1.57,3.1,2.07,2.07,0,0,0,.08.53.49.49,0,0,1-.19.54.5.5,0,0,1-.57,0,1.7,1.7,0,0,0-.48-.25A8.51,8.51,0,0,0,48.18,46.71ZM54.34,51a.51.51,0,0,1-.47-.32,1.91,1.91,0,0,0-.15-.28.52.52,0,0,1,0-.55.51.51,0,0,1,.5-.22,1,1,0,0,0,.24,0,.49.49,0,0,1,.5.23.48.48,0,0,1,0,.54,1.91,1.91,0,0,0-.15.28A.5.5,0,0,1,54.34,51Zm1.22-1.12a.51.51,0,0,1-.45-.73.57.57,0,0,0,.08-.24.52.52,0,0,1,.38-.4.48.48,0,0,1,.51.18,2.39,2.39,0,0,0,.22.23.5.5,0,0,1,.16.54.51.51,0,0,1-.45.34l-.31.06Zm-2.45,0-.14,0a1.21,1.21,0,0,0-.31-.06.51.51,0,0,1-.45-.34.5.5,0,0,1,.16-.54,2.39,2.39,0,0,0,.22-.23.49.49,0,0,1,.52-.18.52.52,0,0,1,.37.4.75.75,0,0,0,.08.24.51.51,0,0,1-.07.55A.49.49,0,0,1,53.11,49.83Zm2.19-1.6a.5.5,0,0,1-.35-.14l-.21-.15A.5.5,0,0,1,54.8,47a1.55,1.55,0,0,0,.29-.14.5.5,0,0,1,.56,0,.51.51,0,0,1,.19.53,1.06,1.06,0,0,0,0,.31.51.51,0,0,1-.32.45Zm-1.92,0a.58.58,0,0,1-.19,0,.49.49,0,0,1-.31-.45,1.54,1.54,0,0,0-.05-.31.51.51,0,0,1,.76-.55,1.22,1.22,0,0,0,.28.14.5.5,0,0,1,.06.92.78.78,0,0,0-.2.14A.54.54,0,0,1,53.38,48.23Z" transform="translate(-5.95 -5.82)"/><path class="d" d="M57.65,40.06a3.59,3.59,0,0,1-1.68-.4,4.27,4.27,0,0,1-2-3.34,5.28,5.28,0,0,1,.87-3.47A13.49,13.49,0,0,0,56,30.24s1.41-5-.48-6.87a3,3,0,0,0-1.91-.73H53.5a2.53,2.53,0,0,0-1.82.88.5.5,0,0,1-.7,0,.5.5,0,0,1,0-.71,3.53,3.53,0,0,1,2.53-1.2,3.91,3.91,0,0,1,2.7,1c2.38,2.3.75,7.83.73,7.88a14.57,14.57,0,0,1-1.2,2.8A4.23,4.23,0,0,0,55,36.18a3.31,3.31,0,0,0,1.49,2.6A3.11,3.11,0,0,0,60.09,38a3.42,3.42,0,0,0,.72-2.71.51.51,0,0,1,.42-.57.5.5,0,0,1,.57.41,4.41,4.41,0,0,1-.95,3.53A4.33,4.33,0,0,1,57.65,40.06Z" transform="translate(-5.95 -5.82)"/><path class="f" d="M27.17,63l-.55.67a1.53,1.53,0,0,0-1.1-.54,1.29,1.29,0,0,0,0,2.58,1.63,1.63,0,0,0,1.1-.49l.55.6a2.42,2.42,0,0,1-1.69.75,2.14,2.14,0,1,1,0-4.27A2.39,2.39,0,0,1,27.17,63Z" transform="translate(-5.95 -5.82)"/><path class="f" d="M31.69,64.82a1.71,1.71,0,0,1-1.88,1.79,1.73,1.73,0,0,1-1.91-1.79V62.37h1v2.45a.91.91,0,0,0,1,1,.89.89,0,0,0,.93-1V62.37h1Z" transform="translate(-5.95 -5.82)"/><path class="f" d="M36.37,63l-.55.67a1.51,1.51,0,0,0-1.09-.54,1.29,1.29,0,0,0,0,2.58,1.61,1.61,0,0,0,1.09-.49l.56.6a2.46,2.46,0,0,1-1.7.75,2.14,2.14,0,1,1,0-4.27A2.37,2.37,0,0,1,36.37,63Z" transform="translate(-5.95 -5.82)"/><path class="f" d="M40.9,64.82a1.9,1.9,0,0,1-3.8,0V62.37h.95v2.45a.91.91,0,0,0,1,1,.89.89,0,0,0,.94-1V62.37h.95Z" transform="translate(-5.95 -5.82)"/><path class="f" d="M45.69,66.57V63.74l-1.12,2.41H44l-1.12-2.41v2.83H42v-4.2H43l1.23,2.57,1.21-2.57h1.06v4.2Z" transform="translate(-5.95 -5.82)"/><path class="f" d="M49.64,62.37c.93,0,1.5.41,1.5,1.05a.92.92,0,0,1-.72.93,1,1,0,0,1,.87,1.06c0,.72-.6,1.16-1.58,1.16h-2v-4.2Zm-1,1.7h.94c.35,0,.57-.18.57-.47s-.22-.45-.57-.45h-.94Zm0,1.73h.94c.45,0,.72-.19.72-.51s-.27-.49-.72-.49h-.94Z" transform="translate(-5.95 -5.82)"/><path class="f" d="M53.17,63.16v.91h2v.79h-2v.93h2.32v.78H52.23v-4.2h3.19v.79Z" transform="translate(-5.95 -5.82)"/><path class="f" d="M58.39,65.37h-1v1.2h-1v-4.2H58.3c1.09,0,1.72.53,1.72,1.46a1.39,1.39,0,0,1-.79,1.36l.89,1.38H59.05Zm-.09-.79c.52,0,.82-.24.82-.72s-.3-.7-.82-.7h-.88v1.42Z" transform="translate(-5.95 -5.82)"/></svg>