<svg xmlns="http://www.w3.org/2000/svg" viewBox="0 0 72.87 72.87"><defs><style>.a{fill:#66589f;}.b{fill:none;stroke:#fff;stroke-miterlimit:10;stroke-width:2px;}.c{fill:#b58059;}.d{fill:#643e4c;}.e{fill:#fff;}</style></defs><title>date</title><rect class="a" x="1" y="1" width="70.87" height="70.87" rx="14.17"/><rect class="b" x="1" y="1" width="70.87" height="70.87" rx="14.17"/><path class="c" d="M39.83,36.08c0-5-2.82-9-6.3-9s-6.31,4-6.31,9,2.82,9,6.31,9S39.83,41.05,39.83,36.08Z" transform="translate(-5.95 -5.82)"/><path class="d" d="M33.53,45.82c-3.9,0-7.06-4.37-7.06-9.74s3.16-9.74,7.06-9.74,7,4.37,7,9.74S37.42,45.82,33.53,45.82Zm0-18c-3.07,0-5.56,3.69-5.56,8.24s2.49,8.24,5.56,8.24,5.55-3.7,5.55-8.24S36.59,27.84,33.53,27.84Z" transform="translate(-5.95 -5.82)"/><path class="e" d="M29.34,36.09h-.06a.75.75,0,0,1-.69-.8c.2-2.76,1.42-5.24,3.11-6.3a.74.74,0,0,1,1,.23.76.76,0,0,1-.23,1c-1.28.8-2.25,2.87-2.41,5.13A.75.75,0,0,1,29.34,36.09Z" transform="translate(-5.95 -5.82)"/><path class="e" d="M29.68,39.57A.76.76,0,0,1,29,39c-.06-.22-.11-.45-.16-.67a.74.74,0,0,1,.58-.89.75.75,0,0,1,.89.57,5.45,5.45,0,0,0,.14.58.74.74,0,0,1-.52.92A.76.76,0,0,1,29.68,39.57Z" transform="translate(-5.95 -5.82)"/><ellipse class="c" cx="50.07" cy="33.83" rx="6.31" ry="8.99" transform="translate(-15.21 39.49) rotate(-45)"/><path class="d" d="M52.73,42.35a8.14,8.14,0,0,1-1.45-.13,11.82,11.82,0,0,1-6.2-3.4c-3.8-3.79-4.65-9.12-1.9-11.88s8.08-1.9,11.88,1.9h0c3.8,3.8,4.65,9.13,1.9,11.88A5.83,5.83,0,0,1,52.73,42.35ZM47.43,26.8A4.39,4.39,0,0,0,44.24,28c-2.17,2.17-1.32,6.55,1.9,9.76a10.47,10.47,0,0,0,5.4,3,4.81,4.81,0,0,0,4.36-1.09c2.16-2.17,1.31-6.54-1.9-9.76A9.79,9.79,0,0,0,47.43,26.8Z" transform="translate(-5.95 -5.82)"/><circle class="c" cx="38.14" cy="42.16" r="6.38"/><path class="d" d="M44.1,55.12A7.14,7.14,0,1,1,51.23,48,7.14,7.14,0,0,1,44.1,55.12Zm0-12.77A5.64,5.64,0,1,0,49.73,48,5.64,5.64,0,0,0,44.1,42.35Z" transform="translate(-5.95 -5.82)"/><path class="e" d="M34.63,62.25h1.59c1.52,0,2.58.48,2.58,2.16s-1.09,2.21-2.58,2.21H34.63Zm1.16,3.5h.45a1.32,1.32,0,1,0,0-2.64h-.45Z" transform="translate(-5.95 -5.82)"/><path class="e" d="M40.79,62.25h1.43l1.68,4.37H42.63l-.33-.94H40.66l-.34.94H39.13Zm.72.9h0l-.56,1.71H42Z" transform="translate(-5.95 -5.82)"/><path class="e" d="M44.68,63.11H43.6v-.86h3.32v.86H45.85v3.51H44.68Z" transform="translate(-5.95 -5.82)"/><path class="e" d="M47.37,62.25h3.08v.83H48.54V64h1.81v.82H48.54v1h2v.83H47.37Z" transform="translate(-5.95 -5.82)"/></svg>