<svg xmlns="http://www.w3.org/2000/svg" viewBox="0 0 72.87 72.87"><defs><style>.a{fill:#449346;}.b{fill:none;stroke:#fff;stroke-miterlimit:10;stroke-width:2px;}.c{fill:#fff;}.d{fill:#f6a025;}.e{fill:#b58059;}.f{fill:#643e4c;}</style></defs><title>default-img</title><rect class="a" x="1" y="1" width="70.87" height="70.87" rx="14.17"/><rect class="b" x="1" y="1" width="70.87" height="70.87" rx="14.17"/><polygon class="c" points="22.65 28.14 20.54 30.56 23.28 33.32 26.09 61.81 45.39 61.81 48.2 32.28 51.25 30.72 49.22 28.14 47.77 22.83 43.7 17.91 37.73 15.64 31.77 16.11 26.48 19.27 22.97 24.42 22.65 28.14"/><polygon class="d" points="23.87 38.73 47.59 38.73 45.39 61.81 26.4 61.81 23.87 38.73"/><polygon class="e" points="37.58 27.98 21.09 28.38 20.54 30.56 21.75 31.78 48.81 31.97 50.57 31.07 50.57 29.08 45 28.38 37.58 27.98"/><path class="f" d="M51.1,23.54c.63-1.52,1.26-3,1.85-4.48A1.78,1.78,0,0,1,54.11,18c1.41-.49,2.81-1,4.21-1.57l.43-.14.79,2.09c-1.37.52-2.7,1-4,1.52a1,1,0,0,0-.67.65q-.91,2.23-1.86,4.44a.59.59,0,0,0,.11.7A13.64,13.64,0,0,1,56,32.76a.88.88,0,0,0,.4.52A3.1,3.1,0,0,1,58,36.23a3,3,0,0,1-1.9,2.68,7.31,7.31,0,0,1-1,.29c-.1,1.09-.21,2.2-.31,3.31l-.6,6.74c-.19,2.14-.37,4.28-.56,6.42-.23,2.58-.47,5.15-.7,7.73-.12,1.36-.25,2.71-.35,4.07-.06.93-.45,1.33-1.37,1.33H32.35c-1,0-1.33-.31-1.42-1.28-.17-1.74-.3-3.48-.46-5.22-.19-2.18-.39-4.35-.59-6.53s-.37-4.28-.56-6.42-.39-4.39-.59-6.58c-.09-1.05-.17-2.09-.26-3.14,0-.27,0-.48-.41-.54a3.09,3.09,0,0,1-.94-5.77.75.75,0,0,0,.44-.67A14.39,14.39,0,0,1,39.75,20.22a14,14,0,0,1,10.87,3Zm-.67,43,1.82-20.6h-21l1.83,20.6ZM29.82,32.92l.5,0H46.74a.6.6,0,0,0,.64-.46c.79-1.93,1.6-3.86,2.41-5.79.47-1.15.48-1.16-.53-1.91a12.23,12.23,0,0,0-9.35-2.3A11.38,11.38,0,0,0,31,28.82,10.59,10.59,0,0,0,29.82,32.92Zm1.27,10.62a.59.59,0,0,0,.14.05H42.46a.66.66,0,0,0,.43-.33c.5-1.06,1-2.13,1.46-3.19l.41-.9H30.7Zm10.67-6.66H46.9c2.71,0,5.42,0,8.14,0a.91.91,0,0,0,.67-.32c.37-.83,0-1.35-.89-1.35H28.57c-.23,0-.58.06-.69.23a.91.91,0,0,0,.81,1.44ZM52.85,39.2a1,1,0,0,0-.21-.05c-1.69,0-3.39,0-5.09,0-.16,0-.38.21-.46.38-.56,1.18-1.09,2.38-1.63,3.57-.06.15-.13.29-.21.47h7.21Zm-1-11.62-2.22,5.33h4.08A11.54,11.54,0,0,0,51.87,27.58Z" transform="translate(-5.95 -5.82)"/><path class="f" d="M39.81,25.09a6.67,6.67,0,0,1,.88.13,1.09,1.09,0,0,1,.8,1.24,1.13,1.13,0,0,1-1.13,1c-.39,0-.77-.05-1.15,0a3,3,0,0,0-2.64,2.34,5,5,0,0,0-.11.56,1.19,1.19,0,0,1-1.28,1,1.16,1.16,0,0,1-1-1.34A5.87,5.87,0,0,1,39.81,25.09Z" transform="translate(-5.95 -5.82)"/></svg>