<svg xmlns="http://www.w3.org/2000/svg" viewBox="0 0 72.87 72.87"><defs><style>.a{fill:#8b7ab7;}.b{fill:none;stroke:#fff;stroke-miterlimit:10;stroke-width:2px;}.c{fill:#643e4c;}.d{fill:#5fb561;}.e{fill:#b3b3b3;}.f{fill:#fff;}</style></defs><title>detox</title><rect class="a" x="1" y="1" width="70.87" height="70.87" rx="14.17"/><rect class="b" x="1" y="1" width="70.87" height="70.87" rx="14.17"/><path class="c" d="M57.45,28.87a15.89,15.89,0,0,1,1.49,9A20.4,20.4,0,0,1,55.06,48.4a16.54,16.54,0,0,1-11,7,16,16,0,0,1-8.18-1,1.31,1.31,0,0,0-1.31.15,4.45,4.45,0,0,0-2,2.83c-.14.62-.41.78-1,.75a7.4,7.4,0,0,1-4-1.16A3,3,0,0,1,26.29,53,9.67,9.67,0,0,1,34,46.62c2.21-.36,2.7-1,2.18-3.2-.39-1.67-.9-3.33-1.29-5a10.64,10.64,0,0,1,.78-7.87c-.71-.78-1.45-1.5-2.08-2.3a10.3,10.3,0,0,1-2-4.92,1.66,1.66,0,0,1,.25-1,7.47,7.47,0,0,1,4.52-3.27c.94-.27,1.92-.41,2.88-.61.18,1.23.27,2.39.55,3.51a11.53,11.53,0,0,0,1,2.26.7.7,0,0,0,1,.36,7.36,7.36,0,0,1,1.23-.3l-.68,2.36a3.88,3.88,0,0,0-.71.17,1.17,1.17,0,0,1-1.52-.3A13.88,13.88,0,0,1,38.32,24a20.42,20.42,0,0,1-1-3A5.79,5.79,0,0,0,33.86,23a.85.85,0,0,0-.08.63,8.49,8.49,0,0,0,3.34,5.19c.49.35,1,.65,1.57,1-.19.28-.37.56-.57.83A7.24,7.24,0,0,0,36.64,35a18.41,18.41,0,0,0,.88,5.21,15.4,15.4,0,0,1,.93,4.86,3,3,0,0,1-1.62,2.75,8.93,8.93,0,0,1-2.46.83,7.94,7.94,0,0,0-6.14,5.07,1.06,1.06,0,0,0,.51,1.53,15.84,15.84,0,0,0,1.49.58c.4.17.62,0,.79-.34a6.29,6.29,0,0,1,3-3,2.26,2.26,0,0,1,1.84-.35,28.86,28.86,0,0,0,4.34,1.13,12.76,12.76,0,0,0,10.12-2.8,17,17,0,0,0,5.11-6.73,20.21,20.21,0,0,0,1.46-9.81,12.41,12.41,0,0,0-.5-2.13Z" transform="translate(-5.95 -5.82)"/><path class="d" d="M57.45,28.87c-.36,1-.73,1.93-1.1,2.9l-.45.58A7.59,7.59,0,0,1,44.56,33a7.73,7.73,0,0,1-2.22-6.39L43,24.28a7.92,7.92,0,0,1,4.83-4,7.64,7.64,0,0,1,9.63,8.34ZM55.06,26H51.47V22.48H48.35v3.58H44.81V29.2H48.4v3.54h3.09V29.17h3.57Z" transform="translate(-5.95 -5.82)"/><path class="e" d="M38.75,39.37l1.68-1.52a4.06,4.06,0,0,0,3.29,1.78,4.2,4.2,0,0,0,3.33-1.84,4,4,0,0,0,3.32,1.84,4,4,0,0,0,3.26-1.78c.52.45,1,.88,1.51,1.33a.48.48,0,0,1,0,.36c-1.26,5.7-4.24,10-9.95,12a9,9,0,0,1-4.77.39,2.35,2.35,0,0,1-1.77-3.56,19.35,19.35,0,0,0,1.07-2.59,8,8,0,0,0-.38-4.09C39.21,40.86,39,40.1,38.75,39.37Z" transform="translate(-5.95 -5.82)"/><path class="f" d="M32.16,62.25h1.59c1.52,0,2.58.48,2.58,2.16s-1.09,2.21-2.58,2.21H32.16Zm1.16,3.5h.45a1.32,1.32,0,1,0,0-2.64h-.45Z" transform="translate(-5.95 -5.82)"/><path class="f" d="M37,62.25h3.08v.83H38.16V64H40v.82h-1.8v1h2v.83H37Z" transform="translate(-5.95 -5.82)"/><path class="f" d="M41.59,63.11H40.52v-.86h3.31v.86H42.76v3.51H41.59Z" transform="translate(-5.95 -5.82)"/><path class="f" d="M46.34,62.18a2.26,2.26,0,0,1,0,4.51,2.26,2.26,0,0,1,0-4.51Zm0,3.65c.71,0,1-.68,1-1.4s-.28-1.39-1-1.39-1,.64-1,1.39S45.64,65.83,46.34,65.83Z" transform="translate(-5.95 -5.82)"/><path class="f" d="M50.25,64.32,49,62.25h1.35l.73,1.44.76-1.44H53.1l-1.27,2.07,1.4,2.3H51.84L51,65l-.83,1.61H48.84Z" transform="translate(-5.95 -5.82)"/></svg>