<svg xmlns="http://www.w3.org/2000/svg" viewBox="0 0 72.87 72.87"><defs><style>.a{fill:#bb4135;}.b{fill:none;stroke:#fff;stroke-miterlimit:10;stroke-width:2px;}.c{fill:#8b7ab7;}.d{fill:#643e4c;}.e{fill:#8fc037;}.f{fill:#fff;}.g{fill:#66589f;}</style></defs><title>eggplant</title><rect class="a" x="1" y="1" width="70.87" height="70.87" rx="14.17"/><rect class="b" x="1" y="1" width="70.87" height="70.87" rx="14.17"/><path class="c" d="M46.41,35.3a11.5,11.5,0,0,1-8.07,2.23c-5.94-.64-9.64,3.57-9.64,8s4.35,8.54,9.64,8c9-1,15.27-8.35,17.11-14.26a5.3,5.3,0,0,0-2.61-4.34C50.09,33,46.41,35.3,46.41,35.3Z" transform="translate(-5.95 -5.82)"/><path class="d" d="M37.39,54.27a9.7,9.7,0,0,1-6.48-2.47,8.58,8.58,0,0,1-3-6.3A8.71,8.71,0,0,1,30.84,39a9.6,9.6,0,0,1,7.58-2.24A10.91,10.91,0,0,0,46,34.68a.74.74,0,0,1,1,.19.76.76,0,0,1-.2,1.05,12.22,12.22,0,0,1-8.57,2.36,8,8,0,0,0-6.42,1.86,7.26,7.26,0,0,0-2.39,5.36,7,7,0,0,0,2.47,5.18,8.21,8.21,0,0,0,6.34,2c8.29-.89,14.56-7.59,16.48-13.75a.75.75,0,0,1,1.43.45c-2.06,6.63-8.82,13.83-17.75,14.79C38.08,54.25,37.73,54.27,37.39,54.27Z" transform="translate(-5.95 -5.82)"/><path class="e" d="M58.33,37.48a2.73,2.73,0,0,1-1.68-2.61,3.6,3.6,0,0,0-2.35-3.6,4.53,4.53,0,0,0-4.57,1.1c-2,2-4.69.61-4.69.61a2.75,2.75,0,0,0,1.79,2.55,5.71,5.71,0,0,0,3.6.39c-.19,1.8-.39,5.27-.39,5.27l3.16-4a3.29,3.29,0,0,0,1.66,1.91c1.12.48,1.82-.28,2.76.16,1.17.55,1.07,1.35,1.07,1.35S59.79,38.05,58.33,37.48Z" transform="translate(-5.95 -5.82)"/><path class="d" d="M50,41.94a.76.76,0,0,1-.75-.8c0-.12.15-2.53.3-4.36a6.12,6.12,0,0,1-3.09-.57,3.51,3.51,0,0,1-2.21-3.29.78.78,0,0,1,.38-.59.75.75,0,0,1,.7,0,3.54,3.54,0,0,0,3.84-.47,5.23,5.23,0,0,1,5.35-1.27,4.37,4.37,0,0,1,2.84,4.27,2,2,0,0,0,1.2,1.94,1.85,1.85,0,0,1,1.06,1,4.54,4.54,0,0,1-.28,3A.75.75,0,0,1,58,40.47h0s-.05-.31-.65-.59a1.24,1.24,0,0,0-.82,0,3.11,3.11,0,0,1-1.91-.14,3.43,3.43,0,0,1-1.48-1.24l-2.46,3.15A.75.75,0,0,1,50,41.94Zm.39-6.77a.74.74,0,0,1,.74.82c-.08.77-.16,1.84-.23,2.82l1.66-2.13a.75.75,0,0,1,1.29.16,2.66,2.66,0,0,0,1.27,1.52,1.64,1.64,0,0,0,1.05,0,2.66,2.66,0,0,1,1.73.13,3.78,3.78,0,0,1,.4.22,1,1,0,0,0-.07-.37.32.32,0,0,0-.21-.2,3.43,3.43,0,0,1-2.16-3.27A2.88,2.88,0,0,0,54,32a3.81,3.81,0,0,0-3.77.94,4.52,4.52,0,0,1-4.08,1.19,2.75,2.75,0,0,0,1,.76,5,5,0,0,0,3.13.32Z" transform="translate(-5.95 -5.82)"/><path class="f" d="M33.86,42.37a.73.73,0,0,1-.6-.3.75.75,0,0,1,.15-1,7.23,7.23,0,0,1,4.46-1.4.75.75,0,1,1,0,1.5,5.76,5.76,0,0,0-3.53,1.1A.78.78,0,0,1,33.86,42.37Z" transform="translate(-5.95 -5.82)"/><path class="f" d="M32,44.69a.8.8,0,0,1-.33-.08.75.75,0,0,1-.34-1,6.17,6.17,0,0,1,.44-.78.75.75,0,1,1,1.25.82,6,6,0,0,0-.34.61A.76.76,0,0,1,32,44.69Z" transform="translate(-5.95 -5.82)"/><path class="g" d="M45.64,49.28a.45.45,0,0,1-.2,0,.5.5,0,0,1-.26-.66,4.34,4.34,0,0,0,.14-3.21.51.51,0,0,1,.32-.63.5.5,0,0,1,.63.32,5.55,5.55,0,0,1,.24,2.48A5.63,5.63,0,0,1,46.1,49,.51.51,0,0,1,45.64,49.28Z" transform="translate(-5.95 -5.82)"/><path class="g" d="M44.53,43.49a.48.48,0,0,1-.37-.17,6.35,6.35,0,0,0-.65-.62.5.5,0,0,1,.63-.78,5.91,5.91,0,0,1,.76.74.48.48,0,0,1,0,.7A.46.46,0,0,1,44.53,43.49Z" transform="translate(-5.95 -5.82)"/><path class="d" d="M54.75,31.71a.5.5,0,0,1-.46-.32c-.51-1.33-.57-3.08.43-4a2.47,2.47,0,0,1,1.54-.7.5.5,0,0,1,.53.47.49.49,0,0,1-.46.52,1.53,1.53,0,0,0-.94.45c-.65.6-.54,1.92-.17,2.9a.49.49,0,0,1-.29.64A.39.39,0,0,1,54.75,31.71Z" transform="translate(-5.95 -5.82)"/><path class="f" d="M26.15,63.16v.91h2v.79h-2v.93h2.31v.78H25.2v-4.2h3.2v.79Z" transform="translate(-5.95 -5.82)"/><path class="f" d="M33.09,64.46v1.61a3.12,3.12,0,0,1-1.7.54,2.14,2.14,0,1,1,.05-4.27,2.64,2.64,0,0,1,1.69.62l-.54.67a1.78,1.78,0,0,0-1.15-.46,1.31,1.31,0,1,0,0,2.62,1.89,1.89,0,0,0,.82-.23v-1.1Z" transform="translate(-5.95 -5.82)"/><path class="f" d="M37.8,64.46v1.61a3.12,3.12,0,0,1-1.7.54,2.14,2.14,0,1,1,0-4.27,2.64,2.64,0,0,1,1.69.62l-.54.67a1.78,1.78,0,0,0-1.15-.46,1.31,1.31,0,1,0,0,2.62,1.89,1.89,0,0,0,.82-.23v-1.1Z" transform="translate(-5.95 -5.82)"/><path class="f" d="M40.65,62.37c1.07,0,1.68.53,1.68,1.46a1.47,1.47,0,0,1-1.68,1.54h-.83v1.2h-1v-4.2Zm-.83,2.21h.78c.53,0,.83-.24.83-.72s-.3-.7-.83-.7h-.78Z" transform="translate(-5.95 -5.82)"/><path class="f" d="M45.92,65.74v.83H43.18v-4.2h.94v3.37Z" transform="translate(-5.95 -5.82)"/><path class="f" d="M47.58,65.76l-.33.81h-1l1.83-4.2h1l1.8,4.2h-1l-.33-.81Zm1-2.4L47.89,65h1.33Z" transform="translate(-5.95 -5.82)"/><path class="f" d="M54.49,66.57l-2-2.69v2.69h-.9v-4.2h.86l2,2.7v-2.7h.9v4.2Z" transform="translate(-5.95 -5.82)"/><path class="f" d="M58.33,63.18v3.39h-.95V63.18H56.1v-.81h3.51v.81Z" transform="translate(-5.95 -5.82)"/></svg>