<svg xmlns="http://www.w3.org/2000/svg" viewBox="0 0 72.87 72.87"><defs><style>.a{fill:#8fc037;}.b{fill:none;stroke:#fff;stroke-miterlimit:10;stroke-width:2px;}.c{fill:#66589f;}.d{fill:#643e4c;}.e{fill:#8b7ab7;}.f{fill:#fff;}</style></defs><title>fig</title><rect class="a" x="1" y="1" width="70.87" height="70.87" rx="14.17"/><rect class="b" x="1" y="1" width="70.87" height="70.87" rx="14.17"/><path class="c" d="M42.9,25.11c2.32.1,4.52,1.76,4.52,5.69,0,7,3.24,6.71,4.2,11.39.7,3.4-2.17,7.69-5.28,8.06a8.65,8.65,0,0,1-3.67-.57h-.3a8.65,8.65,0,0,1-3.67.57c-3.11-.37-6-4.66-5.28-8.06,1-4.68,4.2-4.38,4.2-11.39,0-3.93,2.2-5.59,4.52-5.69Z" transform="translate(-5.95 -5.82)"/><path class="d" d="M39.19,51a5.09,5.09,0,0,1-.58,0,6.64,6.64,0,0,1-4.4-2.92,7.93,7.93,0,0,1-1.53-6,10.43,10.43,0,0,1,2.07-4.36c1.09-1.53,2.12-3,2.12-6.88,0-4.6,2.82-6.34,5.24-6.44h.82c2.42.1,5.24,1.85,5.24,6.44,0,3.91,1,5.35,2.12,6.88A10.43,10.43,0,0,1,52.36,42a7.93,7.93,0,0,1-1.53,6A6.66,6.66,0,0,1,46.43,51a9.56,9.56,0,0,1-3.91-.56A10,10,0,0,1,39.19,51Zm3-25.16c-2.35.1-3.77,1.94-3.77,4.94,0,4.39-1.22,6.1-2.4,7.75a9.06,9.06,0,0,0-1.82,3.79,6.53,6.53,0,0,0,1.28,4.85,5.26,5.26,0,0,0,3.36,2.31A7.85,7.85,0,0,0,42,49a.85.85,0,0,1,.35-.08h.3A.85.85,0,0,1,43,49a7.82,7.82,0,0,0,3.23.49,5.26,5.26,0,0,0,3.36-2.31,6.53,6.53,0,0,0,1.28-4.85,9.06,9.06,0,0,0-1.82-3.79c-1.18-1.65-2.4-3.36-2.4-7.75,0-3-1.41-4.83-3.79-4.94Z" transform="translate(-5.95 -5.82)"/><path class="e" d="M47.63,46.63a.72.72,0,0,1-.4-.12.74.74,0,0,1-.23-1,3.94,3.94,0,0,0,.68-2.64,5.57,5.57,0,0,0-.33-1.09,3.22,3.22,0,0,0-1-1.52A3,3,0,0,0,44,40.16a.74.74,0,0,1-.93-.51.76.76,0,0,1,.52-.93,4.3,4.3,0,0,1,3.61.29,4.62,4.62,0,0,1,1.54,2.16,6.86,6.86,0,0,1,.42,1.37,5.29,5.29,0,0,1-.89,3.74A.73.73,0,0,1,47.63,46.63Z" transform="translate(-5.95 -5.82)"/><path class="e" d="M45.29,48.52A.75.75,0,0,1,45.2,47a1.07,1.07,0,0,0,.35-.12.75.75,0,0,1,1,.34.76.76,0,0,1-.34,1,2.64,2.64,0,0,1-.83.26Z" transform="translate(-5.95 -5.82)"/><path class="f" d="M40,33.81h-.08a.74.74,0,0,1-.66-.83,21,21,0,0,0,.11-2.17,4.08,4.08,0,0,1,1.27-3.41.76.76,0,0,1,1.06.15.75.75,0,0,1-.15,1.05,2.79,2.79,0,0,0-.68,2.21,21.66,21.66,0,0,1-.12,2.34A.76.76,0,0,1,40,33.81Z" transform="translate(-5.95 -5.82)"/><path class="f" d="M39,37.64a.66.66,0,0,1-.3-.07.75.75,0,0,1-.38-1c.12-.29.25-.6.36-.93a.75.75,0,1,1,1.42.47c-.13.38-.27.74-.41,1.07A.76.76,0,0,1,39,37.64Z" transform="translate(-5.95 -5.82)"/><path class="f" d="M37.68,62.25H40.6v.83H38.85v1h1.68v.83H38.85v1.76H37.68Z" transform="translate(-5.95 -5.82)"/><path class="f" d="M41.24,62.25h1.17v4.37H41.24Z" transform="translate(-5.95 -5.82)"/><path class="f" d="M47.31,66.49a6.36,6.36,0,0,1-1.69.2,2.26,2.26,0,0,1-2.51-2.24c0-1.64,1.16-2.27,2.76-2.27a4.24,4.24,0,0,1,1.32.19l-.09,1A2.24,2.24,0,0,0,46,63c-.95,0-1.73.39-1.73,1.41a1.34,1.34,0,0,0,1.46,1.38,1,1,0,0,0,.42-.08v-.86H45.5v-.83h1.81Z" transform="translate(-5.95 -5.82)"/></svg>