<svg xmlns="http://www.w3.org/2000/svg" viewBox="0 0 72.87 72.87"><defs><style>.a{fill:#449346;}.b{fill:none;stroke:#fff;stroke-miterlimit:10;stroke-width:2px;}.c{fill:#fff;}.d{fill:#bfb9ce;}.e{fill:#e6d7eb;}.f{fill:#8fc037;}.g{fill:#643e4c;}</style></defs><title>garlic</title><rect class="a" x="1" y="1" width="70.87" height="70.87" rx="14.17"/><rect class="b" x="1" y="1" width="70.87" height="70.87" rx="14.17"/><polygon class="c" points="30.75 20.25 29.19 22.44 28.06 21.05 25.31 23.74 21.48 28.87 18.82 33.95 19.56 37.96 21.4 40.8 26.94 42.96 27.69 44.23 34.23 44.55 34.51 42.59 39.13 41.95 38.2 44.23 36.57 45.19 37.58 46.54 38.67 46.54 39.53 45.88 43.15 47.2 47.42 47.2 50.78 45.19 53.36 42.04 54.06 38.45 53.36 33.73 51.29 30.84 41.22 40.38 42.07 36.43 42.68 33.45 40.04 28.97 37.12 24.44 33.36 20.25 32.21 21.57 30.75 20.25"/><path class="d" d="M44.23,34.83c-.29.22.36,1.07.55,2.84a9.67,9.67,0,0,1-.38,3.7,10,10,0,0,1-2.79,5.25c-.8.71-1.49,1-1.42,1.21.16.4,2.42.28,4.29-.75a6.92,6.92,0,0,0,2.63-2.5A7.25,7.25,0,0,0,48,40.79,6.77,6.77,0,0,0,47.57,38C46.7,35.93,44.67,34.52,44.23,34.83Z" transform="translate(-5.95 -5.82)"/><path class="d" d="M29,35.12c-1.56,1.26-2.34,1.89-2.91,3.17a6.81,6.81,0,0,0-.29,4.58A7,7,0,0,0,27.61,46a6.84,6.84,0,0,0,2.83,1.67c.75.21,2.22.64,2.63.08S32.42,46.17,30.9,43a13,13,0,0,1-1.29-3.25c-.43-2.64.74-4.78.21-5C29.66,34.63,29.43,34.76,29,35.12Z" transform="translate(-5.95 -5.82)"/><path class="e" d="M36.15,34c-.57,0-.93,4.26-1.56,4.25s-.4-2.63-1.25-2.81-3,2.74-2.94,5.87a6.82,6.82,0,0,0,2.38,5.19,6.25,6.25,0,0,0,7.31.37,7.23,7.23,0,0,0,3-4.12c.47-1.46.57-3.12.19-3.25s-1,1.4-1.57,1.31c-1.06-.16-.86-5-1.75-5.12-.72-.1-1.4,3.07-2.18,3S36.74,34,36.15,34Z" transform="translate(-5.95 -5.82)"/><path class="f" d="M57.25,36.66a12.5,12.5,0,0,1,.25-2.94,6.34,6.34,0,0,1,1.91-3,11,11,0,0,0-.34,3.07c0,1.33-.59,3.56.44,6.41Z" transform="translate(-5.95 -5.82)"/><path class="g" d="M59.51,40.74a.49.49,0,0,1-.47-.33,11.88,11.88,0,0,1-.53-5.52c0-.4.07-.75.06-1.06q0-.8.06-1.41A4.33,4.33,0,0,0,58,33.83a12.48,12.48,0,0,0-.25,2.77.5.5,0,0,1-.43.56.5.5,0,0,1-.56-.43A12.4,12.4,0,0,1,57,33.61a6.77,6.77,0,0,1,2.06-3.23.51.51,0,0,1,.6,0,.5.5,0,0,1,.2.57,11.06,11.06,0,0,0-.31,2.92A10.06,10.06,0,0,1,59.5,35,11.1,11.1,0,0,0,60,40.07a.5.5,0,0,1-.3.64A.51.51,0,0,1,59.51,40.74Z" transform="translate(-5.95 -5.82)"/><path class="g" d="M50.41,53.86a10.38,10.38,0,0,1-5.14-1.36l-.87.87a.75.75,0,0,1-1.06,0L41.94,52a.75.75,0,0,1,0-1.06L56.72,36.13a.75.75,0,0,1,1.06,0,10.39,10.39,0,0,1-7.37,17.73ZM45.16,50.8a.78.78,0,0,1,.41.12A8.89,8.89,0,0,0,57.22,37.75L43.53,51.44l.34.34.72-.72A.76.76,0,0,1,45.16,50.8Z" transform="translate(-5.95 -5.82)"/><path class="d" d="M57,44.9a.75.75,0,0,1-.75-.74,4.12,4.12,0,0,0-.06-.65.75.75,0,0,1,.63-.85.76.76,0,0,1,.86.63c0,.24.06.52.07.85a.75.75,0,0,1-.74.76Z" transform="translate(-5.95 -5.82)"/><path class="d" d="M49.53,51.36a10.94,10.94,0,0,1-3-.41A.75.75,0,1,1,47,49.51a9.76,9.76,0,0,0,5,.07,7.12,7.12,0,0,0,3.63-3,.75.75,0,0,1,1.31.74A8.48,8.48,0,0,1,52.28,51,11.86,11.86,0,0,1,49.53,51.36Z" transform="translate(-5.95 -5.82)"/><path class="g" d="M36.7,49c-4.36,0-7.91-3.81-7.91-8.5,0-4.45,7-15,7.29-15.47a.79.79,0,0,1,1.25,0c.3.45,7.29,11,7.29,15.47C44.62,45.23,41.07,49,36.7,49Zm0-22.18c-2.24,3.51-6.41,10.67-6.41,13.68,0,3.86,2.88,7,6.41,7s6.42-3.14,6.42-7C43.12,37.53,38.94,30.37,36.7,26.86Z" transform="translate(-5.95 -5.82)"/><path class="g" d="M32.14,49c-4.36,0-7.92-3.81-7.92-8.5,0-4.44,8.31-13.9,9.26-15a.72.72,0,0,1,.65-.24.73.73,0,0,1,.57.4s.42.8,1,2.06a.75.75,0,0,1-1.35.65l-.5-1c-2.81,3.28-8.15,10.14-8.15,13.13,0,3.86,2.88,7,6.42,7a5.89,5.89,0,0,0,1.77-.27.76.76,0,0,1,.94.5.74.74,0,0,1-.5.93A7.18,7.18,0,0,1,32.14,49Z" transform="translate(-5.95 -5.82)"/><path class="g" d="M41.27,49a7.58,7.58,0,0,1-2.54-.44.75.75,0,0,1-.45-1,.74.74,0,0,1,1-.45,6.06,6.06,0,0,0,2,.35c3.53,0,6.41-3.14,6.41-7,0-3-5.33-9.85-8.14-13.13l-.5,1a.75.75,0,1,1-1.35-.65c.6-1.26,1-2.07,1-2.07a.78.78,0,0,1,.58-.39.72.72,0,0,1,.65.24c1,1.07,9.25,10.53,9.25,15C49.18,45.23,45.63,49,41.27,49Z" transform="translate(-5.95 -5.82)"/><path class="g" d="M36.71,31.76a.78.78,0,0,1-.66-.38L34.4,28.49a.74.74,0,0,1,.27-1,.75.75,0,0,1,1,.27l1,1.76,1-1.76a.75.75,0,1,1,1.3.75l-1.65,2.89A.78.78,0,0,1,36.71,31.76Z" transform="translate(-5.95 -5.82)"/><path class="g" d="M40.35,51H33.06a.76.76,0,0,1-.75-.75v-2a.75.75,0,0,1,.75-.75h7.29a.75.75,0,0,1,.75.75v2A.76.76,0,0,1,40.35,51Zm-6.54-1.5H39.6V49H33.81Z" transform="translate(-5.95 -5.82)"/><path class="g" d="M34.39,45.42a.76.76,0,0,1-.7-.47,11.72,11.72,0,0,1-.8-4.34c0-.4,0-.78.06-1.14a.76.76,0,0,1,.83-.67.75.75,0,0,1,.67.82,8,8,0,0,0-.06,1,10.18,10.18,0,0,0,.7,3.78.75.75,0,0,1-.43,1A.65.65,0,0,1,34.39,45.42Z" transform="translate(-5.95 -5.82)"/><path class="g" d="M34.39,37.43a.86.86,0,0,1-.27,0,.75.75,0,0,1-.42-1c.06-.18.13-.34.19-.48a.75.75,0,1,1,1.37.61l-.17.41A.74.74,0,0,1,34.39,37.43Z" transform="translate(-5.95 -5.82)"/><path class="g" d="M38.23,48.87a.76.76,0,0,1-.41-1.39A5.13,5.13,0,0,0,39,46.15a6.25,6.25,0,0,0,.63-3.07,8.79,8.79,0,0,0-.07-1.62.75.75,0,1,1,1.49-.19,10.65,10.65,0,0,1,.08,1.87,7.61,7.61,0,0,1-.76,3.64,6.56,6.56,0,0,1-1.75,2A.72.72,0,0,1,38.23,48.87Z" transform="translate(-5.95 -5.82)"/><path class="g" d="M39.71,39.77A.74.74,0,0,1,39,39.3c-.07-.17-.13-.32-.19-.44a.76.76,0,0,1,.38-1,.75.75,0,0,1,1,.38q.11.23.21.51a.75.75,0,0,1-.42,1A.66.66,0,0,1,39.71,39.77Z" transform="translate(-5.95 -5.82)"/><path class="c" d="M34.63,64.46v1.61a3.12,3.12,0,0,1-1.7.54,2.15,2.15,0,0,1-2.24-2.14A2.17,2.17,0,0,1,33,62.34a2.62,2.62,0,0,1,1.69.62l-.54.67A1.78,1.78,0,0,0,33,63.17a1.31,1.31,0,1,0,0,2.62,1.89,1.89,0,0,0,.82-.23v-1.1Z" transform="translate(-5.95 -5.82)"/><path class="c" d="M36.53,65.76l-.33.81h-1l1.83-4.2h1l1.8,4.2h-1l-.33-.81Zm1-2.4L36.84,65h1.33Z" transform="translate(-5.95 -5.82)"/><path class="c" d="M42.41,65.37h-1v1.2H40.5v-4.2h1.82c1.1,0,1.72.53,1.72,1.46a1.39,1.39,0,0,1-.79,1.36l.9,1.38H43.07Zm-.09-.79c.52,0,.82-.24.82-.72s-.3-.7-.82-.7h-.88v1.42Z" transform="translate(-5.95 -5.82)"/><path class="c" d="M47.83,65.74v.83H45.08v-4.2h1v3.37Z" transform="translate(-5.95 -5.82)"/><path class="c" d="M48.63,66.57v-4.2h.95v4.2Z" transform="translate(-5.95 -5.82)"/><path class="c" d="M54.34,63l-.55.67a1.51,1.51,0,0,0-1.09-.54,1.29,1.29,0,0,0,0,2.58,1.61,1.61,0,0,0,1.09-.49l.56.6a2.46,2.46,0,0,1-1.7.75,2.14,2.14,0,1,1,0-4.27A2.37,2.37,0,0,1,54.34,63Z" transform="translate(-5.95 -5.82)"/></svg>