<svg xmlns="http://www.w3.org/2000/svg" viewBox="0 0 72.87 72.87"><defs><style>.a{fill:#f6a025;}.b{fill:none;stroke:#fff;stroke-miterlimit:10;stroke-width:2px;}.c{fill:#77bf84;}.d{fill:#449346;}.e{fill:#643e4c;}.f{fill:#fff;}</style></defs><title>gooseberry</title><rect class="a" x="1" y="1" width="70.87" height="70.87" rx="14.17"/><rect class="b" x="1" y="1" width="70.87" height="70.87" rx="14.17"/><path class="c" d="M44.05,34.89A5.22,5.22,0,1,0,38,30.69,5.23,5.23,0,0,0,44.05,34.89Z" transform="translate(-5.95 -5.82)"/><path class="d" d="M42.19,33.53a6.85,6.85,0,0,1-2.49-.43,3.23,3.23,0,0,1-2.22-2.32,3.23,3.23,0,0,1,1.26-3,8.27,8.27,0,0,1,7.78-1.42,3.24,3.24,0,0,1,2.22,2.33,3.23,3.23,0,0,1-1.26,3,7.73,7.73,0,0,1-3.71,1.7h0A8.51,8.51,0,0,1,42.19,33.53ZM44,27a7.55,7.55,0,0,0-1.41.13,6.67,6.67,0,0,0-3.22,1.47,2.25,2.25,0,0,0-.94,2,2.27,2.27,0,0,0,1.59,1.57,6.65,6.65,0,0,0,3.53.24h0a6.67,6.67,0,0,0,3.22-1.47,2.28,2.28,0,0,0,.95-2,2.3,2.3,0,0,0-1.6-1.57A5.75,5.75,0,0,0,44,27Z" transform="translate(-5.95 -5.82)"/><path class="d" d="M36.61,31.44a.51.51,0,0,1-.5-.41.5.5,0,0,1,.41-.58l11.63-2.12a.5.5,0,0,1,.18,1L36.69,31.43Z" transform="translate(-5.95 -5.82)"/><path class="c" d="M55.08,36.59a5.22,5.22,0,1,0-2.73,6.86A5.22,5.22,0,0,0,55.08,36.59Z" transform="translate(-5.95 -5.82)"/><path class="d" d="M51.52,44.11c-1.7,0-3.58-1.56-4.63-4a7.63,7.63,0,0,1-.63-4A2.92,2.92,0,0,1,51.19,34a7.62,7.62,0,0,1,2.49,3.23c1.27,3,.77,5.9-1.13,6.72A2.62,2.62,0,0,1,51.52,44.11ZM49,34.19a1.63,1.63,0,0,0-.62.12,2.28,2.28,0,0,0-1.17,1.91,6.73,6.73,0,0,0,.56,3.49c1,2.35,3,3.86,4.34,3.28s1.62-3.05.61-5.41a6.69,6.69,0,0,0-2.14-2.81A2.85,2.85,0,0,0,49,34.19Z" transform="translate(-5.95 -5.82)"/><path class="d" d="M52.9,45.22a.49.49,0,0,1-.46-.3L47.77,34.06a.5.5,0,1,1,.92-.4l4.67,10.87a.49.49,0,0,1-.27.65A.43.43,0,0,1,52.9,45.22Z" transform="translate(-5.95 -5.82)"/><path class="c" d="M41.32,44.24A5.22,5.22,0,1,0,34,43.05,5.23,5.23,0,0,0,41.32,44.24Z" transform="translate(-5.95 -5.82)"/><path class="d" d="M36.24,44.5a3.08,3.08,0,0,1-2.62-1.16c-1.21-1.68-.11-4.47,2.49-6.34s5.59-2,6.8-.34a3.23,3.23,0,0,1,.14,3.21A7.74,7.74,0,0,1,40.42,43h0a7.59,7.59,0,0,1-3.79,1.49Zm4.06-8a6.51,6.51,0,0,0-3.61,1.31c-2.07,1.5-3.11,3.76-2.26,4.95a2.29,2.29,0,0,0,2.12.73,6.7,6.7,0,0,0,3.29-1.3h0a6.58,6.58,0,0,0,2.28-2.71,2.29,2.29,0,0,0,0-2.24A2.12,2.12,0,0,0,40.3,36.5Z" transform="translate(-5.95 -5.82)"/><path class="d" d="M32.9,44.36a.51.51,0,0,1-.41-.21.5.5,0,0,1,.12-.7l9.6-6.9a.5.5,0,0,1,.69.11.49.49,0,0,1-.11.7l-9.6,6.91A.52.52,0,0,1,32.9,44.36Z" transform="translate(-5.95 -5.82)"/><path class="c" d="M49.3,47a4.21,4.21,0,1,0-3.89,4.49A4.22,4.22,0,0,0,49.3,47Z" transform="translate(-5.95 -5.82)"/><path class="d" d="M45.29,52A2.76,2.76,0,0,1,43.1,50.7a6.73,6.73,0,0,1-.47-6.45,2.45,2.45,0,0,1,4.48-.32,6.27,6.27,0,0,1,1.06,3.17h0a6.23,6.23,0,0,1-.59,3.28A2.68,2.68,0,0,1,45.44,52Zm-.37-8.4h-.08a1.77,1.77,0,0,0-1.32,1.09A5.3,5.3,0,0,0,43,47.47a5.22,5.22,0,0,0,.87,2.65,1.76,1.76,0,0,0,1.46.89,1.72,1.72,0,0,0,1.32-1.09,5.15,5.15,0,0,0,.48-2.75h0a5.22,5.22,0,0,0-.87-2.66A1.79,1.79,0,0,0,44.92,43.62Z" transform="translate(-5.95 -5.82)"/><path class="d" d="M45.49,53.13a.5.5,0,0,1-.5-.47l-.68-9.5a.49.49,0,0,1,.46-.53.5.5,0,0,1,.53.46l.69,9.5a.5.5,0,0,1-.47.54Z" transform="translate(-5.95 -5.82)"/><circle class="c" cx="36.71" cy="50.23" r="4.21" transform="translate(-15.23 2.5) rotate(-11.49)"/><path class="d" d="M35.36,54.52a2.21,2.21,0,0,1-1.25-.37,2.69,2.69,0,0,1-1.06-2.47,6.71,6.71,0,0,1,3.58-5.38,2.7,2.7,0,0,1,2.69,0,2.66,2.66,0,0,1,1,2.46,6.31,6.31,0,0,1-1.1,3.16A5.17,5.17,0,0,1,35.36,54.52ZM38.06,47a2.62,2.62,0,0,0-1,.25A5.32,5.32,0,0,0,35,49.09a5.17,5.17,0,0,0-.94,2.63,1.75,1.75,0,0,0,.61,1.6c.93.62,2.67-.27,3.78-1.94h0a5.24,5.24,0,0,0,.93-2.63,1.73,1.73,0,0,0-.61-1.6A1.23,1.23,0,0,0,38.06,47Z" transform="translate(-5.95 -5.82)"/><path class="d" d="M33.76,55.17a.46.46,0,0,1-.27-.09.49.49,0,0,1-.14-.69l5.27-7.93a.5.5,0,1,1,.83.56l-5.27,7.92A.51.51,0,0,1,33.76,55.17Z" transform="translate(-5.95 -5.82)"/><path class="e" d="M47.68,34.05a.5.5,0,0,1-.43-.25.51.51,0,0,1,.17-.69,8.93,8.93,0,0,0,2.66-2.32,11,11,0,0,0,1.18-2,3.81,3.81,0,0,1,1.83-2.15,3.74,3.74,0,0,1,3,.27.51.51,0,0,1,.25.67.49.49,0,0,1-.66.24,2.84,2.84,0,0,0-2.23-.26c-.61.26-.89.82-1.31,1.67a13,13,0,0,1-1.28,2.17,10.1,10.1,0,0,1-3,2.58A.59.59,0,0,1,47.68,34.05Z" transform="translate(-5.95 -5.82)"/><path class="e" d="M50.56,30.7h-.11l-1.67-.39a.5.5,0,1,1,.22-1l1.68.39a.5.5,0,0,1-.12,1Z" transform="translate(-5.95 -5.82)"/><path class="e" d="M43.1,35.73a6,6,0,0,1-3.39-1.07,5.89,5.89,0,0,1-2.47-3.84,6,6,0,1,1,6.94,4.81A6.57,6.57,0,0,1,43.1,35.73Zm0-10.45a5.54,5.54,0,0,0-.81.07,4.49,4.49,0,0,0-3.6,5.21,4.48,4.48,0,0,0,5.2,3.59h0a4.47,4.47,0,0,0,3.6-5.2,4.5,4.5,0,0,0-4.39-3.67Z" transform="translate(-5.95 -5.82)"/><path class="e" d="M50.29,44.62a6,6,0,1,1,2.35-.48A6.06,6.06,0,0,1,50.29,44.62Zm0-10.44a4.37,4.37,0,0,0-1.76.36,4.48,4.48,0,1,0,1.76-.36Z" transform="translate(-5.95 -5.82)"/><path class="e" d="M38.28,46a5.47,5.47,0,0,1-1-.08,5.91,5.91,0,0,1-3.88-2.4A6,6,0,1,1,44.16,41a6,6,0,0,1-5.88,5Zm0-10.44a4.4,4.4,0,0,0-2.6.84,4.47,4.47,0,0,0-1,6.24,4.48,4.48,0,0,0,6.24,1h0a4.43,4.43,0,0,0,1.8-2.91,4.47,4.47,0,0,0-4.42-5.19Z" transform="translate(-5.95 -5.82)"/><path class="e" d="M45.1,52.27a4.92,4.92,0,1,1,.36,0Zm0-8.41h-.25a3.5,3.5,0,0,0-2.37,1.18,3.46,3.46,0,1,0,6.06,2h0a3.42,3.42,0,0,0-1.18-2.37A3.49,3.49,0,0,0,45.11,43.86Z" transform="translate(-5.95 -5.82)"/><path class="e" d="M36.7,55.19a4.95,4.95,0,0,1-4.11-7.7A5,5,0,0,1,40.84,53h0a4.94,4.94,0,0,1-3.15,2.11A4.75,4.75,0,0,1,36.7,55.19Zm0-8.41a3.23,3.23,0,0,0-.69.07,3.45,3.45,0,0,0,1.36,6.77,3.41,3.41,0,0,0,2.2-1.47h0a3.46,3.46,0,0,0-2.87-5.37Z" transform="translate(-5.95 -5.82)"/><path class="f" d="M24.06,64.46v1.61a3.12,3.12,0,0,1-1.7.54,2.14,2.14,0,1,1,.05-4.27A2.64,2.64,0,0,1,24.1,63l-.54.67a1.78,1.78,0,0,0-1.15-.46,1.31,1.31,0,1,0,0,2.62,1.89,1.89,0,0,0,.82-.23v-1.1Z" transform="translate(-5.95 -5.82)"/><path class="f" d="M29.34,64.47a2.26,2.26,0,1,1-2.26-2.13A2.16,2.16,0,0,1,29.34,64.47Zm-3.54,0a1.31,1.31,0,0,0,1.3,1.32,1.31,1.31,0,1,0-1.3-1.32Z" transform="translate(-5.95 -5.82)"/><path class="f" d="M34.31,64.47a2.26,2.26,0,1,1-2.26-2.13A2.16,2.16,0,0,1,34.31,64.47Zm-3.54,0a1.31,1.31,0,0,0,1.29,1.32,1.31,1.31,0,1,0-1.29-1.32Z" transform="translate(-5.95 -5.82)"/><path class="f" d="M38.3,62.79l-.36.78a3,3,0,0,0-1.31-.43c-.32,0-.53.12-.53.34,0,.78,2.23.35,2.23,1.86,0,.82-.72,1.26-1.65,1.26a3,3,0,0,1-1.85-.66l.38-.78a2.44,2.44,0,0,0,1.49.63c.39,0,.62-.14.62-.4,0-.79-2.24-.33-2.24-1.82,0-.76.66-1.24,1.63-1.24A2.94,2.94,0,0,1,38.3,62.79Z" transform="translate(-5.95 -5.82)"/><path class="f" d="M40.18,63.16v.91h2v.79h-2v.93H42.5v.78H39.24v-4.2h3.19v.79Z" transform="translate(-5.95 -5.82)"/><path class="f" d="M45.41,62.37c.93,0,1.5.41,1.5,1.05a.92.92,0,0,1-.72.93,1,1,0,0,1,.87,1.06c0,.72-.6,1.16-1.58,1.16h-2v-4.2Zm-1,1.7h.94c.35,0,.57-.18.57-.47s-.22-.45-.57-.45h-.94Zm0,1.73h.94c.45,0,.72-.19.72-.51s-.27-.49-.72-.49h-.94Z" transform="translate(-5.95 -5.82)"/><path class="f" d="M48.94,63.16v.91h2v.79h-2v.93h2.32v.78H48v-4.2h3.19v.79Z" transform="translate(-5.95 -5.82)"/><path class="f" d="M54.16,65.37h-1v1.2h-.95v-4.2h1.83c1.09,0,1.72.53,1.72,1.46A1.39,1.39,0,0,1,55,65.19l.9,1.38H54.82Zm-.09-.79c.52,0,.82-.24.82-.72s-.3-.7-.82-.7h-.88v1.42Z" transform="translate(-5.95 -5.82)"/><path class="f" d="M58.74,65.37h-1v1.2h-.94v-4.2h1.82c1.1,0,1.72.53,1.72,1.46a1.39,1.39,0,0,1-.78,1.36l.89,1.38H59.41Zm-.09-.79c.52,0,.82-.24.82-.72s-.3-.7-.82-.7h-.88v1.42Z" transform="translate(-5.95 -5.82)"/><path class="f" d="M63.39,66.57h-1V65.24l-1.55-2.87h1l1.08,1.89,1-1.89h1l-1.53,2.85Z" transform="translate(-5.95 -5.82)"/></svg>