<svg xmlns="http://www.w3.org/2000/svg" viewBox="0 0 72.87 72.87"><defs><style>.a{fill:#b58059;}.b{fill:none;stroke:#fff;stroke-miterlimit:10;stroke-width:2px;}.c{fill:#fff;}.d{fill:#ea5740;}.e{fill:#f6a025;}.f{fill:#643e4c;}.g{fill:#8fc037;}</style></defs><title>grapefruit</title><rect class="a" x="1" y="1" width="70.87" height="70.87" rx="14.17"/><rect class="b" x="1" y="1" width="70.87" height="70.87" rx="14.17"/><path class="c" d="M27.34,66.49a6.36,6.36,0,0,1-1.69.2,2.25,2.25,0,0,1-2.51-2.24c0-1.64,1.16-2.27,2.76-2.27a4.27,4.27,0,0,1,1.32.19l-.1,1A2.24,2.24,0,0,0,26.06,63c-.94,0-1.72.39-1.72,1.41a1.34,1.34,0,0,0,1.46,1.38,1,1,0,0,0,.41-.08v-.86h-.68v-.83h1.81Z" transform="translate(-5.95 -5.82)"/><path class="c" d="M28.13,62.25h2.08c.78,0,1.41.35,1.41,1.1a1,1,0,0,1-.84,1.1h0c.37.11.4.44.62,1l.42,1.19H30.61l-.25-.79c-.24-.75-.39-.94-.82-.94H29.3v1.73H28.13Zm1.17,1.81h.3c.38,0,.85,0,.85-.5s-.4-.48-.85-.48h-.3Z" transform="translate(-5.95 -5.82)"/><path class="c" d="M33.63,62.25h1.43l1.68,4.37H35.47l-.33-.94H33.5l-.34.94H32Zm.72.9h0l-.56,1.71h1.1Z" transform="translate(-5.95 -5.82)"/><path class="c" d="M37.13,62.25h1.39c1.33,0,2,.45,2,1.43s-.65,1.41-1.73,1.41H38.3v1.53H37.13Zm1.17,2h.3c.4,0,.72-.14.72-.6s-.32-.58-.72-.58h-.3Z" transform="translate(-5.95 -5.82)"/><path class="c" d="M41,62.25h3.08v.83H42.15V64H44v.82h-1.8v1h2v.83H41Z" transform="translate(-5.95 -5.82)"/><path class="c" d="M44.8,62.25h2.92v.83H46v1h1.68v.83H46v1.76H44.8Z" transform="translate(-5.95 -5.82)"/><path class="c" d="M48.28,62.25h2.07c.78,0,1.41.35,1.41,1.1a1,1,0,0,1-.84,1.1h0c.38.11.4.44.62,1L52,66.62H50.75l-.25-.79c-.23-.75-.38-.94-.82-.94h-.24v1.73H48.28Zm1.16,1.81h.31c.37,0,.85,0,.85-.5s-.41-.48-.85-.48h-.31Z" transform="translate(-5.95 -5.82)"/><path class="c" d="M56.24,65c0,1.19-.77,1.73-1.91,1.73s-1.92-.54-1.92-1.73V62.25h1.17v2.52c0,.57.15,1.06.75,1.06s.75-.49.75-1.06V62.25h1.16Z" transform="translate(-5.95 -5.82)"/><path class="c" d="M57.05,62.25h1.16v4.37H57.05Z" transform="translate(-5.95 -5.82)"/><path class="c" d="M59.83,63.11H58.75v-.86h3.32v.86H61v3.51H59.83Z" transform="translate(-5.95 -5.82)"/><path class="d" d="M43.79,51.87a11.45,11.45,0,0,0,5.61,1.45A10.79,10.79,0,0,0,60,45.67l.71-2.5H48.34Z" transform="translate(-5.95 -5.82)"/><path class="e" d="M46.45,34.94l.94,1.65a13.38,13.38,0,0,1-3,14.73c-5.23,5.23-13.47,5.46-18.41.53s-4.7-13.18.53-18.41a13.54,13.54,0,0,1,12.77-3.71l1.69.56Z" transform="translate(-5.95 -5.82)"/><path class="f" d="M34.66,56.14a13,13,0,0,1-9.25-3.76c-5.22-5.23-5-14,.53-19.47A14.34,14.34,0,0,1,39.42,29l1.75.58A.75.75,0,1,1,40.7,31L39,30.44A12.82,12.82,0,0,0,27,34c-4.93,4.93-5.16,12.71-.53,17.35s12.42,4.4,17.35-.53a12.68,12.68,0,0,0,2.88-13.9l-.9-1.57a.75.75,0,0,1,.27-1,.76.76,0,0,1,1,.28L48,36.21a14.2,14.2,0,0,1-3.16,15.64A14.48,14.48,0,0,1,34.66,56.14Z" transform="translate(-5.95 -5.82)"/><path class="g" d="M46.4,33.78a3.39,3.39,0,0,0-2-1.67,3.32,3.32,0,0,0-1.67-2,3.33,3.33,0,0,0-2.53.51,3.36,3.36,0,0,0,1.67,2l.15,0-.12.1a3.37,3.37,0,0,0-.65,2.5,3.37,3.37,0,0,0,2.51-.64s.06-.09.1-.13a.76.76,0,0,0,0,.16,3.39,3.39,0,0,0,2,1.67A3.36,3.36,0,0,0,46.4,33.78Z" transform="translate(-5.95 -5.82)"/><path class="f" d="M45.89,37.07a.62.62,0,0,1-.23,0,4.5,4.5,0,0,1-2-1.38,4.6,4.6,0,0,1-2.45.36.76.76,0,0,1-.64-.64,4.6,4.6,0,0,1,.36-2.45,4.64,4.64,0,0,1-1.39-2,.76.76,0,0,1,.3-.86,4.07,4.07,0,0,1,3.2-.59,3.74,3.74,0,0,1,2,2.1,3.78,3.78,0,0,1,2.11,2h0a4,4,0,0,1-.59,3.19A.75.75,0,0,1,45.89,37.07Zm-2-3.33.17,0a.76.76,0,0,1,.56.56s0,.09,0,.11a1.94,1.94,0,0,0,.92.91A2,2,0,0,0,45.69,34h0a2.56,2.56,0,0,0-1.5-1.2.76.76,0,0,1-.48-.49,2.61,2.61,0,0,0-1.2-1.5,2,2,0,0,0-1.32.15,2.11,2.11,0,0,0,.94.93h.09a.75.75,0,0,1,.3,1.31l-.09.07A1.93,1.93,0,0,0,42,34.53a2,2,0,0,0,1.25-.44.26.26,0,0,1,.06-.08A.74.74,0,0,1,43.88,33.74Z" transform="translate(-5.95 -5.82)"/><path class="f" d="M45.22,31.91a.87.87,0,0,1-.31-.07.76.76,0,0,1-.37-1A4.24,4.24,0,0,1,50.71,29a.75.75,0,0,1-.81,1.27,2.83,2.83,0,0,0-2.16-.37,2.92,2.92,0,0,0-1.84,1.55A.75.75,0,0,1,45.22,31.91Z" transform="translate(-5.95 -5.82)"/><path class="g" d="M47.38,24.19c-.7-2.22-3.44-3.33-3.44-3.33s-1.6,2.48-.9,4.7,3.44,3.33,3.44,3.33S48.08,26.41,47.38,24.19Z" transform="translate(-5.95 -5.82)"/><path class="f" d="M46.48,29.64a.87.87,0,0,1-.28-.05c-.13-.05-3.08-1.28-3.88-3.8s.92-5.23,1-5.34a.75.75,0,0,1,.91-.29c.13.05,3.08,1.28,3.88,3.8h0c.79,2.53-.92,5.22-1,5.34A.74.74,0,0,1,46.48,29.64Zm-2.23-7.79a5.1,5.1,0,0,0-.5,3.48,5.11,5.11,0,0,0,2.41,2.57,5.06,5.06,0,0,0,.51-3.49h0A5.14,5.14,0,0,0,44.25,21.85Z" transform="translate(-5.95 -5.82)"/><path class="f" d="M36.42,40.59a.5.5,0,0,1-.39-.18.51.51,0,0,1,.08-.71l.43-.35a.52.52,0,0,1,.71.07.51.51,0,0,1-.08.71l-.44.35A.45.45,0,0,1,36.42,40.59Z" transform="translate(-5.95 -5.82)"/><path class="f" d="M33.87,36.74a.5.5,0,0,1-.31-.89L34,35.5a.51.51,0,0,1,.71.07.5.5,0,0,1-.08.7l-.43.36A.56.56,0,0,1,33.87,36.74Z" transform="translate(-5.95 -5.82)"/><path class="f" d="M39.83,46.18a.51.51,0,0,1-.39-.19.49.49,0,0,1,.07-.7l.44-.36a.5.5,0,0,1,.63.78l-.44.36A.51.51,0,0,1,39.83,46.18Z" transform="translate(-5.95 -5.82)"/><path class="f" d="M32.08,45.82a.5.5,0,0,1-.39-.18.51.51,0,0,1,.07-.71l.44-.35a.5.5,0,0,1,.63.78l-.44.35A.45.45,0,0,1,32.08,45.82Z" transform="translate(-5.95 -5.82)"/><path class="f" d="M27.11,42.88a.51.51,0,0,1-.39-.19.49.49,0,0,1,.07-.7l.44-.36a.5.5,0,0,1,.7.08.49.49,0,0,1-.07.7l-.44.36A.51.51,0,0,1,27.11,42.88Z" transform="translate(-5.95 -5.82)"/><path class="f" d="M38.74,52.08a.48.48,0,0,1-.39-.19.5.5,0,0,1,.07-.7l.44-.35a.51.51,0,0,1,.71.07.49.49,0,0,1-.08.7l-.44.36A.51.51,0,0,1,38.74,52.08Z" transform="translate(-5.95 -5.82)"/><path class="f" d="M28.62,51.06a.51.51,0,0,1-.39-.18.49.49,0,0,1,.08-.7l.44-.36a.5.5,0,0,1,.62.78l-.43.35A.5.5,0,0,1,28.62,51.06Z" transform="translate(-5.95 -5.82)"/><path class="f" d="M43.81,41.58a.48.48,0,0,1-.39-.19.5.5,0,0,1,.07-.7l.44-.35a.51.51,0,0,1,.71.07.5.5,0,0,1-.08.7l-.44.36A.51.51,0,0,1,43.81,41.58Z" transform="translate(-5.95 -5.82)"/><path class="f" d="M49.4,56.57a14.57,14.57,0,0,1-8.21-2.49A.75.75,0,0,1,42,52.84a13.18,13.18,0,0,0,7.37,2.23c6.7,0,12.2-4.94,12.61-11.15H48.34a.75.75,0,0,1,0-1.5H62.79a.76.76,0,0,1,.75.75C63.54,50.56,57.19,56.57,49.4,56.57Z" transform="translate(-5.95 -5.82)"/><path class="f" d="M49.4,54.07a12.21,12.21,0,0,1-6-1.55.74.74,0,0,1-.29-1,.75.75,0,0,1,1-.29,10.69,10.69,0,0,0,5.24,1.36,10,10,0,0,0,9.83-7.1l.71-2.5a.75.75,0,1,1,1.44.4l-.71,2.5A11.52,11.52,0,0,1,49.4,54.07Z" transform="translate(-5.95 -5.82)"/><path class="f" d="M49.4,54.07a.75.75,0,0,1-.75-.75V43.17a.75.75,0,0,1,1.5,0V53.32A.76.76,0,0,1,49.4,54.07Z" transform="translate(-5.95 -5.82)"/><path class="f" d="M55.36,52.13a.77.77,0,0,1-.61-.31l-6-8.21A.75.75,0,1,1,50,42.73l6,8.21a.74.74,0,0,1-.17,1A.73.73,0,0,1,55.36,52.13Z" transform="translate(-5.95 -5.82)"/><path class="f" d="M59,47.06a1,1,0,0,1-.23,0l-9.65-3.14a.75.75,0,1,1,.47-1.42l9.65,3.13a.75.75,0,0,1,.48.95A.76.76,0,0,1,59,47.06Z" transform="translate(-5.95 -5.82)"/></svg>