<svg xmlns="http://www.w3.org/2000/svg" viewBox="0 0 72.87 72.87"><defs><style>.a{fill:#bb4135;}.b{fill:none;stroke:#fff;stroke-miterlimit:10;stroke-width:2px;}.c{fill:#8fc037;}.d{fill:#8b7ab7;}.e{fill:#643e4c;}.f{fill:#fff;}</style></defs><title>grape</title><rect class="a" x="1" y="1" width="70.87" height="70.87" rx="14.17"/><rect class="b" x="1" y="1" width="70.87" height="70.87" rx="14.17"/><path class="c" d="M32.28,38.27a9.79,9.79,0,0,1-1.19.8,7.07,7.07,0,0,1-2.36.38l-.18-1.88a4.9,4.9,0,0,1-1.63,1,2.88,2.88,0,0,1-2-.13,2.88,2.88,0,0,1,.48-2,4.91,4.91,0,0,1,1.47-1.23l-1.73-.74a6.76,6.76,0,0,1,1.08-2.13,8.64,8.64,0,0,1,2.23-1.53l-1.83-1.09a7,7,0,0,1,2-1.28,6.59,6.59,0,0,1,3.72-.46,5.75,5.75,0,0,1,1.81.75,6.61,6.61,0,0,1,1.47,1.25l1.66,3Z" transform="translate(-5.95 -5.82)"/><ellipse class="d" cx="36.8" cy="30.9" rx="3.58" ry="3.98"/><path class="e" d="M42.75,41.44a4.54,4.54,0,0,1-4.33-4.72,4.35,4.35,0,1,1,8.66,0A4.54,4.54,0,0,1,42.75,41.44Zm0-7.95a3.25,3.25,0,0,0,0,6.45,3.25,3.25,0,0,0,0-6.45Z" transform="translate(-5.95 -5.82)"/><path class="f" d="M41.67,37.47a.75.75,0,0,1-.75-.75,2.06,2.06,0,0,1,1.83-2.23.75.75,0,0,1,0,1.5c-.08,0-.33.26-.33.73A.76.76,0,0,1,41.67,37.47Z" transform="translate(-5.95 -5.82)"/><path class="d" d="M53.57,36a3.6,3.6,0,1,0-7.16,0,3.6,3.6,0,1,0,7.16,0Z" transform="translate(-5.95 -5.82)"/><path class="e" d="M50,40.7A4.54,4.54,0,0,1,45.66,36a4.35,4.35,0,1,1,8.66,0A4.54,4.54,0,0,1,50,40.7Zm0-8A3.05,3.05,0,0,0,47.16,36a2.85,2.85,0,1,0,5.66,0A3.05,3.05,0,0,0,50,32.75Z" transform="translate(-5.95 -5.82)"/><path class="f" d="M48.91,36.73a.75.75,0,0,1-.75-.75A2.06,2.06,0,0,1,50,33.75a.75.75,0,1,1,0,1.5c-.08,0-.33.27-.33.73A.76.76,0,0,1,48.91,36.73Z" transform="translate(-5.95 -5.82)"/><path class="d" d="M49.92,28.76a3.6,3.6,0,1,0-7.17,0,3.6,3.6,0,1,0,7.17,0Z" transform="translate(-5.95 -5.82)"/><path class="e" d="M46.33,33.49A4.55,4.55,0,0,1,42,28.76a4.35,4.35,0,1,1,8.67,0A4.55,4.55,0,0,1,46.33,33.49Zm0-8a3.05,3.05,0,0,0-2.83,3.23,2.86,2.86,0,1,0,5.67,0A3.06,3.06,0,0,0,46.33,25.53Z" transform="translate(-5.95 -5.82)"/><path class="f" d="M45.25,29.51a.76.76,0,0,1-.75-.75,2.06,2.06,0,0,1,1.83-2.23.75.75,0,0,1,0,1.5c-.08,0-.33.27-.33.73A.76.76,0,0,1,45.25,29.51Z" transform="translate(-5.95 -5.82)"/><path class="d" d="M50.63,43.4a3.6,3.6,0,1,0-3.58,4A3.8,3.8,0,0,0,50.63,43.4Z" transform="translate(-5.95 -5.82)"/><path class="e" d="M47.05,48.13a4.75,4.75,0,1,1,4.33-4.73A4.55,4.55,0,0,1,47.05,48.13Zm0-8a3.26,3.26,0,1,0,2.83,3.23A3.05,3.05,0,0,0,47.05,40.17Z" transform="translate(-5.95 -5.82)"/><path class="f" d="M46,44.15a.74.74,0,0,1-.75-.75,2.06,2.06,0,0,1,1.83-2.23.75.75,0,0,1,0,1.5c-.08,0-.33.27-.33.73A.75.75,0,0,1,46,44.15Z" transform="translate(-5.95 -5.82)"/><path class="d" d="M42.75,44.18a3.79,3.79,0,0,0-3.58-4,4,4,0,0,0,0,7.95A3.79,3.79,0,0,0,42.75,44.18Z" transform="translate(-5.95 -5.82)"/><path class="e" d="M39.17,48.91a4.74,4.74,0,0,1,0-9.45,4.74,4.74,0,0,1,0,9.45Zm0-7.95a3.25,3.25,0,0,0,0,6.45,3.25,3.25,0,0,0,0-6.45Z" transform="translate(-5.95 -5.82)"/><path class="f" d="M38.08,44.93a.75.75,0,0,1-.75-.75A2.07,2.07,0,0,1,39.17,42a.75.75,0,0,1,0,1.5c-.08,0-.34.26-.34.72A.74.74,0,0,1,38.08,44.93Z" transform="translate(-5.95 -5.82)"/><path class="d" d="M47.05,50.81a3.6,3.6,0,1,0-3.58,4A3.79,3.79,0,0,0,47.05,50.81Z" transform="translate(-5.95 -5.82)"/><path class="e" d="M43.47,55.54a4.75,4.75,0,1,1,4.33-4.73A4.55,4.55,0,0,1,43.47,55.54Zm0-8a3.26,3.26,0,1,0,2.83,3.23A3.06,3.06,0,0,0,43.47,47.58Z" transform="translate(-5.95 -5.82)"/><path class="f" d="M42.38,51.56a.76.76,0,0,1-.75-.75,2.07,2.07,0,0,1,1.84-2.23.75.75,0,0,1,0,1.5.77.77,0,0,0-.34.73A.75.75,0,0,1,42.38,51.56Z" transform="translate(-5.95 -5.82)"/><path class="d" d="M39.17,36.72a3.8,3.8,0,0,0-3.59-4,3.79,3.79,0,0,0-3.58,4,3.79,3.79,0,0,0,3.58,4A3.8,3.8,0,0,0,39.17,36.72Z" transform="translate(-5.95 -5.82)"/><path class="e" d="M35.58,41.44a4.54,4.54,0,0,1-4.33-4.72A4.55,4.55,0,0,1,35.58,32a4.74,4.74,0,0,1,0,9.45Zm0-7.95a3.25,3.25,0,0,0,0,6.45,3.25,3.25,0,0,0,0-6.45Z" transform="translate(-5.95 -5.82)"/><path class="f" d="M34.5,37.47a.76.76,0,0,1-.75-.75,2.06,2.06,0,0,1,1.83-2.23.75.75,0,0,1,0,1.5c-.08,0-.33.26-.33.73A.76.76,0,0,1,34.5,37.47Z" transform="translate(-5.95 -5.82)"/><path class="d" d="M42.75,29.73a3.79,3.79,0,0,0-3.58-4,3.8,3.8,0,0,0-3.59,4,3.81,3.81,0,0,0,3.59,4A3.8,3.8,0,0,0,42.75,29.73Z" transform="translate(-5.95 -5.82)"/><path class="e" d="M39.17,34.45a4.55,4.55,0,0,1-4.34-4.72A4.55,4.55,0,0,1,39.17,25a4.55,4.55,0,0,1,4.33,4.73A4.54,4.54,0,0,1,39.17,34.45Zm0-8a3.06,3.06,0,0,0-2.84,3.23A3,3,0,0,0,39.17,33,3,3,0,0,0,42,29.73,3.05,3.05,0,0,0,39.17,26.5Z" transform="translate(-5.95 -5.82)"/><path class="f" d="M38.08,30.48a.76.76,0,0,1-.75-.75,2.07,2.07,0,0,1,1.84-2.23.75.75,0,0,1,0,1.5.77.77,0,0,0-.34.73A.75.75,0,0,1,38.08,30.48Z" transform="translate(-5.95 -5.82)"/><path class="e" d="M42.58,27.53a.76.76,0,0,1-.75-.75A6,6,0,0,0,37.39,21a.75.75,0,0,1-.53-.92.76.76,0,0,1,.92-.53A7.6,7.6,0,0,1,41.57,22a7.52,7.52,0,0,1,1.76,4.81.75.75,0,0,1-.74.76Z" transform="translate(-5.95 -5.82)"/><path class="e" d="M55.3,46.16A5.12,5.12,0,0,1,51,43.83a5.06,5.06,0,0,1,1.12-6.59c1.4-1,3.62-1.17,4.7.14a3,3,0,0,1,.71,2.17,1.41,1.41,0,0,1-.53,1,.76.76,0,0,1-1.05-.16.74.74,0,0,1,.09-1,1.52,1.52,0,0,0-.38-1c-.51-.62-1.88-.44-2.68.12A3.58,3.58,0,0,0,52.26,43a3.66,3.66,0,0,0,3.65,1.57c2.18-.4,3.58-3.29,3.47-5.64-.16-3.4-3.6-6-6.69-6.38s-6.13,1.67-6.47,1.9a.75.75,0,0,1-.86-1.22c.63-.45,4-2.65,7.53-2.17,3.77.52,7.79,3.57,8,7.8.15,3-1.71,6.64-4.69,7.18A4.37,4.37,0,0,1,55.3,46.16Z" transform="translate(-5.95 -5.82)"/><path class="e" d="M28.73,40.2a.76.76,0,0,1-.75-.68L27.93,39a5.31,5.31,0,0,1-.76.35,3.57,3.57,0,0,1-2.53-.15.73.73,0,0,1-.47-.65,3.61,3.61,0,0,1,.63-2.45,4.72,4.72,0,0,1,.56-.61l-.52-.23a.74.74,0,0,1-.41-.91,7,7,0,0,1,1.27-2.45,10.72,10.72,0,0,1,1.26-1l-.72-.43a.74.74,0,0,1-.36-.57.73.73,0,0,1,.24-.63,7.65,7.65,0,0,1,2.24-1.44l.25-.08a6.75,6.75,0,0,1,3.85-.39,6.47,6.47,0,0,1,2,.85,7.51,7.51,0,0,1,1.64,1.39.75.75,0,1,1-1.13,1,6.07,6.07,0,0,0-1.31-1.11,5.2,5.2,0,0,0-1.57-.66,5.36,5.36,0,0,0-3,.34l-.3.11a3.27,3.27,0,0,0-.87.47l.9.53a.74.74,0,0,1,.36.69.75.75,0,0,1-.45.64,8.46,8.46,0,0,0-2,1.39,4.4,4.4,0,0,0-.64,1.18l1.08.46a.76.76,0,0,1,0,1.36A4.13,4.13,0,0,0,26,37a1.71,1.71,0,0,0-.33,1,1.9,1.9,0,0,0,1,0A4.46,4.46,0,0,0,28,37a.75.75,0,0,1,.78-.18.76.76,0,0,1,.49.64l.12,1.17a4.33,4.33,0,0,0,1.31-.26,7.77,7.77,0,0,0,1.1-.73.75.75,0,0,1,.93,1.17,9.82,9.82,0,0,1-1.3.87,7,7,0,0,1-2.72.48Z" transform="translate(-5.95 -5.82)"/><path class="e" d="M29.2,35.52a.73.73,0,0,1-.52-.21.75.75,0,0,1,0-1.06A8.16,8.16,0,0,1,30.14,33a8.84,8.84,0,0,1,5.63-1.26.75.75,0,0,1,.66.83.73.73,0,0,1-.82.66,7.3,7.3,0,0,0-4.67,1,7.1,7.1,0,0,0-1.2,1A.76.76,0,0,1,29.2,35.52Z" transform="translate(-5.95 -5.82)"/><path class="f" d="M34.05,64.45v1.62a3.12,3.12,0,0,1-1.7.54,2.14,2.14,0,1,1,0-4.27,2.64,2.64,0,0,1,1.69.62l-.54.67a1.78,1.78,0,0,0-1.15-.46,1.31,1.31,0,1,0,0,2.62,1.89,1.89,0,0,0,.82-.23V64.45Z" transform="translate(-5.95 -5.82)"/><path class="f" d="M37,65.37h-1v1.2h-1v-4.2h1.82c1.1,0,1.72.53,1.72,1.46a1.39,1.39,0,0,1-.78,1.36l.89,1.38H37.7Zm-.09-.79c.52,0,.82-.24.82-.72s-.3-.7-.82-.7h-.87v1.42Z" transform="translate(-5.95 -5.82)"/><path class="f" d="M40.53,65.76l-.33.81h-1l1.83-4.2h1l1.79,4.2h-1l-.33-.81Zm1-2.4L40.84,65h1.33Z" transform="translate(-5.95 -5.82)"/><path class="f" d="M46.28,62.37c1.07,0,1.68.53,1.68,1.46a1.47,1.47,0,0,1-1.68,1.54h-.83v1.2h-1v-4.2Zm-.83,2.21h.78c.53,0,.83-.24.83-.72s-.3-.7-.83-.7h-.78Z" transform="translate(-5.95 -5.82)"/><path class="f" d="M49.75,63.16v.91h2v.79h-2v.93h2.32v.78H48.81v-4.2H52v.79Z" transform="translate(-5.95 -5.82)"/></svg>