<svg xmlns="http://www.w3.org/2000/svg" viewBox="0 0 72.87 72.87"><defs><style>.a{fill:#8b7ab7;}.b{fill:none;stroke:#fff;stroke-miterlimit:10;stroke-width:2px;}.c{fill:#b58059;}.d{fill:#643e4c;}.e{fill:#449346;}.f{fill:#5fb561;}.g{fill:#fff;}</style></defs><title>kiwi</title><rect class="a" x="1" y="1" width="70.87" height="70.87" rx="14.17"/><rect class="b" x="1" y="1" width="70.87" height="70.87" rx="14.17"/><path class="c" d="M56.67,42.42c0-12.56-13.34-12.35-18.67-12.35s-9.63,5.53-9.63,12.35S32.68,54.77,38,54.77,56.67,55,56.67,42.42Z" transform="translate(-5.95 -5.82)"/><path class="d" d="M38.54,55.52H38c-5.72,0-10.38-5.88-10.38-13.1S32.28,29.32,38,29.32h.26c2.79,0,7.48,0,11.54,1.59,5.06,2,7.62,5.86,7.62,11.51s-2.56,9.52-7.62,11.51C45.88,55.47,41.36,55.52,38.54,55.52Zm0-24.7H38c-4.9,0-8.88,5.2-8.88,11.6S33.1,54,38,54h.26c2.7,0,7.2,0,11-1.48,4.49-1.77,6.67-5.08,6.67-10.12s-2.18-8.35-6.67-10.12C45.58,30.86,41.25,30.82,38.53,30.82Z" transform="translate(-5.95 -5.82)"/><ellipse class="e" cx="32.05" cy="36.6" rx="9.64" ry="12.35"/><path class="d" d="M38,55.52c-5.72,0-10.38-5.88-10.38-13.1S32.28,29.32,38,29.32s10.39,5.87,10.39,13.1S43.73,55.52,38,55.52Zm0-24.7c-4.9,0-8.88,5.2-8.88,11.6S33.1,54,38,54s8.89-5.2,8.89-11.6S42.91,30.82,38,30.82Z" transform="translate(-5.95 -5.82)"/><ellipse class="f" cx="32.05" cy="36.6" rx="6.75" ry="8.43"/><path class="g" d="M38,39.32a.76.76,0,0,1-.75-.75V36.15a.75.75,0,0,1,1.5,0v2.42A.75.75,0,0,1,38,39.32Z" transform="translate(-5.95 -5.82)"/><path class="g" d="M36.5,39.83a.74.74,0,0,1-.68-.44l-.94-2.09a.74.74,0,0,1,.37-1,.75.75,0,0,1,1,.37l.95,2.1a.75.75,0,0,1-.38,1A.81.81,0,0,1,36.5,39.83Z" transform="translate(-5.95 -5.82)"/><path class="g" d="M35.4,41.24A.72.72,0,0,1,35,41.1l-1.64-1.21a.75.75,0,0,1,.89-1.21l1.64,1.21a.75.75,0,0,1-.45,1.35Z" transform="translate(-5.95 -5.82)"/><path class="g" d="M35,43.17H33.11a.75.75,0,0,1,0-1.5H35a.75.75,0,0,1,0,1.5Z" transform="translate(-5.95 -5.82)"/><path class="g" d="M33.77,46.3a.73.73,0,0,1-.6-.3.75.75,0,0,1,.15-1L35,43.74A.75.75,0,0,1,35.85,45l-1.64,1.21A.79.79,0,0,1,33.77,46.3Z" transform="translate(-5.95 -5.82)"/><path class="g" d="M35.56,48.6a.7.7,0,0,1-.31-.07.74.74,0,0,1-.37-1l.94-2.09a.75.75,0,1,1,1.37.61l-.95,2.09A.75.75,0,0,1,35.56,48.6Z" transform="translate(-5.95 -5.82)"/><path class="g" d="M38,49.44a.76.76,0,0,1-.75-.75V46.27a.75.75,0,0,1,1.5,0v2.42A.75.75,0,0,1,38,49.44Z" transform="translate(-5.95 -5.82)"/><path class="g" d="M40.45,48.6a.76.76,0,0,1-.69-.45l-.94-2.09a.75.75,0,1,1,1.37-.61l.94,2.09a.75.75,0,0,1-.37,1A.7.7,0,0,1,40.45,48.6Z" transform="translate(-5.95 -5.82)"/><path class="g" d="M42.24,46.3a.82.82,0,0,1-.45-.14L40.16,45a.75.75,0,1,1,.89-1.21L42.68,45a.75.75,0,0,1-.44,1.35Z" transform="translate(-5.95 -5.82)"/><path class="g" d="M42.89,43.17H41a.75.75,0,0,1,0-1.5h1.88a.75.75,0,0,1,0,1.5Z" transform="translate(-5.95 -5.82)"/><path class="g" d="M40.61,41.24a.75.75,0,0,1-.45-1.35l1.63-1.21a.76.76,0,0,1,1.05.16.74.74,0,0,1-.16,1L41.05,41.1A.72.72,0,0,1,40.61,41.24Z" transform="translate(-5.95 -5.82)"/><path class="g" d="M39.51,39.83a.81.81,0,0,1-.31-.06.75.75,0,0,1-.38-1l.94-2.1a.77.77,0,0,1,1-.37.75.75,0,0,1,.37,1l-.94,2.09A.74.74,0,0,1,39.51,39.83Z" transform="translate(-5.95 -5.82)"/><path class="d" d="M46.14,31.39a.75.75,0,0,1-.38-.1.76.76,0,0,1-.26-1l.65-1.11a.75.75,0,0,1,1.3.76L46.79,31A.75.75,0,0,1,46.14,31.39Z" transform="translate(-5.95 -5.82)"/><path class="d" d="M52.05,54.15a.76.76,0,0,1-.58-.27l-.81-1a.75.75,0,1,1,1.14-1l.82,1A.75.75,0,0,1,52.53,54,.78.78,0,0,1,52.05,54.15Z" transform="translate(-5.95 -5.82)"/><path class="d" d="M42.52,56.86a.69.69,0,0,1-.2,0,.74.74,0,0,1-.52-.92l.37-1.34a.75.75,0,0,1,1.45.4l-.38,1.34A.75.75,0,0,1,42.52,56.86Z" transform="translate(-5.95 -5.82)"/><path class="d" d="M51.64,38.11a.87.87,0,0,1-.28,0,.75.75,0,0,1-.41-1l.41-1a.73.73,0,0,1,1-.41.74.74,0,0,1,.41,1l-.41,1A.75.75,0,0,1,51.64,38.11Z" transform="translate(-5.95 -5.82)"/><path class="d" d="M51,49.44a.77.77,0,0,1-.53-.22l-.85-.84a.75.75,0,0,1,0-1.06.74.74,0,0,1,1.06,0l.85.84a.75.75,0,0,1,0,1.06A.79.79,0,0,1,51,49.44Z" transform="translate(-5.95 -5.82)"/><path class="d" d="M54.84,43.17H54a.75.75,0,0,1,0-1.5h.83a.75.75,0,0,1,0,1.5Z" transform="translate(-5.95 -5.82)"/><path class="g" d="M36.89,64.91l-.6.67v1h-.95V62.42h.95v1.9L38,62.42h1.1l-1.58,1.75,1.69,2.44H38.1Z" transform="translate(-5.95 -5.82)"/><path class="g" d="M40,66.61V62.42h1v4.19Z" transform="translate(-5.95 -5.82)"/><path class="g" d="M45.73,66.61l-.85-3-.86,3H43l-1.38-4.19h1l.88,3.16.87-3.16h.93l.89,3.16.88-3.16h1l-1.39,4.19Z" transform="translate(-5.95 -5.82)"/><path class="g" d="M48.75,66.61V62.42h1v4.19Z" transform="translate(-5.95 -5.82)"/></svg>