<svg xmlns="http://www.w3.org/2000/svg" viewBox="0 0 72.87 72.87"><defs><style>.a{fill:#bb4135;}.b{fill:none;stroke:#fff;stroke-miterlimit:10;stroke-width:2px;}.c{fill:#fff;}.d{fill:#77bf84;}.e{fill:#449346;}.f{fill:#643e4c;}</style></defs><title>leek</title><rect class="a" x="1" y="1" width="70.87" height="70.87" rx="14.17"/><rect class="b" x="1" y="1" width="70.87" height="70.87" rx="14.17"/><path class="c" d="M38.37,38.5c-2.65,2-12.95,8.48-8.95,12.93s9.07-3.54,10.85-5.4C43.89,42.29,42.2,35.63,38.37,38.5Z" transform="translate(-5.99 -5.86)"/><path class="d" d="M58.3,36.38a43.71,43.71,0,0,0-6.85-1h0l4.38-4.55L55,28.56,46.07,35.7h0s0-.33.12-.85h0l7.74-10.1L52.21,23,46.54,29.8v0a12.44,12.44,0,0,0-.09-1.29,29,29,0,0,0-1.78-5.78L42,23.8a15.29,15.29,0,0,1,1.25,6.91c-.37,3.6-5.47,8.21-5.47,8.21l4.39,4.39a19.82,19.82,0,0,1,6.14-3.76c3.11-1,8.77-.19,8.77-.19Z" transform="translate(-5.99 -5.86)"/><polygon class="e" points="40.08 29.84 48.96 22.7 49.86 25.02 45.49 29.57 40.08 29.84"/><polygon class="e" points="40.55 23.94 46.22 17.18 47.94 18.9 40.2 29 40.55 23.94"/><path class="f" d="M32.28,53.84a5.28,5.28,0,0,1-3.67-1.4,6,6,0,0,1-.84-6c1.53-2.81,9.23-7.94,9.56-8.16a.75.75,0,0,1,.83,1.25C36,41,30.21,45.11,29.09,47.17a4.51,4.51,0,0,0,.58,4.21,3.91,3.91,0,0,0,4.2.58c2.81-1.59,7.59-9,7.63-9.06a.75.75,0,0,1,1-.22.74.74,0,0,1,.22,1c-.2.32-5,7.78-8.15,9.56A4.7,4.7,0,0,1,32.28,53.84Z" transform="translate(-5.99 -5.86)"/><path class="f" d="M42.13,44.06a.75.75,0,0,1-.51-1.3A20.28,20.28,0,0,1,48,38.84c2.67-.89,7-.49,8.53-.3l.69-1.62a35.9,35.9,0,0,0-10-.65,25.06,25.06,0,0,0-9.15,3.28.75.75,0,0,1-1-.23.76.76,0,0,1,.23-1,26.24,26.24,0,0,1,9.77-3.5,38.4,38.4,0,0,1,11.37.87.75.75,0,0,1,.51,1l-1.26,3a.74.74,0,0,1-.8.45s-5.52-.8-8.42.17a18.87,18.87,0,0,0-5.87,3.59A.74.74,0,0,1,42.13,44.06Z" transform="translate(-5.99 -5.86)"/><path class="f" d="M37.74,39.67a.75.75,0,0,1-.5-1.31s4.89-4.46,5.22-7.73a14.52,14.52,0,0,0-1.18-6.51.74.74,0,0,1,0-.6.79.79,0,0,1,.42-.42l2.72-1.05a.74.74,0,0,1,1,.4,29.85,29.85,0,0,1,1.83,6,32.65,32.65,0,0,1-.38,7.38.74.74,0,0,1-.85.63.76.76,0,0,1-.63-.86,32.22,32.22,0,0,0,.38-6.95,26,26,0,0,0-1.46-4.92l-1.31.51a15.38,15.38,0,0,1,1,6.57c-.4,3.84-5.5,8.49-5.71,8.68A.78.78,0,0,1,37.74,39.67Z" transform="translate(-5.99 -5.86)"/><path class="f" d="M46.19,35.61a.69.69,0,0,1-.45-.16.74.74,0,0,1-.14-1.05l7.34-9.57-.68-.68-5.14,6.13a.75.75,0,0,1-1.06.09A.74.74,0,0,1,46,29.32l5.67-6.76a.71.71,0,0,1,.54-.27.69.69,0,0,1,.56.22l1.72,1.72a.75.75,0,0,1,.07,1L46.79,35.31A.77.77,0,0,1,46.19,35.61Z" transform="translate(-5.99 -5.86)"/><path class="f" d="M46.07,36.45a.75.75,0,0,1-.47-1.34L54.48,28a.75.75,0,0,1,.66-.14.77.77,0,0,1,.51.45l.9,2.32a.74.74,0,0,1-.15.79L52,36a.75.75,0,0,1-1.08-1l4-4.2-.36-.92-8.08,6.49A.75.75,0,0,1,46.07,36.45Z" transform="translate(-5.99 -5.86)"/><path class="f" d="M38.1,42.14a.74.74,0,0,1-.59-.28.76.76,0,0,1,.12-1.06,19.61,19.61,0,0,1,3.59-2.24,19,19,0,0,1,4.42-1.47.75.75,0,0,1,.29,1.47,17.63,17.63,0,0,0-4.06,1.36A17.13,17.13,0,0,0,38.56,42,.72.72,0,0,1,38.1,42.14Z" transform="translate(-5.99 -5.86)"/><path class="f" d="M29,52h-.16a.76.76,0,0,1-.57-.9,10.39,10.39,0,0,1,2.67-5,.75.75,0,0,1,1.08,1,8.94,8.94,0,0,0-1.58,2.23,8.79,8.79,0,0,0-.7,2A.76.76,0,0,1,29,52Z" transform="translate(-5.99 -5.86)"/><path class="f" d="M29.82,52.66a.76.76,0,0,1-.75-.66.74.74,0,0,1,.66-.83A5.69,5.69,0,0,0,31,50.86a7.77,7.77,0,0,0,2.42-1.81,17.13,17.13,0,0,0,2.18-2.68.75.75,0,0,1,1.25.83,19,19,0,0,1-2.36,2.91,8.34,8.34,0,0,1-3,2.15,6.49,6.49,0,0,1-1.59.39Z" transform="translate(-5.99 -5.86)"/><path class="f" d="M26.55,53a.73.73,0,0,1-.6-.3.75.75,0,0,1,.15-1,2.85,2.85,0,0,1,.83-.43,3.15,3.15,0,0,1,2.25.14.75.75,0,0,1-.61,1.37,1.67,1.67,0,0,0-1.17-.09,1.53,1.53,0,0,0-.4.21A.7.7,0,0,1,26.55,53Z" transform="translate(-5.99 -5.86)"/><path class="f" d="M28.93,55.61a.79.79,0,0,1-.53-.22.75.75,0,0,1,0-1.06,1.62,1.62,0,0,0,.35-.92.91.91,0,0,0-.15-.54,2.56,2.56,0,0,1-.18-.44A.75.75,0,1,1,29.86,52c0,.05.05.1.08.16a2.34,2.34,0,0,1,.3,1.36,2.92,2.92,0,0,1-.78,1.83A.75.75,0,0,1,28.93,55.61Z" transform="translate(-5.99 -5.86)"/><path class="c" d="M36.21,65.56v.83H33.46v-4.2h.95v3.37Z" transform="translate(-5.99 -5.86)"/><path class="c" d="M38,63v.92h2v.78H38v.93h2.31v.79H37v-4.2h3.2V63Z" transform="translate(-5.99 -5.86)"/><path class="c" d="M42.21,63v.92h2v.78h-2v.93h2.31v.79H41.26v-4.2h3.2V63Z" transform="translate(-5.99 -5.86)"/><path class="c" d="M47.06,64.68l-.6.67v1h-1v-4.2h1V64.1l1.74-1.91h1.1l-1.58,1.75,1.69,2.45H48.27Z" transform="translate(-5.99 -5.86)"/></svg>