<svg xmlns="http://www.w3.org/2000/svg" viewBox="0 0 72.87 72.87"><defs><style>.a{fill:#ea5740;}.b{fill:none;stroke:#fff;stroke-miterlimit:10;stroke-width:2px;}.c{fill:#5fb561;}.d{fill:#643e4c;}.e{fill:#fff;}.f{fill:#77bf84;}</style></defs><title>lime</title><rect class="a" x="1" y="1" width="70.87" height="70.87" rx="14.17"/><rect class="b" x="1" y="1" width="70.87" height="70.87" rx="14.17"/><path class="c" d="M41.88,29.27c1.47.76,2.09.86,2.61.65.77-.31.59-.59,1.23-.59a1.64,1.64,0,0,1,1.44,1.46c0,.61-.29.36-.74,1.24-.37.71-.65,1,.14,2.52a9.2,9.2,0,0,1-2,10.12l-3.54,3.54a9.21,9.21,0,0,1-11,1.54h0a2.54,2.54,0,0,0-2.7-.19c-.95.58-.82.88-1.49.94a1.32,1.32,0,0,1-1.32-1.36c0-.79.55-.56,1-1.66a2.49,2.49,0,0,0-.25-2.61h0A9.21,9.21,0,0,1,27,34.12l3.53-3.54a9.22,9.22,0,0,1,11.37-1.31Z" transform="translate(-5.95 -5.82)"/><path class="d" d="M34.54,51.65a9.91,9.91,0,0,1-4.83-1.25l-.07,0a1.79,1.79,0,0,0-1.86-.15,4.14,4.14,0,0,0-.65.5,1.66,1.66,0,0,1-1.16.54,1.91,1.91,0,0,1-1.48-.54,2.13,2.13,0,0,1-.66-1.58,1.6,1.6,0,0,1,.59-1.25,1.52,1.52,0,0,0,.44-.66,1.8,1.8,0,0,0-.18-2,9.91,9.91,0,0,1,1.77-11.67L30,30.05a9.92,9.92,0,0,1,12.27-1.43c1.33.68,1.73.7,2,.6a1.29,1.29,0,0,0,.41-.24,1.5,1.5,0,0,1,1.1-.4h0a2.19,2.19,0,0,1,1.48.67,2.3,2.3,0,0,1,.7,1.54,1.32,1.32,0,0,1-.46,1.09,1.62,1.62,0,0,0-.37.49L47,32.5c-.27.51-.35.66.2,1.69a9.92,9.92,0,0,1-2.08,11L41.6,48.74A10,10,0,0,1,34.54,51.65Zm-4.05-2.53a8.5,8.5,0,0,0,10.05-1.44l3.54-3.54a8.41,8.41,0,0,0,1.79-9.3c-.84-1.55-.63-2.18-.18-3l.06-.11a3.37,3.37,0,0,1,.65-.89.85.85,0,0,0-.25-.49.65.65,0,0,0-.43-.23h-.1a2.6,2.6,0,0,1-.85.53c-.8.31-1.65.13-3.24-.69l-.05,0A8.43,8.43,0,0,0,31,31.11l-3.53,3.54A8.4,8.4,0,0,0,26,44.52a3.18,3.18,0,0,1,.28,3.23A3,3,0,0,1,25.45,49a1.11,1.11,0,0,0-.11.11.31.31,0,0,0,0,.09.64.64,0,0,0,.19.45.51.51,0,0,0,.32.14l.13,0,.14-.13a5.08,5.08,0,0,1,.89-.68A3.25,3.25,0,0,1,30.49,49.12Z" transform="translate(-5.95 -5.82)"/><path class="e" d="M27,40.44h-.11a.74.74,0,0,1-.64-.85,7.3,7.3,0,0,1,2.08-4.13l3.54-3.54A.75.75,0,0,1,32.91,33l-3.54,3.54a5.79,5.79,0,0,0-1.65,3.29A.76.76,0,0,1,27,40.44Z" transform="translate(-5.95 -5.82)"/><path class="e" d="M27.62,44.33a.75.75,0,0,1-.67-.41,7.36,7.36,0,0,1-.45-1.09.75.75,0,1,1,1.43-.46,7.39,7.39,0,0,0,.36.88.74.74,0,0,1-.33,1A.71.71,0,0,1,27.62,44.33Z" transform="translate(-5.95 -5.82)"/><path class="d" d="M33.3,41.49a.51.51,0,0,1-.36-.15.51.51,0,0,1,0-.71l.47-.46a.5.5,0,0,1,.71,0,.5.5,0,0,1,0,.7l-.47.47A.49.49,0,0,1,33.3,41.49Z" transform="translate(-5.95 -5.82)"/><path class="d" d="M37.83,33.47a.54.54,0,0,1-.21,0,.5.5,0,0,1-.24-.66l.26-.56A.51.51,0,0,1,38.3,32a.52.52,0,0,1,.25.67l-.26.55A.52.52,0,0,1,37.83,33.47Z" transform="translate(-5.95 -5.82)"/><path class="d" d="M42.81,40.74a.5.5,0,0,1-.44-.74l.31-.56a.5.5,0,0,1,.88.48l-.31.56A.51.51,0,0,1,42.81,40.74Z" transform="translate(-5.95 -5.82)"/><path class="d" d="M34.54,48.88a.5.5,0,0,1,0-1l.41,0a.5.5,0,0,1,.07,1l-.4,0Z" transform="translate(-5.95 -5.82)"/><path class="d" d="M51.43,56.91A10,10,0,0,1,41.35,47.2a.75.75,0,1,1,1.5-.05,8.57,8.57,0,1,0,4.78-8,.74.74,0,0,1-1-.34.75.75,0,0,1,.34-1,9.94,9.94,0,0,1,4.46-1,10.08,10.08,0,0,1,0,20.16Z" transform="translate(-5.95 -5.82)"/><circle class="f" cx="45.48" cy="41.01" r="6.68"/><path class="d" d="M51.43,54.26a7.43,7.43,0,1,1,7.43-7.43A7.43,7.43,0,0,1,51.43,54.26Zm0-13.35a5.93,5.93,0,1,0,5.93,5.92A5.93,5.93,0,0,0,51.43,40.91Z" transform="translate(-5.95 -5.82)"/><path class="d" d="M51.43,47.58a.75.75,0,0,1-.75-.75V40.16a.75.75,0,0,1,1.5,0v6.67A.75.75,0,0,1,51.43,47.58Z" transform="translate(-5.95 -5.82)"/><path class="d" d="M51.43,47.58a.77.77,0,0,1-.61-.31l-3.92-5.4a.76.76,0,0,1,.16-1,.75.75,0,0,1,1,.17L52,46.39a.75.75,0,0,1-.17,1A.72.72,0,0,1,51.43,47.58Z" transform="translate(-5.95 -5.82)"/><path class="d" d="M51.43,47.58a.62.62,0,0,1-.23,0l-6.35-2.06a.75.75,0,1,1,.46-1.42l6.35,2.06a.75.75,0,0,1-.23,1.46Z" transform="translate(-5.95 -5.82)"/><path class="d" d="M45.08,49.65a.75.75,0,0,1-.23-1.47l6.35-2.06a.74.74,0,0,1,.94.48.74.74,0,0,1-.48.94l-6.35,2.07A.93.93,0,0,1,45.08,49.65Z" transform="translate(-5.95 -5.82)"/><path class="d" d="M47.5,53a.74.74,0,0,1-.44-.14.76.76,0,0,1-.16-1.05l3.92-5.4a.75.75,0,0,1,1-.16.74.74,0,0,1,.17,1l-3.93,5.4A.71.71,0,0,1,47.5,53Z" transform="translate(-5.95 -5.82)"/><path class="d" d="M51.43,54.26a.76.76,0,0,1-.75-.75V46.83a.75.75,0,0,1,1.5,0v6.68A.76.76,0,0,1,51.43,54.26Z" transform="translate(-5.95 -5.82)"/><path class="d" d="M55.36,53a.71.71,0,0,1-.61-.31l-3.93-5.4a.74.74,0,0,1,.17-1,.75.75,0,0,1,1,.16L56,51.79a.75.75,0,0,1-.16,1.05A.74.74,0,0,1,55.36,53Z" transform="translate(-5.95 -5.82)"/><path class="d" d="M57.78,49.65a.93.93,0,0,1-.23,0L51.2,47.54a.74.74,0,0,1-.48-.94.75.75,0,0,1,.94-.48L58,48.18a.75.75,0,0,1-.23,1.47Z" transform="translate(-5.95 -5.82)"/><path class="d" d="M51.43,47.58a.75.75,0,0,1-.23-1.46l6.35-2.06A.75.75,0,1,1,58,45.48l-6.35,2.06A.62.62,0,0,1,51.43,47.58Z" transform="translate(-5.95 -5.82)"/><path class="d" d="M51.43,47.58a.72.72,0,0,1-.44-.14.75.75,0,0,1-.17-1L54.75,41a.75.75,0,1,1,1.21.88L52,47.27A.77.77,0,0,1,51.43,47.58Z" transform="translate(-5.95 -5.82)"/><path class="e" d="M35.11,62.25h1.16v3.5h1.81v.87h-3Z" transform="translate(-5.95 -5.82)"/><path class="e" d="M38.64,62.25h1.17v4.37H38.64Z" transform="translate(-5.95 -5.82)"/><path class="e" d="M40.64,62.25h1.83l.93,2.9h0l1-2.9h1.77v4.37H45l0-3.36h0L43.9,66.62H42.83l-1.06-3.36h0l0,3.36H40.64Z" transform="translate(-5.95 -5.82)"/><path class="e" d="M46.89,62.25H50v.83H48.06V64h1.8v.82h-1.8v1h2v.83H46.89Z" transform="translate(-5.95 -5.82)"/></svg>