<?xml version="1.0" encoding="utf-8"?>
<!-- Generator: Adobe Illustrator 23.0.2, SVG Export Plug-In . SVG Version: 6.00 Build 0)  -->
<svg version="1.1" id="Layer_1" xmlns="http://www.w3.org/2000/svg" xmlns:xlink="http://www.w3.org/1999/xlink" x="0px" y="0px"
	 viewBox="0 0 145.4 23" style="enable-background:new 0 0 145.4 23;" xml:space="preserve">
<style type="text/css">
	.st0{fill:#643E4C;stroke:#643E4C;stroke-width:3;stroke-linecap:round;stroke-linejoin:round;}
	.st1{fill:#FFFFFF;}
	.st2{fill:#FFE943;}
	.st3{fill:#F6A025;}
	.st4{fill:#643E4C;}
</style>
<title>logo</title>
<path class="st0" d="M1.8,9.4c0-1.9,1.8-4.2,5.3-4.2C8.1,5.3,9,5.4,9.9,5.7c0.3,0,0.5-0.2,0.9-0.2c0.6,0,2,1.3,2,2.8
	c0,0.6-0.5,1.2-1.1,1.2c0,0,0,0,0,0c-1.2,0-1.9-2-3.8-2c-0.6,0-1.1,0.2-1.1,0.9c0,1.4,2.5,1,4.6,2.4c1.1,0.6,1.7,1.8,1.7,3
	c0,2.1-1.7,4.5-5.9,4.5c-1.5,0-2.9-0.3-4.2-0.9c-0.9-0.5-1.3-2.4-1.3-3.3c0-0.5,0.2-1,0.8-1c1.3,0,1.1,2.9,4.4,2.9
	C7,16,8,15.8,8,15.1c0-1.3-2.5-1-4.5-2.6C2.5,11.8,1.9,10.6,1.8,9.4z"/>
<path class="st0" d="M14.6,13c0-1.1-0.2-1.5-0.4-1.6s-0.5-0.2-0.5-0.6c0-1.3,4.5-1.8,4.5-1.8c0.5,0,0.5,0.4,0.5,0.8
	c0,0.2-0.1,0.8,0.3,0.8c0.2,0,0.5-0.4,1-0.8c0.6-0.5,1.4-0.8,2.2-0.8c2.1,0,2.2,1.6,2.5,1.6c0.1,0,0.5-0.4,1-0.8
	c0.6-0.5,1.4-0.8,2.2-0.8c1.4-0.2,2.6,0.8,2.8,2.2c0,0.2,0,0.3,0,0.5v3.8c0,1,0.7,1.1,0.7,1.6c0,1.1-2,1.2-2.8,1.2s-2.7-0.1-2.7-1.1
	c0-0.7,0.6-0.6,0.6-1.7v-1.6c0-0.8,0.1-2.3-0.9-2.3c-1,0-0.9,1.2-0.9,1.9v1.1c0,2.2,0.7,1.8,0.7,2.5c0,1.1-2.2,1.1-2.8,1.1
	c-2.7,0-2.9-0.5-2.8-1c0-1,0.9-0.2,0.9-2.3v-1c0-0.6,0.1-2.3-0.9-2.3c-1,0-0.9,1.2-0.9,1.9V15c0,1.6,0.5,1.5,0.5,2.2
	c0,0.5-0.4,1.1-2.9,1.1c-0.7,0-2.8,0-2.8-0.9c0-0.8,1.1-0.4,1.1-2.6L14.6,13z"/>
<path class="st0" d="M31.9,13.9c0-3.2,2.8-5,5.8-5c2.6-0.1,4.9,2,4.9,4.6c0,0,0,0,0,0c0,3-3.2,4.8-5.8,4.8S31.9,16.7,31.9,13.9z
	 M36.9,11C36.4,11,36,11.5,36,12.1c0.1,1.1,0.4,3.9,1.6,4c0.7,0,0.8-0.5,0.8-1.1C38.5,14.1,38.1,11,36.9,11L36.9,11z"/>
<path class="st0" d="M43.3,13.9c0-3.2,2.8-5,5.8-5c2.6-0.1,4.9,2,4.9,4.6c0,0,0,0,0,0c0,3-3.2,4.8-5.8,4.8S43.3,16.7,43.3,13.9z
	 M48.3,11c-0.5,0-0.9,0.5-0.9,1c0,0,0,0.1,0,0.1c0.1,1.1,0.4,3.9,1.6,4c0.7,0,0.8-0.5,0.8-1.1C49.9,14.1,49.5,11,48.3,11L48.3,11z"
	/>
<path class="st0" d="M60.2,14.2c0,1.2,0.5,1.5,1,1.5s0.9-0.4,1.2-0.4s0.6,0.5,0.6,0.8c0,1.2-2.1,2.2-3.9,2.2
	c-1.7,0.1-3.1-1.1-3.2-2.7c0-0.2,0-0.3,0-0.5v-3.7c0-0.3,0-0.4-0.1-0.5c-0.2,0-0.5,0-0.7,0c-0.5,0-0.7,0-0.8-0.1s-0.1-0.3-0.1-0.7
	c0-0.2-0.1-0.4,0.2-0.6l4.1-2.6c0.4-0.2,0.4-0.2,0.9-0.2c0.8,0,0.8-0.1,0.8,0.8c-0.1,0.4-0.1,0.9,0,1.3c0.1,0.1,0.2,0.1,0.7,0.1h1.3
	C63,8.8,63,8.9,63,9.7c0,1-0.1,1.1-0.8,1.1h-1.3c-0.6,0-0.7,0-0.7,0.7L60.2,14.2z"/>
<path class="st0" d="M74.9,15.4c0,1.5,0.9,1.1,0.9,1.9c0,1-2.3,1-3,1s-2.7,0-2.7-0.9c0-0.5,0.5-0.5,0.7-1.4c0.1-0.6,0.1-1.2,0.1-1.8
	c0-0.9,0-2.6-1.3-2.6c-1.1,0-1.1,0.9-1.1,1.7v2.1c0,1.5,0.7,1.2,0.7,1.8c0,1-2.1,1.1-2.7,1.1c-2.6,0-3.2-0.5-3.2-1.1
	c0-0.7,0.7-0.4,1-1.6c0.2-1.4,0.2-2.8,0.2-4.2c0-0.8,0-1.6-0.1-2.4c0-1.3-1.1-0.8-1.1-1.7c0-1.4,4.7-1.8,4.7-1.8
	c0.5,0,0.6,0.2,0.6,0.7l-0.1,3.4c0,0.3,0,0.9,0.4,0.9s0.8-1.6,2.8-1.6c3.3,0,3.1,3.1,3.1,3.6L74.9,15.4z"/>
<path class="st0" d="M81.5,14.7c0,2.1,1.1,1.4,1.1,2.3c0,1.2-2.3,1.2-3.1,1.2c-3.1,0-3.2-0.7-3.2-1.1c0-0.6,0.7-0.7,1-1.2
	c0.2-1.3,0.3-2.6,0.1-3.9c-0.2-0.6-1.1-0.4-1.1-1.2c0-1.3,4.6-1.8,4.8-1.8c0.5,0,0.6,0.4,0.6,0.8L81.5,14.7z M77.9,8.3
	c-0.8,0-1.6-0.3-1.6-1.2c0-1.2,2.4-1.7,3.3-1.7c0.7,0,1.8,0.2,1.8,1.1C81.4,8,78.9,8.3,77.9,8.3z"/>
<path class="st0" d="M87.5,13.9c-0.2,0-0.5,0-0.5,0.2c0,0.9,1.2,1.7,2,1.7c1.3,0,2-0.8,2.4-0.8s0.7,0.6,0.7,0.9
	c0,1.4-2.5,2.4-4.2,2.4c-2.5,0.2-4.7-1.8-4.9-4.3c0-0.1,0-0.2,0-0.4c0.1-2.7,2.3-4.9,5-4.8c0,0,0,0,0,0c2.2-0.2,4.2,1.5,4.4,3.7
	c0,1.2-0.5,1.4-1.1,1.4L87.5,13.9z"/>
<path class="st0" d="M117.3,8.4c0-1.8-1.3-0.9-1.3-2.1c0-0.8,1-1,1.7-1h5.9c5,0,6.7,3.1,6.7,6.3s-2,6.5-6.5,6.5c-0.8,0-1.4,0-2,0
	s-1,0-1.6,0s-1,0-1.5,0s-1,0-1.5,0s-1.4-0.3-1.4-1c0-1.3,1.4,0.1,1.5-2.5L117.3,8.4z M121.6,15c0,0.9,0.2,1.3,1.1,1.3
	c2.3,0,2.7-2.3,2.7-4.1c0-4.2-1.6-4.9-3-4.9c-0.8,0-0.8,0.3-0.8,1L121.6,15z"/>
<path class="st0" d="M141.9,10.5c-0.2,0.1-0.3,0.2-0.3,0.5s0.2,0.3,0.4,0.4c1.1,0.5,1.9,1.5,2,2.8c0,1.8-1.2,4-4.8,4
	c-0.6,0-1.2,0-1.7,0s-1.1,0-1.6,0s-1.2,0-1.9,0s-1.2,0-1.9,0s-1.2-0.3-1.2-1c0-1.1,1.2,0,1.3-3l0.2-5.2c0.1-2.7-1.4-1.5-1.4-2.7
	c0-0.7,0.7-1,1.3-1s1.3,0,2,0.1s1.3,0.1,2,0.1c0.4,0,0.9,0,1.3-0.1s0.9-0.1,1.3-0.1c3.3,0,4.1,1.6,4.1,3
	C142.8,9.1,142.5,10,141.9,10.5z M136.6,9.7c0,0.7,0,1,0.5,1c1.1,0,1.3-0.8,1.3-1.7c0-0.8-0.3-1.8-1.3-1.8c-0.7,0-0.6,0.5-0.6,1.1
	L136.6,9.7z M136.6,14.1c0,2.1,0.3,2.1,0.9,2.1c1,0,1.4-0.7,1.4-1.6c0-1.1-0.3-2.1-1.6-2.1c-0.6,0-0.7,0.3-0.7,0.7V14.1z"/>
<path class="st1" d="M1.8,9.4c0-1.9,1.8-4.2,5.3-4.2C8.1,5.3,9,5.4,9.9,5.7c0.3,0,0.5-0.2,0.9-0.2c0.6,0,2,1.3,2,2.8
	c0,0.6-0.5,1.2-1.1,1.2c0,0,0,0,0,0c-1.2,0-1.9-2-3.8-2c-0.6,0-1.1,0.2-1.1,0.9c0,1.4,2.5,1,4.6,2.4c1.1,0.6,1.7,1.8,1.7,3
	c0,2.1-1.7,4.5-5.9,4.5c-1.5,0-2.9-0.3-4.2-0.9c-0.9-0.5-1.3-2.4-1.3-3.3c0-0.5,0.2-1,0.8-1c1.3,0,1.1,2.9,4.4,2.9
	C7,16,8,15.8,8,15.1c0-1.3-2.5-1-4.5-2.6C2.5,11.8,1.9,10.6,1.8,9.4z"/>
<path class="st1" d="M14.6,13c0-1.1-0.2-1.5-0.4-1.6s-0.5-0.2-0.5-0.6c0-1.3,4.5-1.8,4.5-1.8c0.5,0,0.5,0.4,0.5,0.8
	c0,0.2-0.1,0.8,0.3,0.8c0.2,0,0.5-0.4,1-0.8c0.6-0.5,1.4-0.8,2.2-0.8c2.1,0,2.2,1.6,2.5,1.6c0.1,0,0.5-0.4,1-0.8
	c0.6-0.5,1.4-0.8,2.2-0.8c1.4-0.2,2.6,0.8,2.8,2.2c0,0.2,0,0.3,0,0.5v3.8c0,1,0.7,1.1,0.7,1.6c0,1.1-2,1.2-2.8,1.2s-2.7-0.1-2.7-1.1
	c0-0.7,0.6-0.6,0.6-1.7v-1.6c0-0.8,0.1-2.3-0.9-2.3c-1,0-0.9,1.2-0.9,1.9v1.1c0,2.2,0.7,1.8,0.7,2.5c0,1.1-2.2,1.1-2.8,1.1
	c-2.7,0-2.9-0.5-2.8-1c0-1,0.9-0.2,0.9-2.3v-1c0-0.6,0.1-2.3-0.9-2.3c-1,0-0.9,1.2-0.9,1.9V15c0,1.6,0.5,1.5,0.5,2.2
	c0,0.5-0.4,1.1-2.9,1.1c-0.7,0-2.8,0-2.8-0.9c0-0.8,1.1-0.4,1.1-2.6L14.6,13z"/>
<path class="st1" d="M31.9,13.9c0-3.2,2.8-5,5.8-5c2.6-0.1,4.9,2,4.9,4.6c0,0,0,0,0,0c0,3-3.2,4.8-5.8,4.8S31.9,16.7,31.9,13.9z
	 M36.9,11C36.4,11,36,11.5,36,12.1c0.1,1.1,0.4,3.9,1.6,4c0.7,0,0.8-0.5,0.8-1.1C38.5,14.1,38.1,11,36.9,11L36.9,11z"/>
<path class="st1" d="M43.3,13.9c0-3.2,2.8-5,5.8-5c2.6-0.1,4.9,2,4.9,4.6c0,0,0,0,0,0c0,3-3.2,4.8-5.8,4.8S43.3,16.7,43.3,13.9z
	 M48.3,11c-0.5,0-0.9,0.5-0.9,1c0,0,0,0.1,0,0.1c0.1,1.1,0.4,3.9,1.6,4c0.7,0,0.8-0.5,0.8-1.1C49.9,14.1,49.5,11,48.3,11L48.3,11z"
	/>
<path class="st1" d="M60.2,14.2c0,1.2,0.5,1.5,1,1.5s0.9-0.4,1.2-0.4s0.6,0.5,0.6,0.8c0,1.2-2.1,2.2-3.9,2.2
	c-1.7,0.1-3.1-1.1-3.2-2.7c0-0.2,0-0.3,0-0.5v-3.7c0-0.3,0-0.4-0.1-0.5c-0.2,0-0.5,0-0.7,0c-0.5,0-0.7,0-0.8-0.1s-0.1-0.3-0.1-0.7
	c0-0.2-0.1-0.4,0.2-0.6l4.1-2.6c0.4-0.2,0.4-0.2,0.9-0.2c0.8,0,0.8-0.1,0.8,0.8c-0.1,0.4-0.1,0.9,0,1.3c0.1,0.1,0.2,0.1,0.7,0.1h1.3
	C63,8.8,63,8.9,63,9.7c0,1-0.1,1.1-0.8,1.1h-1.3c-0.6,0-0.7,0-0.7,0.7L60.2,14.2z"/>
<path class="st1" d="M74.9,15.4c0,1.5,0.9,1.1,0.9,1.9c0,1-2.3,1-3,1s-2.7,0-2.7-0.9c0-0.5,0.5-0.5,0.7-1.4c0.1-0.6,0.1-1.2,0.1-1.8
	c0-0.9,0-2.6-1.3-2.6c-1.1,0-1.1,0.9-1.1,1.7v2.1c0,1.5,0.7,1.2,0.7,1.8c0,1-2.1,1.1-2.7,1.1c-2.6,0-3.2-0.5-3.2-1.1
	c0-0.7,0.7-0.4,1-1.6c0.2-1.4,0.2-2.8,0.2-4.2c0-0.8,0-1.6-0.1-2.4c0-1.3-1.1-0.8-1.1-1.7c0-1.4,4.7-1.8,4.7-1.8
	c0.5,0,0.6,0.2,0.6,0.7l-0.1,3.4c0,0.3,0,0.9,0.4,0.9s0.8-1.6,2.8-1.6c3.3,0,3.1,3.1,3.1,3.6L74.9,15.4z"/>
<path class="st1" d="M81.5,14.7c0,2.1,1.1,1.4,1.1,2.3c0,1.2-2.3,1.2-3.1,1.2c-3.1,0-3.2-0.7-3.2-1.1c0-0.6,0.7-0.7,1-1.2
	c0.2-1.3,0.3-2.6,0.1-3.9c-0.2-0.6-1.1-0.4-1.1-1.2c0-1.3,4.6-1.8,4.8-1.8c0.5,0,0.6,0.4,0.6,0.8L81.5,14.7z M77.9,8.3
	c-0.8,0-1.6-0.3-1.6-1.2c0-1.2,2.4-1.7,3.3-1.7c0.7,0,1.8,0.2,1.8,1.1C81.4,8,78.9,8.3,77.9,8.3z"/>
<path class="st1" d="M117.3,8.4c0-1.8-1.3-0.9-1.3-2.1c0-0.8,1-1,1.7-1h5.9c5,0,6.7,3.1,6.7,6.3s-2,6.5-6.5,6.5c-0.8,0-1.4,0-2,0
	s-1,0-1.6,0s-1,0-1.5,0s-1,0-1.5,0s-1.4-0.3-1.4-1c0-1.3,1.4,0.1,1.5-2.5L117.3,8.4z M121.6,15c0,0.9,0.2,1.3,1.1,1.3
	c2.3,0,2.7-2.3,2.7-4.1c0-4.2-1.6-4.9-3-4.9c-0.8,0-0.8,0.3-0.8,1L121.6,15z"/>
<path class="st1" d="M141.9,10.5c-0.2,0.1-0.3,0.2-0.3,0.5s0.2,0.3,0.4,0.4c1.1,0.5,1.9,1.5,2,2.8c0,1.8-1.2,4-4.8,4
	c-0.6,0-1.2,0-1.7,0s-1.1,0-1.6,0s-1.2,0-1.9,0s-1.2,0-1.9,0s-1.2-0.3-1.2-1c0-1.1,1.2,0,1.3-3l0.2-5.2c0.1-2.7-1.4-1.5-1.4-2.7
	c0-0.7,0.7-1,1.3-1s1.3,0,2,0.1s1.3,0.1,2,0.1c0.4,0,0.9,0,1.3-0.1s0.9-0.1,1.3-0.1c3.3,0,4.1,1.6,4.1,3
	C142.8,9.1,142.5,10,141.9,10.5z M136.6,9.7c0,0.7,0,1,0.5,1c1.1,0,1.3-0.8,1.3-1.7c0-0.8-0.3-1.8-1.3-1.8c-0.7,0-0.6,0.5-0.6,1.1
	L136.6,9.7z M136.6,14.1c0,2.1,0.3,2.1,0.9,2.1c1,0,1.4-0.7,1.4-1.6c0-1.1-0.3-2.1-1.6-2.1c-0.6,0-0.7,0.3-0.7,0.7V14.1z"/>
<path class="st2" d="M114.9,9.5c-1.1-2.6-3.4-4.6-6.2-5.1V0.5h-1.5v3l-0.7,1.3c-1.3,2-3.3,3.6-5.6,4.3c-2.4,0.7-4.9,0.7-7.2,0
	L92,7.9L91,9l1.8,1.5c0.7,1.1,1.5,2.2,2.5,3c1.3,0.9,3.7,1.1,6.1,0.5c-1.2,0.7-2.5,1.2-3.8,1.5l-2.1-0.4l-0.4,1.5l2.3,0.5
	c1.1,0.7,2.4,1.3,3.7,1.6c2.7,0.4,6.9-2.5,8.4-6.2c0.4-0.9,0.6-1.8,0.6-2.8c0.4,1.1,0.6,2.4,0.6,3.6c-0.1,2.4-0.9,4.8-2.3,6.8
	l-1.8,1.2l0.7,1.3l2-1.3c1.3-0.2,2.6-0.7,3.8-1.4C115.3,18.2,116.4,13.2,114.9,9.5z"/>
<path class="st3" d="M100.1,13.2c-0.3-0.1-0.4-0.4-0.4-0.6c0-0.2,0.2-0.3,0.4-0.4c1.6-0.3,3.2-0.8,4.6-1.7c0.2-0.2,0.6-0.1,0.7,0.1
	c0.2,0.2,0.1,0.6-0.1,0.7l0,0C103.8,12.4,102,13,100.1,13.2L100.1,13.2z"/>
<path class="st4" d="M101.6,19.2c-0.2,0-0.4,0-0.6,0c-1.4-0.3-2.7-0.9-3.9-1.7L95,17.1c-0.1,0-0.3-0.1-0.3-0.2
	c-0.1-0.1-0.1-0.3,0-0.4L95,15c0.1-0.3,0.3-0.4,0.6-0.4l2,0.3c2.2-0.5,4.3-1.6,6-3.2c3.2-3.3,3-8.2,3-8.3c0-0.3,0.2-0.5,0.5-0.6
	c0.3,0,0.5,0.2,0.6,0.5c0,0,0,0,0,0c0.1,3.4-1.1,6.6-3.3,9.1c-1.9,1.8-4.2,3-6.7,3.5c-0.1,0-0.1,0-0.2,0l-1.6-0.3l-0.1,0.5l1.8,0.4
	c0.1,0,0.1,0,0.2,0.1c1.1,0.7,2.3,1.2,3.5,1.5c2.3,0.3,6.4-2.4,7.8-5.9c1-2.5,0.7-5.2-0.8-7.5l-0.1-0.1c-0.1-0.3,0-0.6,0.2-0.7
	c0.2-0.1,0.6-0.1,0.7,0.2c0,0,0,0,0,0l0.1,0.1c1.6,2.5,1.9,5.6,0.8,8.4C108.6,16.1,104.6,19.2,101.6,19.2z"/>
<path class="st4" d="M98.7,14.9c-1.3,0.1-2.5-0.3-3.6-1c-1.1-0.9-2-2-2.7-3.2l-1.8-1.4c-0.1-0.1-0.2-0.2-0.2-0.4
	c0-0.1,0-0.3,0.1-0.4l1-1.1c0.2-0.2,0.5-0.2,0.7-0.1l1.6,1.2c2.2,0.6,4.6,0.6,6.8,0c2.7-0.9,4.8-2.8,6-5.3c0.1-0.3,0.4-0.4,0.7-0.3
	c0,0,0,0,0,0c0.3,0.1,0.4,0.4,0.3,0.7c-1.3,2.8-3.7,5-6.6,5.9c-2.5,0.7-5.1,0.7-7.5,0c-0.1,0-0.1,0-0.2-0.1l-1.3-1l-0.3,0.4l1.4,1.1
	c0.1,0,0.1,0.1,0.1,0.1c0.6,1.1,1.5,2.1,2.4,2.9c1.2,0.8,3.4,1,5.6,0.4c0.3,0,0.5,0.2,0.5,0.5c0,0.2-0.1,0.4-0.3,0.5
	C100.6,14.8,99.6,14.9,98.7,14.9z"/>
<path class="st4" d="M107.3,23h-0.1c-0.1,0-0.3-0.1-0.3-0.3l-0.7-1.4c-0.1-0.2-0.1-0.5,0.2-0.7l1.7-1.1c1.3-1.9,2-4.2,2.2-6.5
	c0-1.2-0.2-2.3-0.5-3.4c-0.1-0.3,0.1-0.6,0.3-0.7c0.3-0.1,0.6,0.1,0.7,0.3c0.4,1.2,0.6,2.5,0.6,3.8c-0.1,2.6-1,5-2.4,7.1
	c0,0.1-0.1,0.1-0.1,0.1l-1.4,0.9l0.2,0.4l1.5-1c0.1,0,0.1-0.1,0.2-0.1c1.3-0.2,2.5-0.7,3.6-1.4c1.9-1.4,3-6.1,1.6-9.7
	c-1-2.4-3.1-4.2-5.7-4.8l-0.2-0.1c-0.3-0.1-0.4-0.4-0.4-0.6c0,0,0,0,0,0c0.1-0.3,0.4-0.4,0.7-0.4h0.1c2.9,0.6,5.3,2.7,6.4,5.4
	c1.5,3.8,0.6,9.1-1.9,10.9c-1.2,0.7-2.5,1.3-3.9,1.5l-1.9,1.2C107.6,23,107.5,23,107.3,23z"/>
<path class="st4" d="M108.7,4.8c-0.3,0-0.5-0.2-0.5-0.5c0,0,0,0,0,0V1h-0.4v2.5c0,0.3-0.2,0.5-0.5,0.5c0,0,0,0,0,0
	c-0.3,0-0.5-0.2-0.5-0.5v-3c0-0.3,0.2-0.5,0.5-0.5h1.5c0.3,0,0.5,0.2,0.5,0.5c0,0,0,0,0,0v3.8C109.2,4.6,109,4.9,108.7,4.8
	C108.7,4.9,108.7,4.9,108.7,4.8z"/>
<path class="st3" d="M105.5,15.5c-0.2,0-0.3-0.1-0.4-0.2c-0.2-0.2-0.2-0.5,0-0.8c0.9-0.8,1.6-1.7,2.2-2.7c0.4-0.8,0.7-1.7,0.9-2.6
	c0-0.3,0.2-0.5,0.5-0.5c0.3,0,0.5,0.2,0.5,0.5c0,0.1,0,0.1,0,0.2c-0.2,1-0.5,2-1,2.9c-0.6,1.1-1.4,2.2-2.4,3
	C105.7,15.5,105.6,15.5,105.5,15.5z"/>
<path class="st3" d="M101.7,17.6c-0.2,0-0.4-0.2-0.5-0.4c-0.1-0.3,0.1-0.6,0.3-0.6c0,0,0,0,0,0c0.6-0.2,1.1-0.4,1.6-0.7
	c0.3-0.1,0.6,0,0.7,0.2c0.1,0.3,0,0.6-0.2,0.7c0,0,0,0,0,0c-0.6,0.3-1.2,0.5-1.8,0.7C101.8,17.6,101.8,17.6,101.7,17.6z"/>
<path class="st3" d="M112.3,19c-0.1,0-0.2,0-0.3-0.1c-0.2-0.2-0.3-0.5-0.1-0.7c0.2-0.3,0.3-0.5,0.5-0.8c0.1-0.3,0.5-0.4,0.7-0.2
	c0.3,0.1,0.4,0.4,0.2,0.7c0,0,0,0,0,0c-0.2,0.3-0.3,0.6-0.5,0.9C112.7,18.9,112.5,19,112.3,19z"/>
<path class="st3" d="M113.7,15.8h-0.1c-0.3-0.1-0.5-0.3-0.4-0.6c0,0,0,0,0,0c0.3-1.2,0.3-2.5,0-3.8c-0.3-1.1-0.8-2.2-1.4-3.1
	c-0.2-0.2-0.1-0.6,0.1-0.7c0,0,0,0,0,0c0.2-0.2,0.6-0.1,0.7,0.1c0,0,0,0,0,0c0.8,1,1.3,2.2,1.6,3.5c0.3,1.4,0.3,2.8,0,4.2
	C114.2,15.6,114,15.7,113.7,15.8z"/>
<path class="st3" d="M97.9,13.2L97.9,13.2c-0.4-0.1-0.7-0.1-1-0.2c-0.3-0.1-0.4-0.4-0.3-0.6c0.1-0.3,0.4-0.4,0.7-0.4
	c0.3,0.1,0.5,0.1,0.8,0.2c0.3,0.1,0.5,0.3,0.4,0.6c0,0,0,0,0,0C98.4,13,98.2,13.2,97.9,13.2z"/>
<path class="st1" d="M87.5,13.9c-0.2,0-0.5,0-0.5,0.2c0,0.9,1.2,1.7,2,1.7c1.3,0,2-0.8,2.4-0.8s0.7,0.6,0.7,0.9
	c0,1.4-2.5,2.4-4.2,2.4c-2.5,0.2-4.7-1.8-4.9-4.3c0-0.1,0-0.2,0-0.4c0.1-2.7,2.3-4.9,5-4.8c0,0,0,0,0,0c2.2-0.2,4.2,1.5,4.4,3.7
	c0,1.2-0.5,1.4-1.1,1.4L87.5,13.9z M89,11.6c0.1-0.5-0.3-1-0.9-1.1c-0.1,0-0.1,0-0.2,0c-0.6,0.1-1.1,0.6-1.1,1.2
	c0,0.6,0.6,0.5,1.1,0.5S89,12.3,89,11.6z"/>
</svg>
