<svg xmlns="http://www.w3.org/2000/svg" viewBox="0 0 72.87 72.87"><defs><style>.a{fill:#b58059;}.b{fill:none;stroke:#fff;stroke-miterlimit:10;stroke-width:2px;}.c{fill:#ffe943;}.d{fill:#f6a025;}.e{fill:#643e4c;}.f{fill:#dd780e;}.g{fill:#fff;}</style></defs><title>mango</title><rect class="a" x="1" y="1" width="70.87" height="70.87" rx="14.17"/><rect class="b" x="1" y="1" width="70.87" height="70.87" rx="14.17"/><path class="c" d="M51.09,48.88c5.5-5.5,5.88-14,.86-19.05S38.4,25.2,32.9,30.7C24.31,39.3,28.51,49.2,29.77,52,32.59,51,42.31,58.31,51.09,48.88Z" transform="translate(-5.95 -5.9)"/><path class="d" d="M29.77,52c2.82-1,12.54,6.3,21.32-3.13,5.5-5.5,5.88-14,.86-19.05Z" transform="translate(-5.95 -5.9)"/><path class="a" d="M47.9,33.89c-2.79-2.78-7.52-2.57-10.57.48-4.18,4.18-2.43,12.51-2.43,12.51S50.68,36.68,47.9,33.89Z" transform="translate(-5.95 -5.9)"/><path class="e" d="M34.9,47.63a.75.75,0,0,1-.73-.59c-.07-.36-1.79-8.78,2.63-13.2,3.34-3.33,8.55-3.55,11.63-.48a.75.75,0,0,1-1.07,1.06c-2.48-2.48-6.75-2.27-9.5.48C34,38.75,35.62,46.65,35.64,46.73a.76.76,0,0,1-.58.89Z" transform="translate(-5.95 -5.9)"/><path class="e" d="M40.49,54.52a26.39,26.39,0,0,1-7.14-1.22A8.48,8.48,0,0,0,30,52.72a.75.75,0,0,1-.93-.4c-4.82-10.77-.88-18,3.28-22.15a15.52,15.52,0,0,1,10.2-4.6,13,13,0,0,1,9.91,3.73c5.31,5.31,4.92,14.32-.85,20.1A14.67,14.67,0,0,1,40.49,54.52ZM30.42,51.17a13.94,13.94,0,0,1,3.34.68c4.28,1.19,10.75,3,16.78-3.48l0,0c5.19-5.2,5.58-13.27.86-18a11.51,11.51,0,0,0-8.78-3.29,14,14,0,0,0-9.21,4.16c-3.75,3.76-7.32,10.25-3.2,19.94Z" transform="translate(-5.95 -5.9)"/><path class="e" d="M29.77,52.76a.74.74,0,0,1-.53-.22.75.75,0,0,1,0-1.06L51.42,29.3a.75.75,0,0,1,1.06,0,.74.74,0,0,1,0,1.06L30.31,52.54A.75.75,0,0,1,29.77,52.76Z" transform="translate(-5.95 -5.9)"/><path class="f" d="M45.94,49.19a.73.73,0,0,1-.66-.4.74.74,0,0,1,.31-1A11.29,11.29,0,0,0,47,46.89a.75.75,0,0,1,.9,1.2,11.88,11.88,0,0,1-1.59,1A.73.73,0,0,1,45.94,49.19Z" transform="translate(-5.95 -5.9)"/><path class="f" d="M50.29,45a.81.81,0,0,1-.37-.09.75.75,0,0,1-.28-1,14.65,14.65,0,0,0,1-2.39,13.26,13.26,0,0,0,.72-3.29.75.75,0,0,1,1.5.14A15.77,15.77,0,0,1,52.1,42a16.14,16.14,0,0,1-1.16,2.63A.74.74,0,0,1,50.29,45Z" transform="translate(-5.95 -5.9)"/><path class="e" d="M52,30.58a.74.74,0,0,1-.53-.22.75.75,0,0,1,0-1.06,8.75,8.75,0,0,0,1.09-1.39,4,4,0,0,1,1.79-1.75,2.88,2.88,0,0,1,2.27.1,2.57,2.57,0,0,1,1.3,1.55.75.75,0,0,1-1.44.43,1.07,1.07,0,0,0-.53-.64,1.46,1.46,0,0,0-1.09,0c-.34.13-.67.61-1.06,1.18a10.12,10.12,0,0,1-1.27,1.61A.73.73,0,0,1,52,30.58Z" transform="translate(-5.95 -5.9)"/><path class="g" d="M38,37.66a.41.41,0,0,1-.21,0,.49.49,0,0,1-.24-.66,5.81,5.81,0,0,1,2.69-2.74,5.69,5.69,0,0,1,2.7-.55.51.51,0,0,1,.48.52.52.52,0,0,1-.52.48,4.77,4.77,0,0,0-2.22.45,4.82,4.82,0,0,0-2.23,2.27A.48.48,0,0,1,38,37.66Z" transform="translate(-5.95 -5.9)"/><path class="g" d="M33.89,66.38V63.55L32.77,66h-.62L31,63.55v2.83h-.86V62.19h1.06l1.22,2.56,1.22-2.56h1.06v4.19Z" transform="translate(-5.95 -5.9)"/><path class="g" d="M36.74,65.57l-.33.81h-1l1.82-4.19h1L40,66.38H39l-.33-.81Zm1-2.39-.66,1.63h1.32Z" transform="translate(-5.95 -5.9)"/><path class="g" d="M43.64,66.38l-2-2.69v2.69H40.7V62.19h.87l2,2.69V62.19h.9v4.19Z" transform="translate(-5.95 -5.9)"/><path class="g" d="M49.31,64.27v1.61a3.13,3.13,0,0,1-1.7.55,2.14,2.14,0,1,1,0-4.27,2.66,2.66,0,0,1,1.69.61l-.54.67A1.78,1.78,0,0,0,47.66,63a1.31,1.31,0,1,0,0,2.62,1.89,1.89,0,0,0,.82-.23v-1.1Z" transform="translate(-5.95 -5.9)"/><path class="g" d="M54.59,64.28a2.26,2.26,0,1,1-2.25-2.12A2.16,2.16,0,0,1,54.59,64.28Zm-3.54,0a1.31,1.31,0,0,0,1.3,1.32,1.31,1.31,0,1,0-1.3-1.32Z" transform="translate(-5.95 -5.9)"/></svg>