<svg xmlns="http://www.w3.org/2000/svg" viewBox="0 0 72.87 72.87"><defs><style>.a{fill:#77bf84;}.b{fill:none;stroke:#fff;stroke-miterlimit:10;stroke-width:2px;}.c{fill:#f6a025;}.d{fill:#643e4c;}.e{fill:#ece97c;}.f{fill:#ffe943;}.g{fill:#fff;}</style></defs><title>melon</title><rect class="a" x="1" y="1" width="70.87" height="70.87" rx="14.17"/><rect class="b" x="1" y="1" width="70.87" height="70.87" rx="14.17"/><path class="c" d="M49.57,51a14.46,14.46,0,0,0,2.77-8.63c0-7.28-5.07-13.19-11.32-13.19S29.7,35.1,29.7,42.38,34.77,55.56,41,55.56a10,10,0,0,0,4.28-1Z" transform="translate(-5.95 -5.82)"/><path class="d" d="M41,56.31C34.37,56.31,29,50.06,29,42.38S34.37,28.44,41,28.44s12.07,6.25,12.07,13.94a15.29,15.29,0,0,1-2.91,9.07A.75.75,0,0,1,49,50.56a13.74,13.74,0,0,0,2.62-8.18c0-6.86-4.75-12.44-10.57-12.44S30.45,35.52,30.45,42.38,35.19,54.81,41,54.81a9.06,9.06,0,0,0,3.95-.9.75.75,0,1,1,.65,1.35A10.56,10.56,0,0,1,41,56.31Z" transform="translate(-5.95 -5.82)"/><path class="e" d="M45.27,49.57a9.2,9.2,0,0,0,3.24-7.19c0-4.82-3.35-8.73-7.49-8.73s-7.5,3.91-7.5,8.73c0,4.45,2.87,8.13,6.57,8.66Z" transform="translate(-5.95 -5.82)"/><path class="d" d="M40.09,51.79H40c-4.11-.59-7.21-4.63-7.21-9.4,0-5.23,3.7-9.48,8.25-9.48s8.24,4.25,8.24,9.48a10,10,0,0,1-3.52,7.77A.75.75,0,0,1,44.69,50,.76.76,0,0,1,44.8,49a8.45,8.45,0,0,0,3-6.6c0-4.4-3-8-6.74-8s-6.75,3.58-6.75,8c0,4,2.55,7.43,5.92,7.92a.75.75,0,0,1-.1,1.49Z" transform="translate(-5.95 -5.82)"/><path class="f" d="M37.47,44.24c0,6.25,5.91,11.32,13.19,11.32s13.18-5.07,13.18-11.32h-4.5c0,3.76-3.89,6.82-8.68,6.82S42,48,42,44.24Z" transform="translate(-5.95 -5.82)"/><path class="d" d="M50.66,56.31c-7.69,0-13.94-5.41-13.94-12.07a.76.76,0,0,1,.75-.75H42a.75.75,0,0,1,.75.75c0,3.35,3.56,6.07,7.94,6.07s7.93-2.72,7.93-6.07a.76.76,0,0,1,.75-.75h4.5a.75.75,0,0,1,.75.75C64.59,50.9,58.34,56.31,50.66,56.31ZM38.26,45c.45,5.48,5.84,9.82,12.4,9.82s12-4.34,12.4-9.82h-3c-.48,3.83-4.51,6.82-9.39,6.82s-8.92-3-9.39-6.82Z" transform="translate(-5.95 -5.82)"/><path class="d" d="M37.48,40.42a.58.58,0,0,1-.19,0l-1.23-.31a.75.75,0,0,1,.37-1.46l1.23.32a.75.75,0,0,1,.54.91A.74.74,0,0,1,37.48,40.42Z" transform="translate(-5.95 -5.82)"/><path class="d" d="M44.2,40.42A.75.75,0,0,1,44,39l1.23-.32a.75.75,0,0,1,.37,1.46l-1.23.31A.55.55,0,0,1,44.2,40.42Z" transform="translate(-5.95 -5.82)"/><path class="d" d="M44.58,42.88a.74.74,0,0,1-.72-.56.74.74,0,0,1,.54-.91l1.23-.32a.75.75,0,0,1,.91.54.76.76,0,0,1-.54.92l-1.23.31Z" transform="translate(-5.95 -5.82)"/><path class="d" d="M44.36,45.31a.75.75,0,0,1-.18-1.48l1.23-.31A.75.75,0,1,1,45.78,45l-1.23.31A.63.63,0,0,1,44.36,45.31Z" transform="translate(-5.95 -5.82)"/><path class="d" d="M43.13,38.16A.75.75,0,0,1,43,36.69l1.23-.32a.75.75,0,0,1,.37,1.46l-1.23.31A.62.62,0,0,1,43.13,38.16Z" transform="translate(-5.95 -5.82)"/><path class="d" d="M38.7,38.16a.55.55,0,0,1-.18,0l-1.23-.31a.75.75,0,0,1,.37-1.46l1.23.32a.75.75,0,0,1-.19,1.47Z" transform="translate(-5.95 -5.82)"/><path class="d" d="M37.48,43a.58.58,0,0,1-.19,0l-1.23-.31a.75.75,0,1,1,.37-1.45l1.23.31A.75.75,0,0,1,37.48,43Z" transform="translate(-5.95 -5.82)"/><path class="g" d="M35,66.57V63.74l-1.11,2.41h-.62l-1.12-2.41v2.83h-.85v-4.2h1.06l1.22,2.57,1.22-2.57h1v4.2Z" transform="translate(-5.95 -5.82)"/><path class="g" d="M38,63.16v.91h2v.79H38v.93h2.32v.78H37.05v-4.2h3.19v.79Z" transform="translate(-5.95 -5.82)"/><path class="g" d="M44,65.74v.83H41.29v-4.2h1v3.37Z" transform="translate(-5.95 -5.82)"/><path class="g" d="M49.05,64.47a2.25,2.25,0,1,1-2.25-2.13A2.16,2.16,0,0,1,49.05,64.47Zm-3.53,0a1.31,1.31,0,0,0,1.29,1.32,1.31,1.31,0,1,0-1.29-1.32Z" transform="translate(-5.95 -5.82)"/><path class="g" d="M52.86,66.57l-2-2.69v2.69h-.91v-4.2h.87l2,2.7v-2.7h.9v4.2Z" transform="translate(-5.95 -5.82)"/></svg>