<svg xmlns="http://www.w3.org/2000/svg" viewBox="0 0 72.87 72.87"><defs><style>.a{fill:#ffa21a;}.b{fill:none;stroke:#fff;stroke-miterlimit:10;stroke-width:2px;}.c{fill:#8fc037;}.d{fill:#643e4c;}.e{fill:#8b7ab7;}.f{fill:#fff;}</style></defs><title>mullberry</title><rect class="a" x="1" y="1" width="70.87" height="70.87" rx="14.17"/><rect class="b" x="1" y="1" width="70.87" height="70.87" rx="14.17"/><path class="c" d="M50.29,25.73a6.94,6.94,0,0,1-.19-1.28,6.22,6.22,0,0,1,.58-2.06l1.59.57a4.5,4.5,0,0,1-.21-1.71,2.59,2.59,0,0,1,.9-1.58,2.51,2.51,0,0,1,1.4,1.14,4.21,4.21,0,0,1,.43,1.67l1.29-1.12a6.38,6.38,0,0,1,1.32,1.69,7.88,7.88,0,0,1,.38,2.41l1.6-1.07a6.15,6.15,0,0,1,.3,2.09,5.82,5.82,0,0,1-1,3.2,5,5,0,0,1-1.32,1.18,5.65,5.65,0,0,1-1.58.72l-3.1.18Z" transform="translate(0 0)"/><path class="d" d="M50.09,22.1a.67.67,0,0,1,.83-.35l.48.18a4.7,4.7,0,0,1,0-.75,3.23,3.23,0,0,1,1.08-2,.66.66,0,0,1,.71-.13A3.27,3.27,0,0,1,55,20.49a6,6,0,0,1,.28.7l.37-.34a.7.7,0,0,1,.9,0,6.48,6.48,0,0,1,1.51,2,10,10,0,0,1,.32,1.42l.63-.43a.69.69,0,0,1,.94.19,1.3,1.3,0,0,1,.08.17,6.87,6.87,0,0,1,.31,2.38v.24a6,6,0,0,1-1.17,3.28,5.86,5.86,0,0,1-1.47,1.34,6.31,6.31,0,0,1-1.8.8.69.69,0,0,1-.84-.47.66.66,0,0,1,.46-.82h0a5.92,5.92,0,0,0,1.4-.64,4.67,4.67,0,0,0,1.14-1,4.84,4.84,0,0,0,.9-2.59v-.29a3.41,3.41,0,0,0-.06-.9l-.77.52a.68.68,0,0,1-.94-.18.6.6,0,0,1-.11-.39,7.32,7.32,0,0,0-.36-2.18,3.3,3.3,0,0,0-.6-1l-.79.7a.67.67,0,0,1-.95,0,.64.64,0,0,1-.22-.48,3.85,3.85,0,0,0-.35-1.38,1.74,1.74,0,0,0-.65-.64,1.61,1.61,0,0,0-.37.83,3.81,3.81,0,0,0,.18,1.42.67.67,0,0,1-.16.7.66.66,0,0,1-.7.17l-1-.36a3.88,3.88,0,0,0-.3,1.17,9.43,9.43,0,0,0,.17,1.17.66.66,0,0,1-.47.82.67.67,0,0,1-.83-.47s0,0,0,0a8.19,8.19,0,0,1-.21-1.39,6.19,6.19,0,0,1,.67-2.39Z" transform="translate(0 0)"/><path class="d" d="M53.71,24.28a.65.65,0,0,1,.37-.34.67.67,0,0,1,.88.34.14.14,0,0,1,0,.06A6.74,6.74,0,0,1,55.4,26a7.86,7.86,0,0,1-1.15,5.07.67.67,0,0,1-.93.22.69.69,0,0,1-.22-.93h0a6.11,6.11,0,0,0,.62-5.55A.7.7,0,0,1,53.71,24.28Z" transform="translate(0 0)"/><path class="e" d="M29.81,32.15a2.61,2.61,0,1,0-3.07,2.09,2.61,2.61,0,0,0,3.07-2.09Z" transform="translate(0 0)"/><path class="d" d="M27.28,34.94a3.36,3.36,0,0,1-.63-.06,3.24,3.24,0,0,1-2.1-1.39,3.29,3.29,0,0,1,5.16-4.07,3.51,3.51,0,0,1,.27.4,3.2,3.2,0,0,1,.51,2.46h0A3.3,3.3,0,0,1,27.28,34.94Zm0-5.2a1.94,1.94,0,0,0-1.91,1.56,2,2,0,0,0,.3,1.45A1.94,1.94,0,0,0,29.18,32h0a1.93,1.93,0,0,0-1.53-2.27A2.22,2.22,0,0,0,27.28,29.74Z" transform="translate(0 0)"/><path class="f" d="M26.59,32H26.5a.46.46,0,0,1-.35-.53,1.06,1.06,0,0,1,.47-.71,1,1,0,0,1,.83-.17.44.44,0,0,1,.37.5v0a.45.45,0,0,1-.52.36h0a.22.22,0,0,0-.25.17A.46.46,0,0,1,26.59,32Z" transform="translate(0 0)"/><path class="e" d="M31.66,37.23a2.61,2.61,0,1,0-3.07,2.06h0A2.62,2.62,0,0,0,31.66,37.23Z" transform="translate(0 0)"/><path class="d" d="M29.08,40a2.7,2.7,0,0,1-.63-.07,3.17,3.17,0,1,1,3.33-5.06,3.25,3.25,0,0,1,.5,2.46h0A3.31,3.31,0,0,1,29.08,40Zm0-5.23A1.94,1.94,0,1,0,31,37.1h0a2,2,0,0,0-1.53-2.28A2.22,2.22,0,0,0,29.08,34.79Z" transform="translate(0 0)"/><path class="f" d="M28.43,37.05h-.08a.44.44,0,0,1-.36-.51v0a1.12,1.12,0,0,1,1.3-.9h0a.45.45,0,0,1,.35.52h0a.46.46,0,0,1-.52.36.21.21,0,0,0-.26.16h0A.44.44,0,0,1,28.43,37.05Z" transform="translate(0 0)"/><path class="e" d="M33.32,27.74a2.61,2.61,0,1,0-3.07,2.06A2.6,2.6,0,0,0,33.32,27.74Z" transform="translate(0 0)"/><path class="d" d="M30.76,30.53a4.21,4.21,0,0,1-.63-.06A3.29,3.29,0,1,1,34,27.85v0h0A3.3,3.3,0,0,1,30.76,30.53Zm0-5.23a1.95,1.95,0,0,0-1.62,3,2,2,0,0,0,1.25.82,1.94,1.94,0,0,0,2.29-1.52v0h0a1.93,1.93,0,0,0-1.53-2.26A1.72,1.72,0,0,0,30.76,25.3Z" transform="translate(0 0)"/><path class="f" d="M30.1,27.56H30a.44.44,0,0,1-.36-.51h0a1.14,1.14,0,0,1,.47-.72,1.15,1.15,0,0,1,.88-.18.45.45,0,0,1-.17.89.21.21,0,0,0-.26.16h0A.45.45,0,0,1,30.1,27.56Z" transform="translate(0 0)"/><path class="e" d="M35.17,32.82a2.61,2.61,0,1,0-3.07,2.06h0A2.63,2.63,0,0,0,35.17,32.82Z" transform="translate(0 0)"/><path class="d" d="M32.6,35.6a3.29,3.29,0,0,1-2.73-1.45,3.29,3.29,0,1,1,5.46-3.67h0a3.34,3.34,0,0,1,.5,2.46h0A3.32,3.32,0,0,1,32.6,35.6Zm0-5.22a1.92,1.92,0,1,0,1.9,2.3h0A1.94,1.94,0,0,0,33,30.41,2.31,2.31,0,0,0,32.6,30.38Z" transform="translate(0 0)"/><path class="f" d="M31.94,32.64h-.08a.46.46,0,0,1-.36-.53,1.15,1.15,0,0,1,.48-.72,1.19,1.19,0,0,1,.84-.17.44.44,0,0,1,.35.52h0a.43.43,0,0,1-.5.36h0a.24.24,0,0,0-.27.18A.43.43,0,0,1,31.94,32.64Z" transform="translate(0 0)"/><path class="e" d="M37,38a2.61,2.61,0,1,0-3.06,2.06h0A2.62,2.62,0,0,0,37,38Z" transform="translate(0 0)"/><path class="d" d="M34.48,40.77a4.46,4.46,0,0,1-.63-.05,3.29,3.29,0,1,1,3.86-2.62v0h0A3.28,3.28,0,0,1,34.48,40.77Zm0-5.22a2,2,0,0,0-1.94,2,1.92,1.92,0,0,0,1.57,1.89,1.94,1.94,0,0,0,2.23-1.55h0a2,2,0,0,0-1.53-2.27A1.83,1.83,0,0,0,34.48,35.55Z" transform="translate(0 0)"/><path class="f" d="M33.78,37.84H33.7a.44.44,0,0,1-.36-.51h0a1.06,1.06,0,0,1,.47-.72,1.14,1.14,0,0,1,.84-.18A.45.45,0,0,1,35,37h0a.42.42,0,0,1-.49.35h0a.21.21,0,0,0-.26.18A.45.45,0,0,1,33.78,37.84Z" transform="translate(0 0)"/><path class="e" d="M38.85,43.06a2.61,2.61,0,1,0-3.06,2.07,2.62,2.62,0,0,0,3.06-2.07Z" transform="translate(0 0)"/><path class="d" d="M36.28,45.85a2.7,2.7,0,0,1-.63-.07,3.25,3.25,0,1,1,3.86-2.54h0A3.3,3.3,0,0,1,36.28,45.85Zm0-5.22a1.93,1.93,0,0,0-1.93,1.94,2,2,0,0,0,.33,1.07,1.93,1.93,0,0,0,2.69.52,2,2,0,0,0,.81-1.23h0a1.94,1.94,0,0,0-1.53-2.27A2.22,2.22,0,0,0,36.28,40.63Z" transform="translate(0 0)"/><path class="f" d="M35.62,42.89h-.08a.47.47,0,0,1-.36-.53,1.13,1.13,0,0,1,.48-.72,1.19,1.19,0,0,1,.84-.17.44.44,0,0,1,.35.52h0a.43.43,0,0,1-.5.36h0a.22.22,0,0,0-.26.17A.45.45,0,0,1,35.62,42.89Z" transform="translate(0 0)"/><path class="e" d="M42.47,39a2.61,2.61,0,1,0-3.07,2.07A2.61,2.61,0,0,0,42.47,39Z" transform="translate(0 0)"/><path class="d" d="M39.88,41.81a2.7,2.7,0,0,1-.63-.07,3.2,3.2,0,0,1-2.07-1.38,3.29,3.29,0,1,1,5.46-3.67,3.26,3.26,0,0,1,.49,2.45h0A3.28,3.28,0,0,1,39.88,41.81Zm0-5.22a1.94,1.94,0,1,0,1.9,2.3h0a1.93,1.93,0,0,0-1.53-2.27A2.22,2.22,0,0,0,39.88,36.59Z" transform="translate(0 0)"/><path class="f" d="M39.25,38.85h-.08a.47.47,0,0,1-.36-.54,1.12,1.12,0,0,1,.47-.71,1.08,1.08,0,0,1,.84-.17.44.44,0,0,1,.36.51h0a.45.45,0,0,1-.53.36.24.24,0,0,0-.26.18A.44.44,0,0,1,39.25,38.85Z" transform="translate(0 0)"/><path class="e" d="M44.38,44.14a2.61,2.61,0,1,0-3.06,2.06h0a2.61,2.61,0,0,0,3.06-2.05Z" transform="translate(0 0)"/><path class="d" d="M41.83,47a3.34,3.34,0,0,1-.62-.06,3.29,3.29,0,1,1,3.86-2.6h0A3.31,3.31,0,0,1,41.83,47Zm0-5.23a1.94,1.94,0,1,0,1.9,2.32h0a1.92,1.92,0,0,0-1.5-2.27h0Z" transform="translate(0 0)"/><path class="f" d="M41.18,44H41.1a.44.44,0,0,1-.36-.52,1.11,1.11,0,0,1,1.31-.88.43.43,0,0,1,.36.5v0a.44.44,0,0,1-.52.36.22.22,0,0,0-.26.17A.43.43,0,0,1,41.18,44Z" transform="translate(0 0)"/><path class="e" d="M48,39.45a2.61,2.61,0,1,0-3.06,2.07A2.61,2.61,0,0,0,48,39.45Z" transform="translate(0 0)"/><path class="d" d="M45.4,42.24a3.36,3.36,0,0,1-.63-.06,3.21,3.21,0,0,1-2.1-1.39,3.29,3.29,0,0,1,5-4.27,3.13,3.13,0,0,1,.4.6,3.18,3.18,0,0,1,.51,2.45h0A3.29,3.29,0,0,1,45.4,42.24Zm0-5.23a1.94,1.94,0,1,0,1.89,2.31h0a1.94,1.94,0,0,0-1.53-2.27A2.2,2.2,0,0,0,45.4,37Z" transform="translate(0 0)"/><path class="f" d="M44.74,39.28h-.09a.45.45,0,0,1-.35-.53h0a1.09,1.09,0,0,1,.47-.71,1,1,0,0,1,.84-.18.46.46,0,0,1,.36.54.46.46,0,0,1-.54.36.23.23,0,0,0-.25.18A.45.45,0,0,1,44.74,39.28Z" transform="translate(0 0)"/><path class="e" d="M50,44.34a2.61,2.61,0,1,0-3.06,2.07A2.6,2.6,0,0,0,50,44.34Z" transform="translate(0 0)"/><path class="d" d="M47.41,47.13a2.59,2.59,0,0,1-.63-.06A3.29,3.29,0,1,1,50.13,42a3.33,3.33,0,0,1,.55,2.47h0A3.28,3.28,0,0,1,47.41,47.13Zm0-5.22a2,2,0,0,0-1.94,1.94,2,2,0,0,0,.33,1.08,1.94,1.94,0,0,0,2.69.52,1.92,1.92,0,0,0,.81-1.23h0A1.91,1.91,0,0,0,47.83,42h-.06A2.2,2.2,0,0,0,47.41,41.91Z" transform="translate(0 0)"/><path class="f" d="M46.75,44.14h-.08a.45.45,0,0,1-.36-.53,1.13,1.13,0,0,1,.47-.71,1.14,1.14,0,0,1,.84-.18.47.47,0,0,1,.37.54.46.46,0,0,1-.54.36h0a.24.24,0,0,0-.26.18A.45.45,0,0,1,46.75,44.14Z" transform="translate(0 0)"/><path class="e" d="M52.88,39.57a2.61,2.61,0,1,0-3.06,2.07,2.61,2.61,0,0,0,3.06-2.07Z" transform="translate(0 0)"/><path class="d" d="M50.32,42.34a2.7,2.7,0,0,1-.63-.07,3.19,3.19,0,0,1-2.1-1.38,3.29,3.29,0,1,1,5.95-1.21h0A3.29,3.29,0,0,1,50.32,42.34Zm0-5.22a2,2,0,1,0,1.9,2.36h0a2,2,0,0,0-1.52-2.3h0a2.2,2.2,0,0,0-.36,0Z" transform="translate(0 0)"/><path class="f" d="M49.66,39.4h-.09a.44.44,0,0,1-.35-.51v0a1.16,1.16,0,0,1,.47-.71,1.19,1.19,0,0,1,.84-.17.47.47,0,0,1,.36.53.44.44,0,0,1-.51.36h0a.22.22,0,0,0-.25.17A.46.46,0,0,1,49.66,39.4Z" transform="translate(0 0)"/><path class="e" d="M33.58,42.15a2.61,2.61,0,1,0-3.06,2.06h0A2.61,2.61,0,0,0,33.58,42.15Z" transform="translate(0 0)"/><path class="d" d="M31,44.93a4.23,4.23,0,0,1-.63,0,3.29,3.29,0,1,1,3.85-2.61h0A3.28,3.28,0,0,1,31,44.93Zm0-5.22A1.94,1.94,0,1,0,32.89,42h0a1.94,1.94,0,0,0-1.53-2.26A1.24,1.24,0,0,0,31,39.71Z" transform="translate(0 0)"/><path class="f" d="M30.37,42h-.09a.43.43,0,0,1-.36-.5v0a1.08,1.08,0,0,1,.47-.72,1.06,1.06,0,0,1,.83-.17.45.45,0,0,1,.36.53.44.44,0,0,1-.51.35h0a.21.21,0,0,0-.25.17A.46.46,0,0,1,30.37,42Z" transform="translate(0 0)"/><path class="e" d="M24.82,31.52a2.61,2.61,0,1,0-3.07,2.09,2.61,2.61,0,0,0,3.07-2.09Z" transform="translate(0 0)"/><path class="d" d="M22.29,34.31a3.29,3.29,0,0,1-2.73-1.45,3.29,3.29,0,0,1,5.16-4.07,3.51,3.51,0,0,1,.27.4,3.24,3.24,0,0,1,.5,2.46h0A3.29,3.29,0,0,1,22.29,34.31Zm0-5.2a1.93,1.93,0,0,0-1.61,3,1.87,1.87,0,0,0,1.24.82,1.93,1.93,0,0,0,2.27-1.53h0a2,2,0,0,0-.3-1.46,2,2,0,0,0-1.23-.81Z" transform="translate(0 0)"/><path class="f" d="M21.59,31.35H21.5a.47.47,0,0,1-.35-.53,1.13,1.13,0,0,1,.47-.71,1,1,0,0,1,.84-.17.43.43,0,0,1,.36.5v0a.46.46,0,0,1-.53.36h0A.22.22,0,0,0,22,31,.44.44,0,0,1,21.59,31.35Z" transform="translate(0 0)"/><path class="e" d="M26.66,36.6a2.61,2.61,0,1,0-3.06,2.06h0A2.62,2.62,0,0,0,26.66,36.6Z" transform="translate(0 0)"/><path class="d" d="M24.09,39.39a2.59,2.59,0,0,1-.63-.07,3.29,3.29,0,1,1,3.82-2.6h0A3.3,3.3,0,0,1,24.09,39.39Zm0-5.23a1.94,1.94,0,1,0,0,3.87A2,2,0,0,0,26,36.47h0a2,2,0,0,0-1.53-2.28Z" transform="translate(0 0)"/><path class="f" d="M23.44,36.42h-.08a.45.45,0,0,1-.37-.51v0a1.11,1.11,0,0,1,1.29-.9h0a.44.44,0,0,1,.35.52h0a.45.45,0,0,1-.52.36.21.21,0,0,0-.26.16h0A.45.45,0,0,1,23.44,36.42Z" transform="translate(0 0)"/><path class="e" d="M28.59,41.52a2.61,2.61,0,1,0-3.07,2.06h0A2.62,2.62,0,0,0,28.59,41.52Z" transform="translate(0 0)"/><path class="d" d="M26,44.3a4.46,4.46,0,0,1-.63,0,3.29,3.29,0,1,1,3.85-2.61h0A3.28,3.28,0,0,1,26,44.3Zm0-5.22a1.94,1.94,0,1,0,1.86,2.3h0a1.93,1.93,0,0,0-1.53-2.26A1.24,1.24,0,0,0,26,39.08Z" transform="translate(0 0)"/><path class="f" d="M25.37,41.34h-.09a.43.43,0,0,1-.35-.5v0a1.15,1.15,0,0,1,.47-.72,1.09,1.09,0,0,1,.84-.17.46.46,0,0,1,.36.53.45.45,0,0,1-.52.35h0a.22.22,0,0,0-.26.17A.44.44,0,0,1,25.37,41.34Z" transform="translate(0 0)"/><path class="e" d="M21.76,36.14a2.61,2.61,0,1,0-3.07,2.08,2.61,2.61,0,0,0,3.07-2.08Z" transform="translate(0 0)"/><path class="d" d="M19.23,38.93a2.7,2.7,0,0,1-.63-.07,3.35,3.35,0,1,1,3.06-5.45,2.8,2.8,0,0,1,.27.4,3.22,3.22,0,0,1,.5,2.45h0A3.28,3.28,0,0,1,19.23,38.93Zm0-5.21a1.93,1.93,0,0,0-1.61,3,1.91,1.91,0,0,0,1.24.82A1.94,1.94,0,0,0,21.13,36h0a1.93,1.93,0,0,0-.3-1.46,1.9,1.9,0,0,0-1.23-.81A2.33,2.33,0,0,0,19.23,33.72Z" transform="translate(0 0)"/><path class="f" d="M18.54,36h-.09a.47.47,0,0,1-.36-.54,1.16,1.16,0,0,1,.47-.71,1.09,1.09,0,0,1,.84-.17.44.44,0,0,1,.36.51h0a.46.46,0,0,1-.52.37h0a.22.22,0,0,0-.25.18A.48.48,0,0,1,18.54,36Z" transform="translate(0 0)"/><path class="e" d="M23.6,41.21a2.61,2.61,0,1,0-3.06,2.06h0A2.59,2.59,0,0,0,23.6,41.21Z" transform="translate(0 0)"/><path class="d" d="M21,44a3.36,3.36,0,0,1-.63-.06,3.25,3.25,0,0,1-2.07-1.39,3.29,3.29,0,0,1,5.4-3.68,3.27,3.27,0,0,1,.49,2.47h0A3.29,3.29,0,0,1,21,44Zm0-5.23a1.94,1.94,0,1,0,1.9,2.32h0a2,2,0,0,0-1.53-2.28Z" transform="translate(0 0)"/><path class="f" d="M20.38,41H20.3a.43.43,0,0,1-.36-.5v0a1.11,1.11,0,0,1,1.29-.9h0a.45.45,0,0,1,.36.51h0a.43.43,0,0,1-.52.36.23.23,0,0,0-.26.16h0A.43.43,0,0,1,20.38,41Z" transform="translate(0 0)"/><path class="e" d="M25.53,46.14a2.61,2.61,0,1,0-3.06,2.06h0A2.62,2.62,0,0,0,25.53,46.14Z" transform="translate(0 0)"/><path class="d" d="M23,48.92a3.36,3.36,0,0,1-.63-.06,3.29,3.29,0,1,1,3.86-2.6h0A3.29,3.29,0,0,1,23,48.92Zm0-5.22A1.93,1.93,0,1,0,24.84,46h0A1.91,1.91,0,0,0,23,43.7Z" transform="translate(0 0)"/><path class="f" d="M22.32,46h-.09a.44.44,0,0,1-.36-.5v0a1.11,1.11,0,0,1,1.31-.89.47.47,0,0,1,.36.53.44.44,0,0,1-.51.36h0a.22.22,0,0,0-.25.18A.48.48,0,0,1,22.32,46Z" transform="translate(0 0)"/><path class="e" d="M18.7,40.43a2.61,2.61,0,1,0-3.07,2.08,2.61,2.61,0,0,0,3.07-2.08Z" transform="translate(0 0)"/><path class="d" d="M16.17,43.22a2.7,2.7,0,0,1-.63-.07A3.35,3.35,0,1,1,18.6,37.7a2.8,2.8,0,0,1,.27.4,3.22,3.22,0,0,1,.51,2.45h0A3.3,3.3,0,0,1,16.17,43.22Zm0-5.21a2,2,0,0,0-1.91,1.57,2,2,0,0,0,.3,1.45,1.9,1.9,0,0,0,1.24.82,1.94,1.94,0,0,0,2.27-1.53h0a1.93,1.93,0,0,0-.3-1.46,1.9,1.9,0,0,0-1.23-.81A2.33,2.33,0,0,0,16.17,38Z" transform="translate(0 0)"/><path class="f" d="M15.48,40.26h-.09a.46.46,0,0,1-.35-.54,1.08,1.08,0,0,1,.47-.71,1.06,1.06,0,0,1,.83-.17.44.44,0,0,1,.36.51h0a.45.45,0,0,1-.52.37h0a.24.24,0,0,0-.25.18A.48.48,0,0,1,15.48,40.26Z" transform="translate(0 0)"/><path class="e" d="M20.55,45.5a2.61,2.61,0,1,0-3.07,2.06h0A2.6,2.6,0,0,0,20.55,45.5Z" transform="translate(0 0)"/><path class="d" d="M18,48.29a3.36,3.36,0,0,1-.63-.06,3.28,3.28,0,0,1-2.07-1.39,3.29,3.29,0,0,1,5.4-3.68,3.27,3.27,0,0,1,.5,2.47h0A3.3,3.3,0,0,1,18,48.29Zm0-5.23a1.94,1.94,0,1,0,1.9,2.32h0a2,2,0,0,0-1.53-2.28Z" transform="translate(0 0)"/><path class="f" d="M17.32,45.32h-.08a.43.43,0,0,1-.36-.5v0a1.12,1.12,0,0,1,1.3-.9h0a.45.45,0,0,1,.35.52h0a.44.44,0,0,1-.52.36.22.22,0,0,0-.26.16h0A.43.43,0,0,1,17.32,45.32Z" transform="translate(0 0)"/><path class="e" d="M22.47,50.43a2.61,2.61,0,1,0-3.06,2.06h0A2.62,2.62,0,0,0,22.47,50.43Z" transform="translate(0 0)"/><path class="d" d="M19.92,53.21a3.21,3.21,0,0,1-.63-.06,3.29,3.29,0,1,1,3.85-2.6h0A3.29,3.29,0,0,1,19.92,53.21Zm0-5.22a1.94,1.94,0,1,0,1.86,2.3h0A2,2,0,0,0,20.25,48,1.84,1.84,0,0,0,19.92,48Z" transform="translate(0 0)"/><path class="f" d="M19.26,50.25h-.09a.44.44,0,0,1-.36-.5v0a1.1,1.1,0,0,1,.47-.72,1.15,1.15,0,0,1,.83-.17.45.45,0,0,1,.36.53.44.44,0,0,1-.51.36h0a.22.22,0,0,0-.25.18A.48.48,0,0,1,19.26,50.25Z" transform="translate(0 0)"/><path class="e" d="M30.54,46.46a2.61,2.61,0,1,0-3.06,2.06h0A2.61,2.61,0,0,0,30.54,46.46Z" transform="translate(0 0)"/><path class="d" d="M28,49.24a3.36,3.36,0,0,1-.63-.06,3.29,3.29,0,1,1,3.85-2.6h0A3.28,3.28,0,0,1,28,49.24ZM28,44a1.94,1.94,0,1,0,1.86,2.3h0a2,2,0,0,0-1.53-2.27Z" transform="translate(0 0)"/><path class="f" d="M27.33,46.28h-.09a.45.45,0,0,1-.36-.5v0a1.06,1.06,0,0,1,.47-.72,1.11,1.11,0,0,1,.83-.18.46.46,0,0,1,.36.54.44.44,0,0,1-.51.35h0a.21.21,0,0,0-.25.17A.46.46,0,0,1,27.33,46.28Z" transform="translate(0 0)"/><path class="e" d="M27.48,50.75a2.61,2.61,0,1,0-3.06,2.06h0A2.61,2.61,0,0,0,27.48,50.75Z" transform="translate(0 0)"/><path class="d" d="M24.93,53.53a4.23,4.23,0,0,1-.63-.05,3.29,3.29,0,1,1,3.85-2.61h0A3.28,3.28,0,0,1,24.93,53.53Zm0-5.22a1.94,1.94,0,1,0,1.86,2.3h0a1.94,1.94,0,0,0-1.53-2.26A1.24,1.24,0,0,0,24.93,48.31Z" transform="translate(0 0)"/><path class="f" d="M24.27,50.57h-.09a.43.43,0,0,1-.36-.5v0a1.11,1.11,0,0,1,1.3-.89.45.45,0,0,1,.36.53A.44.44,0,0,1,25,50h0a.21.21,0,0,0-.25.17A.47.47,0,0,1,24.27,50.57Z" transform="translate(0 0)"/><path class="e" d="M35.53,47.14a2.61,2.61,0,1,0-3.07,2.06h0A2.6,2.6,0,0,0,35.53,47.14Z" transform="translate(0 0)"/><path class="d" d="M33,49.92a3.35,3.35,0,0,1-.63-.05,3.29,3.29,0,1,1,3.85-2.6h0A3.28,3.28,0,0,1,33,49.92Zm0-5.22A2,2,0,0,0,31,46.27a1.94,1.94,0,1,0,3.8.74h0a1.94,1.94,0,0,0-1.53-2.27Z" transform="translate(0 0)"/><path class="f" d="M32.31,47h-.09a.43.43,0,0,1-.35-.49v0a1.11,1.11,0,0,1,1.31-.89.47.47,0,0,1,.36.53.46.46,0,0,1-.52.36h0a.23.23,0,0,0-.26.17A.44.44,0,0,1,32.31,47Z" transform="translate(0 0)"/><path class="e" d="M40.63,47.82a2.61,2.61,0,1,0-3.07,2.06h0A2.62,2.62,0,0,0,40.63,47.82Z" transform="translate(0 0)"/><path class="d" d="M38.07,50.6a3.36,3.36,0,0,1-.63-.06,3.29,3.29,0,1,1,3.85-2.6h0A3.29,3.29,0,0,1,38.07,50.6Zm0-5.22a1.94,1.94,0,1,0,1.86,2.3h0a1.94,1.94,0,0,0-1.53-2.27Z" transform="translate(0 0)"/><path class="f" d="M37.41,47.64h-.09a.43.43,0,0,1-.35-.5v0a1.11,1.11,0,0,1,1.31-.89.47.47,0,0,1,.36.53.45.45,0,0,1-.51.36h0a.2.2,0,0,0-.25.17A.48.48,0,0,1,37.41,47.64Z" transform="translate(0 0)"/><path class="e" d="M32.48,51.35a2.61,2.61,0,1,0-3.07,2.06h0A2.61,2.61,0,0,0,32.48,51.35Z" transform="translate(0 0)"/><path class="d" d="M29.92,54.13a4.46,4.46,0,0,1-.63-.05,3.29,3.29,0,1,1,3.85-2.61h0A3.28,3.28,0,0,1,29.92,54.13Zm0-5.22a1.94,1.94,0,1,0,1.86,2.3h0A1.94,1.94,0,0,0,30.25,49,1.24,1.24,0,0,0,29.92,48.91Z" transform="translate(0 0)"/><path class="f" d="M29.26,51.17h-.09a.43.43,0,0,1-.35-.5v0a1.18,1.18,0,0,1,.47-.72,1.14,1.14,0,0,1,.84-.17.46.46,0,0,1,.36.53.44.44,0,0,1-.52.35h0a.22.22,0,0,0-.26.17A.44.44,0,0,1,29.26,51.17Z" transform="translate(0 0)"/><path class="e" d="M36.71,23.57a2.61,2.61,0,1,0-3.06,2.06h0a2.6,2.6,0,0,0,3.06-2Z" transform="translate(0 0)"/><path class="d" d="M34.15,26.36a3.36,3.36,0,0,1-.63-.06,3.29,3.29,0,1,1,3.86-2.6h0A3.3,3.3,0,0,1,34.15,26.36Zm0-5.23a1.94,1.94,0,1,0,1.9,2.31h0a1.93,1.93,0,0,0-1.52-2.26h-.05Z" transform="translate(0 0)"/><path class="f" d="M33.49,23.44h-.08a.46.46,0,0,1-.36-.52,1.11,1.11,0,0,1,1.31-.9h0a.42.42,0,0,1,.36.49v0a.46.46,0,0,1-.53.36.23.23,0,0,0-.26.17A.44.44,0,0,1,33.49,23.44Z" transform="translate(0 0)"/><path class="e" d="M38.56,28.65a2.61,2.61,0,1,0-3.06,2.06h0A2.62,2.62,0,0,0,38.56,28.65Z" transform="translate(0 0)"/><path class="d" d="M36,31.44a4.48,4.48,0,0,1-.62-.06A3.29,3.29,0,0,1,33.28,30a3.23,3.23,0,0,1-.51-2.47,3.29,3.29,0,0,1,3.85-2.6,3.21,3.21,0,0,1,2.1,1.39,3.25,3.25,0,0,1,.5,2.46h0A3.3,3.3,0,0,1,36,31.44Zm0-5.23a1.95,1.95,0,1,0,1.91,2.3h0a1.93,1.93,0,0,0-1.53-2.26h0A1.5,1.5,0,0,0,36,26.21Z" transform="translate(0 0)"/><path class="f" d="M35.38,28.47h-.09a.46.46,0,0,1-.36-.52,1.12,1.12,0,0,1,1.31-.9h0a.45.45,0,0,1,.36.53.47.47,0,0,1-.54.37.19.19,0,0,0-.24.15v0A.45.45,0,0,1,35.38,28.47Z" transform="translate(0 0)"/><path class="e" d="M40.22,19.15a2.61,2.61,0,1,0-3.06,2.07,2.6,2.6,0,0,0,3.06-2.07Z" transform="translate(0 0)"/><path class="d" d="M37.66,21.94a3.18,3.18,0,0,1-.62-.05,3.29,3.29,0,1,1,3.85-2.6h0A3.3,3.3,0,0,1,37.66,21.94Zm0-5.22a2,2,0,1,0,1.88,2.39s0-.05,0-.08h0A1.93,1.93,0,0,0,38,16.76h0A1.55,1.55,0,0,0,37.66,16.72Z" transform="translate(0 0)"/><path class="f" d="M37,19h-.08a.44.44,0,0,1-.36-.52h0a1.12,1.12,0,0,1,1.31-.9h0a.45.45,0,0,1,.36.53.44.44,0,0,1-.53.35h0a.22.22,0,0,0-.25.17A.46.46,0,0,1,37,19Z" transform="translate(0 0)"/><path class="e" d="M45.7,20a2.61,2.61,0,1,0-3.06,2.07A2.6,2.6,0,0,0,45.7,20Z" transform="translate(0 0)"/><path class="d" d="M43.14,22.83a2.56,2.56,0,0,1-.62-.06A3.28,3.28,0,0,1,39.88,19h0a3.29,3.29,0,0,1,5.95-1.21,3.25,3.25,0,0,1,.5,2.46h0A3.27,3.27,0,0,1,43.14,22.83Zm0-5.22a1.94,1.94,0,0,0-1.93,1.94,1.88,1.88,0,0,0,.33,1.08,1.94,1.94,0,0,0,3.5-.71h0a1.92,1.92,0,0,0-1.48-2.26h-.08A2,2,0,0,0,43.14,17.61Z" transform="translate(0 0)"/><path class="f" d="M42.48,19.84H42.4a.47.47,0,0,1-.36-.53,1.11,1.11,0,0,1,.48-.71,1.13,1.13,0,0,1,.84-.18.44.44,0,0,1,.35.5v0a.44.44,0,0,1-.51.36h0a.23.23,0,0,0-.26.17A.44.44,0,0,1,42.48,19.84Z" transform="translate(0 0)"/><path class="e" d="M50.39,21.44a2.61,2.61,0,1,0-3.06,2.06h0a2.61,2.61,0,0,0,3.06-2.05Z" transform="translate(0 0)"/><path class="d" d="M47.84,24.23a3.36,3.36,0,0,1-.63-.06,3.29,3.29,0,0,1-2.6-3.85h0a3.29,3.29,0,0,1,6.45,1.25h0A3.3,3.3,0,0,1,47.84,24.23Zm0-5.23a1.93,1.93,0,0,0-1.61,3,1.87,1.87,0,0,0,1.24.82,1.94,1.94,0,0,0,2.31-1.49v0h0A1.93,1.93,0,0,0,48.25,19,1.9,1.9,0,0,0,47.84,19Z" transform="translate(0 0)"/><path class="f" d="M47.18,21.26h-.1a.43.43,0,0,1-.35-.5v0A1.06,1.06,0,0,1,47.2,20a1,1,0,0,1,.84-.17.45.45,0,0,1,.36.53.47.47,0,0,1-.54.37h0a.19.19,0,0,0-.24.15v0A.45.45,0,0,1,47.18,21.26Z" transform="translate(0 0)"/><path class="e" d="M52.22,26.71a2.61,2.61,0,1,0-3.07,2.07A2.61,2.61,0,0,0,52.22,26.71Z" transform="translate(0 0)"/><path class="d" d="M49.66,29.5a3.29,3.29,0,0,1-2.73-1.45,3.29,3.29,0,1,1,5.45-3.67,3.34,3.34,0,0,1,.5,2.46h0A3.29,3.29,0,0,1,49.66,29.5Zm0-5.23a2,2,0,0,0-1.95,1.93,1.93,1.93,0,0,0,1.58,1.92,1.94,1.94,0,0,0,2.29-1.5v0h0A1.94,1.94,0,0,0,50,24.34Z" transform="translate(0 0)"/><path class="f" d="M49,26.54h-.12a.46.46,0,0,1-.35-.53A1.06,1.06,0,0,1,49,25.3a1.08,1.08,0,0,1,.84-.17.46.46,0,0,1-.18.9.23.23,0,0,0-.25.17A.45.45,0,0,1,49,26.54Z" transform="translate(0 0)"/><path class="e" d="M54.16,30.93A2.61,2.61,0,1,0,51.09,33h0A2.62,2.62,0,0,0,54.16,30.93Z" transform="translate(0 0)"/><path class="d" d="M51.58,33.72a3.36,3.36,0,0,1-.63-.06,3.29,3.29,0,0,1-2.57-3.85,3.29,3.29,0,0,1,3.85-2.6,3.23,3.23,0,0,1,2.05,1.38,3.32,3.32,0,0,1,.51,2.47h0A3.29,3.29,0,0,1,51.58,33.72Zm0-5.22a1.94,1.94,0,0,0,0,3.87,2,2,0,0,0,1.89-1.57h0A1.94,1.94,0,0,0,52,28.53h0A1.5,1.5,0,0,0,51.58,28.5Z" transform="translate(0 0)"/><path class="f" d="M50.94,30.75h-.09a.45.45,0,0,1-.36-.52,1.15,1.15,0,0,1,.48-.72,1.19,1.19,0,0,1,.84-.17.47.47,0,0,1,.36.53.45.45,0,0,1-.53.35h0a.23.23,0,0,0-.26.18h0A.45.45,0,0,1,50.94,30.75Z" transform="translate(0 0)"/><path class="e" d="M55.61,35.71a2.61,2.61,0,1,0-3.06,2.06h0A2.61,2.61,0,0,0,55.61,35.71Z" transform="translate(0 0)"/><path class="d" d="M53.05,38.5a3.29,3.29,0,0,1-2.73-1.45,3.3,3.3,0,0,1,5.46-3.71h0a3.34,3.34,0,0,1,.5,2.46h0A3.3,3.3,0,0,1,53.05,38.5Zm0-5.23A1.94,1.94,0,1,0,55,35.58h0a2.19,2.19,0,0,0-1.9-2.31Z" transform="translate(0 0)"/><path class="f" d="M52.39,35.53h-.08A.45.45,0,0,1,52,35a1.13,1.13,0,0,1,1.31-.89.46.46,0,1,1-.17.9.22.22,0,0,0-.26.16h0A.42.42,0,0,1,52.39,35.53Z" transform="translate(0 0)"/><path class="e" d="M47.36,25.24a2.61,2.61,0,1,0-3.06,2.07,2.61,2.61,0,0,0,3.06-2.07Z" transform="translate(0 0)"/><path class="d" d="M44.8,28.06a3.29,3.29,0,0,1-2.73-1.45,3.29,3.29,0,1,1,5.45-3.67A3.24,3.24,0,0,1,48,25.4h0A3.27,3.27,0,0,1,44.8,28.06Zm0-5.22a1.94,1.94,0,1,0,1.89,2.31h0a1.93,1.93,0,0,0-.29-1.46,1.88,1.88,0,0,0-1.24-.81A1.47,1.47,0,0,0,44.8,22.84Z" transform="translate(0 0)"/><path class="f" d="M44.14,25.1h-.08a.45.45,0,0,1-.36-.53A1.11,1.11,0,0,1,45,23.69a.43.43,0,0,1,.35.51h0a.44.44,0,0,1-.52.36.22.22,0,0,0-.26.17A.44.44,0,0,1,44.14,25.1Z" transform="translate(0 0)"/><path class="e" d="M49.45,30.57a2.61,2.61,0,1,0-3.06,2.06h0a2.61,2.61,0,0,0,3.06-2.05Z" transform="translate(0 0)"/><path class="d" d="M46.89,33.34a2.7,2.7,0,0,1-.63-.07,3.28,3.28,0,0,1-2.6-3.84h0a3.29,3.29,0,0,1,6.46,1.25h0A3.3,3.3,0,0,1,46.89,33.34Zm0-5.23a1.94,1.94,0,0,0-2,1.91,2,2,0,0,0,.35,1.13,1.94,1.94,0,0,0,3.51-.71h0a1.94,1.94,0,0,0-1.53-2.28,2.34,2.34,0,0,0-.38,0Z" transform="translate(0 0)"/><path class="f" d="M46.24,30.39h-.06a.44.44,0,0,1-.35-.5v0a1.06,1.06,0,0,1,.47-.71,1.08,1.08,0,0,1,.84-.17.45.45,0,1,1-.18.88.21.21,0,0,0-.24.16h0A.46.46,0,0,1,46.24,30.39Z" transform="translate(0 0)"/><path class="e" d="M50.85,35a2.61,2.61,0,1,0-3.06,2.06h0A2.61,2.61,0,0,0,50.85,35Z" transform="translate(0 0)"/><path class="d" d="M48.29,37.84a3.36,3.36,0,0,1-.63-.06,3.31,3.31,0,0,1-2.1-1.39,3.29,3.29,0,1,1,5.95-1.25h0A3.29,3.29,0,0,1,48.29,37.84Zm0-5.22a1.93,1.93,0,0,0-1.9,1.56,1.82,1.82,0,0,0,.3,1.45,1.94,1.94,0,0,0,3.5-.71h0a1.91,1.91,0,0,0-.3-1.45,2,2,0,0,0-1.23-.82,2.45,2.45,0,0,0-.37-.08Z" transform="translate(0 0)"/><path class="f" d="M47.63,34.83h-.08a.45.45,0,0,1-.36-.52,1.09,1.09,0,0,1,.48-.72,1.1,1.1,0,0,1,.83-.17.44.44,0,0,1,.36.51v0a.44.44,0,0,1-.49.36h0a.22.22,0,0,0-.26.17A.43.43,0,0,1,47.63,34.83Z" transform="translate(0 0)"/><path class="e" d="M42.07,24.23A2.61,2.61,0,1,0,39,26.3a2.62,2.62,0,0,0,3.06-2.07Z" transform="translate(0 0)"/><path class="d" d="M39.51,27a2.7,2.7,0,0,1-.63-.07,3.27,3.27,0,0,1-2.6-3.84v0a3.28,3.28,0,0,1,6.45,1.24h0A3.28,3.28,0,0,1,39.51,27Zm0-5.22a1.93,1.93,0,1,0,1.91,2.3h0a1.94,1.94,0,0,0-1.53-2.28h0a1.58,1.58,0,0,0-.38,0Z" transform="translate(0 0)"/><path class="f" d="M38.86,24.06h-.09a.45.45,0,0,1-.36-.51v0a1.13,1.13,0,0,1,.47-.71,1.09,1.09,0,0,1,.84-.17.44.44,0,0,1,.36.52h0a.44.44,0,0,1-.51.35h0a.21.21,0,0,0-.25.17A.46.46,0,0,1,38.86,24.06Z" transform="translate(0 0)"/><path class="e" d="M43.9,29.4a2.61,2.61,0,1,0-3.06,2.07A2.6,2.6,0,0,0,43.9,29.4Z" transform="translate(0 0)"/><path class="d" d="M41.34,32.19a2.56,2.56,0,0,1-.62-.06,3.27,3.27,0,0,1-2.64-3.82v0a3.29,3.29,0,1,1,6.45,1.26h0A3.27,3.27,0,0,1,41.34,32.19Zm0-5.22a1.94,1.94,0,0,0-1.93,1.94A1.88,1.88,0,0,0,39.74,30a1.91,1.91,0,0,0,1.23.82,2,2,0,0,0,2.28-1.53h0A1.94,1.94,0,0,0,41.68,27,1.28,1.28,0,0,0,41.34,27Z" transform="translate(0 0)"/><path class="f" d="M40.69,29.23H40.6a.46.46,0,0,1-.36-.53,1.13,1.13,0,0,1,.48-.71,1.08,1.08,0,0,1,.84-.17.46.46,0,1,1-.18.9.22.22,0,0,0-.25.17A.45.45,0,0,1,40.69,29.23Z" transform="translate(0 0)"/><path class="e" d="M45.75,34.48a2.61,2.61,0,1,0-3.06,2.07,2.61,2.61,0,0,0,3.06-2.07Z" transform="translate(0 0)"/><path class="d" d="M43.19,37.27a3.36,3.36,0,0,1-.63-.06A3.29,3.29,0,0,1,40,33.36v0a3.28,3.28,0,0,1,5.95-1.21,3.21,3.21,0,0,1,.51,2.46h0A3.29,3.29,0,0,1,43.19,37.27Zm0-5.22A1.94,1.94,0,0,0,41.26,34a2,2,0,0,0,.33,1.08,1.94,1.94,0,0,0,3.51-.72h0a1.91,1.91,0,0,0-.3-1.45,1.84,1.84,0,0,0-1.23-.81,1.72,1.72,0,0,0-.39,0Z" transform="translate(0 0)"/><path class="f" d="M42.58,34.31h-.09a.45.45,0,0,1-.35-.53h0a1.12,1.12,0,0,1,1.3-.9h0a.46.46,0,0,1-.18.9A.22.22,0,0,0,43,34,.45.45,0,0,1,42.58,34.31Z" transform="translate(0 0)"/><path class="e" d="M40.49,33.56a2.61,2.61,0,1,0-3.06,2.07A2.6,2.6,0,0,0,40.49,33.56Z" transform="translate(0 0)"/><path class="d" d="M37.93,36.35a3.36,3.36,0,0,1-.63-.06,3.29,3.29,0,1,1,1.26-6.45h0a3.34,3.34,0,0,1,2.1,1.39,3.3,3.3,0,0,1,.49,2.47h0A3.28,3.28,0,0,1,37.93,36.35Zm0-5.22A1.93,1.93,0,0,0,36,33.07a1.91,1.91,0,0,0,.33,1.08,1.94,1.94,0,0,0,3.5-.71h0a2,2,0,0,0-1.53-2.27A1.55,1.55,0,0,0,37.93,31.13Z" transform="translate(0 0)"/><path class="f" d="M37.27,33.39h-.09a.46.46,0,0,1-.36-.53,1.11,1.11,0,0,1,.48-.71,1.08,1.08,0,0,1,.84-.17.46.46,0,0,1-.18.9.23.23,0,0,0-.26.17A.43.43,0,0,1,37.27,33.39Z" transform="translate(0 0)"/><path class="f" d="M17.77,56.46H19.6l.93,2.91h0l1-2.91h1.76v4.37H22.13l0-3.35h0L21,60.83H20l-1.07-3.35h0l0,3.35H17.77Z" transform="translate(0 0)"/><path class="f" d="M27.81,59.17c0,1.2-.77,1.73-1.91,1.73S24,60.37,24,59.17V56.46h1.17V59c0,.57.15,1.06.75,1.06s.75-.49.75-1.06V56.46h1.16Z" transform="translate(0 0)"/><path class="f" d="M28.56,56.46h1.16V60h1.81v.86h-3Z" transform="translate(0 0)"/><path class="f" d="M32,56.46H33.2V60H35v.86H32Z" transform="translate(0 0)"/><path class="f" d="M35.48,56.46h2c.81,0,1.42.36,1.42,1.11a1,1,0,0,1-.77,1h0a.94.94,0,0,1,.88,1c0,1-.92,1.26-1.7,1.26H35.48Zm1.16,1.73H37c.38,0,.77-.09.77-.46s-.37-.44-.76-.44h-.34Zm0,1.81H37c.42,0,.87-.06.87-.5S37.4,59,37,59h-.36Z" transform="translate(0 0)"/><path class="f" d="M39.65,56.46h3.07v.83H40.81v.9h1.81V59H40.81v1h2v.83H39.65Z" transform="translate(0 0)"/><path class="f" d="M43.47,56.46h2.07c.78,0,1.41.35,1.41,1.1a1,1,0,0,1-.84,1.1v0c.38.1.4.43.62,1l.43,1.19H45.94L45.69,60c-.23-.75-.38-.94-.82-.94h-.24v1.73H43.47Zm1.16,1.82h.31c.37,0,.85,0,.85-.51s-.41-.48-.85-.48h-.31Z" transform="translate(0 0)"/><path class="f" d="M47.63,56.46h2.08c.78,0,1.41.35,1.41,1.1a1,1,0,0,1-.84,1.1v0c.38.1.4.43.62,1l.43,1.19H50.11L49.86,60c-.24-.75-.39-.94-.82-.94H48.8v1.73H47.63Zm1.17,1.82h.3c.38,0,.86,0,.86-.51s-.41-.48-.86-.48h-.3Z" transform="translate(0 0)"/><path class="f" d="M52.88,59.18l-1.61-2.72H52.6l.86,1.75.85-1.75h1.34L54,59.18v1.65H52.88Z" transform="translate(0 0)"/></svg>