<svg xmlns="http://www.w3.org/2000/svg" viewBox="0 0 72.87 72.87"><defs><style>.a{fill:#d7ceb8;}.b{fill:none;stroke:#fff;stroke-miterlimit:10;stroke-width:2px;}.c{fill:#b58059;}.d{fill:#643e4c;}.e{fill:#ae9f82;}.f{fill:#fff;}</style></defs><title>mushroom</title><rect class="a" x="1" y="1" width="70.87" height="70.87" rx="14.17"/><rect class="b" x="1" y="1" width="70.87" height="70.87" rx="14.17"/><path class="a" d="M44.1,29.45a15.84,15.84,0,0,0-7.47-2.17c-6.9,0-15.55,6.75-12.5,10.88,3.22,4.35,4.27.43,12.5.43,5.49,0,7.78,1.74,9.66,1.61,0,0,3,.33-4.31-4.76C38.59,33.09,44.1,29.45,44.1,29.45Z" transform="translate(-5.95 -5.82)"/><path class="c" d="M42.73,36.58a2.54,2.54,0,0,1,.83-2.36c1.88-1.56,5.78-.35,7.09,1.89a1.76,1.76,0,0,1,0,1.67c-.31.76-1.85,1.22-3.11,1.89Z" transform="translate(-5.95 -5.82)"/><path class="c" d="M54.62,48.48A2.57,2.57,0,0,0,57,47.65c1.56-1.88.35-5.79-1.89-7.1a1.79,1.79,0,0,0-1.67,0c-.76.32-1.21,1.86-1.89,3.11Z" transform="translate(-5.95 -5.82)"/><path class="d" d="M27.16,41c-1.19,0-2.3-.55-3.63-2.36a4.23,4.23,0,0,1-.17-4.66c2-3.95,8.19-7.41,13.27-7.41a16.36,16.36,0,0,1,7.83,2.26.75.75,0,1,1-.73,1.31A15.07,15.07,0,0,0,36.63,28c-4.85,0-10.4,3.54-11.93,6.58a2.79,2.79,0,0,0,0,3.1c1.61,2.17,2.3,2,4.61,1.28a23.68,23.68,0,0,1,14.58,0,7.22,7.22,0,0,0,2.32.46.75.75,0,1,1,.1,1.5,8.14,8.14,0,0,1-2.84-.52,22.19,22.19,0,0,0-13.74,0A9.69,9.69,0,0,1,27.16,41Z" transform="translate(-5.95 -5.82)"/><path class="e" d="M34.06,30.64a.75.75,0,0,1-.18-1.48,9.18,9.18,0,0,1,.91-.19.75.75,0,1,1,.26,1.47q-.4.07-.81.18Z" transform="translate(-5.95 -5.82)"/><path class="e" d="M26,37.56a.75.75,0,0,1-.6-.31,2.06,2.06,0,0,1,0-2.29c.89-1.75,3.21-3.68,5.94-4.9a.75.75,0,1,1,.61,1.37c-2.39,1.07-4.48,2.76-5.21,4.2-.11.22-.27.59-.16.73a.76.76,0,0,1-.16,1A.74.74,0,0,1,26,37.56Z" transform="translate(-5.95 -5.82)"/><path class="d" d="M40.94,44.2a.75.75,0,0,1-.73-.58,25.28,25.28,0,0,0-1.5-4.55.75.75,0,1,1,1.36-.62,26.53,26.53,0,0,1,1.6,4.83.74.74,0,0,1-.56.9Z" transform="translate(-5.95 -5.82)"/><path class="d" d="M36.63,52.9A5.65,5.65,0,0,1,31,47.26a26,26,0,0,1,2.17-8.75.75.75,0,0,1,1-.37.75.75,0,0,1,.37,1,24.59,24.59,0,0,0-2,8.12,4.14,4.14,0,0,0,6.94,3.05.77.77,0,0,1,1.06,0,.75.75,0,0,1-.05,1.06A5.61,5.61,0,0,1,36.63,52.9Z" transform="translate(-5.95 -5.82)"/><path class="d" d="M57.55,50.87c-2.52,0-3.24-1.34-4.27-3.23A23.39,23.39,0,0,0,51,44,.76.76,0,0,1,51.1,43a.74.74,0,0,1,1,.13,25.8,25.8,0,0,1,2.45,3.83c1.14,2.12,1.49,2.75,4.15,2.35A2.78,2.78,0,0,0,61,47.11C62,43.87,60.62,37.45,57.19,34s-9.86-4.85-13.1-3.79a2.81,2.81,0,0,0-2.16,2.22c-.4,2.67.24,3,2.35,4.16A25.51,25.51,0,0,1,48.09,39a.75.75,0,1,1-.93,1.18,23.58,23.58,0,0,0-3.59-2.28c-2.21-1.2-3.68-2-3.12-5.7a4.22,4.22,0,0,1,3.17-3.42c4.2-1.39,11,.55,14.63,4.15s5.53,10.42,4.15,14.62A4.26,4.26,0,0,1,59,50.76,9.69,9.69,0,0,1,57.55,50.87Z" transform="translate(-5.95 -5.82)"/><path class="d" d="M43.59,53.26a5.58,5.58,0,0,1-4-1.66,5.64,5.64,0,0,1,0-8A26.08,26.08,0,0,1,47.33,39a.76.76,0,0,1,1,.44.76.76,0,0,1-.45,1,24.64,24.64,0,0,0-7.18,4.31,4.15,4.15,0,0,0,0,5.85,4.12,4.12,0,0,0,5.85,0,25.34,25.34,0,0,0,4.34-7.24.75.75,0,0,1,1.41.52,27.22,27.22,0,0,1-4.69,7.78A5.57,5.57,0,0,1,43.59,53.26Z" transform="translate(-5.95 -5.82)"/><path class="d" d="M47.59,40.42A.75.75,0,0,1,47.23,39c.38-.2.78-.38,1.17-.56.59-.28,1.49-.69,1.6-1a1.07,1.07,0,0,0,0-1,5.17,5.17,0,0,0-3.42-2.15A3.23,3.23,0,0,0,44,34.8a1.87,1.87,0,0,0-.56,1.71.75.75,0,0,1-1.49.15,3.29,3.29,0,0,1,1.1-3,4.55,4.55,0,0,1,3.77-.78,6.56,6.56,0,0,1,4.45,2.86,2.53,2.53,0,0,1,.09,2.34c-.34.81-1.32,1.26-2.37,1.74-.36.17-.73.34-1.08.52A.73.73,0,0,1,47.59,40.42Z" transform="translate(-5.95 -5.82)"/><path class="d" d="M55,49.25l-.44,0a.75.75,0,0,1,.14-1.5,1.84,1.84,0,0,0,1.71-.56,3.15,3.15,0,0,0,.46-2.55,5.11,5.11,0,0,0-2.14-3.42,1.09,1.09,0,0,0-1,0c-.27.11-.68,1-1,1.61-.18.39-.37.79-.57,1.17a.75.75,0,1,1-1.32-.72c.19-.35.36-.72.52-1.08.48-1,.93-2,1.75-2.36a2.52,2.52,0,0,1,2.33.08,6.62,6.62,0,0,1,2.87,4.46,4.62,4.62,0,0,1-.78,3.77A3.22,3.22,0,0,1,55,49.25Z" transform="translate(-5.95 -5.82)"/><path class="f" d="M23.28,62.25h1.83l.93,2.9h0l1-2.9h1.76v4.37H27.64l0-3.36h0l-1.11,3.36H25.47L24.4,63.26h0l0,3.36H23.28Z" transform="translate(-5.95 -5.82)"/><path class="f" d="M33.32,65c0,1.19-.77,1.73-1.91,1.73S29.5,66.15,29.5,65V62.25h1.16v2.52c0,.57.16,1.06.75,1.06s.75-.49.75-1.06V62.25h1.16Z" transform="translate(-5.95 -5.82)"/><path class="f" d="M34.08,65.54a2.59,2.59,0,0,0,1.2.29c.37,0,.72-.08.72-.43,0-.81-2.06-.3-2.06-1.89,0-1,1-1.33,1.9-1.33a3.75,3.75,0,0,1,1.13.16l-.08.9a2.31,2.31,0,0,0-1-.2c-.29,0-.78,0-.78.41,0,.7,2.07.23,2.07,1.8,0,1.14-1,1.44-1.93,1.44A4.45,4.45,0,0,1,34,66.5Z" transform="translate(-5.95 -5.82)"/><path class="f" d="M37.89,62.25h1.16v1.67h1.38V62.25h1.16v4.37H40.43V64.75H39.05v1.87H37.89Z" transform="translate(-5.95 -5.82)"/><path class="f" d="M42.37,62.25h2.08c.77,0,1.41.35,1.41,1.1a1,1,0,0,1-.84,1.1h0c.37.11.4.44.62,1l.42,1.19H44.85l-.25-.79c-.24-.75-.39-.94-.82-.94h-.25v1.73H42.37Zm1.16,1.81h.31c.38,0,.85,0,.85-.5s-.4-.48-.85-.48h-.31Z" transform="translate(-5.95 -5.82)"/><path class="f" d="M48.6,62.18a2,2,0,0,1,2.19,2.25,2.19,2.19,0,1,1-4.38,0A2,2,0,0,1,48.6,62.18Zm0,3.65c.71,0,1-.68,1-1.4S49.31,63,48.6,63s-1,.64-1,1.39S47.89,65.83,48.6,65.83Z" transform="translate(-5.95 -5.82)"/><path class="f" d="M53.46,62.18a2.26,2.26,0,1,1-2.19,2.25A2,2,0,0,1,53.46,62.18Zm0,3.65c.71,0,1-.68,1-1.4s-.28-1.39-1-1.39-1,.64-1,1.39S52.75,65.83,53.46,65.83Z" transform="translate(-5.95 -5.82)"/><path class="f" d="M56.26,62.25H58.1l.92,2.9h0l1-2.9h1.76v4.37H60.63l0-3.36h0l-1.12,3.36H58.45l-1.06-3.36h0l0,3.36H56.26Z" transform="translate(-5.95 -5.82)"/></svg>