<svg xmlns="http://www.w3.org/2000/svg" viewBox="0 0 72.87 72.87"><defs><style>.a{fill:#d7ceb8;}.b{fill:none;stroke:#fff;stroke-miterlimit:10;stroke-width:2px;}.c{fill:#fff;}.d{fill:#ffe943;}.e{fill:#ea5740;}.f{fill:#b58059;}.g{fill:#643e4c;}.h{fill:#ef795c;}</style></defs><title>nectarine</title><rect class="a" x="1" y="1" width="70.87" height="70.87" rx="14.17"/><rect class="b" x="1" y="1" width="70.87" height="70.87" rx="14.17"/><path class="c" d="M25.11,62.25H26.6l1.47,3h0l0-3h1.06v4.37H27.69l-1.53-3h0l0,3H25.11Z" transform="translate(-5.95 -5.82)"/><path class="c" d="M29.93,62.25H33v.83H31.09V64H32.9v.82H31.09v1h2v.83H29.93Z" transform="translate(-5.95 -5.82)"/><path class="c" d="M37.42,66.52a4.93,4.93,0,0,1-1.3.17,2.26,2.26,0,0,1-2.51-2.24,2.22,2.22,0,0,1,2.51-2.27,4.72,4.72,0,0,1,1.29.22l-.09,1A2.28,2.28,0,0,0,36.18,63a1.4,1.4,0,1,0,.09,2.79,3,3,0,0,0,1.09-.23Z" transform="translate(-5.95 -5.82)"/><path class="c" d="M38.7,63.11H37.62v-.86h3.32v.86H39.86v3.51H38.7Z" transform="translate(-5.95 -5.82)"/><path class="c" d="M42.26,62.25h1.43l1.68,4.37H44.09l-.32-.94H42.13l-.35.94H40.6Zm.71.9h0l-.56,1.71h1.09Z" transform="translate(-5.95 -5.82)"/><path class="c" d="M45.79,62.25h2.08c.77,0,1.4.35,1.4,1.1a1,1,0,0,1-.83,1.1h0c.37.11.4.44.61,1l.43,1.19H48.27L48,65.83c-.24-.75-.39-.94-.82-.94H47v1.73H45.79ZM47,64.06h.31c.37,0,.85,0,.85-.5s-.41-.48-.85-.48H47Z" transform="translate(-5.95 -5.82)"/><path class="c" d="M50.05,62.25h1.16v4.37H50.05Z" transform="translate(-5.95 -5.82)"/><path class="c" d="M52.1,62.25h1.48l1.48,3h0l0-3h1.06v4.37H54.67l-1.53-3h0l0,3H52.1Z" transform="translate(-5.95 -5.82)"/><path class="c" d="M56.91,62.25H60v.83H58.07V64h1.81v.82H58.07v1h2v.83H56.91Z" transform="translate(-5.95 -5.82)"/><path class="d" d="M52.46,49.55c5.5-5.5,5.89-14,.87-19s-13.55-4.63-19,.87c-8.59,8.6-4.39,18.49-3.13,21.31C34,51.7,43.69,59,52.46,49.55Z" transform="translate(-5.95 -5.82)"/><path class="e" d="M31.15,52.68c2.82-1,12.54,6.3,21.31-3.13,5.5-5.5,5.89-14,.87-19Z" transform="translate(-5.95 -5.82)"/><path class="f" d="M49.27,34.56s-5.78-4.4-10.56.48c-4.18,4.18-2.43,12.51-2.43,12.51Z" transform="translate(-5.95 -5.82)"/><path class="g" d="M36.28,48.3a.74.74,0,0,1-.73-.59c-.08-.36-1.79-8.78,2.63-13.2C41.52,31.17,46.73,31,49.8,34a.74.74,0,0,1,0,1.06.75.75,0,0,1-1.06,0c-2.49-2.49-6.75-2.27-9.5.48C35.39,39.42,37,47.32,37,47.4a.77.77,0,0,1-.58.89Z" transform="translate(-5.95 -5.82)"/><path class="g" d="M41.86,55.19A26.31,26.31,0,0,1,34.73,54c-1.42-.4-2.77-.78-3.33-.58a.75.75,0,0,1-.93-.4c-4.82-10.77-.88-18,3.28-22.15A15.45,15.45,0,0,1,44,26.24,13,13,0,0,1,53.86,30c5.31,5.3,4.92,14.32-.86,20.1A14.64,14.64,0,0,1,41.86,55.19ZM31.8,51.84a13.79,13.79,0,0,1,3.33.68c4.29,1.19,10.76,3,16.79-3.48v0c5.2-5.2,5.59-13.27.87-18A11.48,11.48,0,0,0,44,27.74a14,14,0,0,0-9.21,4.16c-3.76,3.76-7.32,10.25-3.2,19.94Z" transform="translate(-5.95 -5.82)"/><path class="g" d="M31.15,53.43a.74.74,0,0,1-.53-.22.75.75,0,0,1,0-1.06L52.8,30a.75.75,0,0,1,1.06,0,.74.74,0,0,1,0,1.06L31.68,53.21A.71.71,0,0,1,31.15,53.43Z" transform="translate(-5.95 -5.82)"/><path class="h" d="M47.32,49.86A.75.75,0,0,1,47,48.45a10,10,0,0,0,1.39-.89.76.76,0,0,1,1.06.14.75.75,0,0,1-.15,1,11,11,0,0,1-1.59,1A.73.73,0,0,1,47.32,49.86Z" transform="translate(-5.95 -5.82)"/><path class="h" d="M51.67,45.63a.81.81,0,0,1-.37-.09.75.75,0,0,1-.28-1,15,15,0,0,0,1-2.39,13.83,13.83,0,0,0,.72-3.29.75.75,0,1,1,1.49.14,14.8,14.8,0,0,1-.8,3.65,15.46,15.46,0,0,1-1.15,2.63A.74.74,0,0,1,51.67,45.63Z" transform="translate(-5.95 -5.82)"/><path class="c" d="M39.42,38.33a.5.5,0,0,1-.21,0,.5.5,0,0,1-.24-.67,5.8,5.8,0,0,1,2.69-2.73,5.69,5.69,0,0,1,2.7-.55.5.5,0,0,1,.48.52.52.52,0,0,1-.52.48A4.65,4.65,0,0,0,39.87,38,.49.49,0,0,1,39.42,38.33Z" transform="translate(-5.95 -5.82)"/></svg>