<svg xmlns="http://www.w3.org/2000/svg" viewBox="0 0 72.87 72.87"><defs><style>.a{fill:#bfb9ce;}.b{fill:none;stroke:#fff;stroke-miterlimit:10;stroke-width:2px;}.c{fill:#8fc037;}.d{fill:#643e4c;}.e{fill:#fff;}.f{fill:#b58059;}</style></defs><title>olive</title><rect class="a" x="1" y="1" width="70.87" height="70.87" rx="14.17"/><rect class="b" x="1" y="1" width="70.87" height="70.87" rx="14.17"/><path class="c" d="M39.83,36.08c0-5-2.82-9-6.31-9s-6.31,4-6.31,9,2.83,9,6.31,9S39.83,41.05,39.83,36.08Z" transform="translate(-5.95 -5.82)"/><path class="d" d="M33.52,45.82c-3.89,0-7.06-4.37-7.06-9.74s3.17-9.74,7.06-9.74,7.06,4.37,7.06,9.74S37.41,45.82,33.52,45.82Zm0-18c-3.06,0-5.56,3.69-5.56,8.24s2.5,8.24,5.56,8.24,5.56-3.7,5.56-8.24S36.59,27.84,33.52,27.84Z" transform="translate(-5.95 -5.82)"/><path class="e" d="M29.34,36.09h-.06a.75.75,0,0,1-.69-.8c.19-2.76,1.41-5.24,3.11-6.3a.74.74,0,0,1,1,.23.76.76,0,0,1-.23,1c-1.29.8-2.26,2.87-2.42,5.13A.75.75,0,0,1,29.34,36.09Z" transform="translate(-5.95 -5.82)"/><path class="e" d="M29.68,39.57A.74.74,0,0,1,29,39c-.06-.22-.12-.45-.16-.67A.75.75,0,1,1,30.26,38c0,.2.09.39.14.58a.74.74,0,0,1-.51.92A.76.76,0,0,1,29.68,39.57Z" transform="translate(-5.95 -5.82)"/><ellipse class="c" cx="50.07" cy="33.83" rx="6.31" ry="8.99" transform="translate(-15.21 39.49) rotate(-45)"/><path class="d" d="M52.73,42.35a8.14,8.14,0,0,1-1.45-.13,11.85,11.85,0,0,1-6.21-3.4c-3.8-3.79-4.65-9.12-1.89-11.88s8.08-1.9,11.88,1.9h0c3.8,3.8,4.65,9.13,1.89,11.88A5.81,5.81,0,0,1,52.73,42.35ZM47.42,26.8A4.39,4.39,0,0,0,44.24,28c-2.17,2.17-1.32,6.55,1.89,9.76a10.46,10.46,0,0,0,5.41,3,4.78,4.78,0,0,0,4.35-1.09c2.17-2.17,1.32-6.54-1.89-9.76A9.79,9.79,0,0,0,47.42,26.8Z" transform="translate(-5.95 -5.82)"/><path class="f" d="M51.51,32.39c-3.52-3.51-7-5.71-7.8-4.92s1.4,4.29,4.92,7.8,7,5.72,7.79,4.92S55,35.91,51.51,32.39Z" transform="translate(-5.95 -5.82)"/><path class="d" d="M56,41.09c-2.51,0-7.27-4.68-7.88-5.29s-6.84-6.94-4.92-8.86c.68-.68,1.93-.44,3.81.74a31.54,31.54,0,0,1,5,4.18h0c.7.71,6.83,7,4.91,8.86A1.3,1.3,0,0,1,56,41.09Zm-11.69-13c.09.79,1.49,3.31,4.87,6.68s5.89,4.77,6.68,4.86c-.09-.78-1.49-3.3-4.87-6.68h0C47.6,29.55,45.08,28.15,44.29,28.06Z" transform="translate(-5.95 -5.82)"/><circle class="c" cx="38.14" cy="42.16" r="6.38"/><path class="d" d="M44.09,55.12A7.14,7.14,0,1,1,51.22,48,7.14,7.14,0,0,1,44.09,55.12Zm0-12.77A5.64,5.64,0,1,0,49.72,48,5.64,5.64,0,0,0,44.09,42.35Z" transform="translate(-5.95 -5.82)"/><path class="f" d="M46.23,48a2.14,2.14,0,1,0-2.14,2.14A2.13,2.13,0,0,0,46.23,48Z" transform="translate(-5.95 -5.82)"/><path class="d" d="M44.09,50.87A2.89,2.89,0,1,1,47,48,2.89,2.89,0,0,1,44.09,50.87Zm0-4.27A1.39,1.39,0,1,0,45.48,48,1.38,1.38,0,0,0,44.09,46.6Z" transform="translate(-5.95 -5.82)"/><path class="d" d="M43.39,44.87a.74.74,0,0,1-.73-.6,3.48,3.48,0,0,1-.25-.45,4.09,4.09,0,0,0-.73-1.06.75.75,0,0,1,0-1.06.74.74,0,0,1,1.06,0,5.33,5.33,0,0,1,1,1.45,1.38,1.38,0,0,0,.13.22,1.51,1.51,0,0,1,.24.57.75.75,0,0,1-.59.89Z" transform="translate(-5.95 -5.82)"/><path class="d" d="M41.37,51.39a.74.74,0,0,1-.62-.32.71.71,0,0,1,.16-1L41,50a.74.74,0,0,1,1,0,.76.76,0,0,1,0,1.07,1.12,1.12,0,0,1-.19.15A.86.86,0,0,1,41.37,51.39Z" transform="translate(-5.95 -5.82)"/><path class="d" d="M39.36,51.92A2.24,2.24,0,0,1,38,51.54a.75.75,0,0,1-.11-1,.76.76,0,0,1,1-.13,2,2,0,0,0,.84,0,.75.75,0,1,1,.18,1.48A3.82,3.82,0,0,1,39.36,51.92Z" transform="translate(-5.95 -5.82)"/><path class="e" d="M35.54,64.47a2.26,2.26,0,1,1-2.26-2.13A2.16,2.16,0,0,1,35.54,64.47Zm-3.54,0a1.31,1.31,0,0,0,1.29,1.32A1.31,1.31,0,1,0,32,64.47Z" transform="translate(-5.95 -5.82)"/><path class="e" d="M39.15,65.74v.83H36.4v-4.2h1v3.37Z" transform="translate(-5.95 -5.82)"/><path class="e" d="M40,66.57v-4.2h.94v4.2Z" transform="translate(-5.95 -5.82)"/><path class="e" d="M43.26,66.57l-1.65-4.2h1l1.15,3.17,1.15-3.17h1l-1.66,4.2Z" transform="translate(-5.95 -5.82)"/><path class="e" d="M47.56,63.16v.91h2v.79h-2v.93h2.31v.78H46.61v-4.2h3.2v.79Z" transform="translate(-5.95 -5.82)"/><path class="e" d="M54,62.79l-.37.78a3,3,0,0,0-1.31-.43c-.31,0-.53.12-.53.34,0,.78,2.24.35,2.23,1.86,0,.82-.71,1.26-1.64,1.26a2.94,2.94,0,0,1-1.85-.66l.37-.78a2.48,2.48,0,0,0,1.49.63c.39,0,.62-.14.62-.4,0-.79-2.23-.33-2.23-1.82,0-.76.65-1.24,1.62-1.24A3,3,0,0,1,54,62.79Z" transform="translate(-5.95 -5.82)"/></svg>