<svg xmlns="http://www.w3.org/2000/svg" viewBox="0 0 72.87 72.87"><defs><style>.a{fill:#ece97c;}.b{fill:none;stroke:#fff;stroke-miterlimit:10;stroke-width:2px;}.c{fill:#bb4135;}.d{fill:#643e4c;}.e{fill:#ffe943;}.f{fill:#fff;}</style></defs><title>passionfruit</title><rect class="a" x="1" y="1" width="70.87" height="70.87" rx="14.17"/><rect class="b" x="1" y="1" width="70.87" height="70.87" rx="14.17"/><path class="c" d="M56.67,42.42c0-12.56-13.34-12.35-18.67-12.35s-9.63,5.53-9.63,12.35S32.68,54.77,38,54.77,56.67,55,56.67,42.42Z" transform="translate(-5.95 -5.82)"/><path class="d" d="M38.54,55.52H38c-5.72,0-10.38-5.88-10.38-13.1S32.28,29.32,38,29.32h.26c2.79,0,7.48,0,11.54,1.59,5.06,2,7.62,5.86,7.62,11.51s-2.56,9.52-7.62,11.51C45.88,55.47,41.36,55.52,38.54,55.52Zm0-24.7H38c-4.9,0-8.88,5.2-8.88,11.6S33.1,54,38,54h.26c2.7,0,7.2,0,11-1.48,4.49-1.77,6.67-5.08,6.67-10.12s-2.18-8.35-6.67-10.12C45.58,30.86,41.25,30.82,38.53,30.82Z" transform="translate(-5.95 -5.82)"/><ellipse class="e" cx="32.05" cy="36.6" rx="9.64" ry="12.35"/><path class="d" d="M38,55.52c-5.72,0-10.38-5.88-10.38-13.1S32.28,29.32,38,29.32s10.39,5.87,10.39,13.1S43.73,55.52,38,55.52Zm0-24.7c-4.9,0-8.88,5.2-8.88,11.6S33.1,54,38,54s8.89-5.2,8.89-11.6S42.91,30.82,38,30.82Z" transform="translate(-5.95 -5.82)"/><path class="f" d="M38,38.08a1,1,0,0,1-1-1V33.65a1,1,0,0,1,2.1,0V37A1,1,0,0,1,38,38.08Z" transform="translate(-5.95 -5.82)"/><path class="f" d="M35.9,38.8a1.06,1.06,0,0,1-1-.62l-1.32-2.93a1.05,1.05,0,0,1,1.92-.86l1.32,2.93a1.05,1.05,0,0,1-.53,1.39A1.07,1.07,0,0,1,35.9,38.8Z" transform="translate(-5.95 -5.82)"/><path class="f" d="M34.36,40.77a1,1,0,0,1-.62-.2l-2.29-1.69a1.05,1.05,0,1,1,1.25-1.69L35,38.88a1,1,0,0,1-.63,1.89Z" transform="translate(-5.95 -5.82)"/><path class="f" d="M33.8,43.47H31.16a1,1,0,0,1,0-2.1H33.8a1.05,1.05,0,0,1,0,2.1Z" transform="translate(-5.95 -5.82)"/><path class="f" d="M32.08,47.86a1.05,1.05,0,0,1-.63-1.9l2.29-1.69A1.05,1.05,0,1,1,35,46L32.7,47.65A1.05,1.05,0,0,1,32.08,47.86Z" transform="translate(-5.95 -5.82)"/><path class="f" d="M34.58,51.07a1,1,0,0,1-.43-.1,1,1,0,0,1-.53-1.38l1.32-2.93a1.05,1.05,0,0,1,1.92.86l-1.32,2.93A1.06,1.06,0,0,1,34.58,51.07Z" transform="translate(-5.95 -5.82)"/><path class="f" d="M38,52.24a1,1,0,0,1-1-1.05V47.81a1,1,0,1,1,2.1,0v3.38A1,1,0,0,1,38,52.24Z" transform="translate(-5.95 -5.82)"/><path class="f" d="M41.43,51.07a1,1,0,0,1-1-.62l-1.32-2.93a1.05,1.05,0,1,1,1.92-.86l1.31,2.93A1,1,0,0,1,41.86,51,1,1,0,0,1,41.43,51.07Z" transform="translate(-5.95 -5.82)"/><path class="f" d="M43.93,47.86a1,1,0,0,1-.62-.21L41,46a1.05,1.05,0,0,1,1.25-1.69L44.56,46a1.05,1.05,0,0,1-.63,1.9Z" transform="translate(-5.95 -5.82)"/><path class="f" d="M44.85,43.47H42.21a1,1,0,0,1,0-2.1h2.64a1,1,0,0,1,0,2.1Z" transform="translate(-5.95 -5.82)"/><path class="f" d="M41.65,40.77A1,1,0,0,1,41,38.88l2.29-1.69a1,1,0,0,1,1.47.22,1.06,1.06,0,0,1-.22,1.47l-2.29,1.69A1,1,0,0,1,41.65,40.77Z" transform="translate(-5.95 -5.82)"/><path class="f" d="M40.11,38.8a1.07,1.07,0,0,1-.43-.09,1.05,1.05,0,0,1-.53-1.39l1.32-2.93a1.06,1.06,0,0,1,1.39-.53,1,1,0,0,1,.52,1.39l-1.31,2.93A1.06,1.06,0,0,1,40.11,38.8Z" transform="translate(-5.95 -5.82)"/><path class="f" d="M38,40.47a.48.48,0,0,1-.47-.48V38.47A.47.47,0,0,1,38,38a.48.48,0,0,1,.48.47V40A.49.49,0,0,1,38,40.47Z" transform="translate(-5.95 -5.82)"/><path class="f" d="M37.06,40.79a.47.47,0,0,1-.43-.28L36,39.19a.48.48,0,0,1,.24-.62.46.46,0,0,1,.62.24l.6,1.31a.48.48,0,0,1-.24.63A.43.43,0,0,1,37.06,40.79Z" transform="translate(-5.95 -5.82)"/><path class="f" d="M36.36,41.68a.51.51,0,0,1-.28-.09l-1-.77a.47.47,0,1,1,.56-.75l1,.76a.48.48,0,0,1,.1.66A.51.51,0,0,1,36.36,41.68Z" transform="translate(-5.95 -5.82)"/><path class="f" d="M36.11,42.89H34.92a.47.47,0,0,1,0-.94h1.19a.47.47,0,0,1,0,.94Z" transform="translate(-5.95 -5.82)"/><path class="f" d="M35.34,44.87a.46.46,0,0,1-.38-.2.47.47,0,0,1,.1-.66l1-.76a.49.49,0,0,1,.67.1.48.48,0,0,1-.1.66l-1,.76A.46.46,0,0,1,35.34,44.87Z" transform="translate(-5.95 -5.82)"/><path class="f" d="M36.46,46.31a.43.43,0,0,1-.19,0,.48.48,0,0,1-.24-.63l.6-1.31a.46.46,0,0,1,.62-.24.47.47,0,0,1,.24.62L36.89,46A.46.46,0,0,1,36.46,46.31Z" transform="translate(-5.95 -5.82)"/><path class="f" d="M38,46.84a.47.47,0,0,1-.47-.47V44.84a.47.47,0,0,1,.47-.47.48.48,0,0,1,.48.47v1.53A.48.48,0,0,1,38,46.84Z" transform="translate(-5.95 -5.82)"/><path class="f" d="M39.54,46.31a.47.47,0,0,1-.43-.28l-.59-1.32a.47.47,0,0,1,.86-.38l.6,1.31a.48.48,0,0,1-.24.63A.45.45,0,0,1,39.54,46.31Z" transform="translate(-5.95 -5.82)"/><path class="f" d="M40.67,44.87a.44.44,0,0,1-.28-.1l-1-.76a.47.47,0,1,1,.56-.76L41,44a.47.47,0,0,1,.1.66A.46.46,0,0,1,40.67,44.87Z" transform="translate(-5.95 -5.82)"/><path class="f" d="M41.08,42.89H39.9a.47.47,0,1,1,0-.94h1.18a.47.47,0,1,1,0,.94Z" transform="translate(-5.95 -5.82)"/><path class="f" d="M39.64,41.68a.5.5,0,0,1-.38-.19.48.48,0,0,1,.1-.66l1-.76a.47.47,0,1,1,.56.75l-1,.77A.47.47,0,0,1,39.64,41.68Z" transform="translate(-5.95 -5.82)"/><path class="f" d="M39,40.79a.43.43,0,0,1-.19,0,.48.48,0,0,1-.24-.63l.59-1.31a.47.47,0,0,1,.87.38l-.6,1.32A.47.47,0,0,1,39,40.79Z" transform="translate(-5.95 -5.82)"/><path class="f" d="M20.17,62.25h1.39c1.33,0,2,.45,2,1.43s-.65,1.41-1.74,1.41h-.45v1.53H20.17Zm1.16,2h.3c.4,0,.72-.14.72-.6s-.32-.58-.72-.58h-.3Z" transform="translate(-5.95 -5.82)"/><path class="f" d="M24.89,62.25h1.43L28,66.62H26.72l-.32-.94H24.76l-.34.94H23.23Zm.71.9h0L25,64.86h1.09Z" transform="translate(-5.95 -5.82)"/><path class="f" d="M28.46,65.54a2.6,2.6,0,0,0,1.21.29c.36,0,.71-.08.71-.43,0-.81-2.06-.3-2.06-1.89,0-1,1-1.33,1.9-1.33a3.75,3.75,0,0,1,1.13.16l-.08.9a2.31,2.31,0,0,0-1-.2c-.29,0-.78,0-.78.41,0,.7,2.07.23,2.07,1.8,0,1.14-1,1.44-1.92,1.44a4.47,4.47,0,0,1-1.31-.19Z" transform="translate(-5.95 -5.82)"/><path class="f" d="M32.28,65.54a2.59,2.59,0,0,0,1.2.29c.37,0,.72-.08.72-.43,0-.81-2.06-.3-2.06-1.89,0-1,1-1.33,1.9-1.33a3.75,3.75,0,0,1,1.13.16l-.08.9a2.31,2.31,0,0,0-1-.2c-.29,0-.78,0-.78.41,0,.7,2.06.23,2.06,1.8,0,1.14-.95,1.44-1.92,1.44a4.45,4.45,0,0,1-1.3-.19Z" transform="translate(-5.95 -5.82)"/><path class="f" d="M36.15,62.25h1.16v4.37H36.15Z" transform="translate(-5.95 -5.82)"/><path class="f" d="M40.2,62.18a2.26,2.26,0,0,1,0,4.51A2,2,0,0,1,38,64.43,2,2,0,0,1,40.2,62.18Zm0,3.65c.71,0,1-.68,1-1.4S40.91,63,40.2,63s-1,.64-1,1.39S39.5,65.83,40.2,65.83Z" transform="translate(-5.95 -5.82)"/><path class="f" d="M43.06,62.25h1.48l1.48,3h0l0-3h1.06v4.37H45.63l-1.53-3h0l0,3H43.06Z" transform="translate(-5.95 -5.82)"/><path class="f" d="M47.87,62.25h2.92v.83H49v1h1.69v.83H49v1.76H47.87Z" transform="translate(-5.95 -5.82)"/><path class="f" d="M51.35,62.25h2.07c.78,0,1.41.35,1.41,1.1a1,1,0,0,1-.84,1.1h0c.38.11.4.44.62,1L55,66.62H53.82l-.25-.79c-.23-.75-.38-.94-.82-.94h-.24v1.73H51.35Zm1.16,1.81h.31c.37,0,.85,0,.85-.5s-.41-.48-.85-.48h-.31Z" transform="translate(-5.95 -5.82)"/><path class="f" d="M59.31,65c0,1.19-.77,1.73-1.91,1.73s-1.92-.54-1.92-1.73V62.25h1.17v2.52c0,.57.15,1.06.75,1.06s.75-.49.75-1.06V62.25h1.16Z" transform="translate(-5.95 -5.82)"/><path class="f" d="M60.11,62.25h1.17v4.37H60.11Z" transform="translate(-5.95 -5.82)"/><path class="f" d="M62.9,63.11H61.82v-.86h3.32v.86H64.06v3.51H62.9Z" transform="translate(-5.95 -5.82)"/></svg>