<svg xmlns="http://www.w3.org/2000/svg" viewBox="0 0 72.87 72.87"><defs><style>.a{fill:#8b7ab7;}.b{fill:none;stroke:#fff;stroke-miterlimit:10;stroke-width:2px;}.c{fill:#ffe943;}.d{fill:#fff;}.e{fill:#449346;}.f{fill:#643e4c;}.g{fill:#eb6209;}.h{fill:#b58059;}</style></defs><title>peach</title><rect class="a" x="1" y="1" width="70.87" height="70.87" rx="14.17"/><rect class="b" x="1" y="1" width="70.87" height="70.87" rx="14.17"/><path class="c" d="M42.5,52.26c1.36,0,1.32,1.26,3,1.61C52,55.27,55.61,46,56.05,39.59c.4-5.83-2-8.65-7.12-10-3-.8-4.79.42-6.43.42s-3.41-1.22-6.43-.42C30.92,30.94,28.9,34,29,39.59,29,46,33,55.27,39.54,53.87,41.18,53.52,41.13,52.26,42.5,52.26Z" transform="translate(-5.95 -5.82)"/><path class="d" d="M33.24,47.4a.75.75,0,0,1-.68-.44,19,19,0,0,1-1.69-7.39c0-4.82,1.5-7,5.69-8.13A.75.75,0,1,1,37,32.89c-3.5.92-4.61,2.55-4.58,6.67a17.23,17.23,0,0,0,1.56,6.78.75.75,0,0,1-.37,1A.71.71,0,0,1,33.24,47.4Z" transform="translate(-5.95 -5.82)"/><path class="d" d="M36.05,51.25a.79.79,0,0,1-.46-.15A7.8,7.8,0,0,1,34.45,50a.75.75,0,0,1,1.14-1,6.22,6.22,0,0,0,.91.88.75.75,0,0,1-.45,1.34Z" transform="translate(-5.95 -5.82)"/><path class="e" d="M41.48,22c-1.25-1.25-6-1.51-6-1.51s.26,4.79,1.51,6A3.2,3.2,0,1,0,41.48,22Z" transform="translate(-5.95 -5.82)"/><path class="f" d="M39.21,28.26a3.92,3.92,0,0,1-2.79-1.16c-1.38-1.38-1.69-5.68-1.73-6.53a.75.75,0,0,1,.79-.79c.85,0,5.15.35,6.53,1.73a4,4,0,0,1-2.8,6.75Zm-3-6.91c.18,1.81.61,4.07,1.23,4.69A2.51,2.51,0,0,0,41,26a2.47,2.47,0,0,0,0-3.47C40.33,22,38.06,21.52,36.25,21.35Z" transform="translate(-5.95 -5.82)"/><path class="f" d="M41.26,55.71a.82.82,0,0,1-.31-.07.75.75,0,0,1-.37-1L41.82,52a.75.75,0,0,1,1-.37.75.75,0,0,1,.37,1l-1.24,2.69A.77.77,0,0,1,41.26,55.71Z" transform="translate(-5.95 -5.82)"/><path class="f" d="M44,56.22a.74.74,0,0,1-.67-.43l-1.55-3.2a.75.75,0,0,1,.35-1,.73.73,0,0,1,1,.35l1.55,3.2a.75.75,0,0,1-.35,1A.67.67,0,0,1,44,56.22Z" transform="translate(-5.95 -5.82)"/><path class="f" d="M42.48,30.3a.74.74,0,0,1-.74-.65,7.72,7.72,0,0,1,1-5,7.53,7.53,0,0,1,2.44-2.52.76.76,0,0,1,1,.23.74.74,0,0,1-.23,1,6,6,0,0,0-2.73,6,.75.75,0,0,1-.64.84Z" transform="translate(-5.95 -5.82)"/><path class="g" d="M40.68,52.78c2.82-1,7.8,4.55,12.85-4,4.66-10.56,1.81-16.05-3.39-18.94Z" transform="translate(-5.95 -5.82)"/><path class="h" d="M46.37,33.92c-3.77-1.14-7.83,1.29-9.08,5.41C35.58,45,41.06,51.51,41.06,51.51S50.14,35.06,46.37,33.92Z" transform="translate(-5.95 -5.82)"/><path class="f" d="M41.41,52.17a.76.76,0,0,1-.93-.18c-.23-.28-5.72-6.89-3.91-12.87,1.37-4.52,6.83-6.74,11-5.48a.75.75,0,1,1-.44,1.43c-3.37-1-8,.76-9.11,4.48C36.43,44.76,41.58,51,41.63,51a.75.75,0,0,1-.09,1.06A.6.6,0,0,1,41.41,52.17Z" transform="translate(-5.95 -5.82)"/><path class="d" d="M39.47,41.9a.79.79,0,0,1-.22.06.5.5,0,0,1-.52-.48,5.78,5.78,0,0,1,1.08-3.68A5.58,5.58,0,0,1,41.93,36a.5.5,0,0,1,.67.23.51.51,0,0,1-.24.67,4.69,4.69,0,0,0-1.74,1.45,4.78,4.78,0,0,0-.89,3A.51.51,0,0,1,39.47,41.9Z" transform="translate(-5.95 -5.82)"/><path class="f" d="M40.63,53.59a.76.76,0,0,1-.57,0,.74.74,0,0,1-.36-1L49.14,30.2a.75.75,0,1,1,1.36.63L41.06,53.2A.78.78,0,0,1,40.63,53.59Z" transform="translate(-5.95 -5.82)"/><path class="d" d="M32.27,62.25h1.39c1.33,0,2,.45,2,1.43s-.64,1.41-1.73,1.41h-.45v1.53H32.27Zm1.17,2h.3c.4,0,.72-.14.72-.6s-.32-.58-.72-.58h-.3Z" transform="translate(-5.95 -5.82)"/><path class="d" d="M36.12,62.25H39.2v.83H37.29V64h1.8v.82h-1.8v1h2v.83H36.12Z" transform="translate(-5.95 -5.82)"/><path class="d" d="M41.27,62.25H42.7l1.68,4.37H43.11l-.33-.94H41.14l-.34.94H39.62Zm.72.9h0l-.56,1.71h1.1Z" transform="translate(-5.95 -5.82)"/><path class="d" d="M48.48,66.52a5,5,0,0,1-1.3.17,2.26,2.26,0,0,1-2.51-2.24,2.22,2.22,0,0,1,2.51-2.27,4.72,4.72,0,0,1,1.29.22l-.09,1A2.28,2.28,0,0,0,47.24,63a1.4,1.4,0,1,0,.09,2.79,3,3,0,0,0,1.09-.23Z" transform="translate(-5.95 -5.82)"/><path class="d" d="M49,62.25h1.17v1.67h1.37V62.25h1.17v4.37H51.54V64.75H50.17v1.87H49Z" transform="translate(-5.95 -5.82)"/><path class="f" d="M46.77,54.76a7.51,7.51,0,0,1-1.47-.16,3.61,3.61,0,0,1-1.93-1.12c-.36-.35-.5-.47-.87-.47s-.51.12-.87.47A3.61,3.61,0,0,1,39.7,54.6a6.88,6.88,0,0,1-5.9-1.49c-3.62-2.91-5.56-9-5.6-13.51-.05-6,2.32-9.33,7.68-10.74a9.31,9.31,0,0,1,5,.12,7.36,7.36,0,0,0,1.58.27A7.46,7.46,0,0,0,44.08,29a9.31,9.31,0,0,1,5-.12c5.72,1.51,8.08,4.84,7.67,10.78-.32,4.67-2.32,11-5.95,13.69A6.69,6.69,0,0,1,46.77,54.76Zm-8.68-24.7a7,7,0,0,0-1.83.25c-4.7,1.24-6.61,3.93-6.56,9.27,0,4.06,1.82,9.77,5,12.36a5.4,5.4,0,0,0,4.65,1.19,2.08,2.08,0,0,0,1.19-.72,2.5,2.5,0,0,1,3.84,0,2.05,2.05,0,0,0,1.19.72,5.12,5.12,0,0,0,4.32-1c3.26-2.45,5.07-8.25,5.37-12.59.36-5.23-1.54-7.91-6.56-9.23a7.91,7.91,0,0,0-4.31.13,8.17,8.17,0,0,1-1.93.31,8.34,8.34,0,0,1-1.94-.31A9.93,9.93,0,0,0,38.09,30.06Z" transform="translate(-5.95 -5.82)"/></svg>