<svg xmlns="http://www.w3.org/2000/svg" viewBox="0 0 72.87 72.87"><defs><style>.a{fill:#449346;}.b{fill:none;stroke:#fff;stroke-miterlimit:10;stroke-width:2px;}.c{fill:#ece97c;}.d{fill:#643e4c;}.e{fill:#e5c62f;}.f{fill:#fff;}.g{fill:#8fc037;}</style></defs><title>pear</title><rect class="a" x="1" y="1" width="70.87" height="70.87" rx="14.17"/><rect class="b" x="1" y="1" width="70.87" height="70.87" rx="14.17"/><path class="c" d="M42.88,29.93c2.33.09,4.52,1.76,4.52,5.69,0,7,3.24,6.71,4.21,11.39.7,3.4-2.18,7.68-5.28,8.06a8.65,8.65,0,0,1-3.67-.57h-.31a8.65,8.65,0,0,1-3.67.57c-3.11-.38-6-4.66-5.28-8.06,1-4.68,4.2-4.38,4.2-11.39,0-3.93,2.2-5.6,4.53-5.69Z" transform="translate(-6.07 -5.86)"/><path class="d" d="M39.18,55.84a5.28,5.28,0,0,1-.59,0,6.68,6.68,0,0,1-4.39-2.92,7.9,7.9,0,0,1-1.53-6,10.32,10.32,0,0,1,2.06-4.35c1.09-1.53,2.12-3,2.12-6.88,0-4.6,2.83-6.34,5.25-6.44h.81c2.42.1,5.25,1.84,5.25,6.44,0,3.91,1,5.35,2.12,6.88a10.44,10.44,0,0,1,2.06,4.35,7.94,7.94,0,0,1-1.53,6,6.68,6.68,0,0,1-4.39,2.92,9.78,9.78,0,0,1-3.92-.56A9.93,9.93,0,0,1,39.18,55.84Zm3-25.16c-2.35.1-3.78,1.94-3.78,4.94,0,4.39-1.22,6.1-2.4,7.75a9.06,9.06,0,0,0-1.81,3.79A6.48,6.48,0,0,0,35.41,52a5.28,5.28,0,0,0,3.36,2.31A7.85,7.85,0,0,0,42,53.83a.85.85,0,0,1,.35-.08h.31a.77.77,0,0,1,.34.08,7.87,7.87,0,0,0,3.24.49A5.24,5.24,0,0,0,49.59,52a6.44,6.44,0,0,0,1.28-4.85,9.18,9.18,0,0,0-1.81-3.79c-1.18-1.65-2.4-3.36-2.4-7.75,0-3-1.42-4.84-3.79-4.94Z" transform="translate(-6.07 -5.86)"/><path class="e" d="M47.61,51.45a.77.77,0,0,1-.4-.12.74.74,0,0,1-.23-1,4,4,0,0,0,.69-2.64,6.34,6.34,0,0,0-.34-1.09,3.29,3.29,0,0,0-1-1.52A3,3,0,0,0,44,45a.75.75,0,0,1-.41-1.44,4.3,4.3,0,0,1,3.61.29A4.64,4.64,0,0,1,48.72,46a8.6,8.6,0,0,1,.42,1.38,5.39,5.39,0,0,1-.89,3.74A.77.77,0,0,1,47.61,51.45Z" transform="translate(-6.07 -5.86)"/><path class="e" d="M45.27,53.34a.75.75,0,0,1-.09-1.5,1,1,0,0,0,.35-.12.75.75,0,0,1,.67,1.35,2.61,2.61,0,0,1-.84.26Z" transform="translate(-6.07 -5.86)"/><path class="f" d="M40,38.63H39.9a.75.75,0,0,1-.66-.83,18.52,18.52,0,0,0,.11-2.17,4,4,0,0,1,1.28-3.41.75.75,0,0,1,.91,1.2,2.79,2.79,0,0,0-.69,2.21A21.66,21.66,0,0,1,40.73,38,.75.75,0,0,1,40,38.63Z" transform="translate(-6.07 -5.86)"/><path class="f" d="M39,42.46a.82.82,0,0,1-.31-.07.75.75,0,0,1-.38-1,9.24,9.24,0,0,0,.36-.94.76.76,0,0,1,.95-.47.75.75,0,0,1,.47.95A9.54,9.54,0,0,1,39.68,42,.75.75,0,0,1,39,42.46Z" transform="translate(-6.07 -5.86)"/><path class="d" d="M41.76,57.72l-.22,0a.75.75,0,0,1-.5-.93l.75-2.48a.75.75,0,0,1,1.43.43l-.74,2.48A.76.76,0,0,1,41.76,57.72Z" transform="translate(-6.07 -5.86)"/><path class="d" d="M43.37,57.82a.75.75,0,0,1-.71-.51l-.87-2.57a.75.75,0,0,1,1.43-.48l.86,2.57a.75.75,0,0,1-.47,1A.67.67,0,0,1,43.37,57.82Z" transform="translate(-6.07 -5.86)"/><path class="d" d="M42.68,30.3a.75.75,0,0,1-.69-.46,5.83,5.83,0,0,1-.46-2.78,6.27,6.27,0,0,1,2.3-4.27.75.75,0,0,1,1.06.1A.76.76,0,0,1,44.78,24,4.78,4.78,0,0,0,43,27.17a4.59,4.59,0,0,0,.35,2.09.73.73,0,0,1-.4,1A.72.72,0,0,1,42.68,30.3Z" transform="translate(-6.07 -5.86)"/><path class="g" d="M41.36,24.18c-.87-.86-5.77-2.63-5.77-2.63s1.77,4.9,2.63,5.77a2.22,2.22,0,0,0,3.14-3.14Z" transform="translate(-6.07 -5.86)"/><path class="d" d="M39.79,28.72a3,3,0,0,1-2.1-.87c-.94-.94-2.5-5.2-2.8-6a.74.74,0,0,1,1-1c.84.3,5.1,1.86,6,2.8h0a3,3,0,0,1-2.1,5.07Zm-2.91-5.88a19.39,19.39,0,0,0,1.87,3.95,1.48,1.48,0,0,0,2.08,0,1.47,1.47,0,0,0,0-2.08h0A19.17,19.17,0,0,0,36.88,22.84Z" transform="translate(-6.07 -5.86)"/><path class="f" d="M35.78,62.19c1.07,0,1.68.53,1.68,1.46a1.47,1.47,0,0,1-1.68,1.54H35v1.2H34v-4.2ZM35,64.4h.78c.53,0,.83-.24.83-.72s-.3-.71-.83-.71H35Z" transform="translate(-6.07 -5.86)"/><path class="f" d="M39.25,63v.92h2v.78h-2v.93h2.32v.79H38.31v-4.2H41.5V63Z" transform="translate(-6.07 -5.86)"/><path class="f" d="M43.38,65.57l-.33.82h-1l1.82-4.2h1l1.79,4.2h-1l-.33-.82Zm1-2.39-.67,1.63H45Z" transform="translate(-6.07 -5.86)"/><path class="f" d="M49.26,65.19h-1v1.2h-.95v-4.2h1.82c1.1,0,1.72.53,1.72,1.46A1.38,1.38,0,0,1,50.11,65L51,66.39H49.93Zm-.09-.79c.52,0,.82-.24.82-.72s-.3-.71-.82-.71H48.3V64.4Z" transform="translate(-6.07 -5.86)"/></svg>