<svg xmlns="http://www.w3.org/2000/svg" viewBox="0 0 72.87 72.87"><defs><style>.a{fill:#bb4135;}.b{fill:none;stroke:#fff;stroke-miterlimit:10;stroke-width:2px;}.c{fill:#77bf84;}.d{fill:#449346;}.e{fill:#5fb561;}.f{fill:#643e4c;}.g{fill:#fff;}</style></defs><title>peas</title><rect class="a" x="1" y="1" width="70.87" height="70.87" rx="14.17"/><rect class="b" x="1" y="1" width="70.87" height="70.87" rx="14.17"/><path class="c" d="M52.23,35a13.68,13.68,0,0,0-2.93,2c-3.08,2.83-3.14,5.58-5.89,8.94A18.43,18.43,0,0,1,37,50.89l-2,.25s6.45,2.16,11.78-.57a17.55,17.55,0,0,0,7.56-8.39,29.13,29.13,0,0,0,1.62-5l-.62-2.77Z" transform="translate(-5.95 -5.82)"/><path class="d" d="M52.23,35a13.68,13.68,0,0,0-2.93,2c-3.08,2.83-3.14,5.58-5.89,8.94a18.17,18.17,0,0,1-5,4.17,7.48,7.48,0,0,1-2.83.92l-.62.08a12.69,12.69,0,0,0,4.62-3.64c1.37-1.69,1.3-2.77,2.3-5.21A20.1,20.1,0,0,1,48,33.82a14.08,14.08,0,0,1,4.24-2.2l1.67.5Z" transform="translate(-5.95 -5.82)"/><path class="c" d="M43.81,38.46c-6.4,1.63-16.7.85-19.28-2.67-.82-1.13-.89-4.23-.89-4.23l-.81-3.93a20.25,20.25,0,0,0,4.62,2.58c5.51,2,18.33-1.29,23.74,0l.78.91-4.28,3.05a8.94,8.94,0,0,0-1.76,1.66Z" transform="translate(-5.95 -5.82)"/><path class="e" d="M59.43,36.23c-.47-.8-1.28-.86-1.47-1.63A2.12,2.12,0,0,1,58.27,33c.67-1.11.76-2-.11-3a2.34,2.34,0,0,0-3.06-.46,3,3,0,0,1-2,.32c-1.62-.23-2.53-2.66-2.53-2.66a4.91,4.91,0,0,0,.8,3.34,4.73,4.73,0,0,0,2.5,1.58c-.78,1.25-2.17,3.72-2.17,3.72L55.51,34A2.72,2.72,0,0,0,56,36c.65.75,1.46.51,2.27,1.37a3.83,3.83,0,0,1,.9,1.59S60.07,37.33,59.43,36.23Z" transform="translate(-5.95 -5.82)"/><path class="f" d="M59.21,39.47h-.06a.49.49,0,0,1-.42-.38,3.38,3.38,0,0,0-.79-1.35,2.31,2.31,0,0,0-1-.62,2.69,2.69,0,0,1-1.26-.78A2.87,2.87,0,0,1,55,34.79L52,36.29a.49.49,0,0,1-.58-.1.5.5,0,0,1-.07-.59c0-.09,1.07-1.91,1.85-3.2A5,5,0,0,1,51,30.85a5.42,5.42,0,0,1-.91-3.72.52.52,0,0,1,.45-.43.51.51,0,0,1,.52.32c.22.6,1.05,2.19,2.13,2.34a2.46,2.46,0,0,0,1.67-.27,2.81,2.81,0,0,1,3.64.57,2.66,2.66,0,0,1,.18,3.54,1.68,1.68,0,0,0-.26,1.28c.06.23.21.35.51.57a3.06,3.06,0,0,1,.91.92h0c.78,1.33-.16,3.15-.2,3.23A.52.52,0,0,1,59.21,39.47Zm-3.7-6a.45.45,0,0,1,.27.08A.53.53,0,0,1,56,34a2.3,2.3,0,0,0,.41,1.65,1.79,1.79,0,0,0,.84.5,3.22,3.22,0,0,1,1.41.86,4.48,4.48,0,0,1,.46.58A1.69,1.69,0,0,0,59,36.48h0a1.9,1.9,0,0,0-.64-.62,2,2,0,0,1-.89-1.13,2.68,2.68,0,0,1,.37-2c.62-1,.61-1.65-.05-2.35A1.82,1.82,0,0,0,55.32,30a3.43,3.43,0,0,1-2.25.36,2.94,2.94,0,0,1-1.75-1,2.74,2.74,0,0,0,.49.92A4.06,4.06,0,0,0,54,31.63a.5.5,0,0,1,.3.75c-.39.62-.92,1.54-1.36,2.3l2.31-1.12A.42.42,0,0,1,55.51,33.51Z" transform="translate(-5.95 -5.82)"/><path class="f" d="M40.47,52.71a20,20,0,0,1-5.76-.86.75.75,0,0,1,0-1.41A12.06,12.06,0,0,0,39,47a7.46,7.46,0,0,0,1.42-2.88c.2-.6.42-1.29.76-2.13a20.09,20.09,0,0,1,6.38-8.8A15,15,0,0,1,52,30.9a.75.75,0,0,1,.94.5.74.74,0,0,1-.5.93,13.59,13.59,0,0,0-4,2.09,18.58,18.58,0,0,0-5.88,8.15c-.33.8-.54,1.45-.72,2A9,9,0,0,1,40.15,48,14.33,14.33,0,0,1,37,50.86c2.21.41,6.07.75,9.39-1a16.25,16.25,0,0,0,7.23-8A28.12,28.12,0,0,0,55.18,37l.21-.81a.76.76,0,0,1,.92-.54.74.74,0,0,1,.53.91l-.21.81A29.72,29.72,0,0,1,55,42.49a17.79,17.79,0,0,1-7.91,8.75A14.49,14.49,0,0,1,40.47,52.71Z" transform="translate(-5.95 -5.82)"/><path class="f" d="M37,51.64a.75.75,0,0,1-.67-.42.74.74,0,0,1,.35-1,18.06,18.06,0,0,0,6.17-4.73,21,21,0,0,0,2.48-4,15.44,15.44,0,0,1,3.48-5,15,15,0,0,1,3.09-2.16.75.75,0,0,1,.69,1.33,13.17,13.17,0,0,0-2.76,1.94,14.05,14.05,0,0,0-3.16,4.54A21.23,21.23,0,0,1,44,46.44a19.5,19.5,0,0,1-6.68,5.13A.78.78,0,0,1,37,51.64Z" transform="translate(-5.95 -5.82)"/><path class="f" d="M58.43,30.27a.75.75,0,0,1-.21-1.47A3,3,0,0,0,60.16,27a2.67,2.67,0,0,0-.11-1.73.75.75,0,0,1,1.39-.57,4.24,4.24,0,0,1,.16,2.71,4.5,4.5,0,0,1-3,2.87A.76.76,0,0,1,58.43,30.27Z" transform="translate(-5.95 -5.82)"/><path class="d" d="M54.11,39.27A1.85,1.85,0,1,0,51.6,40,1.84,1.84,0,0,0,54.11,39.27Z" transform="translate(-5.95 -5.82)"/><path class="f" d="M52.5,40.7a2.28,2.28,0,0,1-1.15-.31,2.34,2.34,0,1,1,3.19-.88h0A2.34,2.34,0,0,1,52.5,40.7Zm0-3.68a1.34,1.34,0,1,0,1.16,2h0a1.34,1.34,0,0,0-.5-1.83A1.33,1.33,0,0,0,52.51,37Z" transform="translate(-5.95 -5.82)"/><path class="d" d="M52.06,43.94a2.36,2.36,0,1,0-3.22.89A2.37,2.37,0,0,0,52.06,43.94Z" transform="translate(-5.95 -5.82)"/><path class="f" d="M50,45.63a2.86,2.86,0,1,1,2.49-1.44h0A2.87,2.87,0,0,1,50,45.63Zm0-4.71a1.86,1.86,0,1,0,1.61,2.77h0a1.85,1.85,0,0,0-.7-2.53A1.77,1.77,0,0,0,50,40.92Z" transform="translate(-5.95 -5.82)"/><path class="d" d="M48.36,47.77a2,2,0,1,0-2.74.75A2,2,0,0,0,48.36,47.77Z" transform="translate(-5.95 -5.82)"/><path class="f" d="M46.61,49.29A2.48,2.48,0,0,1,45.37,49a2.51,2.51,0,0,1-1.18-1.52,2.48,2.48,0,0,1,.24-1.9,2.51,2.51,0,0,1,1.51-1.18,2.45,2.45,0,0,1,1.91.24A2.51,2.51,0,0,1,48.79,48h0a2.51,2.51,0,0,1-1.51,1.18A2.57,2.57,0,0,1,46.61,49.29Zm0-4A1.51,1.51,0,0,0,45.3,46a1.49,1.49,0,0,0-.14,1.15,1.5,1.5,0,0,0,1.85,1,1.51,1.51,0,0,0,.91-.71h0a1.5,1.5,0,0,0-.56-2.05A1.46,1.46,0,0,0,46.61,45.27Z" transform="translate(-5.95 -5.82)"/><path class="d" d="M44.41,50.25a1.55,1.55,0,1,0-2.11.58A1.53,1.53,0,0,0,44.41,50.25Z" transform="translate(-5.95 -5.82)"/><path class="f" d="M43.06,51.54a2.05,2.05,0,0,1-1.78-3.06,2,2,0,1,1,3.56,2h0a2,2,0,0,1-1.23,1A2.09,2.09,0,0,1,43.06,51.54Zm0-3.1a1.05,1.05,0,0,0-1,1.33,1,1,0,0,0,.5.63A1,1,0,0,0,44,50h0a1.06,1.06,0,0,0,.09-.8,1,1,0,0,0-.49-.63A1,1,0,0,0,43.07,48.44Z" transform="translate(-5.95 -5.82)"/><path class="f" d="M36.56,40c-5.22,0-10.67-1.1-12.63-3.78-.89-1.22-1-4-1-4.58l-.81-3.87A.75.75,0,0,1,23.28,27a19.23,19.23,0,0,0,4.43,2.47c2.84,1.05,7.86.69,12.72.34,4.21-.29,8.19-.58,10.77,0a.77.77,0,0,1,.56.91.75.75,0,0,1-.91.55c-2.35-.56-6.22-.29-10.32,0-5,.36-10.19.73-13.34-.43a17.89,17.89,0,0,1-3.25-1.62l.44,2.12c0,.05,0,.09,0,.14a9.08,9.08,0,0,0,.74,3.79c2.31,3.17,12.26,4,18.48,2.39A.75.75,0,1,1,44,39.19,31.61,31.61,0,0,1,36.56,40Z" transform="translate(-5.95 -5.82)"/><path class="d" d="M28.32,36.92a.51.51,0,0,1-.5-.49.49.49,0,0,1,.49-.51,1.79,1.79,0,0,0,1.24-.56A1.75,1.75,0,0,0,30,34.09a.5.5,0,0,1,.49-.51.48.48,0,0,1,.51.49,2.78,2.78,0,0,1-2.71,2.85Z" transform="translate(-5.95 -5.82)"/><path class="d" d="M26,34.7a.5.5,0,0,1-.5-.49,2.78,2.78,0,0,1,2.7-2.85.47.47,0,0,1,.51.49.49.49,0,0,1-.48.51,1.78,1.78,0,0,0-1.73,1.82.52.52,0,0,1-.49.52Z" transform="translate(-5.95 -5.82)"/><path class="d" d="M31.27,35.47a.5.5,0,0,1-.5-.49,2.77,2.77,0,0,1,2.7-2.85h0a.5.5,0,0,1,0,1A1.76,1.76,0,0,0,31.77,35a.51.51,0,0,1-.49.52Z" transform="translate(-5.95 -5.82)"/><path class="d" d="M33.6,37.69a.51.51,0,0,1-.5-.49.49.49,0,0,1,.49-.51,1.79,1.79,0,0,0,1.24-.56,1.75,1.75,0,0,0,.49-1.27.5.5,0,0,1,.49-.51h0a.51.51,0,0,1,.5.49,2.78,2.78,0,0,1-2.71,2.85Z" transform="translate(-5.95 -5.82)"/><path class="d" d="M36.86,35.44a.49.49,0,0,1-.5-.49,2.75,2.75,0,0,1,.76-2,2.71,2.71,0,0,1,1.94-.86h0a.49.49,0,0,1,.5.48.5.5,0,0,1-.48.52,1.76,1.76,0,0,0-1.73,1.82.52.52,0,0,1-.49.51Z" transform="translate(-5.95 -5.82)"/><path class="d" d="M39.19,37.66a.5.5,0,0,1,0-1,1.78,1.78,0,0,0,1.73-1.82.5.5,0,0,1,.49-.52h0a.51.51,0,0,1,.5.49,2.74,2.74,0,0,1-.76,2,2.8,2.8,0,0,1-1.95.87Z" transform="translate(-5.95 -5.82)"/><path class="d" d="M42.39,34.74a.5.5,0,0,1-.5-.49,2.78,2.78,0,0,1,2.71-2.84.49.49,0,0,1,.51.48.5.5,0,0,1-.49.52,1.78,1.78,0,0,0-1.73,1.82.49.49,0,0,1-.48.51Z" transform="translate(-5.95 -5.82)"/><path class="g" d="M36.07,62.37c1.07,0,1.68.53,1.68,1.46a1.47,1.47,0,0,1-1.68,1.54h-.83v1.2h-1v-4.2Zm-.83,2.21H36c.53,0,.83-.24.83-.72s-.3-.7-.83-.7h-.78Z" transform="translate(-5.95 -5.82)"/><path class="g" d="M39.55,63.16v.91h2v.79h-2v.93h2.31v.78H38.6v-4.2h3.2v.79Z" transform="translate(-5.95 -5.82)"/><path class="g" d="M43.67,65.76l-.33.81h-1l1.82-4.2h1L47,66.57H46l-.33-.81Zm1-2.4L44,65h1.32Z" transform="translate(-5.95 -5.82)"/><path class="g" d="M50.72,62.79l-.36.78a3,3,0,0,0-1.31-.43c-.32,0-.53.12-.53.34,0,.78,2.23.35,2.23,1.86,0,.82-.72,1.26-1.64,1.26a3,3,0,0,1-1.86-.66l.38-.78a2.44,2.44,0,0,0,1.49.63c.39,0,.62-.14.62-.4,0-.79-2.24-.33-2.24-1.82,0-.76.66-1.24,1.63-1.24A2.94,2.94,0,0,1,50.72,62.79Z" transform="translate(-5.95 -5.82)"/></svg>