<svg xmlns="http://www.w3.org/2000/svg" viewBox="0 0 72.87 72.87"><defs><style>.a{fill:#5fb561;}.b{fill:none;stroke:#fff;stroke-miterlimit:10;stroke-width:2px;}.c{fill:#ea5740;}.d{fill:#643e4c;}.e{fill:#fff;}.f{fill:#8fc037;}</style></defs><title>pepper</title><rect class="a" x="1" y="1" width="70.87" height="70.87" rx="14.17"/><rect class="b" x="1" y="1" width="70.87" height="70.87" rx="14.17"/><path class="c" d="M50.41,30.86l-1.19-.17,0,.2a5.05,5.05,0,0,0-4.1-2.1H39.71a5,5,0,0,0-3.93,1.88h0l-1.39.2a6.39,6.39,0,0,0-5.26,7.93l3.11,11.9a4.37,4.37,0,0,0,4.85,3.22l.58-.09h0a5.07,5.07,0,0,0,3.91,1.85h1.65a5.05,5.05,0,0,0,3.9-1.85h0l.59.09a4.37,4.37,0,0,0,4.85-3.22l3.1-11.9A6.39,6.39,0,0,0,50.41,30.86Z" transform="translate(-5.95 -5.82)"/><path class="d" d="M35.1,39a.74.74,0,0,1-.74-.67l-.43-3.81A5.82,5.82,0,0,1,39.71,28H45.1a5.81,5.81,0,0,1,5.77,6.45l-.29,2.65A.75.75,0,1,1,49.09,37l.29-2.64a4.31,4.31,0,0,0-4.28-4.79H39.71A4.31,4.31,0,0,0,36.49,31a4.35,4.35,0,0,0-1.07,3.35l.43,3.81a.76.76,0,0,1-.66.83Z" transform="translate(-5.95 -5.82)"/><path class="e" d="M37.47,37.65a.76.76,0,0,1-.75-.67l-.15-1.42a.75.75,0,1,1,1.49-.17l.16,1.42a.75.75,0,0,1-.67.83Z" transform="translate(-5.95 -5.82)"/><path class="e" d="M37.22,34,37,34a.74.74,0,0,1-.55-.9,3.31,3.31,0,0,1,3.22-2.52H45.1a.75.75,0,0,1,0,1.5H39.71A1.81,1.81,0,0,0,38,33.41.75.75,0,0,1,37.22,34Z" transform="translate(-5.95 -5.82)"/><path class="d" d="M43.23,56.41H41.58a5.81,5.81,0,0,1-5.78-5.16L35.44,48a.75.75,0,0,1,.66-.83.76.76,0,0,1,.83.67l.36,3.28a4.31,4.31,0,0,0,4.29,3.83h1.65a4.29,4.29,0,0,0,4.28-3.83l.72-6.4a.75.75,0,0,1,1.49.16L49,51.25A5.8,5.8,0,0,1,43.23,56.41Z" transform="translate(-5.95 -5.82)"/><path class="d" d="M35.9,46.08a.75.75,0,0,1-.75-.66l-.08-.72a.75.75,0,1,1,1.49-.17l.08.72a.75.75,0,0,1-.66.83Z" transform="translate(-5.95 -5.82)"/><path class="d" d="M36.45,54.71a5.11,5.11,0,0,1-4.94-3.83L28.41,39a7.13,7.13,0,0,1,5.88-8.86l1.38-.2a.75.75,0,0,1,.21,1.49l-1.38.2a5.62,5.62,0,0,0-4.64,7L33,50.5a3.63,3.63,0,0,0,4,2.67l.59-.09a.75.75,0,0,1,.21,1.49l-.59.08A4.52,4.52,0,0,1,36.45,54.71Z" transform="translate(-5.95 -5.82)"/><path class="d" d="M48.35,54.71a4.71,4.71,0,0,1-.74-.06L47,54.57a.75.75,0,0,1-.63-.85.76.76,0,0,1,.85-.64l.59.09a3.61,3.61,0,0,0,4-2.67L55,38.6a5.69,5.69,0,0,0-.76-4.54,5.61,5.61,0,0,0-3.89-2.45l-1.18-.18A.75.75,0,1,1,49.33,30l1.19.17A7.13,7.13,0,0,1,56.4,39l-3.1,11.9A5.12,5.12,0,0,1,48.35,54.71Z" transform="translate(-5.95 -5.82)"/><path class="f" d="M42.13,28.44a6.57,6.57,0,0,0-1.42-3.33,6.25,6.25,0,0,0-1.45-1.29L41.69,22A9.73,9.73,0,0,1,43,25a9.93,9.93,0,0,1,.22,3.5Z" transform="translate(-5.95 -5.82)"/><path class="d" d="M43.26,29.29h-.07l-1.12-.09a.75.75,0,0,1-.68-.65,5.8,5.8,0,0,0-1.25-2.95,5.62,5.62,0,0,0-1.29-1.14.74.74,0,0,1-.34-.6.76.76,0,0,1,.29-.63l2.44-1.85a.75.75,0,0,1,1.08.19,10.71,10.71,0,0,1,1.45,3.3A10.57,10.57,0,0,1,44,28.62.75.75,0,0,1,43.26,29.29ZM40.5,23.82a6.71,6.71,0,0,1,.79.81A7.1,7.1,0,0,1,42.56,27a8.49,8.49,0,0,0-.25-1.74,9,9,0,0,0-.83-2.14Z" transform="translate(-5.95 -5.82)"/><path class="e" d="M23.14,62.42c.92,0,1.5.4,1.5,1a.92.92,0,0,1-.73.92,1,1,0,0,1,.88,1.06c0,.72-.61,1.16-1.58,1.16h-2V62.42Zm-1,1.69h.93c.36,0,.58-.18.58-.47s-.22-.45-.58-.45h-.93Zm0,1.73h.93c.45,0,.72-.18.72-.51s-.27-.49-.72-.49h-.93Z" transform="translate(-5.95 -5.82)"/><path class="e" d="M26.67,63.2v.91h2v.79h-2v.93H29v.78H25.72V62.42h3.2v.78Z" transform="translate(-5.95 -5.82)"/><path class="e" d="M32.71,65.79v.82H30V62.42h1v3.37Z" transform="translate(-5.95 -5.82)"/><path class="e" d="M36.27,65.79v.82H33.52V62.42h.95v3.37Z" transform="translate(-5.95 -5.82)"/><path class="e" d="M40.54,62.42c1.07,0,1.68.52,1.68,1.45a1.47,1.47,0,0,1-1.68,1.54h-.83v1.2h-1V62.42Zm-.83,2.2h.78c.53,0,.83-.24.83-.72s-.3-.7-.83-.7h-.78Z" transform="translate(-5.95 -5.82)"/><path class="e" d="M44,63.2v.91h2v.79H44v.93h2.32v.78H43.07V62.42h3.19v.78Z" transform="translate(-5.95 -5.82)"/><path class="e" d="M49.1,62.42c1.06,0,1.67.52,1.67,1.45a1.46,1.46,0,0,1-1.67,1.54h-.84v1.2h-.95V62.42Zm-.84,2.2h.79c.53,0,.83-.24.83-.72s-.3-.7-.83-.7h-.79Z" transform="translate(-5.95 -5.82)"/><path class="e" d="M53.4,62.42c1.07,0,1.68.52,1.68,1.45a1.47,1.47,0,0,1-1.68,1.54h-.83v1.2h-1V62.42Zm-.83,2.2h.79c.52,0,.82-.24.82-.72s-.3-.7-.82-.7h-.79Z" transform="translate(-5.95 -5.82)"/><path class="e" d="M56.88,63.2v.91h2v.79h-2v.93h2.31v.78H55.93V62.42h3.2v.78Z" transform="translate(-5.95 -5.82)"/><path class="e" d="M62.09,65.41h-1v1.2h-1V62.42H62c1.1,0,1.72.52,1.72,1.45a1.39,1.39,0,0,1-.78,1.36l.89,1.38H62.76ZM62,64.62c.52,0,.82-.24.82-.72s-.3-.7-.82-.7h-.87v1.42Z" transform="translate(-5.95 -5.82)"/></svg>