<svg xmlns="http://www.w3.org/2000/svg" viewBox="0 0 72.87 72.87"><defs><style>.a{fill:#66589f;}.b{fill:none;stroke:#fff;stroke-miterlimit:10;stroke-width:2px;}.c{fill:#77bf84;}.d{fill:#b58059;}.e{fill:#643e4c;}.f{fill:#fff;}</style></defs><title>pineapple</title><rect class="a" x="1" y="1" width="70.87" height="70.87" rx="14.17"/><rect class="b" x="1" y="1" width="70.87" height="70.87" rx="14.17"/><path class="c" d="M46.2,36.49c-1.29-1.29-.92-2.81,0-3.36a5.53,5.53,0,0,1,2.08-.49,3.39,3.39,0,0,1,.57-.1,5.17,5.17,0,0,1,2.35.36,5.69,5.69,0,0,1,1.06.51,6.18,6.18,0,0,0-.77-.95,6.36,6.36,0,0,0-2.38-1.58,4.5,4.5,0,0,0-.82-.22,3.4,3.4,0,0,0-.46-.06l-.41,0h-.33l-.47,0a7.43,7.43,0,0,0-.74.15h0V30.7a1.8,1.8,0,0,1,.19-.53,3.87,3.87,0,0,1,.37-.56,5.25,5.25,0,0,1,2.3-1.56,7,7,0,0,1,1-.28l.38-.07-.38-.07a9.39,9.39,0,0,0-1-.1,6.42,6.42,0,0,0-3.26.76,4.6,4.6,0,0,0-.83.58l-.15.14s0,0,0-.05a4.12,4.12,0,0,1,.14-2.68,5.41,5.41,0,0,1,.35-.68,5.11,5.11,0,0,1,.52-.62,4.46,4.46,0,0,1,1.2-.86,5,5,0,0,1,1.45-.48,3.83,3.83,0,0,0-.43-.05,5.31,5.31,0,0,0-1.17,0,5.18,5.18,0,0,0-1.65.48,6.82,6.82,0,0,0-.85.51,5.74,5.74,0,0,0-.81.74s0,0-.05,0l0-.11-.34-.95c-.12-.31-.24-.61-.37-.89a16.91,16.91,0,0,0-.75-1.53c-.46-.87-.83-1.42-.83-1.42s.18.64.34,1.59c.08.47.16,1,.21,1.62,0,.3,0,.61.07.92s0,.6,0,.94c0,.5,0,1-.07,1.47a2.39,2.39,0,0,0-.12-.22,10.84,10.84,0,0,0-.73-.92,8.51,8.51,0,0,0-.83-.77,7.72,7.72,0,0,0-1.65-1,6.57,6.57,0,0,0-1.74-.56,6.55,6.55,0,0,1,1.45,1,7.14,7.14,0,0,1,1.15,1.31,8.28,8.28,0,0,1,.47.82,7.27,7.27,0,0,1,.34.91,3.67,3.67,0,0,1,.16,1.26c-.23-.1-.48-.2-.74-.29a10.52,10.52,0,0,0-3.92-.52,9.16,9.16,0,0,0-1.72.24,9.08,9.08,0,0,1,1.67.28,9.41,9.41,0,0,1,3.22,1.5c.23.18.46.36.73.6l.19.18-.06.13a4,4,0,0,0-1.32-.62l-.22-.05h0l-.06,0h-.13l-.45,0a3.12,3.12,0,0,0-.88.13,3.91,3.91,0,0,0-2.21,1.65,4.56,4.56,0,0,0-.39.74c-.06.19-.1.29-.1.29l.22-.2a3.7,3.7,0,0,1,.63-.45,3.2,3.2,0,0,1,2-.37c1.9.35,3.43,1.88,1.12,4.43L42,40.11Z" transform="translate(-5.95 -5.82)"/><path class="d" d="M35.54,38.37a10.08,10.08,0,0,0-2.76,7c0,5.37,4,9.72,9,9.72s9-4.35,9-9.72A10,10,0,0,0,48,38.31L46,36.22,44.8,37l-2.65,2.57L39.5,37l-1.62-1.08Z" transform="translate(-5.95 -5.82)"/><path class="e" d="M41.81,55.84c-5.39,0-9.78-4.7-9.78-10.47a10.79,10.79,0,0,1,3-7.52.75.75,0,1,1,1.08,1,9.3,9.3,0,0,0-2.55,6.48c0,5,3.71,9,8.28,9s8.28-4,8.28-9a9.27,9.27,0,0,0-2.6-6.54.75.75,0,0,1,0-1.06.75.75,0,0,1,1.06,0,10.74,10.74,0,0,1,3,7.59C51.59,51.14,47.2,55.84,41.81,55.84Z" transform="translate(-5.95 -5.82)"/><path class="e" d="M48.75,52.07a.5.5,0,0,1-.35-.14L35.19,38.72A.5.5,0,0,1,35.9,38L49.1,51.22a.5.5,0,0,1-.35.85Z" transform="translate(-5.95 -5.82)"/><path class="e" d="M45.91,54.54a.51.51,0,0,1-.36-.15L33.2,42a.49.49,0,1,1,.7-.7L46.26,53.68a.5.5,0,0,1,0,.71A.5.5,0,0,1,45.91,54.54Z" transform="translate(-5.95 -5.82)"/><path class="e" d="M41.65,55.59a.5.5,0,0,1-.35-.15l-8.82-8.82a.5.5,0,0,1,0-.71.51.51,0,0,1,.71,0L42,54.74a.5.5,0,0,1,0,.7A.51.51,0,0,1,41.65,55.59Z" transform="translate(-5.95 -5.82)"/><path class="e" d="M50.43,48.45a.5.5,0,0,1-.35-.15L39.14,37.37a.51.51,0,0,1,0-.71.5.5,0,0,1,.71,0L50.79,47.6a.5.5,0,0,1,0,.7A.51.51,0,0,1,50.43,48.45Z" transform="translate(-5.95 -5.82)"/><path class="e" d="M50.11,42.82a.51.51,0,0,1-.36-.15l-5.3-5.3a.5.5,0,0,1,0-.71.48.48,0,0,1,.7,0L50.46,42a.51.51,0,0,1,0,.71A.5.5,0,0,1,50.11,42.82Z" transform="translate(-5.95 -5.82)"/><path class="e" d="M35.54,52.07a.54.54,0,0,1-.35-.14.51.51,0,0,1,0-.71L48,38.37a.5.5,0,0,1,.71.71L35.9,51.93A.54.54,0,0,1,35.54,52.07Z" transform="translate(-5.95 -5.82)"/><path class="e" d="M38.2,54.73a.51.51,0,0,1-.36-.15.51.51,0,0,1,0-.71L50,41.75a.48.48,0,0,1,.7,0,.5.5,0,0,1,0,.71L38.55,54.58A.49.49,0,0,1,38.2,54.73Z" transform="translate(-5.95 -5.82)"/><path class="e" d="M42.68,55.54a.49.49,0,0,1-.35-.14.51.51,0,0,1,0-.71l8-8a.5.5,0,0,1,.71,0,.48.48,0,0,1,0,.7l-8,8A.5.5,0,0,1,42.68,55.54Z" transform="translate(-5.95 -5.82)"/><path class="e" d="M33.27,49a.5.5,0,0,1-.35-.85L44.45,36.66a.48.48,0,0,1,.7,0,.5.5,0,0,1,0,.71L33.62,48.89A.47.47,0,0,1,33.27,49Z" transform="translate(-5.95 -5.82)"/><path class="e" d="M32.93,44.07a.47.47,0,0,1-.35-.14.5.5,0,0,1,0-.71l6.56-6.56a.5.5,0,0,1,.71,0,.51.51,0,0,1,0,.71l-6.56,6.56A.5.5,0,0,1,32.93,44.07Z" transform="translate(-5.95 -5.82)"/><path class="e" d="M37.42,37.24a.73.73,0,0,1-.5-.19A.76.76,0,0,1,36.86,36c.78-.86,1.1-1.62.92-2.15a2,2,0,0,0-1.62-1,2.42,2.42,0,0,0-1.47.27,2.61,2.61,0,0,0-.53.38l-.2.18a.74.74,0,0,1-.92.08.76.76,0,0,1-.3-.88l.11-.29a5.5,5.5,0,0,1,.46-.9,4.74,4.74,0,0,1,2.64-2l.09,0A8.68,8.68,0,0,0,35,29.31a9.37,9.37,0,0,0-1.53-.26.75.75,0,0,1-.15-1.47,10,10,0,0,1,1.86-.27,11.46,11.46,0,0,1,3.81.43,7.69,7.69,0,0,0-.28-.72,5,5,0,0,0-.41-.72,6.31,6.31,0,0,0-1-1.17A5.68,5.68,0,0,0,36,24.24a.75.75,0,0,1-.39-.89.72.72,0,0,1,.81-.53,7.24,7.24,0,0,1,2,.61,8.42,8.42,0,0,1,1.81,1.12,5.27,5.27,0,0,1,.52.44c0-.11,0-.22,0-.33l-.06-.88q-.07-.78-.21-1.56c-.15-.9-.32-1.51-.32-1.52a.76.76,0,0,1,.42-.88.74.74,0,0,1,.93.27s.39.58.86,1.47c.28.5.54,1,.78,1.58l.38.93h0l.06-.05.13-.09a6.74,6.74,0,0,1,.89-.52,6.21,6.21,0,0,1,1.86-.54,6.67,6.67,0,0,1,1.31,0l.52.06a.76.76,0,0,1,.61.77.75.75,0,0,1-.66.71,4.68,4.68,0,0,0-1.21.41,3.75,3.75,0,0,0-1,.71,3.31,3.31,0,0,0-.35.41l-.11.15a5.27,5.27,0,0,0-.25.48A3.6,3.6,0,0,0,45,27.66l0,0a7.19,7.19,0,0,1,3.64-.86,8.65,8.65,0,0,1,1.15.11l.39.07a.75.75,0,0,1,.62.74.76.76,0,0,1-.61.74l-.38.07a6.57,6.57,0,0,0-.85.24,5.06,5.06,0,0,0-1.73,1.06l.76.06a1.94,1.94,0,0,1,.43.06,5.75,5.75,0,0,1,.92.25A7.21,7.21,0,0,1,52,31.94,7.71,7.71,0,0,1,52.9,33a.76.76,0,0,1-.11.93.74.74,0,0,1-.93.1,6.36,6.36,0,0,0-.93-.44,4.34,4.34,0,0,0-2-.32,4.16,4.16,0,0,0-.48.09l-.25,0a4,4,0,0,0-1.63.38,1,1,0,0,0-.45.75,1.76,1.76,0,0,0,.6,1.43.74.74,0,0,1,0,1.06.75.75,0,0,1-1.06,0,3.22,3.22,0,0,1-1-2.68,2.56,2.56,0,0,1,1.18-1.86,5.63,5.63,0,0,1,2.28-.57,4.58,4.58,0,0,1,.68-.12,4.19,4.19,0,0,1,.5,0l-.42-.17a4.84,4.84,0,0,0-.72-.2l-.25,0-.78-.05-.42,0a6.18,6.18,0,0,0-.62.12h0a.76.76,0,0,1-.9-.93,2.66,2.66,0,0,1,.28-.74,4.05,4.05,0,0,1,.43-.67,5,5,0,0,1,.38-.42,3.29,3.29,0,0,0-.46.23,4.06,4.06,0,0,0-.7.48L44.52,29h0l.43.58a.75.75,0,0,1-.71.17.76.76,0,0,1-.52-.51A5,5,0,0,1,43.87,26a2.61,2.61,0,0,1,.26-.53,3,3,0,0,0-.4.39.83.83,0,0,1-.73.26.73.73,0,0,1-.58-.46l0-.1c-.06-.2-.13-.4-.2-.59,0,.19,0,.39,0,.6,0,.53,0,1-.07,1.53a.72.72,0,0,1-.57.67.75.75,0,0,1-.81-.33l-.07-.12a7.79,7.79,0,0,0-.52-.69c.1.23.18.45.28.75a4.83,4.83,0,0,1,.19,1.53.73.73,0,0,1-.35.6.77.77,0,0,1-.69.06c-.22-.09-.45-.19-.7-.27s-.39-.13-.59-.18c.19.12.37.24.54.37s.49.38.78.63l.19.19a.81.81,0,0,1,.18.88l-.08.15a.73.73,0,0,1-.48.39.76.76,0,0,1-.62-.12,3.2,3.2,0,0,0-1.06-.5l-.2-.05h0L37,31a2.4,2.4,0,0,0-.65.1,2.73,2.73,0,0,0-.43.16,2.76,2.76,0,0,1,.51,0,3.39,3.39,0,0,1,2.77,2c.26.76.26,2-1.22,3.65A.77.77,0,0,1,37.42,37.24Z" transform="translate(-5.95 -5.82)"/><path class="e" d="M35.54,39.12A.79.79,0,0,1,35,38.9a.75.75,0,0,1,0-1.06L36.89,36A.75.75,0,0,1,38,37L36.07,38.9A.75.75,0,0,1,35.54,39.12Z" transform="translate(-5.95 -5.82)"/><path class="e" d="M48,39.06a.74.74,0,0,1-.53-.22L45.67,37A.75.75,0,0,1,46.73,36l1.82,1.82a.75.75,0,0,1,0,1.06A.74.74,0,0,1,48,39.06Z" transform="translate(-5.95 -5.82)"/><path class="f" d="M26.37,62.42c1.06,0,1.68.52,1.68,1.45a1.47,1.47,0,0,1-1.68,1.54h-.84v1.2h-.94V62.42Zm-.84,2.2h.79c.53,0,.83-.24.83-.72s-.3-.7-.83-.7h-.79Z" transform="translate(-5.95 -5.82)"/><path class="f" d="M28.89,66.61V62.42h.95v4.19Z" transform="translate(-5.95 -5.82)"/><path class="f" d="M34,66.61l-2-2.69v2.69H31V62.42h.87l2,2.7v-2.7h.89v4.19Z" transform="translate(-5.95 -5.82)"/><path class="f" d="M36.93,63.2v.91h2v.79h-2v.93h2.31v.78H36V62.42h3.2v.78Z" transform="translate(-5.95 -5.82)"/><path class="f" d="M41.06,65.8l-.33.81h-1l1.82-4.19h1l1.79,4.19h-1L43,65.8Zm1-2.39L41.37,65h1.32Z" transform="translate(-5.95 -5.82)"/><path class="f" d="M46.8,62.42c1.07,0,1.68.52,1.68,1.45a1.47,1.47,0,0,1-1.68,1.54H46v1.2H45V62.42ZM46,64.62h.79c.52,0,.82-.24.82-.72s-.3-.7-.82-.7H46Z" transform="translate(-5.95 -5.82)"/><path class="f" d="M51.11,62.42c1.07,0,1.68.52,1.68,1.45a1.47,1.47,0,0,1-1.68,1.54h-.83v1.2h-1V62.42Zm-.83,2.2h.78c.53,0,.83-.24.83-.72s-.3-.7-.83-.7h-.78Z" transform="translate(-5.95 -5.82)"/><path class="f" d="M56.38,65.79v.82H53.64V62.42h1v3.37Z" transform="translate(-5.95 -5.82)"/><path class="f" d="M58.14,63.2v.91h2v.79h-2v.93h2.31v.78H57.19V62.42h3.2v.78Z" transform="translate(-5.95 -5.82)"/></svg>