<svg xmlns="http://www.w3.org/2000/svg" viewBox="0 0 72.87 72.87"><defs><style>.a{fill:#b58059;}.b{fill:none;stroke:#fff;stroke-miterlimit:10;stroke-width:2px;}.c{fill:#8b7ab7;}.d{fill:#66589f;}.e{fill:#fff;}.f{fill:#643e4c;}.g{fill:#449346;}</style></defs><title>plum</title><rect class="a" x="1" y="1" width="70.87" height="70.87" rx="14.17"/><rect class="b" x="1" y="1" width="70.87" height="70.87" rx="14.17"/><path class="c" d="M46.1,49.39c4.39-4.4,6.44-9.47,2.63-13.27S39,28.94,32.32,35.63,29,48.25,32.84,52.05,41.71,53.78,46.1,49.39Z" transform="translate(-5.95 -5.82)"/><path class="d" d="M49,37.17a.73.73,0,0,1-.53-.22,4.83,4.83,0,0,0-3.88-1.2.75.75,0,0,1-.11-1.5,6.29,6.29,0,0,1,5,1.64.75.75,0,0,1,0,1.06A.74.74,0,0,1,49,37.17Z" transform="translate(-5.95 -5.82)"/><path class="d" d="M33.14,53.1a.73.73,0,0,1-.53-.22c-3.06-3.05-1.74-9.34,2.94-14,.29-.29.59-.57.89-.84a.76.76,0,0,1,1.06.07.75.75,0,0,1-.07,1.06c-.28.25-.55.51-.82.77-4.09,4.1-5.41,9.44-2.94,11.91a.75.75,0,0,1,0,1.06A.74.74,0,0,1,33.14,53.1Z" transform="translate(-5.95 -5.82)"/><path class="d" d="M39.3,37.59a.75.75,0,0,1-.64-.36.75.75,0,0,1,.25-1,14.25,14.25,0,0,1,1.81-1,.75.75,0,0,1,1,.39.73.73,0,0,1-.38,1,14.23,14.23,0,0,0-1.63.86A.79.79,0,0,1,39.3,37.59Z" transform="translate(-5.95 -5.82)"/><path class="e" d="M38.65,51.36a.75.75,0,0,1-.27-1.46A13.81,13.81,0,0,0,41,48.59a14.58,14.58,0,0,0,2.82-2.32.75.75,0,0,1,1.06,0,.75.75,0,0,1,0,1.06,16,16,0,0,1-3.11,2.56,16.12,16.12,0,0,1-2.91,1.45A.85.85,0,0,1,38.65,51.36Z" transform="translate(-5.95 -5.82)"/><path class="f" d="M47.82,35.73a.75.75,0,0,1-.72-.54,10.88,10.88,0,0,1-.07-4.6,8.11,8.11,0,0,1,1.35-3,.75.75,0,0,1,1-.17.76.76,0,0,1,.17,1.05,6.61,6.61,0,0,0-1.1,2.45,9.32,9.32,0,0,0,0,3.85.76.76,0,0,1-.51.94Z" transform="translate(-5.95 -5.82)"/><path class="g" d="M47.75,34.68a.49.49,0,0,1-.13-.59,9.82,9.82,0,0,1,4.78-4.66c6-2.5,12.9,3.06,12.63,3.88-.14.43-2.18-.72-5,.21-3,1-2.93,2.9-5.34,3.42C52.77,37.35,50.8,37,47.75,34.68Z" transform="translate(-5.95 -5.82)"/><path class="f" d="M53.34,37.84c-1.89,0-3.74-.81-6.05-2.57A1.22,1.22,0,0,1,47,33.75a10.46,10.46,0,0,1,5.16-5c4.79-2,10.33.76,12.7,3,.81.77,1.1,1.33.93,1.85-.25.76-1.08.62-1.69.52a7.39,7.39,0,0,0-3.77.16A5.86,5.86,0,0,0,57.65,36a5.09,5.09,0,0,1-2.78,1.7A7.39,7.39,0,0,1,53.34,37.84ZM48.4,34.22c3,2.25,4.74,2.29,6.15,2a3.63,3.63,0,0,0,2-1.29,7.47,7.47,0,0,1,3.22-2.11,8.4,8.4,0,0,1,3.57-.35c-2-1.56-6.57-4-10.69-2.33A8.89,8.89,0,0,0,48.4,34.22Z" transform="translate(-5.95 -5.82)"/><path class="f" d="M47.6,35.2a.72.72,0,0,1-.57-.27.74.74,0,0,1,.09-1,15.63,15.63,0,0,1,7.34-2.56,21.2,21.2,0,0,1,9.43.77.76.76,0,1,1-.59,1.39,19.82,19.82,0,0,0-8.67-.67A14.57,14.57,0,0,0,48.08,35,.74.74,0,0,1,47.6,35.2Z" transform="translate(-5.95 -5.82)"/><path class="f" d="M37.41,54.78a7.07,7.07,0,0,1-5.1-2.2c-5.89-5.88-6.07-11.92-.52-17.48s11.59-5.39,17.47.49a7.11,7.11,0,0,1,2,7.12,16.69,16.69,0,0,1-4.59,7.21h0a16.6,16.6,0,0,1-7.2,4.6A7.94,7.94,0,0,1,37.41,54.78Zm2.74-22.2c-2.48,0-4.92,1.19-7.3,3.58-4.92,4.93-4.75,10.1.52,15.36a5.59,5.59,0,0,0,5.69,1.54,15.15,15.15,0,0,0,6.51-4.2h0a15.17,15.17,0,0,0,4.19-6.52,5.6,5.6,0,0,0-1.56-5.69Q44.14,32.58,40.15,32.58Z" transform="translate(-5.95 -5.82)"/><path class="e" d="M35.69,62.37c1.07,0,1.68.53,1.68,1.46a1.47,1.47,0,0,1-1.68,1.54h-.83v1.2h-1v-4.2Zm-.83,2.21h.78c.53,0,.83-.24.83-.72s-.3-.7-.83-.7h-.78Z" transform="translate(-5.95 -5.82)"/><path class="e" d="M41,65.75v.82H38.22v-4.2h1v3.38Z" transform="translate(-5.95 -5.82)"/><path class="e" d="M45.48,64.82a1.71,1.71,0,0,1-1.88,1.79,1.73,1.73,0,0,1-1.91-1.79V62.37h1v2.45a.91.91,0,0,0,1,1,.9.9,0,0,0,.94-1V62.37h.94Z" transform="translate(-5.95 -5.82)"/><path class="e" d="M50.28,66.57V63.74l-1.12,2.41h-.62l-1.11-2.41v2.83h-.86v-4.2h1.06l1.23,2.57,1.21-2.57h1.06v4.2Z" transform="translate(-5.95 -5.82)"/></svg>