<svg xmlns="http://www.w3.org/2000/svg" viewBox="0 0 72.87 72.87"><defs><style>.a{fill:#f6a025;}.b{fill:none;stroke:#fff;stroke-miterlimit:10;stroke-width:2px;}.c{fill:#bb4135;}.d{fill:#fff;}.e{fill:#ea5740;}.f{fill:#643e4c;}</style></defs><title>pomegranate</title><rect class="a" x="1" y="1" width="70.87" height="70.87" rx="14.17"/><rect class="b" x="1" y="1" width="70.87" height="70.87" rx="14.17"/><path class="c" d="M42.83,26.52a9.31,9.31,0,0,1,7,3.9l2.95,4.14a9.31,9.31,0,0,1,.89,9.29l-2.11,4.63A9.34,9.34,0,0,1,44,53.9l-5.06.48a9.36,9.36,0,0,1-8.5-3.87l-3-4.14a9.32,9.32,0,0,1-.89-9.3l2.11-4.63A9.32,9.32,0,0,1,36.29,27l1.76-.17V23l1,1.7,1.28-3.33,1.11,3.33L42.83,23v3.49Z" transform="translate(-5.95 -5.82)"/><path class="d" d="M53.7,43.45c-.48-.27-2-1-2.88-1.48C48,40.22,47.74,39.73,47,39.81c-1,.1-1,1.1-3.46,4.87-1.48,2.31-2.15,3-1.91,4,.17.79.69,1,1.41,2.59a16.08,16.08,0,0,1,.82,2.36L48.42,52l3.92-5.46Z" transform="translate(-5.95 -5.82)"/><path class="e" d="M29.74,38.56a.75.75,0,0,1-.46-1.34c.18-.14.34-.29.49-.42a.75.75,0,1,1,1,1.09q-.27.26-.6.51A.72.72,0,0,1,29.74,38.56Z" transform="translate(-5.95 -5.82)"/><path class="e" d="M31.86,35.82a.87.87,0,0,1-.28,0,.74.74,0,0,1-.42-1c.09-.24.15-.45.22-.64a3.94,3.94,0,0,1,.79-1.59,4.35,4.35,0,0,1,2.75-1.38.75.75,0,0,1,.23,1.48,2.91,2.91,0,0,0-1.84.88,2.57,2.57,0,0,0-.5,1.05c-.07.23-.15.48-.26.75A.75.75,0,0,1,31.86,35.82Z" transform="translate(-5.95 -5.82)"/><path class="e" d="M36.66,51.93a.75.75,0,0,1-.57-.25,6.83,6.83,0,0,1-.44-.57.75.75,0,0,1,.21-1,.74.74,0,0,1,1,.2,4.51,4.51,0,0,0,.32.42.74.74,0,0,1-.56,1.24Z" transform="translate(-5.95 -5.82)"/><path class="e" d="M35.52,49.49a.75.75,0,0,1-.74-.66,5.66,5.66,0,0,1,0-1.15,1.53,1.53,0,0,0-.06-.74c-.09-.18-.6-.78-3.11-.72h0a.75.75,0,0,1-.75-.73.76.76,0,0,1,.74-.77c2.45,0,3.91.45,4.47,1.54a2.68,2.68,0,0,1,.22,1.5,5.29,5.29,0,0,0,0,.88.75.75,0,0,1-.66.84Z" transform="translate(-5.95 -5.82)"/><path class="f" d="M43.78,54a.74.74,0,0,1-.72-.56,10.94,10.94,0,0,0-.67-1.84,9,9,0,0,0-.84-1.46,3.35,3.35,0,0,1-.62-1.27c-.27-1.16.25-2,1.29-3.5l.72-1.11c.86-1.34,1.42-2.32,1.83-3,.78-1.38,1.17-2.07,2.18-2.18.73-.08,1.16.22,2.1.86.48.33,1.16.79,2.17,1.42.84.51,1.54.92,2,1.19a.74.74,0,0,1,.29,1,.75.75,0,0,1-1,.29c-.49-.28-1.21-.7-2.07-1.23-1-.64-1.73-1.11-2.23-1.45-.8-.55-.93-.62-1.09-.61s-.38.28-1,1.43c-.41.73-1,1.74-1.86,3.11-.28.42-.52.8-.74,1.12-.93,1.41-1.2,1.83-1.08,2.35a2,2,0,0,0,.4.75,12.13,12.13,0,0,1,1,1.68,13.94,13.94,0,0,1,.75,2.08A.76.76,0,0,1,44,54,.69.69,0,0,1,43.78,54Z" transform="translate(-5.95 -5.82)"/><rect class="e" x="39.93" y="34.63" width="2.72" height="2.6" rx="0.8"/><path class="f" d="M47.8,43.55H46.68a1.3,1.3,0,0,1-1.3-1.29v-1a1.3,1.3,0,0,1,1.3-1.3H47.8a1.3,1.3,0,0,1,1.3,1.3v1A1.3,1.3,0,0,1,47.8,43.55ZM46.68,41a.3.3,0,0,0-.3.3v1a.29.29,0,0,0,.3.29H47.8a.29.29,0,0,0,.3-.29v-1a.3.3,0,0,0-.3-.3Z" transform="translate(-5.95 -5.82)"/><rect class="e" x="39.93" y="37.23" width="2.72" height="2.6" rx="0.8"/><path class="f" d="M47.8,46.15H46.68a1.3,1.3,0,0,1-1.3-1.3v-1a1.3,1.3,0,0,1,1.3-1.3H47.8a1.3,1.3,0,0,1,1.3,1.3v1A1.3,1.3,0,0,1,47.8,46.15Zm-1.12-2.6a.3.3,0,0,0-.3.3v1a.29.29,0,0,0,.3.3H47.8a.29.29,0,0,0,.3-.3v-1a.3.3,0,0,0-.3-.3Z" transform="translate(-5.95 -5.82)"/><rect class="e" x="39.93" y="39.83" width="2.72" height="2.6" rx="0.8"/><path class="f" d="M47.8,48.75H46.68a1.3,1.3,0,0,1-1.3-1.3v-1a1.3,1.3,0,0,1,1.3-1.3H47.8a1.3,1.3,0,0,1,1.3,1.3v1A1.3,1.3,0,0,1,47.8,48.75Zm-1.12-2.6a.3.3,0,0,0-.3.3v1a.29.29,0,0,0,.3.3H47.8a.29.29,0,0,0,.3-.3v-1a.3.3,0,0,0-.3-.3Z" transform="translate(-5.95 -5.82)"/><rect class="e" x="37.21" y="39.83" width="2.72" height="2.6" rx="0.8"/><path class="f" d="M45.08,48.75H44a1.3,1.3,0,0,1-1.3-1.3v-1a1.3,1.3,0,0,1,1.3-1.3h1.12a1.3,1.3,0,0,1,1.3,1.3v1A1.3,1.3,0,0,1,45.08,48.75ZM44,46.15a.3.3,0,0,0-.3.3v1a.29.29,0,0,0,.3.3h1.12a.29.29,0,0,0,.3-.3v-1a.3.3,0,0,0-.3-.3Z" transform="translate(-5.95 -5.82)"/><rect class="e" x="42.65" y="37.23" width="2.72" height="2.6" rx="0.8"/><path class="f" d="M50.52,46.15H49.4a1.3,1.3,0,0,1-1.3-1.3v-1a1.3,1.3,0,0,1,1.3-1.3h1.12a1.3,1.3,0,0,1,1.3,1.3v1A1.3,1.3,0,0,1,50.52,46.15Zm-1.12-2.6a.3.3,0,0,0-.3.3v1a.29.29,0,0,0,.3.3h1.12a.3.3,0,0,0,.3-.3v-1a.31.31,0,0,0-.3-.3Z" transform="translate(-5.95 -5.82)"/><rect class="e" x="42.65" y="39.83" width="2.72" height="2.6" rx="0.8"/><path class="f" d="M50.52,48.75H49.4a1.3,1.3,0,0,1-1.3-1.3v-1a1.3,1.3,0,0,1,1.3-1.3h1.12a1.3,1.3,0,0,1,1.3,1.3v1A1.3,1.3,0,0,1,50.52,48.75Zm-1.12-2.6a.3.3,0,0,0-.3.3v1a.29.29,0,0,0,.3.3h1.12a.3.3,0,0,0,.3-.3v-1a.31.31,0,0,0-.3-.3Z" transform="translate(-5.95 -5.82)"/><rect class="e" x="39.93" y="42.43" width="2.72" height="2.6" rx="0.8"/><path class="f" d="M47.8,51.35H46.68a1.3,1.3,0,0,1-1.3-1.3v-1a1.3,1.3,0,0,1,1.3-1.3H47.8a1.3,1.3,0,0,1,1.3,1.3v1A1.3,1.3,0,0,1,47.8,51.35Zm-1.12-2.6a.29.29,0,0,0-.3.3v1a.29.29,0,0,0,.3.3H47.8a.29.29,0,0,0,.3-.3v-1a.29.29,0,0,0-.3-.3Z" transform="translate(-5.95 -5.82)"/><path class="e" d="M58,49.53a11.83,11.83,0,0,1-1.36-2.42v-1a.79.79,0,0,1,.79-.8h1.13a.79.79,0,0,1,.79.8v1A11.85,11.85,0,0,1,58,49.53Z" transform="translate(-5.95 -5.82)"/><path class="d" d="M59,48.19a1,1,0,1,0-1,1.07A1,1,0,0,0,59,48.19Z" transform="translate(-5.95 -5.82)"/><rect class="e" x="46.39" y="45.93" width="2.72" height="2.6" rx="0.8"/><path class="f" d="M54.27,54.85H53.14a1.3,1.3,0,0,1-1.3-1.3v-1a1.3,1.3,0,0,1,1.3-1.3h1.13a1.3,1.3,0,0,1,1.29,1.3v1A1.3,1.3,0,0,1,54.27,54.85Zm-1.13-2.6a.3.3,0,0,0-.3.3v1a.3.3,0,0,0,.3.3h1.13a.29.29,0,0,0,.29-.3v-1a.29.29,0,0,0-.29-.3Z" transform="translate(-5.95 -5.82)"/><rect class="e" x="37.21" y="42.43" width="2.72" height="2.6" rx="0.8"/><path class="f" d="M45.08,51.35H44a1.3,1.3,0,0,1-1.3-1.3v-1a1.3,1.3,0,0,1,1.3-1.3h1.12a1.3,1.3,0,0,1,1.3,1.3v1A1.3,1.3,0,0,1,45.08,51.35ZM44,48.75a.29.29,0,0,0-.3.3v1a.29.29,0,0,0,.3.3h1.12a.29.29,0,0,0,.3-.3v-1a.29.29,0,0,0-.3-.3Z" transform="translate(-5.95 -5.82)"/><path class="e" d="M45.88,53.51V51.65a.8.8,0,0,1,.8-.8H47.8a.8.8,0,0,1,.8.8v.53Z" transform="translate(-5.95 -5.82)"/><path class="f" d="M45.88,54a.54.54,0,0,1-.27-.07.51.51,0,0,1-.23-.43V51.65a1.3,1.3,0,0,1,1.3-1.3H47.8a1.3,1.3,0,0,1,1.3,1.3v.53a.5.5,0,0,1-.28.45L46.1,54A.44.44,0,0,1,45.88,54Zm.8-2.66a.29.29,0,0,0-.3.3v1.06l1.72-.84v-.22a.29.29,0,0,0-.3-.3Z" transform="translate(-5.95 -5.82)"/><path class="f" d="M38,55.18a10.12,10.12,0,0,1-8.22-4.24L26.86,46.8a10.13,10.13,0,0,1-1-10L28,32.13a10.1,10.1,0,0,1,8.21-5.85l1.08-.1V23a.75.75,0,0,1,.54-.72.76.76,0,0,1,.85.34l.23.38.73-1.9a.77.77,0,0,1,.72-.48.74.74,0,0,1,.69.51l.68,2,.51-.63a.75.75,0,0,1,1.33.47v2.81A10,10,0,0,1,50.46,30l2.95,4.14a10.11,10.11,0,0,1,1,10l-2.11,4.63a10.1,10.1,0,0,1-8.22,5.85L39,55.13C38.67,55.16,38.35,55.18,38,55.18Zm.77-29.75v1.43a.75.75,0,0,1-.68.74l-1.75.17a8.6,8.6,0,0,0-7,5l-2.11,4.62a8.63,8.63,0,0,0,.82,8.55l3,4.14a8.63,8.63,0,0,0,7.82,3.57l5.06-.49a8.61,8.61,0,0,0,7-5L53,43.54A8.6,8.6,0,0,0,52.19,35l-2.95-4.14a8.57,8.57,0,0,0-6.45-3.59.75.75,0,0,1-.71-.79h0V25.15l0,.05a.74.74,0,0,1-.72.27.76.76,0,0,1-.58-.5l-.45-1.35L39.77,25a.77.77,0,0,1-.64.48A.72.72,0,0,1,38.8,25.43Z" transform="translate(-5.95 -5.82)"/><path class="f" d="M58,50a.51.51,0,0,1-.42-.22,7.41,7.41,0,0,1-1.44-2.7v-1a1.3,1.3,0,0,1,1.29-1.3h1.13a1.3,1.3,0,0,1,1.29,1.3v1a7.41,7.41,0,0,1-1.44,2.7A.5.5,0,0,1,58,50Zm-.57-4.22a.29.29,0,0,0-.29.3v1A8.9,8.9,0,0,0,58,48.63a9.06,9.06,0,0,0,.86-1.55v-1a.29.29,0,0,0-.29-.3Z" transform="translate(-5.95 -5.82)"/><path class="d" d="M19.36,62.37c1.07,0,1.68.53,1.68,1.46a1.47,1.47,0,0,1-1.68,1.54h-.83v1.2h-1v-4.2Zm-.83,2.21h.78c.53,0,.83-.24.83-.72s-.3-.7-.83-.7h-.78Z" transform="translate(-5.95 -5.82)"/><path class="d" d="M26.1,64.47a2.26,2.26,0,1,1-2.26-2.13A2.16,2.16,0,0,1,26.1,64.47Zm-3.54,0a1.31,1.31,0,0,0,1.29,1.32,1.31,1.31,0,1,0-1.29-1.32Z" transform="translate(-5.95 -5.82)"/><path class="d" d="M30.67,66.57V63.74l-1.12,2.41h-.61l-1.12-2.41v2.83H27v-4.2H28l1.23,2.57,1.21-2.57h1.06v4.2Z" transform="translate(-5.95 -5.82)"/><path class="d" d="M33.64,63.16v.91h2v.79h-2v.93H36v.78H32.69v-4.2h3.2v.79Z" transform="translate(-5.95 -5.82)"/><path class="d" d="M40.58,64.46v1.61a3.12,3.12,0,0,1-1.7.54,2.14,2.14,0,1,1,0-4.27,2.62,2.62,0,0,1,1.69.62l-.54.67a1.78,1.78,0,0,0-1.15-.46,1.31,1.31,0,1,0,0,2.62,1.89,1.89,0,0,0,.82-.23v-1.1Z" transform="translate(-5.95 -5.82)"/><path class="d" d="M43.56,65.37h-1v1.2h-1v-4.2h1.82c1.1,0,1.72.53,1.72,1.46a1.39,1.39,0,0,1-.78,1.36l.89,1.38H44.23Zm-.09-.79c.53,0,.83-.24.83-.72s-.3-.7-.83-.7H42.6v1.42Z" transform="translate(-5.95 -5.82)"/><path class="d" d="M47.06,65.76l-.33.81h-1l1.83-4.2h1l1.79,4.2h-1L49,65.76Zm1-2.4L47.37,65H48.7Z" transform="translate(-5.95 -5.82)"/><path class="d" d="M54,66.57l-2-2.69v2.69H51v-4.2h.86l2,2.7v-2.7h.9v4.2Z" transform="translate(-5.95 -5.82)"/><path class="d" d="M56.82,65.76l-.33.81h-1l1.82-4.2h1l1.79,4.2h-1l-.33-.81Zm1-2.4L57.14,65h1.32Z" transform="translate(-5.95 -5.82)"/><path class="d" d="M62.16,63.18v3.39h-.94V63.18H59.94v-.81h3.51v.81Z" transform="translate(-5.95 -5.82)"/><path class="d" d="M65.15,63.16v.91h2v.79h-2v.93h2.31v.78H64.2v-4.2h3.2v.79Z" transform="translate(-5.95 -5.82)"/></svg>