<svg xmlns="http://www.w3.org/2000/svg" viewBox="0 0 72.87 72.87"><defs><style>.a{fill:#8fc037;}.b{fill:none;stroke:#fff;stroke-miterlimit:10;stroke-width:2px;}.c{fill:#b58059;}.d{fill:#643e4c;}.e{fill:#fff;}</style></defs><title>potato</title><rect class="a" x="1" y="1" width="70.87" height="70.87" rx="14.17"/><rect class="b" x="1" y="1" width="70.87" height="70.87" rx="14.17"/><path class="c" d="M37.91,49.72a8.57,8.57,0,0,1-2.84.53c-5.2,0-9-5.81-7.08-13.2,1.62-6.24,1.7-11.19,7.08-13.19,4.88-1.8,11.75,5.91,11.75,13.19a13,13,0,0,1-1.57,6.1Z" transform="translate(-5.95 -5.82)"/><path class="d" d="M35.07,51a7.68,7.68,0,0,1-6.14-3.12c-2.15-2.79-2.76-6.8-1.67-11,.28-1.07.51-2.11.73-3.09C29.06,29,30,25,34.81,23.16c1.83-.68,4-.24,6.13,1.24a16.58,16.58,0,0,1,6.63,12.65,13.58,13.58,0,0,1-1.66,6.45.76.76,0,0,1-1,.31.75.75,0,0,1-.3-1,12.12,12.12,0,0,0,1.48-5.74,14.94,14.94,0,0,0-6-11.42c-1.71-1.19-3.4-1.56-4.75-1.06-4.07,1.5-4.82,4.87-5.87,9.54-.23,1-.47,2-.75,3.13-1,3.76-.46,7.3,1.41,9.72a6.31,6.31,0,0,0,7.54,2,.75.75,0,1,1,.5,1.41A9.2,9.2,0,0,1,35.07,51Z" transform="translate(-5.95 -5.82)"/><path class="d" d="M30.52,30.64l-.41,0a.74.74,0,0,1-.69-.8.75.75,0,0,1,.8-.69c.18,0,.38,0,.61,0a4,4,0,0,0,1.07-.24.75.75,0,1,1,.52,1.41,5.66,5.66,0,0,1-1.48.32Z" transform="translate(-5.95 -5.82)"/><path class="d" d="M41.31,34.12A4.94,4.94,0,0,1,40.17,34a.76.76,0,0,1-.55-.91.75.75,0,0,1,.91-.55,3.1,3.1,0,0,0,1.32,0,2.89,2.89,0,0,0,.86-.28.75.75,0,0,1,.66,1.35,4.39,4.39,0,0,1-1.27.41A4.15,4.15,0,0,1,41.31,34.12Z" transform="translate(-5.95 -5.82)"/><path class="d" d="M36.47,40.05a4.12,4.12,0,0,1-.86-.1,3.8,3.8,0,0,1-1.27-.6.75.75,0,0,1,.89-1.21,2,2,0,0,0,.74.35,2.12,2.12,0,0,0,.9,0,.75.75,0,0,1,.87.6.73.73,0,0,1-.59.87A3.08,3.08,0,0,1,36.47,40.05Z" transform="translate(-5.95 -5.82)"/><path class="d" d="M29,45.49a3.25,3.25,0,0,1-.44,0A.75.75,0,0,1,28.74,44a1.64,1.64,0,0,0,.54,0,1.48,1.48,0,0,0,.81-.5.75.75,0,0,1,1.06-.08.74.74,0,0,1,.08,1.05,3.05,3.05,0,0,1-1.62,1A2.81,2.81,0,0,1,29,45.49Z" transform="translate(-5.95 -5.82)"/><path class="d" d="M40.43,27.74a2.47,2.47,0,0,1-1.1-.26A.75.75,0,1,1,40,26.14a.92.92,0,0,0,1.13-.23.75.75,0,1,1,1.13,1,2.49,2.49,0,0,1-1.44.81A2.56,2.56,0,0,1,40.43,27.74Z" transform="translate(-5.95 -5.82)"/><path class="d" d="M45,42.05a2.45,2.45,0,0,1-.71-.12,2.35,2.35,0,0,1-1-.72.75.75,0,0,1,1.18-.93.73.73,0,0,0,.32.23.7.7,0,0,0,.44,0,.75.75,0,0,1,1,.46.76.76,0,0,1-.47,1A2.37,2.37,0,0,1,45,42.05Z" transform="translate(-5.95 -5.82)"/><path class="c" d="M57.56,50.83c0-4.38-4.42-7.93-9.87-7.93s-9.88,3.55-9.88,7.93S42.23,55,47.69,55,57.56,55.21,57.56,50.83Z" transform="translate(-5.95 -5.82)"/><path class="d" d="M46.18,55.74c-3.43,0-6.36-.1-8-1.69a4.39,4.39,0,0,1-1.17-3.22c0-4.78,4.77-8.68,10.63-8.68s10.62,3.9,10.62,8.68a4.35,4.35,0,0,1-1.17,3.22c-1.7,1.7-4.94,1.7-8.68,1.69H46.18Zm1.51-1.5h.77c3.42,0,6.36,0,7.62-1.25a2.91,2.91,0,0,0,.73-2.16c0-4-4.09-7.18-9.12-7.18s-9.13,3.22-9.13,7.18A2.91,2.91,0,0,0,39.29,53c1.26,1.26,4.21,1.26,7.62,1.25Z" transform="translate(-5.95 -5.82)"/><path class="d" d="M54.56,48.82h-.22a3.55,3.55,0,0,1-1.27-.32.75.75,0,0,1-.37-1,.74.74,0,0,1,1-.37,2.15,2.15,0,0,0,2-.15.76.76,0,0,1,1,.25.75.75,0,0,1-.25,1A3.69,3.69,0,0,1,54.56,48.82Z" transform="translate(-5.95 -5.82)"/><path class="d" d="M39.2,52.88a4.78,4.78,0,0,1-.84-.08.75.75,0,1,1,.3-1.47,2.6,2.6,0,0,0,1.7-.22A.75.75,0,1,1,41,52.45a4.4,4.4,0,0,1-1,.35A4.58,4.58,0,0,1,39.2,52.88Z" transform="translate(-5.95 -5.82)"/><path class="d" d="M49.22,53.3l-.36,0a2.32,2.32,0,0,1-1.16-.55.75.75,0,1,1,1-1.13.83.83,0,0,0,.41.2,1,1,0,0,0,.77-.27.74.74,0,0,1,1.06,0,.75.75,0,0,1,0,1.06A2.59,2.59,0,0,1,49.22,53.3Z" transform="translate(-5.95 -5.82)"/><path class="e" d="M45.16,46.47A.75.75,0,0,1,44.94,45a8.76,8.76,0,0,1,4.61-.17.74.74,0,0,1,.56.9.75.75,0,0,1-.9.56,7.32,7.32,0,0,0-3.82.14A.62.62,0,0,1,45.16,46.47Z" transform="translate(-5.95 -5.82)"/><path class="e" d="M42.41,48a.76.76,0,0,1-.57-.26.75.75,0,0,1,.09-1.06c.17-.15.38-.31.62-.49a.74.74,0,0,1,1,.18.73.73,0,0,1-.17,1l-.52.41A.74.74,0,0,1,42.41,48Z" transform="translate(-5.95 -5.82)"/><path class="e" d="M30.57,41.62a.75.75,0,0,1-.73-.57,6.54,6.54,0,0,1-.16-1,.75.75,0,0,1,.68-.81.77.77,0,0,1,.82.68,4.31,4.31,0,0,0,.12.75.75.75,0,0,1-.55.9A.55.55,0,0,1,30.57,41.62Z" transform="translate(-5.95 -5.82)"/><path class="e" d="M30.85,38.37a.71.71,0,0,1-.32-.07.74.74,0,0,1-.36-1l.12-.27A8.1,8.1,0,0,0,30.73,36,6.76,6.76,0,0,0,31,34a.74.74,0,0,1,.74-.76.72.72,0,0,1,.76.74,8.22,8.22,0,0,1-.35,2.48,8,8,0,0,1-.52,1.28l-.11.24A.75.75,0,0,1,30.85,38.37Z" transform="translate(-5.95 -5.82)"/><path class="e" d="M31.9,62.37c1.07,0,1.68.53,1.68,1.46a1.47,1.47,0,0,1-1.68,1.54h-.83v1.2h-.95v-4.2Zm-.83,2.21h.78c.53,0,.83-.24.83-.72s-.3-.7-.83-.7h-.78Z" transform="translate(-5.95 -5.82)"/><path class="e" d="M38.64,64.47a2.26,2.26,0,1,1-2.26-2.13A2.16,2.16,0,0,1,38.64,64.47Zm-3.54,0a1.31,1.31,0,0,0,1.3,1.32,1.31,1.31,0,1,0-1.3-1.32Z" transform="translate(-5.95 -5.82)"/><path class="e" d="M41.2,63.18v3.39h-1V63.18H39v-.81h3.51v.81Z" transform="translate(-5.95 -5.82)"/><path class="e" d="M43.62,65.76l-.33.81h-1l1.83-4.2h1l1.8,4.2h-1l-.33-.81Zm1-2.4L43.93,65h1.33Z" transform="translate(-5.95 -5.82)"/><path class="e" d="M49,63.18v3.39H48V63.18H46.74v-.81h3.5v.81Z" transform="translate(-5.95 -5.82)"/><path class="e" d="M55,64.47a2.26,2.26,0,1,1-2.26-2.13A2.16,2.16,0,0,1,55,64.47Zm-3.54,0a1.31,1.31,0,0,0,1.29,1.32,1.31,1.31,0,1,0-1.29-1.32Z" transform="translate(-5.95 -5.82)"/></svg>