<?xml version="1.0" encoding="utf-8"?>
<!-- Generator: Adobe Illustrator 23.0.2, SVG Export Plug-In . SVG Version: 6.00 Build 0)  -->
<svg version="1.1" id="Layer_1" xmlns="http://www.w3.org/2000/svg" xmlns:xlink="http://www.w3.org/1999/xlink" x="0px" y="0px"
	 viewBox="0 0 72.9 72.9" style="enable-background:new 0 0 72.9 72.9;" xml:space="preserve">
<style type="text/css">
	.st0{fill:#EA573F;}
	.st1{fill:none;stroke:#FFFFFF;stroke-width:2;stroke-miterlimit:10;}
	.st2{fill:#8B7AB7;}
	.st3{fill:#66589F;}
	.st4{fill:#FFFFFF;}
	.st5{fill:#643E4C;}
	.st6{fill:#449346;}
</style>
<title>plum</title>
<path class="st0" d="M15.2,1h42.5c7.8,0,14.2,6.3,14.2,14.2v42.5c0,7.8-6.3,14.2-14.2,14.2H15.2C7.3,71.9,1,65.5,1,57.7V15.2
	C1,7.3,7.3,1,15.2,1z"/>
<path class="st1" d="M15.2,1h42.5c7.8,0,14.2,6.3,14.2,14.2v42.5c0,7.8-6.3,14.2-14.2,14.2H15.2C7.3,71.9,1,65.5,1,57.7V15.2
	C1,7.3,7.3,1,15.2,1z"/>
<path class="st2" d="M40.1,43.6c4.4-4.4,6.4-9.5,2.6-13.3s-9.7-7.2-16.4-0.5S23,42.4,26.9,46.2S35.8,48,40.1,43.6z"/>
<path class="st3" d="M43,31.4c-0.2,0-0.4-0.1-0.5-0.2c-1.1-1-2.5-1.4-3.9-1.2c-0.4,0-0.8-0.3-0.8-0.7s0.3-0.8,0.7-0.8
	c1.8-0.2,3.7,0.4,5,1.6c0.3,0.3,0.3,0.8,0,1.1C43.4,31.3,43.2,31.3,43,31.4z"/>
<path class="st3" d="M27.2,47.3c-0.2,0-0.4-0.1-0.5-0.2c-3.1-3-1.7-9.3,2.9-14c0.3-0.3,0.6-0.6,0.9-0.8c0.3-0.3,0.8-0.2,1.1,0.1
	c0.3,0.3,0.2,0.8-0.1,1.1c0,0,0,0,0,0c-0.3,0.2-0.5,0.5-0.8,0.8c-4.1,4.1-5.4,9.4-2.9,11.9c0.3,0.3,0.3,0.8,0,1.1
	C27.6,47.2,27.4,47.3,27.2,47.3z"/>
<path class="st3" d="M33.3,31.8c-0.3,0-0.5-0.1-0.6-0.4c-0.2-0.3-0.1-0.8,0.2-1c0.6-0.4,1.2-0.7,1.8-1c0.4-0.2,0.8,0,1,0.4
	c0,0,0,0,0,0c0.2,0.4,0,0.8-0.3,1c0,0,0,0,0,0c-0.6,0.3-1.1,0.5-1.6,0.9C33.6,31.7,33.5,31.8,33.3,31.8z"/>
<path class="st4" d="M32.7,45.5c-0.4,0-0.8-0.3-0.8-0.7c0-0.3,0.2-0.6,0.5-0.7c0.9-0.3,1.8-0.8,2.6-1.3c1-0.7,2-1.4,2.8-2.3
	c0.3-0.3,0.8-0.3,1.1,0c0.3,0.3,0.3,0.8,0,1.1c-0.9,1-2,1.8-3.1,2.6c-0.9,0.6-1.9,1.1-2.9,1.5C32.8,45.5,32.8,45.5,32.7,45.5z"/>
<path class="st5" d="M41.9,29.9c-0.3,0-0.6-0.2-0.7-0.5c-0.4-1.5-0.4-3.1-0.1-4.6c0.2-1.1,0.7-2.1,1.3-3c0.2-0.3,0.7-0.4,1-0.2
	c0.3,0.2,0.4,0.7,0.2,1c-0.5,0.7-0.9,1.6-1.1,2.5c-0.3,1.3-0.3,2.6,0,3.8c0.1,0.4-0.1,0.8-0.5,0.9L41.9,29.9z"/>
<path class="st6" d="M41.8,28.9c-0.2-0.1-0.2-0.4-0.1-0.6c1-2.1,2.7-3.7,4.8-4.7c6-2.5,12.9,3.1,12.6,3.9c-0.1,0.4-2.2-0.7-5,0.2
	c-3,1-2.9,2.9-5.3,3.4C46.8,31.5,44.8,31.2,41.8,28.9z"/>
<path class="st5" d="M47.4,32c-1.9,0-3.7-0.8-6-2.6c-0.4-0.4-0.6-1-0.3-1.5c1.1-2.2,2.9-4,5.2-5c4.8-2,10.3,0.8,12.7,3
	c0.8,0.8,1.1,1.3,0.9,1.8c-0.2,0.8-1.1,0.6-1.7,0.5c-1.2-0.3-2.5-0.2-3.8,0.2c-1,0.3-2,0.9-2.7,1.7C51,31,50,31.6,48.9,31.9
	C48.4,32,47.9,32,47.4,32z M42.5,28.4c3,2.2,4.7,2.3,6.2,2c0.8-0.2,1.5-0.6,2-1.3c0.9-1,2-1.7,3.2-2.1c1.2-0.4,2.4-0.5,3.6-0.3
	c-2-1.6-6.6-4-10.7-2.3C44.9,25.2,43.4,26.6,42.5,28.4z"/>
<path class="st5" d="M41.6,29.4c-0.2,0-0.4-0.1-0.6-0.3c-0.2-0.3-0.2-0.7,0.1-1c2.2-1.5,4.7-2.3,7.3-2.6c3.2-0.5,6.4-0.2,9.4,0.8
	c0.4,0.1,0.6,0.5,0.5,0.9c-0.1,0.4-0.5,0.6-0.9,0.5c-0.1,0-0.1,0-0.2-0.1c-2.8-0.9-5.8-1.1-8.7-0.7c-2.3,0.2-4.6,0.9-6.5,2.1
	C42,29.3,41.8,29.4,41.6,29.4z"/>
<path class="st5" d="M31.5,49c-1.9,0-3.8-0.8-5.1-2.2c-5.9-5.9-6.1-11.9-0.5-17.5s11.6-5.4,17.5,0.5c1.9,1.8,2.7,4.6,2,7.1
	c-0.9,2.8-2.5,5.2-4.6,7.2l0,0c-2,2.1-4.4,3.7-7.2,4.6C32.8,48.9,32.2,49,31.5,49z M34.2,26.8c-2.5,0-4.9,1.2-7.3,3.6
	c-4.9,4.9-4.8,10.1,0.5,15.4c1.4,1.6,3.7,2.1,5.7,1.5c2.5-0.8,4.7-2.3,6.5-4.2l0,0c1.9-1.8,3.4-4,4.2-6.5c0.6-2,0-4.2-1.6-5.7
	C39.5,28.1,36.9,26.8,34.2,26.8z"/>
<g>
	<path class="st4" d="M26.2,56.4h1.4c1.3,0,2,0.5,2,1.4c0,0.9-0.6,1.4-1.7,1.4h-0.5v1.5h-1.2V56.4z M27.4,58.4h0.3
		c0.4,0,0.7-0.1,0.7-0.6c0-0.4-0.3-0.6-0.7-0.6h-0.3V58.4z"/>
	<path class="st4" d="M30,56.4h2.1c0.8,0,1.4,0.4,1.4,1.1c0,0.6-0.3,1-0.8,1.1v0c0.4,0.1,0.4,0.4,0.6,1l0.4,1.2h-1.2L32.3,60
		c-0.2-0.8-0.4-0.9-0.8-0.9h-0.2v1.7H30V56.4z M31.2,58.2h0.3c0.4,0,0.9,0,0.9-0.5c0-0.4-0.4-0.5-0.9-0.5h-0.3V58.2z"/>
	<path class="st4" d="M38,59.1c0,1.2-0.8,1.7-1.9,1.7c-1.1,0-1.9-0.5-1.9-1.7v-2.7h1.2v2.5c0,0.6,0.2,1.1,0.8,1.1
		c0.6,0,0.8-0.5,0.8-1.1v-2.5H38V59.1z"/>
	<path class="st4" d="M38.8,56.4h1.5l1.5,3h0l0-3h1.1v4.4h-1.4l-1.5-3h0l0,3h-1.1V56.4z"/>
	<path class="st4" d="M43.6,56.4h3.1v0.8h-1.9v0.9h1.8V59h-1.8v1h2v0.8h-3.1V56.4z"/>
</g>
</svg>
