<svg xmlns="http://www.w3.org/2000/svg" viewBox="0 0 72.87 72.87"><defs><style>.a{fill:#bfb9ce;}.b{fill:none;stroke:#fff;stroke-miterlimit:10;stroke-width:2px;}.c{fill:#f6a025;}.d{fill:#643e4c;}.e{fill:#8fc037;}.f{fill:#fff;}</style></defs><title>pumpkin</title><rect class="a" x="1" y="1" width="70.87" height="70.87" rx="14.17"/><rect class="b" x="1" y="1" width="70.87" height="70.87" rx="14.17"/><path class="c" d="M51.73,36.17c-.15,0,0,0-.15,0l0,.35a4.53,4.53,0,0,0-4.41-3.06,5.2,5.2,0,0,0-1.23.14h0a4.42,4.42,0,0,0-5.77,0h0a5.35,5.35,0,0,0-1.24-.14,4.53,4.53,0,0,0-4.41,3.06v-.35c-.14,0,0,0-.15,0-3.65,0-4.82,3.77-4.82,8.42S30.69,53,34.34,53a3.38,3.38,0,0,0,.8-.09,4.34,4.34,0,0,0,3.77,1.89,5.13,5.13,0,0,0,1.22-.13v0c.06.05.1.12.16.17a4.45,4.45,0,0,0,5.64-.16v0a5.19,5.19,0,0,0,1.22.13,4.33,4.33,0,0,0,3.77-1.89,3.4,3.4,0,0,0,.81.09c3.64,0,4.82-3.77,4.82-8.42S55.37,36.17,51.73,36.17Z" transform="translate(-6.03 -5.86)"/><path class="d" d="M43,56.5a4.84,4.84,0,0,1-3.23-1.11h0C37.36,53.31,37,48.76,37,44.15c0-6.42.73-12.35,6-12.35s6,5.93,6,12.35S48.31,56.5,43,56.5Zm-2.26-2.25A3.39,3.39,0,0,0,43,55c3.2,0,4.51-3.14,4.51-10.85S46.23,33.3,43,33.3s-4.5,3.14-4.5,10.85c0,4.05.26,8.41,2.24,10.1Z" transform="translate(-6.03 -5.86)"/><path class="d" d="M38.91,55.56c-5.62,0-6.27-6.51-6.27-11.41s.65-11.42,6.27-11.42a6.36,6.36,0,0,1,1.42.16.76.76,0,0,1,.55.91.76.76,0,0,1-.91.55,4.41,4.41,0,0,0-1.06-.12c-3.3,0-4.77,3.06-4.77,9.92s1.47,9.91,4.77,9.91A4.34,4.34,0,0,0,40,54a.75.75,0,0,1,.35,1.46A6.2,6.2,0,0,1,38.91,55.56Z" transform="translate(-6.03 -5.86)"/><path class="d" d="M34.33,53.75c-2.54,0-5.56-1.59-5.56-9.16s3-9.17,5.56-9.17a.88.88,0,0,1,.78.48.76.76,0,0,0-.56-.46.77.77,0,0,1,.67.83.73.73,0,0,1-.8.67l-.1,0c-2.7,0-4.05,2.61-4.05,7.67s1.36,7.66,4.06,7.66a2.76,2.76,0,0,0,.67-.07.76.76,0,0,1,.3,1.48A5.43,5.43,0,0,1,34.33,53.75Z" transform="translate(-6.03 -5.86)"/><path class="d" d="M47.15,55.56a6.17,6.17,0,0,1-1.39-.15.75.75,0,0,1-.56-.9.74.74,0,0,1,.9-.56,4.39,4.39,0,0,0,1,.11c3.3,0,4.77-3.05,4.77-9.91s-1.47-9.92-4.77-9.92a4.41,4.41,0,0,0-1.06.12.75.75,0,0,1-.35-1.46,6.34,6.34,0,0,1,1.41-.16c5.62,0,6.27,6.52,6.27,11.42S52.77,55.56,47.15,55.56Z" transform="translate(-6.03 -5.86)"/><path class="d" d="M51.73,53.75a5.22,5.22,0,0,1-1-.09.76.76,0,0,1,.3-1.48,2.67,2.67,0,0,0,.66.07c2.7,0,4.07-2.57,4.07-7.66s-1.36-7.65-4-7.67l-.12,0a.75.75,0,0,1-.13-1.5h0a.76.76,0,0,1,.21,0c2.54,0,5.57,1.59,5.57,9.17S54.27,53.75,51.73,53.75Z" transform="translate(-6.03 -5.86)"/><path class="d" d="M30.08,36.37a2.58,2.58,0,0,1-.89-.16,3.57,3.57,0,0,1-2.07-4.12c.23-1.05,1.12-2.59,2.6-2.59h.07a2.43,2.43,0,0,1,2.31,2.11,2.39,2.39,0,0,1-1.44,2.33.75.75,0,0,1-1-.38.74.74,0,0,1,.37-1,.88.88,0,0,0,.56-.84.92.92,0,0,0-.86-.73c-.5,0-1,.83-1.16,1.42a2.13,2.13,0,0,0,1.1,2.38c1.08.37,2.26-.94,2.27-.95a2.42,2.42,0,0,0,.55-1.45A7.36,7.36,0,0,1,33,30.54c.61-1.42,2.33-3.87,4.9-4A5.68,5.68,0,0,1,42,28a6,6,0,0,1,1.78,4.52.75.75,0,0,1-1.5,0A4.5,4.5,0,0,0,41,29.12,4.26,4.26,0,0,0,38,28c-1.84.12-3.17,2.1-3.61,3.13A5.93,5.93,0,0,0,34,32.62a3.85,3.85,0,0,1-.91,2.21A4.53,4.53,0,0,1,30.08,36.37Z" transform="translate(-6.03 -5.86)"/><path class="e" d="M44,30.84a5.62,5.62,0,0,1-.64-1.5,5.22,5.22,0,0,1-.15-1.65,5.57,5.57,0,0,1,1.31-2.88,6.12,6.12,0,0,1,1.53-1.26l.41,1.75a7.18,7.18,0,0,1,1.8-1.41,5.83,5.83,0,0,1,2-.33l.16,1.58a4,4,0,0,1,1.36-.87,2.45,2.45,0,0,1,1.7.1A2.45,2.45,0,0,1,53.06,26a4.15,4.15,0,0,1-1.25,1l1.46.64a5.82,5.82,0,0,1-.92,1.79,7.3,7.3,0,0,1-1.89,1.28l1.53.93a6,6,0,0,1-1.66,1.07,5.61,5.61,0,0,1-3.14.37,4.9,4.9,0,0,1-1.52-.65,5.52,5.52,0,0,1-1.24-1.06Z" transform="translate(-6.03 -5.86)"/><path class="d" d="M48.13,34a5.51,5.51,0,0,1-1.1-.12,5.74,5.74,0,0,1-1.76-.74,6.54,6.54,0,0,1-1.41-1.21l-.46-.63,0-.05a6.21,6.21,0,0,1-.72-1.7,5.52,5.52,0,0,1-.17-1.91,5.76,5.76,0,0,1,1.31-3.06l.13-.18a6.45,6.45,0,0,1,1.76-1.48.76.76,0,0,1,1.11.48l.12.51a10,10,0,0,1,1-.66,6.1,6.1,0,0,1,2.35-.42h0a.75.75,0,0,1,.74.67l0,.3a4.46,4.46,0,0,1,.5-.22,3.13,3.13,0,0,1,2.22.11.75.75,0,0,1,.48.66,3.11,3.11,0,0,1-.57,2.14,5,5,0,0,1-.36.41l.27.12a.74.74,0,0,1,.41.92A6,6,0,0,1,52.86,30a9.27,9.27,0,0,1-.93.75l.45.27a.74.74,0,0,1,.36.57.79.79,0,0,1-.24.63,6.67,6.67,0,0,1-1.94,1.22l-.22.08A6.64,6.64,0,0,1,48.13,34Zm-3.5-3.56L45,31a5.31,5.31,0,0,0,1,.87,4,4,0,0,0,1.29.54,4.44,4.44,0,0,0,2.49-.26l.26-.09a2.2,2.2,0,0,0,.55-.28l-.59-.36a.74.74,0,0,1-.36-.69.75.75,0,0,1,.45-.64,6.64,6.64,0,0,0,1.68-1.14,3.21,3.21,0,0,0,.48-.84l-.81-.35a.77.77,0,0,1-.45-.67.74.74,0,0,1,.41-.69,3.38,3.38,0,0,0,1-.82,1.36,1.36,0,0,0,.24-.63A1.34,1.34,0,0,0,52,25a3.3,3.3,0,0,0-1.09.7.73.73,0,0,1-.78.18.76.76,0,0,1-.5-.63l-.09-.88a3.2,3.2,0,0,0-.94.2A6.77,6.77,0,0,0,47,25.79a.75.75,0,0,1-1.3-.32l-.16-.67a2.19,2.19,0,0,0-.43.44l-.16.22a4.41,4.41,0,0,0-1,2.29,4.21,4.21,0,0,0,.13,1.4A5.09,5.09,0,0,0,44.63,30.42Z" transform="translate(-6.03 -5.86)"/><path class="d" d="M44.44,31.53a.74.74,0,0,1-.48-.18.75.75,0,0,1-.09-1.06,5.59,5.59,0,0,1,6.05-1.7.75.75,0,0,1,.47.95.74.74,0,0,1-1,.47A4.1,4.1,0,0,0,45,31.26.72.72,0,0,1,44.44,31.53Z" transform="translate(-6.03 -5.86)"/><path class="d" d="M47,29.94a.75.75,0,0,1-.67-.41.76.76,0,0,1,.34-1A3.66,3.66,0,0,0,47.85,27a3.53,3.53,0,0,0,.28-1,.75.75,0,1,1,1.49.15,5.14,5.14,0,0,1-.41,1.5,5,5,0,0,1-1.88,2.18A.68.68,0,0,1,47,29.94Z" transform="translate(-6.03 -5.86)"/><path class="f" d="M41.06,52.22a.48.48,0,0,1-.45-.29,6,6,0,0,1-.34-.91.51.51,0,0,1,.34-.62.5.5,0,0,1,.62.34,5.19,5.19,0,0,0,.29.77.52.52,0,0,1-.25.67A.49.49,0,0,1,41.06,52.22Z" transform="translate(-6.03 -5.86)"/><path class="f" d="M40.26,48.3a.5.5,0,0,1-.5-.46c-.08-1-.11-2.22-.11-3.69,0-4.63.26-9.56,3.38-9.56a.5.5,0,0,1,.5.5.5.5,0,0,1-.5.5c-2.1,0-2.38,4.33-2.38,8.56,0,1.44,0,2.62.11,3.61a.5.5,0,0,1-.46.54Z" transform="translate(-6.03 -5.86)"/><path class="f" d="M30,62.15c1.07,0,1.68.52,1.68,1.45A1.47,1.47,0,0,1,30,65.14h-.83v1.2h-.95V62.15Zm-.83,2.2h.78c.53,0,.83-.24.83-.72s-.3-.7-.83-.7h-.78Z" transform="translate(-6.03 -5.86)"/><path class="f" d="M36.19,64.59a1.72,1.72,0,0,1-1.89,1.8,1.72,1.72,0,0,1-1.9-1.8V62.15h.94v2.44a.91.91,0,0,0,1,1,.89.89,0,0,0,.94-1V62.15h.95Z" transform="translate(-6.03 -5.86)"/><path class="f" d="M41,66.34V63.51l-1.11,2.41h-.62l-1.12-2.41v2.83h-.85V62.15h1.06l1.22,2.56,1.22-2.56h1v4.19Z" transform="translate(-6.03 -5.86)"/><path class="f" d="M44.79,62.15c1.06,0,1.68.52,1.68,1.45a1.47,1.47,0,0,1-1.68,1.54H44v1.2H43V62.15ZM44,64.35h.79c.53,0,.83-.24.83-.72s-.3-.7-.83-.7H44Z" transform="translate(-6.03 -5.86)"/><path class="f" d="M48.87,64.63l-.61.68v1h-.95V62.15h.95v1.9L50,62.15H51.1L49.53,63.9l1.68,2.44H50.07Z" transform="translate(-6.03 -5.86)"/><path class="f" d="M52,66.34V62.15h.94v4.19Z" transform="translate(-6.03 -5.86)"/><path class="f" d="M57,66.34l-2-2.69v2.69h-.91V62.15H55l2,2.69V62.15h.9v4.19Z" transform="translate(-6.03 -5.86)"/></svg>