<svg xmlns="http://www.w3.org/2000/svg" viewBox="0 0 72.87 72.87"><defs><style>.a{fill:#8ab179;}.b{fill:none;stroke:#fff;stroke-miterlimit:10;stroke-width:2px;}.c{fill:#643e4c;}.d{fill:#8fc037;}.e{fill:#8b7ab7;}.f{fill:#fff;}</style></defs><title>raisin</title><rect class="a" x="1" y="1" width="70.87" height="70.87" rx="14.17"/><rect class="b" x="1" y="1" width="70.87" height="70.87" rx="14.17"/><path class="c" d="M24.47,43a.75.75,0,0,1-.19-1.48c4.16-1.11,8.13-3.34,9.41-4.77a17.58,17.58,0,0,0,3.47-7c.87-2.77,1.7-5.39,4.35-7.33a11.33,11.33,0,0,1,6.13-2,.74.74,0,0,1,.79.69v0a.75.75,0,0,1-.7.79,9.85,9.85,0,0,0-5.34,1.77c-2.25,1.64-3,3.92-3.8,6.56a19.19,19.19,0,0,1-3.78,7.51c-1.46,1.62-5.65,4-10.15,5.22A.62.62,0,0,1,24.47,43Z" transform="translate(0 0)"/><rect class="d" x="47.95" y="19.31" width="4.81" height="2.49" transform="translate(-1.71 4.81) rotate(-5.38)"/><path class="c" d="M48.05,22.78a.78.78,0,0,1-.48-.17.77.77,0,0,1-.26-.51l-.26-2.48a.74.74,0,0,1,.66-.81h0l4.79-.45a.74.74,0,0,1,.82.67l.23,2.48a.74.74,0,0,1-.66.81h0l-4.8.45Zm.59-2.55.09,1,3.3-.31-.09-1Z" transform="translate(0 0)"/><path class="e" d="M40.72,20.18a1.89,1.89,0,1,0-2.22,1.5,1.88,1.88,0,0,0,2.22-1.5Z" transform="translate(0 0)"/><path class="c" d="M38.87,22.44a2.94,2.94,0,0,1-.51-.05,2.64,2.64,0,1,1,3.09-2.09h0A2.63,2.63,0,0,1,38.87,22.44Zm0-3.78a1.14,1.14,0,0,0-.22,2.26,1.13,1.13,0,0,0,.86-.17A1.15,1.15,0,0,0,40,20h0a1.13,1.13,0,0,0-.91-1.33h0Z" transform="translate(0 0)"/><path class="e" d="M46.39,27a1.89,1.89,0,1,0-2.22,1.5A1.88,1.88,0,0,0,46.39,27Z" transform="translate(0 0)"/><path class="c" d="M44.54,29.29a2.18,2.18,0,0,1-.51,0,2.6,2.6,0,0,1-1.68-1.11,2.64,2.64,0,1,1,4.37-3,2.61,2.61,0,0,1,.41,2h0a2.64,2.64,0,0,1-2.59,2.14Zm0-3.78a1.15,1.15,0,0,0-1.2,1.08,1.17,1.17,0,0,0,.2.7,1.15,1.15,0,0,0,.73.48,1.12,1.12,0,0,0,.85-.17,1.06,1.06,0,0,0,.48-.73h0a1.14,1.14,0,0,0-.9-1.34h0Z" transform="translate(0 0)"/><circle class="e" cx="33.14" cy="25.15" r="3.33"/><path class="c" d="M33.16,29.23a4.22,4.22,0,0,1-.79-.07,4.18,4.18,0,1,1,4.84-3.61,2.53,2.53,0,0,1-.07.38h0a4,4,0,0,1-4,3.3Zm0-6.66a2.58,2.58,0,1,0,2.51,3.12h0a2.58,2.58,0,0,0-2-3,2.4,2.4,0,0,0-.53-.12Z" transform="translate(0 0)"/><path class="f" d="M32.05,25.43H32a.48.48,0,0,1-.39-.57v0a1.67,1.67,0,0,1,1.95-1.33h.05a.5.5,0,0,1,.39.59h0a.5.5,0,0,1-.58.39.71.71,0,0,0-.51.11.64.64,0,0,0-.28.42A.5.5,0,0,1,32.05,25.43Z" transform="translate(0 0)"/><path class="e" d="M45.43,35.69a3.33,3.33,0,1,0-3.91,2.63A3.34,3.34,0,0,0,45.43,35.69Z" transform="translate(0 0)"/><path class="c" d="M42.17,39.18a4.15,4.15,0,0,1-.79-.08,4.08,4.08,0,1,1,4.78-3.23h0a4.08,4.08,0,0,1-4,3.31Zm0-6.67a2.57,2.57,0,0,0-1.44.44,2.68,2.68,0,0,0-1.09,1.65,2.58,2.58,0,1,0,5.07,1h0a2.61,2.61,0,0,0-.39-1.94,2.57,2.57,0,0,0-1.65-1.09,3,3,0,0,0-.52-.1Z" transform="translate(0 0)"/><path class="f" d="M41.05,35.33H41a.48.48,0,0,1-.4-.55v0a1.64,1.64,0,0,1,.7-1.07,1.7,1.7,0,0,1,1.26-.26.5.5,0,0,1,.39.59h0a.49.49,0,0,1-.57.39h0a.71.71,0,0,0-.51.11.64.64,0,0,0-.28.43A.5.5,0,0,1,41.05,35.33Z" transform="translate(0 0)"/><path class="e" d="M33.16,34a2.9,2.9,0,1,0-3.41,2.3A2.9,2.9,0,0,0,33.16,34Z" transform="translate(0 0)"/><path class="c" d="M30.31,37.05a3.26,3.26,0,0,1-.7-.07,3.6,3.6,0,0,1-2.33-1.54,3.65,3.65,0,0,1,5.94-4.25l.11.17a3.59,3.59,0,0,1,.56,2.74h0A3.64,3.64,0,0,1,30.31,37.05Zm0-5.8a2.15,2.15,0,1,0,2.11,2.56h0a2.16,2.16,0,0,0-1.7-2.52A1.84,1.84,0,0,0,30.31,31.25Z" transform="translate(0 0)"/><path class="f" d="M29.58,33.76h-.1a.49.49,0,0,1-.43-.56v0a1.25,1.25,0,0,1,.52-.79,1.23,1.23,0,0,1,.93-.19.5.5,0,0,1,.4.58.49.49,0,0,1-.56.41h0a.25.25,0,0,0-.28.19A.51.51,0,0,1,29.58,33.76Z" transform="translate(0 0)"/><path class="e" d="M39.38,43.28A2.9,2.9,0,1,0,36,45.57h0A2.9,2.9,0,0,0,39.38,43.28Z" transform="translate(0 0)"/><path class="c" d="M36.54,46.38a4.17,4.17,0,0,1-.71-.07A3.64,3.64,0,0,1,33,42.05v0a3.66,3.66,0,0,1,7.17,1.43h0a3.67,3.67,0,0,1-3.58,3Zm0-5.81a2.13,2.13,0,0,0-1.2.37A2.18,2.18,0,1,0,37,40.65h0a2.7,2.7,0,0,0-.41-.08Z" transform="translate(0 0)"/><path class="f" d="M35.8,43.08h-.09a.48.48,0,0,1-.4-.56v0a1.24,1.24,0,0,1,1.44-1h0a.49.49,0,0,1,.39.57h0a.5.5,0,0,1-.58.4.26.26,0,0,0-.29.19A.49.49,0,0,1,35.8,43.08Z" transform="translate(0 0)"/><path class="e" d="M27.05,37.71a1.64,1.64,0,1,0,0,.13Z" transform="translate(0 0)"/><path class="c" d="M25.41,39.78a2.4,2.4,0,0,1-.46-.05,2.32,2.32,0,0,1-1.51-1,2.35,2.35,0,0,1,2.4-3.66,2.36,2.36,0,0,1,1.51,1,2.29,2.29,0,0,1,.36,1.78,2.39,2.39,0,0,1-2.32,1.92Zm0-3.25a.86.86,0,0,0-.49.15.88.88,0,0,0-.21,1.23.9.9,0,0,0,.54.35.87.87,0,0,0,1-.69h0a.89.89,0,0,0-.69-1Z" transform="translate(0 0)"/><path class="e" d="M24.36,42.76a1.81,1.81,0,1,0-2.13,1.42h0A1.81,1.81,0,0,0,24.36,42.76Z" transform="translate(0 0)"/><path class="c" d="M22.58,45a4,4,0,0,1-.49,0,2.58,2.58,0,0,1-2-3,2.5,2.5,0,0,1,1.08-1.64A2.56,2.56,0,0,1,25.12,43h0A2.58,2.58,0,0,1,22.58,45Zm0-3.63a1,1,0,0,0-.59.18,1,1,0,0,0-.45.68,1.07,1.07,0,0,0,.83,1.25h0a1.08,1.08,0,0,0,1.25-.84h0a1.08,1.08,0,0,0-.84-1.25Z" transform="translate(0 0)"/><path class="e" d="M31.21,45.61a1.81,1.81,0,1,0-2.16,1.44,1.81,1.81,0,0,0,2.16-1.44Z" transform="translate(0 0)"/><path class="c" d="M29.44,47.83a4.17,4.17,0,0,1-.5,0,2.55,2.55,0,0,1-1.63-1.08,2.47,2.47,0,0,1-.39-1.92,2.51,2.51,0,0,1,1.13-1.65,2.56,2.56,0,1,1,1.44,4.69Zm0-3.63a1.08,1.08,0,0,0-1.06,1.08,1.17,1.17,0,0,0,.18.58,1.07,1.07,0,0,0,.68.45,1.09,1.09,0,0,0,.81-.13,1.07,1.07,0,0,0-.4-1.93Z" transform="translate(0 0)"/><path class="c" d="M37.05,21H37l-.83-.06a.75.75,0,0,1-.69-.81h0a.74.74,0,0,1,.79-.69h0l.84.07a.73.73,0,0,1,.68.78v0A.74.74,0,0,1,37.05,21Z" transform="translate(0 0)"/><path class="c" d="M28.76,26.87a.75.75,0,0,1-.16-1.48l1.14-.21a.74.74,0,0,1,.72.78.73.73,0,0,1-.41.64l-1.13.25A.44.44,0,0,1,28.76,26.87Z" transform="translate(0 0)"/><path class="c" d="M27.41,34h0l-.81-.06a.76.76,0,0,1-.7-.8.77.77,0,0,1,.81-.7l.81.06a.75.75,0,0,1-.06,1.5Z" transform="translate(0 0)"/><path class="c" d="M23.81,38.46h-.76a.75.75,0,0,1,0-1.5h.77a.76.76,0,0,1,.73.77A.75.75,0,0,1,23.81,38.46Z" transform="translate(0 0)"/><path class="c" d="M20.29,44a.77.77,0,0,1-.73-.57.75.75,0,0,1,.55-.91h0l.6-.15a.75.75,0,1,1,.51,1.41l-.17,0-.6.15A.45.45,0,0,1,20.29,44Z" transform="translate(0 0)"/><path class="c" d="M29.4,48.55h-.07a.76.76,0,0,1-.68-.81l.07-.68a.74.74,0,0,1,.79-.68h0a.77.77,0,0,1,.68.82l-.06.68A.77.77,0,0,1,29.4,48.55Z" transform="translate(0 0)"/><path class="c" d="M36.8,47.45a.75.75,0,0,1-.75-.69L36,45.68a.75.75,0,0,1,1.5-.12l.08,1.08a.73.73,0,0,1-.66.8H36.8Z" transform="translate(0 0)"/><path class="c" d="M43.2,40.18a.75.75,0,0,1-.73-.6l-.22-1.1a.74.74,0,0,1,.57-.88h0a.77.77,0,0,1,.89.58l.22,1.1a.74.74,0,0,1-.59.88Z" transform="translate(0 0)"/><path class="c" d="M45.39,30.1a.74.74,0,0,1-.71-.52l-.29-.91a.75.75,0,0,1,1.44-.44l.28.9a.76.76,0,0,1-.49.94A.91.91,0,0,1,45.39,30.1Z" transform="translate(0 0)"/><path class="c" d="M42.14,23.11a.7.7,0,0,1-.46-.16l-1.77-1.41a.75.75,0,0,1-.11-1.05.73.73,0,0,1,1-.12l1.76,1.41a.75.75,0,0,1-.47,1.33Z" transform="translate(0 0)"/><path class="c" d="M43.5,25.82a.75.75,0,0,1-.7-.48l-.94-2.44a.75.75,0,1,1,1.4-.54l.94,2.44a.76.76,0,0,1-.39,1h0A.62.62,0,0,1,43.5,25.82Z" transform="translate(0 0)"/><path class="c" d="M38.29,28.11h-.1l-2.14-.28a.75.75,0,1,1,0-1.5l.15,0,2.12.27a.75.75,0,0,1,.65.84h0A.73.73,0,0,1,38.29,28.11Z" transform="translate(0 0)"/><path class="c" d="M39.49,33.6a.69.69,0,0,1-.45-.16l-1.57-1.18a.76.76,0,0,1-.15-1,.75.75,0,0,1,1-.14l1.57,1.18a.75.75,0,0,1,.15,1A.78.78,0,0,1,39.49,33.6Z" transform="translate(0 0)"/><path class="c" d="M34.89,36.69a.57.57,0,0,1-.26,0l-2-.75a.75.75,0,1,1,.44-1.43l.09,0,2,.75a.74.74,0,0,1,.44,1v0A.73.73,0,0,1,34.89,36.69Z" transform="translate(0 0)"/><path class="c" d="M34.42,40.91a.74.74,0,0,1-.68-.45L33,38.7a.75.75,0,0,1,1.37-.59l.76,1.75a.73.73,0,0,1-.35,1l0,0A.61.61,0,0,1,34.42,40.91Z" transform="translate(0 0)"/><path class="c" d="M28.2,41.1a.74.74,0,0,1-.51-.2l-1.45-1.37a.75.75,0,0,1-.22-1,.76.76,0,0,1,1-.22.73.73,0,0,1,.18.17l1.45,1.36a.75.75,0,0,1-.51,1.3Z" transform="translate(0 0)"/><path class="c" d="M30.26,43.76h-.15a.74.74,0,0,1-.58-.87v0l.52-2.69a.76.76,0,0,1,.89-.59.74.74,0,0,1,.58.87v0L31,43.18A.75.75,0,0,1,30.26,43.76Z" transform="translate(0 0)"/><path class="f" d="M25.87,56.43h2.07c.78,0,1.41.35,1.41,1.1a1,1,0,0,1-.84,1.11h0c.38.1.4.43.62,1l.43,1.19H28.34L28.09,60c-.23-.75-.38-.94-.82-.94H27V60.8H25.87ZM27,58.25h.31c.37,0,.85,0,.85-.51s-.41-.48-.85-.48H27Z" transform="translate(0 0)"/><path class="f" d="M31.37,56.43H32.8l1.68,4.37H33.2l-.32-.93H31.24l-.35.93H29.71Zm.71.9h0L31.51,59H32.6Z" transform="translate(0 0)"/><path class="f" d="M35,56.43h1.16V60.8H35Z" transform="translate(0 0)"/><path class="f" d="M37,59.72a2.47,2.47,0,0,0,1.2.29c.37,0,.72-.07.72-.42,0-.82-2.06-.3-2.06-1.89,0-1.05,1-1.34,1.9-1.34a3.64,3.64,0,0,1,1.12.16l-.07.9a2.31,2.31,0,0,0-1-.2c-.29,0-.78,0-.78.41,0,.71,2.06.23,2.06,1.81,0,1.13-.95,1.44-1.92,1.44a4.81,4.81,0,0,1-1.3-.19Z" transform="translate(0 0)"/><path class="f" d="M40.89,56.43h1.17V60.8H40.89Z" transform="translate(0 0)"/><path class="f" d="M42.94,56.43h1.48l1.48,3h0l0-3H47V60.8H45.51l-1.52-3h0l0,3H42.94Z" transform="translate(0 0)"/></svg>