<svg xmlns="http://www.w3.org/2000/svg" viewBox="0 0 72.87 72.87"><defs><style>.a{fill:#f6a025;}.b{fill:none;stroke:#fff;stroke-miterlimit:10;stroke-width:2px;}.c{fill:#653f4d;}.d{fill:#90c03a;}.e{fill:#bb4135;}.f{fill:#fff;}</style></defs><title>redcurrant</title><rect class="a" x="1" y="1" width="70.87" height="70.87" rx="14.17"/><rect class="b" x="1" y="1" width="70.87" height="70.87" rx="14.17"/><path class="c" d="M30.43,49.79a.75.75,0,0,1-.19-1.48c4.16-1.11,8.13-3.34,9.41-4.77a17.39,17.39,0,0,0,3.47-7c.87-2.77,1.7-5.39,4.35-7.33a11.41,11.41,0,0,1,6.13-2,.74.74,0,0,1,.79.69v0a.75.75,0,0,1-.7.79,9.93,9.93,0,0,0-5.34,1.77c-2.25,1.64-3,3.92-3.8,6.56a18.92,18.92,0,0,1-3.78,7.51c-1.46,1.62-5.65,4-10.15,5.22A.58.58,0,0,1,30.43,49.79Z" transform="translate(-5.95 -5.82)"/><rect class="d" x="53.91" y="26.15" width="4.81" height="2.49" transform="translate(-8.27 -0.42) rotate(-5.38)"/><path class="c" d="M54,29.61a.78.78,0,0,1-.48-.17.81.81,0,0,1-.26-.51L53,26.45a.74.74,0,0,1,.67-.81h0l4.79-.45a.76.76,0,0,1,.55.16.74.74,0,0,1,.27.51l.23,2.48a.73.73,0,0,1-.66.81h0l-4.8.45Zm.59-2.55.09,1,3.3-.31-.09-1Z" transform="translate(-5.95 -5.82)"/><path class="e" d="M46.68,27a1.89,1.89,0,1,0-2.22,1.5A1.89,1.89,0,0,0,46.68,27Z" transform="translate(-5.95 -5.82)"/><path class="c" d="M44.83,29.27a2.94,2.94,0,0,1-.51-.05,2.64,2.64,0,1,1,3.09-2.09h0A2.62,2.62,0,0,1,44.83,29.27Zm0-3.78a1.14,1.14,0,1,0,.64,2.09,1.11,1.11,0,0,0,.48-.73h0a1.13,1.13,0,0,0-.9-1.33h0Z" transform="translate(-5.95 -5.82)"/><path class="e" d="M52.35,33.84a1.89,1.89,0,1,0-2.22,1.5,1.89,1.89,0,0,0,2.22-1.5Z" transform="translate(-5.95 -5.82)"/><path class="c" d="M50.5,36.12a2.17,2.17,0,0,1-.51,0A2.63,2.63,0,0,1,48.31,35a2.64,2.64,0,1,1,4.37-3,2.61,2.61,0,0,1,.41,2h0a2.64,2.64,0,0,1-2.59,2.14Zm0-3.78a1.15,1.15,0,0,0-1,1.78,1.17,1.17,0,0,0,.73.48,1.1,1.1,0,0,0,.85-.17,1.06,1.06,0,0,0,.48-.73h0a1.13,1.13,0,0,0-.89-1.34h0Z" transform="translate(-5.95 -5.82)"/><circle class="e" cx="33.16" cy="26.17" r="3.33"/><path class="c" d="M39.12,36.06a4.22,4.22,0,0,1-.79-.07,4.18,4.18,0,1,1,4.85-3.61,2.33,2.33,0,0,1-.08.38h0a4,4,0,0,1-4,3.3Zm0-6.66a2.58,2.58,0,1,0,2.51,3.12h0a2.56,2.56,0,0,0-2-3,2.4,2.4,0,0,0-.53-.12Z" transform="translate(-5.95 -5.82)"/><path class="f" d="M38,32.26h-.1a.49.49,0,0,1-.39-.57v0a1.69,1.69,0,0,1,2-1.33h0a.5.5,0,0,1,.39.59h0a.49.49,0,0,1-.58.39.68.68,0,0,0-.79.53A.49.49,0,0,1,38,32.26Z" transform="translate(-5.95 -5.82)"/><path class="e" d="M51.39,42.52a3.33,3.33,0,1,0-3.91,2.63A3.32,3.32,0,0,0,51.39,42.52Z" transform="translate(-5.95 -5.82)"/><path class="c" d="M48.13,46a4.23,4.23,0,0,1-.79-.08,4.08,4.08,0,1,1,4.17-6.27,4,4,0,0,1,.61,3h0a4.06,4.06,0,0,1-4,3.31Zm0-6.67a2.65,2.65,0,0,0-1.44.44,2.68,2.68,0,0,0-1.09,1.65,2.58,2.58,0,1,0,5.07,1h0a2.61,2.61,0,0,0-.39-1.94,2.55,2.55,0,0,0-1.65-1.09,3,3,0,0,0-.52-.1Z" transform="translate(-5.95 -5.82)"/><path class="f" d="M47,42.16h-.1a.48.48,0,0,1-.39-.55v0a1.67,1.67,0,0,1,.7-1.07,1.71,1.71,0,0,1,1.26-.26.5.5,0,0,1,.39.59h0a.48.48,0,0,1-.57.39h0a.72.72,0,0,0-.51.11.66.66,0,0,0-.28.43A.49.49,0,0,1,47,42.16Z" transform="translate(-5.95 -5.82)"/><path class="e" d="M39.12,40.78a2.9,2.9,0,1,0-3.41,2.3A2.89,2.89,0,0,0,39.12,40.78Z" transform="translate(-5.95 -5.82)"/><path class="c" d="M36.27,43.88a3.33,3.33,0,0,1-.7-.07,3.6,3.6,0,0,1-2.33-1.54A3.65,3.65,0,0,1,39.18,38a1.63,1.63,0,0,1,.11.17,3.55,3.55,0,0,1,.56,2.74h0A3.64,3.64,0,0,1,36.27,43.88Zm0-5.8a2.15,2.15,0,1,0,2.11,2.56h0a2.16,2.16,0,0,0-1.7-2.52A1.84,1.84,0,0,0,36.27,38.08Z" transform="translate(-5.95 -5.82)"/><path class="f" d="M35.54,40.59h-.1A.5.5,0,0,1,35,40v0a1.29,1.29,0,0,1,.52-.79,1.28,1.28,0,0,1,.93-.19.5.5,0,0,1,.4.58.49.49,0,0,1-.56.41h0a.26.26,0,0,0-.28.19A.51.51,0,0,1,35.54,40.59Z" transform="translate(-5.95 -5.82)"/><path class="e" d="M45.34,50.11a2.9,2.9,0,1,0-3.4,2.29h0A2.89,2.89,0,0,0,45.34,50.11Z" transform="translate(-5.95 -5.82)"/><path class="c" d="M42.5,53.21a4.38,4.38,0,0,1-.71-.07,3.64,3.64,0,0,1-2.88-4.26v0a3.66,3.66,0,0,1,7.17,1.43h0a3.67,3.67,0,0,1-3.58,3Zm0-5.81A2.15,2.15,0,1,0,44.6,50a2.15,2.15,0,0,0-1.69-2.53h0l-.41-.08Z" transform="translate(-5.95 -5.82)"/><path class="f" d="M41.76,49.91h-.09a.49.49,0,0,1-.4-.56v0a1.24,1.24,0,0,1,1.44-1h0a.49.49,0,0,1,.4.57h0a.5.5,0,0,1-.58.4.26.26,0,0,0-.29.19A.49.49,0,0,1,41.76,49.91Z" transform="translate(-5.95 -5.82)"/><path class="e" d="M33,44.54A1.62,1.62,0,0,0,29.82,44a1.62,1.62,0,0,0,3.17.69A.59.59,0,0,0,33,44.54Z" transform="translate(-5.95 -5.82)"/><path class="c" d="M31.37,46.61a2.49,2.49,0,0,1-.46,0,2.31,2.31,0,0,1-1.51-1,2.35,2.35,0,0,1,2.4-3.66,2.33,2.33,0,0,1,1.51,1,2.21,2.21,0,0,1,.36,1.78,2.37,2.37,0,0,1-2.32,1.92Zm0-3.25a.87.87,0,0,0-.16,1.73.87.87,0,0,0,1-.69h0a.89.89,0,0,0-.69-1Z" transform="translate(-5.95 -5.82)"/><path class="e" d="M30.32,49.59A1.81,1.81,0,1,0,28.19,51h0A1.8,1.8,0,0,0,30.32,49.59Z" transform="translate(-5.95 -5.82)"/><path class="c" d="M28.54,51.81a2,2,0,0,1-.49,0,2.57,2.57,0,1,1,2.64-4,2.54,2.54,0,0,1,.39,1.93h0A2.56,2.56,0,0,1,28.54,51.81Zm0-3.63a1,1,0,0,0-.59.18,1,1,0,0,0-.45.68,1.07,1.07,0,0,0,.83,1.25h0a1.07,1.07,0,0,0,1.25-.84h0a1.07,1.07,0,0,0-.84-1.25Z" transform="translate(-5.95 -5.82)"/><path class="e" d="M37.17,52.44a1.8,1.8,0,0,0-1.45-2.11,1.81,1.81,0,1,0,1.44,2.16Z" transform="translate(-5.95 -5.82)"/><path class="c" d="M35.4,54.66a2.09,2.09,0,0,1-.5,0,2.5,2.5,0,0,1-1.63-1.08,2.47,2.47,0,0,1-.39-1.92,2.61,2.61,0,0,1,4.69-1A2.54,2.54,0,0,1,38,52.62a2.57,2.57,0,0,1-2.51,2.08Zm0-3.63a1.06,1.06,0,0,0-.2,2.11A1,1,0,0,0,36,53a1.07,1.07,0,0,0,.28-1.49,1.09,1.09,0,0,0-.68-.44Z" transform="translate(-5.95 -5.82)"/><path class="c" d="M43,27.78H43l-.83-.06a.75.75,0,0,1-.69-.8h0a.74.74,0,0,1,.79-.69h0l.84.07a.74.74,0,0,1,.69.78v0A.74.74,0,0,1,43,27.78Z" transform="translate(-5.95 -5.82)"/><path class="c" d="M34.72,33.7a.75.75,0,0,1-.16-1.48L35.7,32a.76.76,0,0,1,.73.78.74.74,0,0,1-.42.64l-1.13.25A.41.41,0,0,1,34.72,33.7Z" transform="translate(-5.95 -5.82)"/><path class="c" d="M33.37,40.8h0l-.81-.06a.75.75,0,0,1,.11-1.5l.81.06a.75.75,0,0,1,.72.78.74.74,0,0,1-.78.72Z" transform="translate(-5.95 -5.82)"/><path class="c" d="M29.77,45.29H29a.75.75,0,1,1,0-1.5h.77a.76.76,0,0,1,.73.77A.73.73,0,0,1,29.77,45.29Z" transform="translate(-5.95 -5.82)"/><path class="c" d="M26.25,50.79a.75.75,0,0,1-.18-1.48h0l.6-.15a.76.76,0,0,1,1,.45.75.75,0,0,1-.45,1l-.18,0-.6.15A.41.41,0,0,1,26.25,50.79Z" transform="translate(-5.95 -5.82)"/><path class="c" d="M35.36,55.38h-.07a.76.76,0,0,1-.68-.81l.07-.68a.75.75,0,0,1,.8-.68h0a.75.75,0,0,1,.68.82l-.06.68A.77.77,0,0,1,35.36,55.38Z" transform="translate(-5.95 -5.82)"/><path class="c" d="M42.76,54.28a.76.76,0,0,1-.75-.69l-.09-1.08a.75.75,0,0,1,1.5-.12l.08,1.08a.73.73,0,0,1-.65.8h-.09Z" transform="translate(-5.95 -5.82)"/><path class="c" d="M49.16,47a.75.75,0,0,1-.73-.6l-.22-1.1a.75.75,0,0,1,.57-.88h0a.77.77,0,0,1,.89.58l.22,1.1a.74.74,0,0,1-.59.88Z" transform="translate(-5.95 -5.82)"/><path class="c" d="M51.35,36.93a.75.75,0,0,1-.71-.52l-.29-.91a.76.76,0,0,1,.5-.94.75.75,0,0,1,.94.5l.28.9a.74.74,0,0,1-.49.94A.85.85,0,0,1,51.35,36.93Z" transform="translate(-5.95 -5.82)"/><path class="c" d="M48.1,29.94a.72.72,0,0,1-.46-.16l-1.77-1.41a.77.77,0,0,1-.11-1.05.74.74,0,0,1,1-.12l1.76,1.41a.76.76,0,0,1,.11,1.06.75.75,0,0,1-.58.27Z" transform="translate(-5.95 -5.82)"/><path class="c" d="M49.46,32.65a.76.76,0,0,1-.7-.48l-.94-2.44a.75.75,0,0,1,.43-1,.75.75,0,0,1,1,.43l.94,2.44a.75.75,0,0,1-.39,1h0A.61.61,0,0,1,49.46,32.65Z" transform="translate(-5.95 -5.82)"/><path class="c" d="M44.25,34.94h-.1L42,34.66a.75.75,0,1,1,0-1.5l.15,0,2.12.27a.74.74,0,0,1,.65.84h0A.73.73,0,0,1,44.25,34.94Z" transform="translate(-5.95 -5.82)"/><path class="c" d="M45.45,40.43a.69.69,0,0,1-.45-.16l-1.57-1.18a.77.77,0,0,1-.15-1,.75.75,0,0,1,1-.14l1.57,1.18a.74.74,0,0,1,.15,1A.78.78,0,0,1,45.45,40.43Z" transform="translate(-5.95 -5.82)"/><path class="c" d="M40.85,43.52a.57.57,0,0,1-.26,0l-2-.75A.75.75,0,0,1,39,41.34l.09,0,2,.75a.75.75,0,0,1,.45,1l0,0A.72.72,0,0,1,40.85,43.52Z" transform="translate(-5.95 -5.82)"/><path class="c" d="M40.38,47.74a.75.75,0,0,1-.68-.45l-.76-1.76a.76.76,0,0,1,.5-.94.74.74,0,0,1,.87.35l.76,1.75a.74.74,0,0,1-.35,1h0A.6.6,0,0,1,40.38,47.74Z" transform="translate(-5.95 -5.82)"/><path class="c" d="M34.16,47.93a.74.74,0,0,1-.51-.2L32.2,46.36A.75.75,0,1,1,33,45.1a1,1,0,0,1,.18.17l1.45,1.36a.74.74,0,0,1,0,1.06.76.76,0,0,1-.55.24Z" transform="translate(-5.95 -5.82)"/><path class="c" d="M36.22,50.59h-.15a.74.74,0,0,1-.58-.87v0L36,47a.76.76,0,0,1,.89-.59.74.74,0,0,1,.59.87v0L37,50A.73.73,0,0,1,36.22,50.59Z" transform="translate(-5.95 -5.82)"/><path class="f" d="M21.36,62.25h2.08c.77,0,1.41.35,1.41,1.1a1,1,0,0,1-.84,1.1h0c.37.11.4.44.62,1l.42,1.19H23.84l-.25-.79c-.24-.75-.39-.94-.82-.94h-.25v1.73H21.36Zm1.16,1.81h.31c.38,0,.85,0,.85-.5s-.4-.48-.85-.48h-.31Z" transform="translate(-5.95 -5.82)"/><path class="f" d="M25.53,62.25h3.08v.83H26.69V64H28.5v.82H26.69v1h2v.83H25.53Z" transform="translate(-5.95 -5.82)"/><path class="f" d="M29.38,62.25H31c1.52,0,2.58.48,2.58,2.16S32.46,66.62,31,66.62H29.38Zm1.16,3.5H31a1.32,1.32,0,1,0,0-2.64h-.45Z" transform="translate(-5.95 -5.82)"/><path class="f" d="M37.88,66.52a4.9,4.9,0,0,1-1.29.17,2.25,2.25,0,0,1-2.51-2.24,2.21,2.21,0,0,1,2.5-2.27,4.72,4.72,0,0,1,1.3.22l-.1,1A2.25,2.25,0,0,0,36.64,63a1.33,1.33,0,0,0-1.36,1.41,1.34,1.34,0,0,0,1.46,1.38,3,3,0,0,0,1.09-.23Z" transform="translate(-5.95 -5.82)"/><path class="f" d="M42.18,65c0,1.19-.78,1.73-1.92,1.73s-1.91-.54-1.91-1.73V62.25h1.16v2.52c0,.57.16,1.06.75,1.06s.75-.49.75-1.06V62.25h1.17Z" transform="translate(-5.95 -5.82)"/><path class="f" d="M42.89,62.25H45c.78,0,1.41.35,1.41,1.1a1,1,0,0,1-.84,1.1h0c.37.11.4.44.62,1l.42,1.19H45.37l-.25-.79c-.24-.75-.39-.94-.82-.94h-.24v1.73H42.89Zm1.17,1.81h.3c.38,0,.85,0,.85-.5s-.4-.48-.85-.48h-.3Z" transform="translate(-5.95 -5.82)"/><path class="f" d="M47.06,62.25h2.08c.77,0,1.41.35,1.41,1.1a1,1,0,0,1-.84,1.1h0c.37.11.4.44.62,1l.42,1.19H49.54l-.25-.79c-.24-.75-.39-.94-.82-.94h-.25v1.73H47.06Zm1.16,1.81h.31c.38,0,.85,0,.85-.5s-.4-.48-.85-.48h-.31Z" transform="translate(-5.95 -5.82)"/><path class="f" d="M52.56,62.25H54l1.68,4.37H54.39l-.32-.94H52.43l-.34.94H50.9Zm.71.9h0l-.56,1.71h1.09Z" transform="translate(-5.95 -5.82)"/><path class="f" d="M56.14,62.25h1.48l1.48,3h0l0-3h1.07v4.37H58.71l-1.52-3h0l0,3H56.14Z" transform="translate(-5.95 -5.82)"/><path class="f" d="M61.74,63.11H60.66v-.86H64v.86H62.9v3.51H61.74Z" transform="translate(-5.95 -5.82)"/></svg>