<svg xmlns="http://www.w3.org/2000/svg" viewBox="0 0 72.87 72.87"><defs><style>.a{fill:#b58059;}.b{fill:none;stroke:#fff;stroke-miterlimit:10;stroke-width:2px;}.c{fill:#fff;}.d{fill:#ea5740;}.e{fill:#643e4c;}.f{fill:#8fc037;}</style></defs><title>strawberry</title><rect class="a" x="1" y="1" width="70.87" height="70.87" rx="14.17"/><rect class="b" x="1" y="1" width="70.87" height="70.87" rx="14.17"/><path class="c" d="M48,46.86c-1-.08-1.8,2.53-3.29,2.39-.46,0-.69-.31-1.33-.25-.8.08-1,.56-1.44.61-1.33.12-2.32-3.75-3-3.63-.55.1-.74,2.42-.44,4.54A13.77,13.77,0,0,0,39.05,53c1,.31,1.7-.2,3.38-.2,1.94,0,2.47.53,3.88,0a7.33,7.33,0,0,0,3.19-2.88C49,47.56,48.47,46.9,48,46.86Z" transform="translate(-6.07 -5.82)"/><path class="d" d="M46,31H38.84c-4.32.82-8.16,3.37-7.42,8.13.76,4.93,4,12,7.15,13.58a3.08,3.08,0,0,0,.48.2,13.77,13.77,0,0,1-.58-2.43c-.3-2.12-.11-4.44.44-4.54.72-.12,1.71,3.75,3,3.63.45,0,.64-.53,1.44-.61.64-.06.87.21,1.33.25,1.49.14,2.33-2.47,3.29-2.39.46,0,1,.7,1.49,3a28.18,28.18,0,0,0,4-10.7C54.15,34.39,50.34,31.85,46,31Z" transform="translate(-6.07 -5.82)"/><path class="e" d="M42.45,30.07a.78.78,0,0,1-.22,0,.76.76,0,0,1-.5-.94,3.84,3.84,0,0,0-.21-2.81,3.92,3.92,0,0,0-1.62-1.66.75.75,0,1,1,.7-1.32,5.24,5.24,0,0,1,2.56,6.23A.74.74,0,0,1,42.45,30.07Z" transform="translate(-6.07 -5.82)"/><path class="f" d="M47.6,29.94l-.53-.21-.51-.16a8.78,8.78,0,0,0-1-.21h0a.94.94,0,0,1,.09-.12,4.68,4.68,0,0,1,.39-.38,4,4,0,0,1,.47-.34,4.42,4.42,0,0,1,2.1-.67,4.52,4.52,0,0,1,1.07,0,5.25,5.25,0,0,0-3.59-.31,6,6,0,0,0-.68.23,5.49,5.49,0,0,0-.64.33,5.83,5.83,0,0,0-1,.8,7.29,7.29,0,0,0-.61.7l-.12.18H43a6,6,0,0,0-.81,0,7.3,7.3,0,0,0-.89-.28,8.94,8.94,0,0,0-1.71-.29,7.64,7.64,0,0,0-1,0c-.34,0-.65,0-1,.06a9.5,9.5,0,0,0-1.86.43,9.24,9.24,0,0,0-1.5.65,8.49,8.49,0,0,0-1.31.86,7.94,7.94,0,0,1,1.44-.56,8.62,8.62,0,0,1,1.52-.32,9.35,9.35,0,0,1,1.76,0c.27,0,.57.06.85.12s.55.12.81.2l.07,0a5.68,5.68,0,0,0-.91.63,3.73,3.73,0,0,0-.36.32c-.1.11-.21.21-.31.34a5.89,5.89,0,0,0-.55.74,5.75,5.75,0,0,0-.65,1.43,5.15,5.15,0,0,0-.26,1.46,5.76,5.76,0,0,1,1.43-2.49,4.69,4.69,0,0,1,.59-.51l.34-.24c.13-.09.22-.12.35-.2a5,5,0,0,1,2.34-.55l.16.1.32.22h0a.64.64,0,0,0,.18.1,1,1,0,0,0,1.08-.17h.25a1.1,1.1,0,0,0,.09.14,4,4,0,0,1,.54.4A3.88,3.88,0,0,1,45,33.66c.07.17.12.26.17.42s.08.28.12.42a5,5,0,0,1,.1.8,4.12,4.12,0,0,1,0,.82,4.74,4.74,0,0,0,.59-1.63A4,4,0,0,0,46,34a4,4,0,0,0,0-.49v-.05a5.5,5.5,0,0,0-.5-2,2.68,2.68,0,0,0-.12-.24l.26-.07a6.5,6.5,0,0,1,.79-.13,3.23,3.23,0,0,1,.46,0h.47a7,7,0,0,1,1.79.3,6.77,6.77,0,0,1,.81.3A7.91,7.91,0,0,0,47.6,29.94Z" transform="translate(-6.07 -5.82)"/><path class="e" d="M45.33,36.87a.86.86,0,0,1-.27,0,.75.75,0,0,1-.47-.83h0a3.12,3.12,0,0,0,0-.66,4.58,4.58,0,0,0-.08-.66c0-.11-.06-.23-.1-.34l-.1-.26L44.29,34a3.29,3.29,0,0,0-.74-1,2.85,2.85,0,0,0-.33-.25,1.8,1.8,0,0,1-1.42,0,2,2,0,0,1-.32-.18l-.28-.2a4.23,4.23,0,0,0-1.77.46l-.13.07-.15.09a2.17,2.17,0,0,0-.3.21,3,3,0,0,0-.53.45,4.69,4.69,0,0,0-.75,1,4.94,4.94,0,0,0-.48,1.14.75.75,0,0,1-1.48-.17,6,6,0,0,1,.29-1.68,6.75,6.75,0,0,1,.74-1.61,5.41,5.41,0,0,1,.62-.84,3.89,3.89,0,0,1,.34-.36l0,0h0a8.52,8.52,0,0,0-1.6,0,7.15,7.15,0,0,0-1.39.29,8,8,0,0,0-1.3.5.74.74,0,0,1-1-.23.75.75,0,0,1,.13-1A10.17,10.17,0,0,1,35.53,29a10.67,10.67,0,0,1,2-.45,10.1,10.1,0,0,1,1.07-.07,9.08,9.08,0,0,1,1,0,10.93,10.93,0,0,1,1.83.31,7,7,0,0,1,.8.25l.4,0a6.14,6.14,0,0,1,.59-.67,6.68,6.68,0,0,1,1.16-.9,5.54,5.54,0,0,1,.73-.37,5,5,0,0,1,.77-.27,6,6,0,0,1,2.93-.06,6.15,6.15,0,0,1,1.22.42.75.75,0,0,1-.48,1.41,4.44,4.44,0,0,0-.89,0,4.27,4.27,0,0,0-1.48.4l.1,0,.56.22A8.41,8.41,0,0,1,50.49,31a.74.74,0,0,1,.07.95.77.77,0,0,1-.92.25,7.08,7.08,0,0,0-.72-.26,6.23,6.23,0,0,0-1.59-.27h-.42l-.41,0h-.08a5.93,5.93,0,0,1,.32,1.68c0,.24,0,.47,0,.64a5.35,5.35,0,0,1-.07.56,5.78,5.78,0,0,1-.27,1,5.62,5.62,0,0,1-.43.91A.77.77,0,0,1,45.33,36.87Zm-1.28-5.4a3.47,3.47,0,0,1,.5.38,5.13,5.13,0,0,1,.51.53,4.47,4.47,0,0,0-.25-.64,1.31,1.31,0,0,0-.09-.17.82.82,0,0,1,0-.67.77.77,0,0,1,.47-.45l.3-.07a6.63,6.63,0,0,1,.74-.13c-.26-.07-.5-.11-.71-.15a.76.76,0,0,1-.58-.46A.73.73,0,0,1,45,28.9h0a4.84,4.84,0,0,0-.7.57,4.42,4.42,0,0,0-.53.62l-.12.16a.74.74,0,0,1-.67.32,6.76,6.76,0,0,0-.76,0,.69.69,0,0,1-.32,0c-.23-.08-.49-.17-.82-.26A9.76,9.76,0,0,0,39.75,30a.79.79,0,0,1,.36.56.75.75,0,0,1-.06.42,6.77,6.77,0,0,1,1.37-.15.72.72,0,0,1,.4.12l.5.34a.32.32,0,0,0,.36,0,.79.79,0,0,1,.55-.18.89.89,0,0,1,.81.32Z" transform="translate(-6.07 -5.82)"/><path class="e" d="M36,42.86a.75.75,0,0,1-.7-.49,5.5,5.5,0,0,1-.3-2.65.73.73,0,0,1,.84-.64.75.75,0,0,1,.65.84,3.69,3.69,0,0,0,0,1,3.89,3.89,0,0,0,.21.88.74.74,0,0,1-.44,1A.75.75,0,0,1,36,42.86Z" transform="translate(-6.07 -5.82)"/><path class="e" d="M50.26,41.69h-.14a.76.76,0,0,1-.6-.87,5.71,5.71,0,0,0,.08-1.37,5.5,5.5,0,0,0-.23-1.21.75.75,0,1,1,1.43-.44,6.24,6.24,0,0,1,.29,1.55A7.26,7.26,0,0,1,51,41.08.76.76,0,0,1,50.26,41.69Z" transform="translate(-6.07 -5.82)"/><path class="e" d="M46.25,48.6a.72.72,0,0,1-.4-.12.75.75,0,0,1-.24-1,2.63,2.63,0,0,0,.34-.81,2.55,2.55,0,0,0,.06-.78.76.76,0,0,1,.71-.79.74.74,0,0,1,.79.71,4,4,0,0,1-.1,1.2,4.12,4.12,0,0,1-.53,1.26A.74.74,0,0,1,46.25,48.6Z" transform="translate(-6.07 -5.82)"/><path class="e" d="M39.43,50.32a.77.77,0,0,1-.53-.21,3.21,3.21,0,0,1-.45-.58,2.9,2.9,0,0,1-.4-1,.75.75,0,1,1,1.47-.29,1.31,1.31,0,0,0,.2.52A2.37,2.37,0,0,0,40,49a.75.75,0,0,1,0,1.06A.76.76,0,0,1,39.43,50.32Z" transform="translate(-6.07 -5.82)"/><path class="e" d="M43.44,53.21a.74.74,0,0,1-.32-.07.76.76,0,0,1-.36-1A3.07,3.07,0,0,0,43,51.4a2.7,2.7,0,0,0,.07-.6.78.78,0,0,1,.77-.73.76.76,0,0,1,.73.77,5.16,5.16,0,0,1-.1.87,5,5,0,0,1-.36,1.07A.76.76,0,0,1,43.44,53.21Z" transform="translate(-6.07 -5.82)"/><path class="e" d="M40.72,44.71a.76.76,0,0,1-.68-.43c-.07-.16-.14-.33-.2-.51a5.09,5.09,0,0,1-.25-2.06.75.75,0,0,1,1.49.11,3.61,3.61,0,0,0,.18,1.47,3,3,0,0,0,.14.36.74.74,0,0,1-.36,1A.71.71,0,0,1,40.72,44.71Z" transform="translate(-6.07 -5.82)"/><path class="e" d="M45.21,41.39h-.15a.74.74,0,0,1-.58-.89,6.31,6.31,0,0,0,.11-.85,7.21,7.21,0,0,0,0-.93.75.75,0,0,1,1.5-.11,10.84,10.84,0,0,1,0,1.14,8.85,8.85,0,0,1-.14,1A.76.76,0,0,1,45.21,41.39Z" transform="translate(-6.07 -5.82)"/><path class="e" d="M40.08,37.68a.74.74,0,0,1-.69-.46,2.9,2.9,0,0,1-.23-.91A3,3,0,0,1,39.33,35a.75.75,0,0,1,1.41.51,1.56,1.56,0,0,0-.09.67,1.31,1.31,0,0,0,.12.47.75.75,0,0,1-.4,1A.79.79,0,0,1,40.08,37.68Z" transform="translate(-6.07 -5.82)"/><path class="e" d="M29.82,34.48a.75.75,0,0,1-.75-.72,4.66,4.66,0,0,1,2.26-4.31,4.33,4.33,0,0,1,3.88-.08.75.75,0,0,1,.39,1,.76.76,0,0,1-1,.4,2.92,2.92,0,0,0-2.55,0,3.22,3.22,0,0,0-1.49,2.94.74.74,0,0,1-.72.78Z" transform="translate(-6.07 -5.82)"/><path class="e" d="M31.56,40.72h0a8.15,8.15,0,0,1-2.61-.54,7.75,7.75,0,0,1-4.6-7.47c.13-5.2,5.48-7.57,5.71-7.67,4-1.71,8.93-.43,12.34,3.18a.75.75,0,0,1-1.09,1C38.3,26.1,34,25,30.62,26.42c-.05,0-4.69,2.07-4.8,6.33a6.22,6.22,0,0,0,3.65,6,6.52,6.52,0,0,0,2.12.44.75.75,0,0,1,.72.77A.76.76,0,0,1,31.56,40.72Z" transform="translate(-6.07 -5.82)"/><path class="e" d="M39.74,53.8a3.26,3.26,0,0,1-1.51-.38c-3.6-1.79-6.83-9.44-7.55-14.13-.69-4.47,2.38-7.91,8-9a.74.74,0,0,1,.87.59.75.75,0,0,1-.59.88c-2.32.44-7.63,2-6.82,7.29.75,4.84,3.86,11.58,6.74,13a2.25,2.25,0,0,0,1.66.12,9.33,9.33,0,0,1,1.87-.2,11.47,11.47,0,0,1,1.84.15,3,3,0,0,0,1.77-.1c3.3-1.24,6-8.34,6.67-13,.77-5.27-4.52-6.86-6.83-7.3a.75.75,0,1,1,.28-1.48c5.69,1.09,8.7,4.45,8,9-.72,5-3.57,12.65-7.62,14.17a4.38,4.38,0,0,1-2.51.19,9.69,9.69,0,0,0-1.63-.14,8.36,8.36,0,0,0-1.61.17A5.59,5.59,0,0,1,39.74,53.8Z" transform="translate(-6.07 -5.82)"/><path class="c" d="M23.28,62.53l-.36.79a2.83,2.83,0,0,0-1.31-.43c-.32,0-.53.11-.53.34,0,.77,2.24.34,2.23,1.85,0,.82-.71,1.27-1.64,1.27a3,3,0,0,1-1.86-.67l.38-.77a2.5,2.5,0,0,0,1.49.63c.39,0,.62-.15.62-.4,0-.8-2.24-.33-2.24-1.82,0-.76.66-1.24,1.63-1.24A3,3,0,0,1,23.28,62.53Z" transform="translate(-6.07 -5.82)"/><path class="c" d="M26,62.92v3.4h-1v-3.4H23.8v-.8h3.51v.8Z" transform="translate(-6.07 -5.82)"/><path class="c" d="M30,65.12H29v1.2h-1v-4.2h1.83c1.09,0,1.72.53,1.72,1.46a1.39,1.39,0,0,1-.79,1.35l.89,1.39H30.64Zm-.09-.79c.52,0,.82-.24.82-.72s-.3-.71-.82-.71H29v1.43Z" transform="translate(-6.07 -5.82)"/><path class="c" d="M33.47,65.5l-.33.82h-1L34,62.12h1l1.79,4.2h-1l-.33-.82Zm1-2.39-.66,1.63h1.32Z" transform="translate(-6.07 -5.82)"/><path class="c" d="M40.73,66.32l-.84-3-.87,3h-1l-1.39-4.2h1l.88,3.16.88-3.16h.93l.88,3.16.88-3.16h1l-1.39,4.2Z" transform="translate(-6.07 -5.82)"/><path class="c" d="M45.69,62.12c.92,0,1.5.4,1.5,1.05a.92.92,0,0,1-.73.92,1,1,0,0,1,.88,1.06c0,.72-.61,1.17-1.58,1.17h-2v-4.2Zm-1,1.69h.93c.36,0,.58-.17.58-.47s-.22-.45-.58-.45h-.93Zm0,1.73h.93c.45,0,.72-.18.72-.51s-.27-.49-.72-.49h-.93Z" transform="translate(-6.07 -5.82)"/><path class="c" d="M49.22,62.9v.92h2v.78h-2v.93h2.31v.79H48.27v-4.2h3.2v.78Z" transform="translate(-6.07 -5.82)"/><path class="c" d="M54.43,65.12h-1v1.2h-.95v-4.2h1.82c1.1,0,1.72.53,1.72,1.46a1.38,1.38,0,0,1-.78,1.35l.89,1.39H55.1Zm-.09-.79c.52,0,.82-.24.82-.72s-.3-.71-.82-.71h-.87v1.43Z" transform="translate(-6.07 -5.82)"/><path class="c" d="M59,65.12h-1v1.2H57.1v-4.2h1.83c1.09,0,1.72.53,1.72,1.46a1.39,1.39,0,0,1-.79,1.35l.89,1.39H59.68Zm-.09-.79c.52,0,.82-.24.82-.72s-.3-.71-.82-.71h-.88v1.43Z" transform="translate(-6.07 -5.82)"/><path class="c" d="M63.67,66.32h-1V65l-1.56-2.87h1L63.19,64l1-1.88h1L63.67,65Z" transform="translate(-6.07 -5.82)"/></svg>