<svg xmlns="http://www.w3.org/2000/svg" viewBox="0 0 72.87 72.87"><defs><style>.a{fill:#d7ceb8;}.b{fill:none;stroke:#fff;stroke-miterlimit:10;stroke-width:2px;}.c{fill:#ea5740;}.d{fill:#f6a026;}.e{fill:#f6a025;}.f{fill:#643e4c;}.g{fill:#8fc037;}.h{fill:#fff;}</style></defs><title>tangerine</title><rect class="a" x="1" y="1" width="70.87" height="70.87" rx="14.17"/><rect class="b" x="1" y="1" width="70.87" height="70.87" rx="14.17"/><rect class="c" x="1" y="1" width="70.87" height="70.87" rx="14.17"/><rect class="b" x="1" y="1" width="70.87" height="70.87" rx="14.17"/><path class="d" d="M43.66,51.6a11.41,11.41,0,0,0,5.6,1.45A10.8,10.8,0,0,0,59.82,45.4l.71-2.5H48.21Z" transform="translate(-5.95 -5.82)"/><path class="e" d="M46.31,34.67l.95,1.65a13.38,13.38,0,0,1-3,14.73c-5.23,5.23-13.47,5.47-18.41.53s-4.7-13.18.53-18.41a13.53,13.53,0,0,1,12.77-3.71L40.8,30Z" transform="translate(-5.95 -5.82)"/><path class="f" d="M34.53,55.88a13,13,0,0,1-9.25-3.77c-5.22-5.22-5-14,.53-19.47a14.3,14.3,0,0,1,13.48-3.9l1.74.57a.75.75,0,1,1-.47,1.42l-1.69-.56a12.81,12.81,0,0,0-12,3.53c-4.93,4.93-5.17,12.71-.53,17.35s12.42,4.4,17.35-.53a12.68,12.68,0,0,0,2.88-13.9l-.91-1.57a.76.76,0,0,1,.28-1,.75.75,0,0,1,1,.28L47.91,36a14.2,14.2,0,0,1-3.16,15.63A14.47,14.47,0,0,1,34.53,55.88Z" transform="translate(-5.95 -5.82)"/><path class="g" d="M46.27,33.51a3.36,3.36,0,0,0-2-1.66,3.37,3.37,0,0,0-1.67-2,3.36,3.36,0,0,0-2.54.51,3.39,3.39,0,0,0,1.67,2l.16,0-.13.1A3.37,3.37,0,0,0,41.14,35a3.39,3.39,0,0,0,2.51-.65l.09-.12c0,.05,0,.1,0,.15a3.37,3.37,0,0,0,2,1.67A3.41,3.41,0,0,0,46.27,33.51Z" transform="translate(-5.95 -5.82)"/><path class="f" d="M45.76,36.8a.59.59,0,0,1-.23,0,4.56,4.56,0,0,1-2.05-1.38,4.57,4.57,0,0,1-2.44.36.74.74,0,0,1-.64-.64,4.51,4.51,0,0,1,.35-2.44,4.65,4.65,0,0,1-1.38-2,.76.76,0,0,1,.3-.86,4.06,4.06,0,0,1,3.2-.59,3.76,3.76,0,0,1,2,2.11,3.71,3.71,0,0,1,2.1,2h0a4,4,0,0,1-.59,3.2A.75.75,0,0,1,45.76,36.8Zm-2-3.32a.55.55,0,0,1,.18,0,.73.73,0,0,1,.55.55s0,.1,0,.11a1.91,1.91,0,0,0,.92.92,2,2,0,0,0,.14-1.32h0c-.23-.66-1.19-1.1-1.5-1.2a.76.76,0,0,1-.49-.48,2.54,2.54,0,0,0-1.2-1.5,1.93,1.93,0,0,0-1.31.14,2,2,0,0,0,.94.93h.09a.75.75,0,0,1,.3,1.31l-.1.07a2,2,0,0,0-.42,1.23,2,2,0,0,0,1.25-.45.19.19,0,0,1,.05-.08A.76.76,0,0,1,43.74,33.48Z" transform="translate(-5.95 -5.82)"/><path class="f" d="M45.09,31.64a.74.74,0,0,1-.32-.07.75.75,0,0,1-.36-1,4.23,4.23,0,0,1,6.17-1.81A.75.75,0,0,1,49.77,30a2.74,2.74,0,0,0-4,1.18A.75.75,0,0,1,45.09,31.64Z" transform="translate(-5.95 -5.82)"/><path class="g" d="M47.25,23.92c-.7-2.22-3.44-3.33-3.44-3.33s-1.61,2.48-.91,4.7,3.44,3.33,3.44,3.33S48,26.14,47.25,23.92Z" transform="translate(-5.95 -5.82)"/><path class="f" d="M46.34,29.37a.69.69,0,0,1-.28-.05c-.12-.05-3.07-1.28-3.87-3.8s.91-5.22,1-5.34a.74.74,0,0,1,.91-.28c.13.05,3.07,1.27,3.87,3.8h0c.8,2.52-.91,5.22-1,5.33A.74.74,0,0,1,46.34,29.37Zm-2.22-7.78a5.08,5.08,0,0,0-.5,3.48A5.09,5.09,0,0,0,46,27.63a5,5,0,0,0,.5-3.48h0A5,5,0,0,0,44.12,21.59Z" transform="translate(-5.95 -5.82)"/><path class="f" d="M36.29,40.32a.5.5,0,0,1-.32-.88l.44-.36a.5.5,0,0,1,.63.78l-.44.35A.45.45,0,0,1,36.29,40.32Z" transform="translate(-5.95 -5.82)"/><path class="f" d="M33.74,36.47a.5.5,0,0,1-.39-.18.52.52,0,0,1,.07-.71l.44-.35a.49.49,0,0,1,.7.07.51.51,0,0,1-.07.71l-.44.35A.45.45,0,0,1,33.74,36.47Z" transform="translate(-5.95 -5.82)"/><path class="f" d="M39.69,45.91a.5.5,0,0,1-.31-.89l.43-.35a.51.51,0,0,1,.71.07.5.5,0,0,1-.08.7L40,45.8A.56.56,0,0,1,39.69,45.91Z" transform="translate(-5.95 -5.82)"/><path class="f" d="M31.94,45.55a.51.51,0,0,1-.39-.18.5.5,0,0,1,.08-.7l.43-.36a.51.51,0,0,1,.71.08.5.5,0,0,1-.08.7l-.43.35A.5.5,0,0,1,31.94,45.55Z" transform="translate(-5.95 -5.82)"/><path class="f" d="M27,42.61a.49.49,0,0,1-.39-.19.5.5,0,0,1,.08-.7l.44-.35a.49.49,0,0,1,.7.07.5.5,0,0,1-.07.7l-.44.36A.54.54,0,0,1,27,42.61Z" transform="translate(-5.95 -5.82)"/><path class="f" d="M38.61,51.81a.5.5,0,0,1-.39-.18.51.51,0,0,1,.07-.71l.44-.35a.5.5,0,0,1,.63.78l-.44.35A.45.45,0,0,1,38.61,51.81Z" transform="translate(-5.95 -5.82)"/><path class="f" d="M28.49,50.8a.5.5,0,0,1-.32-.89l.44-.36a.5.5,0,0,1,.63.78l-.44.36A.51.51,0,0,1,28.49,50.8Z" transform="translate(-5.95 -5.82)"/><path class="f" d="M43.68,41.31a.5.5,0,0,1-.39-.18.51.51,0,0,1,.07-.71l.44-.35a.49.49,0,0,1,.7.07.51.51,0,0,1-.07.71L44,41.2A.45.45,0,0,1,43.68,41.31Z" transform="translate(-5.95 -5.82)"/><path class="f" d="M49.26,56.3a14.54,14.54,0,0,1-8.2-2.49.75.75,0,0,1,.84-1.24,13.07,13.07,0,0,0,7.36,2.23c6.7,0,12.2-4.94,12.62-11.15H48.21a.75.75,0,0,1,0-1.5H62.65a.75.75,0,0,1,.75.75C63.4,50.29,57.06,56.3,49.26,56.3Z" transform="translate(-5.95 -5.82)"/><path class="f" d="M49.26,53.8a12.24,12.24,0,0,1-6-1.55.75.75,0,0,1-.29-1,.76.76,0,0,1,1-.29,10.62,10.62,0,0,0,5.23,1.36,10,10,0,0,0,9.83-7.09l.71-2.51a.75.75,0,1,1,1.45.41l-.71,2.5A11.52,11.52,0,0,1,49.26,53.8Z" transform="translate(-5.95 -5.82)"/><path class="f" d="M49.26,53.8a.76.76,0,0,1-.75-.75V42.9a.75.75,0,0,1,1.5,0V53.05A.75.75,0,0,1,49.26,53.8Z" transform="translate(-5.95 -5.82)"/><path class="f" d="M55.23,51.86a.75.75,0,0,1-.61-.31l-6-8.21a.74.74,0,0,1,.16-1,.75.75,0,0,1,1,.16l6,8.21a.75.75,0,0,1-.16,1A.82.82,0,0,1,55.23,51.86Z" transform="translate(-5.95 -5.82)"/><path class="f" d="M58.91,46.79a.62.62,0,0,1-.23,0L49,43.62a.75.75,0,0,1,.46-1.43l9.65,3.13a.75.75,0,0,1,.48,1A.74.74,0,0,1,58.91,46.79Z" transform="translate(-5.95 -5.82)"/><path class="h" d="M25.5,63.11H24.42v-.86h3.32v.86H26.66v3.51H25.5Z" transform="translate(-5.95 -5.82)"/><path class="h" d="M29.06,62.25h1.43l1.68,4.37H30.9l-.33-.94H28.93l-.34.94H27.4Zm.72.9h0l-.56,1.71h1.09Z" transform="translate(-5.95 -5.82)"/><path class="h" d="M32.64,62.25h1.48l1.48,3h0l0-3h1.07v4.37H35.21l-1.52-3h0l0,3H32.64Z" transform="translate(-5.95 -5.82)"/><path class="h" d="M41.52,66.49a6.36,6.36,0,0,1-1.69.2,2.26,2.26,0,0,1-2.51-2.24c0-1.64,1.16-2.27,2.76-2.27a4.24,4.24,0,0,1,1.32.19l-.09,1A2.24,2.24,0,0,0,40.25,63c-1,0-1.73.39-1.73,1.41A1.34,1.34,0,0,0,40,65.83a1,1,0,0,0,.41-.08v-.86h-.68v-.83h1.81Z" transform="translate(-5.95 -5.82)"/><path class="h" d="M42.32,62.25H45.4v.83H43.48V64h1.81v.82H43.48v1h2v.83H42.32Z" transform="translate(-5.95 -5.82)"/><path class="h" d="M46.14,62.25h2.07c.78,0,1.41.35,1.41,1.1a1,1,0,0,1-.84,1.1h0c.38.11.4.44.62,1l.43,1.19H48.61l-.25-.79c-.23-.75-.38-.94-.82-.94H47.3v1.73H46.14Zm1.16,1.81h.31c.37,0,.85,0,.85-.5s-.41-.48-.85-.48H47.3Z" transform="translate(-5.95 -5.82)"/><path class="h" d="M50.39,62.25h1.17v4.37H50.39Z" transform="translate(-5.95 -5.82)"/><path class="h" d="M52.44,62.25h1.49l1.47,3h0l0-3h1.07v4.37H55l-1.52-3h0l0,3H52.44Z" transform="translate(-5.95 -5.82)"/><path class="h" d="M57.25,62.25h3.08v.83H58.42V64h1.81v.82H58.42v1h2v.83H57.25Z" transform="translate(-5.95 -5.82)"/></svg>