<svg xmlns="http://www.w3.org/2000/svg" viewBox="0 0 48.01 80.73"><defs><style>.a{fill:none;}.a,.w{stroke:#1d1d1b;stroke-miterlimit:10;}.b{fill:#fdeb01;}.c{fill:#fefdf7;}.d,.w{fill:#1d1d1b;}.e{fill:#080704;}.f{fill:#090902;}.g{fill:#834c3f;}.h{fill:#fdd301;}.i{fill:#fdba01;}.j{fill:#fbd401;}.k{fill:#fcba01;}.l{fill:#fbba01;}.m{fill:#cdc92e;}.n{fill:#bcb41a;}.o{fill:#90863d;}.p{fill:#fdeb05;}.q{fill:#feeb01;}.r{fill:#fde001;}.s{fill:#fdeb00;}.t{fill:#fdfdfd;}.u{fill:#e0d9c3;}.v{fill:#e5e5e5;}.x{fill:#fdeb02;}</style></defs><title>thumbsdown</title><path class="a" d="M8.22,54.44c1.75,1.81,3.58-1.21,5.11-.71.22,1,1.48,5.91,1.74,6.86a4.34,4.34,0,0,1-.1,2.93,2.77,2.77,0,0,1-3,1.72,3.65,3.65,0,0,1-3.39-2.7A31,31,0,0,1,8.22,54.44Zm1.09,8.05v.18a2.68,2.68,0,0,0,2.46,2.08.36.36,0,0,0,.31-.6,1.16,1.16,0,0,0-.47-.41,4.34,4.34,0,0,0-.83-.36,1.39,1.39,0,0,1-1-1,.7.7,0,0,0-.11-.21c-.13-.18-.25-.16-.34,0A1.23,1.23,0,0,0,9.31,62.49Z" transform="translate(-1.29 0)"/><path class="b" d="M8.22,54.44c1.95,2.74,3.45-1,5.11-.71.22,1,1.48,5.91,1.74,6.86a4.34,4.34,0,0,1-.1,2.93,2.77,2.77,0,0,1-3,1.72,3.65,3.65,0,0,1-3.39-2.7A31,31,0,0,1,8.22,54.44Zm1.09,8.05v.18a2.68,2.68,0,0,0,2.46,2.08.36.36,0,0,0,.31-.6,1.16,1.16,0,0,0-.47-.41,4.34,4.34,0,0,0-.83-.36,1.39,1.39,0,0,1-1-1,.7.7,0,0,0-.11-.21c-.13-.18-.25-.16-.34,0A1.23,1.23,0,0,0,9.31,62.49Z" transform="translate(-1.29 0)"/><path class="c" d="M9.31,62.49a1.84,1.84,0,0,1,0-.25c.09-.21.21-.23.34-.05a.7.7,0,0,1,.11.21,1.39,1.39,0,0,0,1,1,4.34,4.34,0,0,1,.83.36,1.16,1.16,0,0,1,.47.41c.22.3.05.59-.31.6a2.68,2.68,0,0,1-2.46-2.08A.6.6,0,0,1,9.31,62.49Z" transform="translate(-1.29 0)"/><ellipse class="d" cx="9.19" cy="32.92" rx="4.37" ry="2.59"/><path class="e" d="M11.87,23.78a11.21,11.21,0,0,1,1-2.54,25.78,25.78,0,0,1,5.67-8.87,16.26,16.26,0,0,1,6.66-4.09A23.55,23.55,0,0,1,28,7.67.9.9,0,0,0,28.87,7c.25-.84.51-1.68.76-2.52C30.09,3,30.54,1.46,31,0h.27c.6.11,1.2.23,1.8.33s1.26.15,1.86.31a5.75,5.75,0,0,1,1.44.62,8.81,8.81,0,0,1,3.09,4.2,34.52,34.52,0,0,0-4,3.74c-.54.54-1.06,1.1-1.57,1.67a.76.76,0,0,0-.1,1.08l0,0A6.39,6.39,0,0,1,35,15.44a30.56,30.56,0,0,1-.46,6.41,87.67,87.67,0,0,0-.88,9.43v.13H33.5l-.07-.06-.07-.07-.07-.07.06.07.07.06.07.07h.15c-.19.81.22,1.26.87,1.71A16,16,0,0,1,38.63,37c.33.48.58,1,.87,1.51l.18.55a5.62,5.62,0,0,1-.42,2.59l-.22.56-1,2a2.28,2.28,0,0,1,.7,2.11.46.46,0,0,0,.17.29A2,2,0,0,1,39.85,49c-.24.82-.8,1.19-1.86,1.2a.25.25,0,0,0,.08.22,44.47,44.47,0,0,0,4,6.79,11.45,11.45,0,0,0,1,1.19A14.69,14.69,0,0,1,46.53,65c.08.32.13.64.22,1a1,1,0,0,0,.2.37c.23.26.48.51.73.75a4.94,4.94,0,0,1,1.62,2.37v1.4c0,.08-.12.16-.13.25a3.23,3.23,0,0,1-2.12,2.72,4,4,0,0,1-1.79.08c-2-.32-4.08-.61-6.12-1-1-.17-2-.46-2.94-.71L36,73.79c.55.12,1.07.22,1.58.34a20.43,20.43,0,0,1,4.23,1.35,4,4,0,0,1,2.3,2.87,6.83,6.83,0,0,1,.07,1.43c0,.19-.11.26-.3.28l-4.28.41c-.88.08-1.76.13-2.64.2a.15.15,0,0,0-.14.06H34.37l-.07-.06a6.23,6.23,0,0,1-2.82-2A2.83,2.83,0,0,1,30.65,76v-.17a2.72,2.72,0,0,1,1-1.86.73.73,0,0,0,.27-.45c.1-.91.16-1.82.24-2.74a35.72,35.72,0,0,1-8.78-5,24.65,24.65,0,0,0-.23,7.62.62.62,0,0,0,.16.41,2.72,2.72,0,0,1,1.09,1.9,3.09,3.09,0,0,1-.76,2.8,6.5,6.5,0,0,1-3.06,2.15h-2.5l-.17-.07-6.68-.59c-.26,0-.42-.11-.4-.37A8.93,8.93,0,0,1,11,78.07a3.61,3.61,0,0,1,2.15-2.57,27.93,27.93,0,0,1,2.78-1c1-.28,1.95-.45,2.92-.67h.09c0-1.1-.15-2.17-.16-3.25A25.48,25.48,0,0,1,20,62.78a.68.68,0,0,0-.13-.72c-.77-1.07-1.57-2.12-2.24-3.25a54.65,54.65,0,0,1-2.68-5c-.82-1.71-1.41-3.37-2.08-5C9.4,36.47,10.86,28.2,11.87,23.78ZM13.68,41.2h0l-.09.15L13,42.3c-.3.24-.6.46-.89.71a.26.26,0,0,0-.1.23c.12.56.27,1.12.4,1.67a46.52,46.52,0,0,0,2.87,8.19,1,1,0,0,0,.16.37q1.39,2.61,2.8,5.22c.21.39.42.78.66,1.14a6.92,6.92,0,0,0,.61.7c1,1.17,1.86,2.38,2.86,3.5a16.72,16.72,0,0,0,3.83,3.08,41.68,41.68,0,0,0,6.78,3.31,45.55,45.55,0,0,0,7.51,2.12c.93.17,1.87.28,2.8.42l3,.39a2.63,2.63,0,0,1-.41-1.87,12.29,12.29,0,0,1,.32-1.19c.36-.94.85-1.75,2.11-1.75l-2-2.06c-.16-.68-.29-1.37-.49-2a13.23,13.23,0,0,0-3.3-5.79h0a35.78,35.78,0,0,1-3-4.32,48,48,0,0,1-5.81-15,4,4,0,0,0-.16-.57h0v-.37l-.42-3.61-.06-2v-.74L33.08,30V29.8c.2-2,.38-4,.58-6,.23-2.18.54-4.35.71-6.53a7,7,0,0,0-1.22-5.12c0-.06-.07-.14-.11-.2L33,11.67v-.45a2.91,2.91,0,0,1,.41-.73q2.07-2.13,4.17-4.24c.23-.24.49-.45.77-.7l-.26-.07-2-.35a4.62,4.62,0,0,1-2.25-.71c-.52-.7-1-1.38-1.55-2.08-.3-.41-.58-.83-.9-1.29-.28.89-.54,1.73-.79,2.58-.35,1.15-.68,2.3-1.06,3.44a4.35,4.35,0,0,1-.58,1c-.32.09-.64.19-1,.26l-2.07.42c-.57.19-1.15.36-1.7.58A15.62,15.62,0,0,0,20,11.85,22.63,22.63,0,0,0,14,20.18c-.57,1.27-1,2.58-1.56,3.87l.17.11a5.52,5.52,0,0,1,2.84,3.65,7.18,7.18,0,0,1-.22,4.51A2.2,2.2,0,0,0,15,33.61a2.3,2.3,0,0,1,0,.74,6,6,0,0,1-1.38,3.1,3.87,3.87,0,0,1,.15,3.4,1.74,1.74,0,0,0,0,.22h0ZM11.92,77.48h0l-.08.14h0l-.09.17-.28.73-.09.93h.28c1.16.11,2.32.25,3.49.33,1.62.12,3.25.22,4.88.28a2.38,2.38,0,0,0,1.12-.21,6.85,6.85,0,0,0,2.58-2.49.6.6,0,0,0,.08-.29,10.41,10.41,0,0,0-.1-1.48,1.54,1.54,0,0,0-1-1.27.31.31,0,0,1-.14-.23c-.08-.77-.17-1.54-.23-2.31a20.87,20.87,0,0,1,.31-5.41,1.58,1.58,0,0,0-.5-1.73,20,20,0,0,1-1.61-1.71l-.39,1.33-.27,1.22a22.45,22.45,0,0,0-.5,5.72c0,1,.15,2,.23,3.09-.71.14-1.44.28-2.18.44a18,18,0,0,0-4.11,1.35,2.75,2.75,0,0,0-1.38,1.31h0ZM35,34.35h0L35,34.29,34.5,34h0l-.07-.1-.78-.6a32.52,32.52,0,0,0,.69,6.37,2.61,2.61,0,0,1,1.16-1.39h.2l-.13.2a1.32,1.32,0,0,0-.62,1,.94.94,0,0,0-.12.22c0,.49-.08,1-.11,1.46L35,42.21c.28.93.53,1.88.87,2.8.52,1.43,1.11,2.83,1.69,4.24a.49.49,0,0,0,.21.28,1.15,1.15,0,0,0,1.51-.6l0-.08a1.4,1.4,0,0,0-.78-1.65l-.44.37.2-.94-.12-1.11-.9-1.16,1.21-2.43.26-.67a3,3,0,0,0,.18-.6c.05-.48.05-1,.08-1.44l-.2-.56c0-.1-.09-.2-.14-.3a12.92,12.92,0,0,0-3.49-3.94h0Zm7.85,42.71,0-.07h0a2.58,2.58,0,0,0-1.38-1c-1.1-.41-2.2-.78-3.32-1.1-.9-.25-1.83-.4-2.75-.6l.17-1.77c0-.18.23-.43-.11-.56L32.73,71c-.07.92-.13,1.81-.22,2.69,0,.22-.09.54-.23.6a1.68,1.68,0,0,0-1,1.3,7.16,7.16,0,0,0-.1,1.31,1.13,1.13,0,0,0,.19.62c.56.64,1.16,1.24,1.78,1.82a2.79,2.79,0,0,0,2.17.75c2-.15,4-.28,6.08-.44a22.61,22.61,0,0,0,2.27-.22,3.51,3.51,0,0,0-.28-1.5L43,77.21v-.14h-.06ZM31.85.76c.49.71.93,1.32,1.35,1.94,1,1.5,1,1.5,2.79,1.8l2.52.44.06-.09c-.32-.51-.62-1-1-1.52A4.76,4.76,0,0,0,34,1.08C33.32,1.05,32.64.85,31.85.76ZM46.44,72a1,1,0,0,0,0,.24.76.76,0,0,0,.38.77.7.7,0,0,0,.82-.23,5.69,5.69,0,0,0,.62-.84,3.33,3.33,0,0,0,.41-2.35.51.51,0,0,0-.23-.29,1,1,0,0,0-1.26.37A4.13,4.13,0,0,0,46.44,72Z" transform="translate(-1.29 0)"/><path class="f" d="M19.15,80.73" transform="translate(-1.29 0)"/><path class="f" d="M34.76,80.73l1.09-.06v.06Z" transform="translate(-1.29 0)"/><path class="f" d="M0,35.51" transform="translate(-1.29 0)"/><path class="f" d="M0,34.56" transform="translate(-1.29 0)"/><path class="g" d="M35.84,80.73v-.06l.46.06Z" transform="translate(-1.29 0)"/><path class="g" d="M33.48,31.39h0Z" transform="translate(-1.29 0)"/><path class="h" d="M25.85,8.71l2.07-.42c.32-.07.64-.17,1-.26,0,.05.06.09.06.14,0,.52.11.71.61.89.31.11.69.13.83.53v.07c-.48.38-1.09.6-1.45,1.14h-.1l-.12,0h0a1,1,0,0,0-.29.08,16.87,16.87,0,0,0-1.45.92,14.76,14.76,0,0,0-3.94,5,22.1,22.1,0,0,0-2,5.63c0,.05-.09.1-.08.15s.09.16.07.23-.11.42-.16.63-.09.39-.35.35v.1a3,3,0,0,0-2.4,2.17,5.26,5.26,0,0,1,4.07-.71,18.28,18.28,0,0,1,1.74.66h0l.08.05.06.16a4.22,4.22,0,0,1,.33,2.38c0,.06-.1.12-.15.17A9.77,9.77,0,0,0,23,27.49a3.3,3.3,0,0,0-4.39.36,5.29,5.29,0,0,0-.23,7l.18.22h-.51l-.47.06-.42.09a8.53,8.53,0,0,1,2.38.62l.13.1h0l.14.08h0L20,38.59a1.16,1.16,0,0,0-1,.87,4.31,4.31,0,0,0-.16,1.29,1.45,1.45,0,0,0,1.26,1.62,2,2,0,0,0,.35,0,2.82,2.82,0,0,0,.09.57c.26,1.19.5,2.4.8,3.58a29.91,29.91,0,0,0,2.09,5.72,29.23,29.23,0,0,0,5.18,8.37c.84,1,1.77,1.84,2.66,2.75-.63,0-1.27.14-1.9.13a12,12,0,0,1-1.69-.19,11.26,11.26,0,0,1-4-1.49,16.34,16.34,0,0,1-4.3-3.55c-.82-1-1.63-2-2.38-3-.55-.73-1-1.54-1.5-2.33l-.18.1a46.63,46.63,0,0,1-2.93-8.18c.12,0,.27.06.34,0a6.08,6.08,0,0,0,1.09-1A19.8,19.8,0,0,0,15,42c0,.2.06.29.27.27h.37c.29,0,.39-.06.38-.37v-2c0-.4.14-.52.6-.52s.54.11.54.5v1.69c0,.76,0,.75.77.72.19,0,.25-.07.25-.26V39.82a1.1,1.1,0,0,0-1.35-1.22,3.13,3.13,0,0,0-.83.33l-.09-.28h-.41a1.09,1.09,0,0,0,0-.44.79.79,0,0,1,.21-.86,5.48,5.48,0,0,0,.76-3.77,2.81,2.81,0,0,1-.06-1.35,7.89,7.89,0,0,0,.39-3.16,8.54,8.54,0,0,0-.88-3.2A10.71,10.71,0,0,0,14.72,24a.94.94,0,0,1-.14-1.15c.72-1.5,1.39-3,2.16-4.48a20.9,20.9,0,0,1,2.92-4.24c.77-.87,1.66-1.64,2.47-2.48A16,16,0,0,1,24.91,9.5c.37-.27.76-.5,1.14-.75h0Z" transform="translate(-1.29 0)"/><path class="b" d="M20.58,23.94v-.09c.26,0,.3-.15.35-.35s.12-.42.16-.63-.06-.15-.07-.23.05-.1.08-.15.14-.09.17-.16c.49-1.15,1-2.31,1.47-3.45a25.29,25.29,0,0,1,2.5-4.38,15.07,15.07,0,0,1,3.52-3.65h0l.07-.08h.1c.36-.54,1-.76,1.45-1.14a1.36,1.36,0,0,0,1.24,1.46h.1a3,3,0,0,1,1.27.1v.4h0l.07.28-.27-.62a7.53,7.53,0,0,0,0,.95,2.29,2.29,0,0,0,.23,1c.14.22.22.32-.07.52l.34.1-.14.43c0,.08-.11.15-.11.22A1.84,1.84,0,0,1,33,15c-.08,1.13-.08,2.27-.27,3.38-.41,2.45-.92,4.89-1.4,7.38l-.13-.12A2.87,2.87,0,0,0,28.35,24a3.28,3.28,0,0,0-2.73,2,.21.21,0,0,0,0,.11h0l-.07.08a4.17,4.17,0,0,0-.17,3.14c0,.09.13.15.19.23a4.9,4.9,0,0,0-.42,3.58,3.73,3.73,0,0,0,2.74,2.95,5.58,5.58,0,0,0,.59.09L28,36.9,28,37a6.68,6.68,0,0,1,2.27-1.3l.38,3.18a1.72,1.72,0,0,0-.49-.19H28.8l.34-.39-1.5.68v-.29h-.81a.31.31,0,0,0-.2.11,3.77,3.77,0,0,0-.14.58l-1,.17c-.07-.78-.21-.91-1-.87h0c-.19,0-.23.09-.17.26l.24.66h-.74V37.85c0-.72,0-.71-.72-.71-.24,0-.3.09-.3.32v1.92L22,39.13V37.2L21.33,37l-.5-.79.05-.05a4.58,4.58,0,0,0,.83-.08,3.94,3.94,0,0,0,2.91-2.76,5.44,5.44,0,0,0-.34-4.46s.14-.11.15-.17a4.24,4.24,0,0,0-.28-2.41l-.06-.16L24,26.06h0a.24.24,0,0,0,0-.12A3.26,3.26,0,0,0,20.58,23.94Zm8.66,14.29Zm3.29-19.74h0l-.07.06v-.29c.06-.93.16-1.86.16-2.79A5.78,5.78,0,0,0,32.07,13c0-.09-.1-.18-.16-.27.6,3.17.07,6.26-.38,9.36A7.74,7.74,0,0,0,31.88,21c.22-.81.41-1.62.62-2.43Z" transform="translate(-1.29 0)"/><path class="i" d="M15.24,53.06l.18-.1c.5.79,1,1.6,1.5,2.33.75,1,1.56,2,2.38,3a16.19,16.19,0,0,0,4.3,3.56,11.26,11.26,0,0,0,4,1.49,12,12,0,0,0,1.69.19c.63,0,1.27-.08,1.9-.13l.4.34A29.8,29.8,0,0,0,37,67.49c.67.36,1.37.66,2.06,1h.12l2.76,1.36c.57.28,1.15.54,1.72.81a1.44,1.44,0,0,0,0,1.34.43.43,0,0,1,0,.35c-.08.22-.19.43-.29.64-.93-.14-1.87-.25-2.8-.42A45.55,45.55,0,0,1,33,70.45a41.8,41.8,0,0,1-6.86-3.34A16.73,16.73,0,0,1,22.31,64c-1-1.12-1.9-2.33-2.86-3.5-.19-.24-.44-.44-.61-.7s-.45-.75-.66-1.14q-1.41-2.61-2.8-5.22C15.34,53.31,15.29,53.18,15.24,53.06Z" transform="translate(-1.29 0)"/><path class="j" d="M33.15,14.25l.12-.33-.34-.1c.29-.2.21-.3.07-.52a2.29,2.29,0,0,1-.23-1,7.53,7.53,0,0,1,0-1L33,12c0,.06.07.14.11.2a7,7,0,0,1,1.21,5.12c-.17,2.18-.48,4.35-.71,6.53-.2,2-.38,4-.58,6V30a1.75,1.75,0,0,0-.12.32v1a3.25,3.25,0,0,0,.06.79v.75A.33.33,0,0,0,33,33v1.67c0,.06.08.11.12.17l.42,3.61v.37l-.75-.11V38.2c0-.16,0-.37-.32-.37s-.3.14-.3.36c0,.51,0,.51-.5.54h-.07v.4h.17c.36-.06.43.11.41.44v1.89a.86.86,0,0,0,.79.93.93.93,0,0,0,.33,0c.4-.09.41-.1.22-.5-.71-.05-.73-.07-.73-.8V39.78c0-.6,0-.6.58-.63h.14v-.37a4,4,0,0,1,.16.57,48,48,0,0,0,5.81,15,35.78,35.78,0,0,0,3,4.32,1.21,1.21,0,0,0,0,.38,5.31,5.31,0,0,1,.36,1.76c-.65-.78-1.27-1.59-2-2.33a32.51,32.51,0,0,1-6.07-8.84,40.44,40.44,0,0,1-3.57-11.86c-.1-.76-.15-1.52-.22-2.3l1.22-.18v-.06l-1.21-.17a4.89,4.89,0,0,0,.39-5.76.33.33,0,0,1,0-.24c.18-1.13.34-2.27.54-3.4a67.61,67.61,0,0,0,1.28-8Z" transform="translate(-1.29 0)"/><path class="k" d="M26.05,8.78c-.38.25-.77.48-1.14.75a16,16,0,0,0-2.76,2.15c-.81.84-1.7,1.61-2.47,2.48a20.9,20.9,0,0,0-2.92,4.24c-.77,1.47-1.44,3-2.16,4.48A.94.94,0,0,0,14.71,24a10.71,10.71,0,0,1,1.18,1.87,8.54,8.54,0,0,1,.88,3.2,7.89,7.89,0,0,1-.39,3.16,2.81,2.81,0,0,0,.06,1.35,5.48,5.48,0,0,1-.76,3.77c-.17.27-.35.51-.21.86a1.09,1.09,0,0,1,0,.44H15V42a19.8,19.8,0,0,1-1.18,1.84,6.08,6.08,0,0,1-1.09,1c-.07.06-.22,0-.34,0-.13-.55-.28-1.11-.4-1.67a.26.26,0,0,1,.1-.23c.29-.25.59-.47.89-.71a1.26,1.26,0,0,0,1.24-.47c.31-.3.24-.57-.17-.71h-.29a1.74,1.74,0,0,1,.05-.22c.49-1.11-1.36-2.67-1.95-3.73.75-.88-.88-2.31-.73-3.45,0-.24,1.26.17,1.22-.08-.07-.44-.88-1-.88-2.29a15.93,15.93,0,0,1,.7-6L12.45,24c.51-1.29,1-2.6,1.56-3.87a22.72,22.72,0,0,1,6-8.29,15.54,15.54,0,0,1,4.12-2.56c.55-.22,1.13-.39,1.7-.58Z" transform="translate(-1.29 0)"/><path class="b" d="M12,77.39a2.75,2.75,0,0,1,1.38-1.31,18,18,0,0,1,4.11-1.35c.74-.16,1.47-.3,2.18-.44-.08-1-.19-2.06-.23-3.09a22.45,22.45,0,0,1,.5-5.72l.29.32A2.6,2.6,0,0,1,21,67.39c0,1.38,0,2.76.07,4.14a13.49,13.49,0,0,0,.07,1.68,5.72,5.72,0,0,0,.12.83c.08.41.22.82.27,1.24a3.78,3.78,0,0,1-.43,2.14c-.19.38-.35.83-.88.88a10.85,10.85,0,0,1-1.5.13c-1.37-.06-2.75-.14-4.12-.27A7.33,7.33,0,0,1,12,77.39Z" transform="translate(-1.29 0)"/><path class="b" d="M35.57,72.5l-.17,1.77c.92.2,1.85.35,2.75.6,1.12.32,2.22.69,3.32,1.1a2.58,2.58,0,0,1,1.38,1,1.42,1.42,0,0,0-.29.1,8.09,8.09,0,0,1-3.37.93,14.43,14.43,0,0,1-2.46,0,9.68,9.68,0,0,1-2.13-.42,1.67,1.67,0,0,1-1.24-2A1.86,1.86,0,0,1,33.6,75a1.58,1.58,0,0,0,.13-.57,10.62,10.62,0,0,1,.06-1.38c0-.22.13-.3.34-.27l1.3.16v-.5h.13Z" transform="translate(-1.29 0)"/><path class="l" d="M20.15,64.26l.33-1.33a20.72,20.72,0,0,0,1.67,1.71,1.57,1.57,0,0,1,.58,1.73,20.87,20.87,0,0,0-.31,5.41c.06.77.15,1.54.23,2.31a.31.31,0,0,0,.14.23,1.54,1.54,0,0,1,1,1.27,10.41,10.41,0,0,1,.1,1.48.6.6,0,0,1-.08.29,6.85,6.85,0,0,1-2.66,2.49A2.34,2.34,0,0,1,20,80.1c-1.63-.06-3.26-.16-4.88-.28-1.17-.08-2.33-.22-3.49-.33h-.28l.09-.93.18.07h0c.87.12,1.74.26,2.62.35,1.21.13,2.42.25,3.64.32a16.64,16.64,0,0,0,2-.06,2.13,2.13,0,0,0,1.87-1.07,3.78,3.78,0,0,0,.38-2.92,18.59,18.59,0,0,1-.5-4.52V67.4a2.18,2.18,0,0,0-.35-1.75A12.47,12.47,0,0,0,20.15,64.26Z" transform="translate(-1.29 0)"/><path class="m" d="M33,11.22a3,3,0,0,0-1.27-.1,1.34,1.34,0,0,1-1.34-1.36V9.59a.35.35,0,0,0,.1-.09Q31.73,7.61,33,5.7c.27-.42.51-.86.77-1.28A4.62,4.62,0,0,0,36,5.13l2,.35.26.07c-.28.25-.54.46-.77.7-1.4,1.41-2.79,2.83-4.16,4.24A3.27,3.27,0,0,0,33,11.22Z" transform="translate(-1.29 0)"/><path class="l" d="M35.51,72.5h-.07c-.58-.12-1.16-.23-1.73-.37-.23-.06-.35,0-.39.22a14.32,14.32,0,0,0-.27,1.84,1,1,0,0,1-.3.77,1.48,1.48,0,0,0-.41,1.2A2.57,2.57,0,0,0,33.44,78a6.18,6.18,0,0,0,3.42,1.1,7.67,7.67,0,0,1,1.27.07h0a9.36,9.36,0,0,0,1-.13,11.1,11.1,0,0,0,2.8-.6L43.32,78a3.51,3.51,0,0,1,.28,1.5c-.78.08-1.52.17-2.27.22-2,.16-4.06.29-6.08.44a2.8,2.8,0,0,1-2.1-.76,25,25,0,0,1-1.72-1.84,1.13,1.13,0,0,1-.19-.62,7.16,7.16,0,0,1,.1-1.31,1.68,1.68,0,0,1,1-1.3c.14-.06.21-.38.23-.6.09-.88.15-1.77.22-2.69l2.72.93Zm-2.69,1.44Zm5.45,5.43Z" transform="translate(-1.29 0)"/><path class="h" d="M20.15,64.26c.39.45.78.9,1.18,1.33a2.18,2.18,0,0,1,.35,1.75v3.33a18.59,18.59,0,0,0,.5,4.52,3.78,3.78,0,0,1-.38,2.92,2.13,2.13,0,0,1-1.87,1.07,16.64,16.64,0,0,1-2,.06c-1.22-.07-2.43-.19-3.64-.32-.88-.09-1.75-.23-2.62-.35h0l-.18-.07c.09-.24.19-.48.28-.73l.09-.17h0l.08-.14h0l.05-.08h0a7.33,7.33,0,0,0,2.62.77c1.37.13,2.75.21,4.12.27a10.85,10.85,0,0,0,1.5-.13c.53,0,.69-.5.88-.88a3.78,3.78,0,0,0,.43-2.14A6.7,6.7,0,0,0,21.27,74a5.72,5.72,0,0,1-.12-.83c0-.56-.06-1.12-.07-1.68,0-1.38,0-2.76-.07-4.14a2.58,2.58,0,0,0-.81-1.53l-.29-.32Z" transform="translate(-1.29 0)"/><path class="n" d="M33.76,4.42c-.26.42-.5.86-.77,1.28C32.16,7,31.32,8.23,30.48,9.5c-1.26,1.9-.07.06-.1.09-.14-.4-.52-.42-.83-.53-.5-.18-.63-.37-.61-.89A.15.15,0,0,0,28.88,8a4.35,4.35,0,0,0,.58-1c.38-1.14.71-2.29,1.06-3.44.25-.85.51-1.69.79-2.58.32.46.6.88.9,1.29C32.72,3,33.24,3.72,33.76,4.42Z" transform="translate(-1.29 0)"/><path class="b" d="M35.15,34.42a12.78,12.78,0,0,1,3.56,3.94c0,.1.1.2.14.3-.15.14-.3.28-.44.43A2.27,2.27,0,0,0,38,40.85c.06.42.1.88.55,1.13l-1.21,2.43.9,1.16c-.2-.12-.16.08-.22.16s-.29.44-.46.45S37.16,46,37,45.8s0-.07-.06-.11a8.68,8.68,0,0,1-.77-3.36,4.16,4.16,0,0,0,.47-.24A2.15,2.15,0,0,0,36.78,39l-.19-.19h0l.33-1.28c-.53-.1-1-.17-1.51-.28a.44.44,0,0,1-.29-.33C35.15,36.09,35.15,35.25,35.15,34.42Z" transform="translate(-1.29 0)"/><path class="h" d="M38.15,79.19c-.42,0-.84-.06-1.27-.07A6.18,6.18,0,0,1,33.46,78a2.57,2.57,0,0,1-1.1-1.86,1.48,1.48,0,0,1,.41-1.2,1,1,0,0,0,.3-.77,14.32,14.32,0,0,1,.27-1.84c0-.23.16-.28.39-.22.57.14,1.15.25,1.73.37V73l-1.31-.15c-.21,0-.33.05-.34.27a10.62,10.62,0,0,1-.06,1.38,1.58,1.58,0,0,1-.13.57,1.65,1.65,0,0,0,.46,2.3,1.75,1.75,0,0,0,.54.24,9.68,9.68,0,0,0,2.13.42,14.43,14.43,0,0,0,2.46,0,8.09,8.09,0,0,0,3.37-.93,1.42,1.42,0,0,1,.29-.1h0l.05.07h0v.14l.44.75L42,78.45a11.1,11.1,0,0,1-2.8.6,7.35,7.35,0,0,0-1,.13Z" transform="translate(-1.29 0)"/><path class="o" d="M31.85.76c.79.13,1.47.29,2.17.34A4.76,4.76,0,0,1,37.6,3.35c.35.49.65,1,1,1.52l-.06.07L36,4.5c-1.81-.3-1.75-.3-2.79-1.8C32.78,2.08,32.34,1.47,31.85.76Z" transform="translate(-1.29 0)"/><path class="l" d="M42.77,60.77A5.31,5.31,0,0,0,42.41,59a1.21,1.21,0,0,1,0-.38h.05a13.23,13.23,0,0,1,3.3,5.79c.2.66.33,1.35.49,2l-.7.89a4.2,4.2,0,0,1-1-1.81c-.15-.46,0-1-.46-1.36l.17-.29h-.11L44,64h0l0-.11h0l.15-.1L44,63.5h-.18l.07-.13a2.18,2.18,0,0,0-.11-.44c-.31-.69-.64-1.37-1-2.06h0Z" transform="translate(-1.29 0)"/><path class="m" d="M45.55,67.37l.7-.89,2,2.06c-1.26,0-1.75.81-2.11,1.75-.13.39-.25.79-.34,1.19l-2.16-.87c.13-.15.23-.36.39-.45a1.55,1.55,0,0,0,.75-.86C45.07,68.66,45.31,68,45.55,67.37Z" transform="translate(-1.29 0)"/><path class="l" d="M38.27,46.58l-.2.94.44-.37a1.41,1.41,0,0,1,.78,1.7,1.17,1.17,0,0,1-1.4.83l-.14,0a.49.49,0,0,1-.21-.28c-.58-1.41-1.17-2.81-1.69-4.24-.34-.92-.59-1.87-.87-2.8l.52.14L35.77,44a6.64,6.64,0,0,0,.82,2.36c.45.73.84.8,1.56.37Z" transform="translate(-1.29 0)"/><path class="g" d="M46.44,72a4.12,4.12,0,0,1,.71-2.33,1,1,0,0,1,1.26-.37.51.51,0,0,1,.23.29,3.33,3.33,0,0,1-.41,2.35,5.69,5.69,0,0,1-.62.84.7.7,0,0,1-.82.23c-.32-.15-.34-.47-.38-.77A1,1,0,0,1,46.44,72Z" transform="translate(-1.29 0)"/><path class="o" d="M43.67,70.61l2.16.87a2.63,2.63,0,0,0,.41,1.87l-3-.39c.1-.21.21-.42.29-.64a.43.43,0,0,0,0-.35,1.44,1.44,0,0,1,0-1.34Z" transform="translate(-1.29 0)"/><path class="l" d="M35.5,38.26a2.61,2.61,0,0,0-1.16,1.39,32.52,32.52,0,0,1-.69-6.37l.78.6.07.08h0c0,.93.06,1.85.14,2.78a1.25,1.25,0,0,0,.84,1.35S35.5,38.2,35.5,38.26Z" transform="translate(-1.29 0)"/><path class="h" d="M38.27,46.58l-.12.06c-.72.43-1.11.36-1.56-.37a6.64,6.64,0,0,1-.82-2.36L35.5,42.4l.61-.07h0a8.77,8.77,0,0,0,.74,3.31s0,.09.06.11.36.4.53.38.32-.28.46-.45,0-.28.22-.16Z" transform="translate(-1.29 0)"/><path class="h" d="M35.5,38.26v-.18c-.67-.21-.8-.77-.84-1.35-.08-.93-.1-1.85-.14-2.78l.47.34.07.06h0l.08.07h0v2.51a.44.44,0,0,0,.29.33c.48.11,1,.18,1.51.28l-.36,1.31-.81-.2-.2-.14.13-.2.09-.1h0a1.17,1.17,0,0,1-.24.09Z" transform="translate(-1.29 0)"/><path class="b" d="M38.5,41.93c-.45-.25-.49-.71-.55-1.13a2.24,2.24,0,0,1,.43-1.71c.14-.15.29-.29.44-.43l.2.56a2.67,2.67,0,0,0-.36.74,1.64,1.64,0,0,0,.1,1.3Z" transform="translate(-1.29 0)"/><path class="k" d="M34.72,41.11c0-.49.07-1,.11-1.46a.94.94,0,0,1,.12-.22l.69-.27a2.94,2.94,0,0,0,0,.42c0,.76-.07,1.52-.1,2.28a1.58,1.58,0,0,1-.39-.24A5.27,5.27,0,0,1,34.72,41.11Z" transform="translate(-1.29 0)"/><path class="l" d="M10.86,41.67Z" transform="translate(-1.29 0)"/><path class="k" d="M13.74,41.08H14c.41.14.48.41.17.71a1.26,1.26,0,0,1-1.24.47l.64-.95.09-.15h0l.06-.08Z" transform="translate(-1.29 0)"/><path class="h" d="M34.72,41.11a4.91,4.91,0,0,0,.39.51,1.58,1.58,0,0,0,.39.24h.65v.47l-.61.07L35,42.26Z" transform="translate(-1.29 0)"/><path class="p" d="M38.76,41.26a1.64,1.64,0,0,1-.1-1.3,2.67,2.67,0,0,1,.36-.74,8.46,8.46,0,0,1-.08,1.44A3,3,0,0,1,38.76,41.26Z" transform="translate(-1.29 0)"/><path class="k" d="M35.64,39.16l-.69.27a1.32,1.32,0,0,1,.62-1l.2.14-.07.53Z" transform="translate(-1.29 0)"/><path class="b" d="M33,32.07c0-.27,0-.53-.06-.79s0-.67,0-1a1.75,1.75,0,0,1,.12-.32Z" transform="translate(-1.29 0)"/><path class="b" d="M33.06,34.77c0-.06-.11-.11-.12-.17V32.93a.16.16,0,0,1,.06-.12Z" transform="translate(-1.29 0)"/><path class="h" d="M35.51,72.5v-.56c.34.13.07.38.11.56h-.11Z" transform="translate(-1.29 0)"/><path class="f" d="M35.77,38.21l-.07.07h-.15Z" transform="translate(-1.29 0)"/><path class="b" d="M42.94,77.21v0Z" transform="translate(-1.29 0)"/><path class="b" d="M35,34.35,35,34.29Z" transform="translate(-1.29 0)"/><path class="b" d="M11.93,77.48l-.08.14Z" transform="translate(-1.29 0)"/><path class="b" d="M11.86,77.61l-.09.17Z" transform="translate(-1.29 0)"/><path class="k" d="M13.69,41.16l-.09.15Z" transform="translate(-1.29 0)"/><path class="h" d="M34.5,34l-.07-.11Z" transform="translate(-1.29 0)"/><path class="j" d="M42.46,58.66h0Z" transform="translate(-1.29 0)"/><path class="b" d="M35.15,34.42l-.08-.07Z" transform="translate(-1.29 0)"/><path class="g" d="M33.41,31.33l.07.06h0l-.07-.07Z" transform="translate(-1.29 0)"/><path class="g" d="M33.34,31.26l.07.07h0l-.07-.06Z" transform="translate(-1.29 0)"/><path class="g" d="M33.27,31.19l.07.07h0l-.06-.07Z" transform="translate(-1.29 0)"/><path class="g" d="M33.28,31.19Z" transform="translate(-1.29 0)"/><path class="b" d="M42.89,77.06l0-.07Z" transform="translate(-1.29 0)"/><path class="b" d="M12,77.4l-.05.08Z" transform="translate(-1.29 0)"/><path class="m" d="M33,11.67Z" transform="translate(-1.29 0)"/><path class="k" d="M13.74,41.09l-.06.08Z" transform="translate(-1.29 0)"/><path class="q" d="M23.36,52.26a29.91,29.91,0,0,1-2.09-5.72c-.3-1.18-.54-2.39-.8-3.58a3.75,3.75,0,0,0-.09-.57v-.06l.64-.21c0,.27.2.2.39.21h.3c.22,0,.29-.06.29-.29V40a1.86,1.86,0,0,1,.07-.34l.73.27v1.68c0,.69,0,.68.71.68.26,0,.32-.09.31-.33V40.18l1,.06a2.29,2.29,0,0,0,.07.36c.16.49.32,1,.51,1.46a.54.54,0,0,1-.06.62,5.58,5.58,0,0,1-.64.44.9.9,0,0,0-.09.43c0,.21.08.26.28.27a1.18,1.18,0,0,0,1.29-.9c.29-.81.58-1.63.86-2.44a7.19,7.19,0,0,0,.2-.8l1-.53v.14c-.14.76,0,1.06.77,1.31l1.23.45.06.53a1.11,1.11,0,0,1-1.19.21.46.46,0,0,1-.29-.27c-.06-.39-.29-.38-.61-.3a2.81,2.81,0,0,1,0,.41c-.06.33.12.48.39.59a2.59,2.59,0,0,0,1.78,0h.05a3.53,3.53,0,0,0,0,.46c.32,1.4.65,2.79,1,4.18l-.28-.1c-.07,0-.18-.11-.22-.08-.24.17-.46.36-.69.55a1,1,0,0,1-.31.22c-.19,0-.34.09-.29.32s-.07.32-.29.23-.28,0-.25.2a.38.38,0,0,1-.08.25c-.16.18-.33.34-.5.51s-.11.1-.15.09c-.25,0-.3.12-.38.29s-.13.19-.2.19c-.33,0-.42.16-.31.39-.18.08-.4.1-.45.2a1.85,1.85,0,0,0-.06.57,1,1,0,0,1,0,.24c-.3,0-.53.5-.89.09a2.55,2.55,0,0,1-.18.53,1.65,1.65,0,0,1-.41.28h0c-.21.54-.72.76-1.15,1.08l-.31.24Zm2.79-1.41h0v0Z" transform="translate(-1.29 0)"/><path class="f" d="M24.28,28.85a5.43,5.43,0,0,1,.35,4.49,3.94,3.94,0,0,1-2.91,2.76,4.58,4.58,0,0,1-.83.08h-.08v.06l.5.79-.07.06-1.42-1h0L19.68,36h0l-.13-.1a8.53,8.53,0,0,0-2.38-.62l.42-.09.47-.06h.51l-.18-.22a5.29,5.29,0,0,1,.23-7A3.3,3.3,0,0,1,23,27.56,9.68,9.68,0,0,1,24.28,28.85Zm-5.94,5.08.08.14m0,0,.07.09a9.18,9.18,0,0,0,1,1.07,2.73,2.73,0,0,0,3.2,0c.17-.13.36-.25.51-.39a4.76,4.76,0,0,0-.1-6.73l-.3-.27a2.73,2.73,0,0,0-2-.56,3.15,3.15,0,0,0-2.23,1.4,4.75,4.75,0,0,0-.66,4.12,1.9,1.9,0,0,0,.3.82h0l.15.28Z" transform="translate(-1.29 0)"/><path class="f" d="M23.36,52.26l.57.92.26.43.48.81.17.26.32.51.11.18.41.61.27.4.24.32.06.09v.07l.92,1.21,0,.08h0l.06.07h0l.14.13.39.52,2.13,2.4.09.08h0l.07.07h0l.1.1.75.75.1.1h0l.06.06h0l.09.08.18.17.23.21.35.32.12.11.49.43.12.11.34.3.13.1.62.51.12.1,2,1.52.12.09h0l.22.18h.07l2.36,1.54.28.22c-.69-.32-1.39-.62-2.06-1a29.8,29.8,0,0,1-5.36-3.75l-.4-.34c-.89-.91-1.82-1.8-2.66-2.75A29.11,29.11,0,0,1,23.36,52.26Z" transform="translate(-1.29 0)"/><path class="h" d="M15,42.06v-.21a4.43,4.43,0,0,0,.2-.45,8,8,0,0,0,.28-2.72h.41L16,39a3.13,3.13,0,0,1,.83-.33c1-.1,1.3.4,1.35,1.22s0,1.48,0,2.22c0,.19-.06.25-.25.26-.77,0-.77,0-.77-.72V39.92c0-.39-.12-.5-.54-.5s-.6.12-.6.52v2c0,.31-.09.41-.38.37a2.29,2.29,0,0,0-.37,0C15,42.35,15,42.26,15,42.06Z" transform="translate(-1.29 0)"/><path class="f" d="M28.76,10.85a14.94,14.94,0,0,0-3.52,3.62,25.29,25.29,0,0,0-2.5,4.38c-.51,1.14-1,2.3-1.47,3.45,0,.07-.11.11-.17.16a22.1,22.1,0,0,1,2-5.63,14.76,14.76,0,0,1,3.94-5,16.87,16.87,0,0,1,1.45-.92Z" transform="translate(-1.29 0)"/><path class="e" d="M20.58,23.94a3.25,3.25,0,0,1,3.38,2,.24.24,0,0,1,0,.12,18.28,18.28,0,0,0-1.74-.66,5.26,5.26,0,0,0-4.07.71A3,3,0,0,1,20.58,23.94Z" transform="translate(-1.29 0)"/><path class="h" d="M20.39,42.33v.06a1.44,1.44,0,0,1-1.61-1.27,2,2,0,0,1,0-.35,4.31,4.31,0,0,1,.16-1.29,1.16,1.16,0,0,1,1-.87h0l.07.87v.07s-.11,0-.13.08a1.78,1.78,0,0,0-.12,1.48c.06.22.17.44.46.46h.06Z" transform="translate(-1.29 0)"/><path class="b" d="M19.85,36l1.42,1c-.07.14-.19.27-.2.4v1.25l-.81-.43-.11,0h0l.11.06.25.29H20Z" transform="translate(-1.29 0)"/><path class="e" d="M24,26.06l.08.05Z" transform="translate(-1.29 0)"/><path class="b" d="M19.58,35.85l.13.1Z" transform="translate(-1.29 0)"/><path class="b" d="M19.71,36l.14.08Z" transform="translate(-1.29 0)"/><path class="k" d="M26.05,8.78h0Z" transform="translate(-1.29 0)"/><path class="f" d="M28.82,10.85h0Z" transform="translate(-1.29 0)"/><path class="f" d="M42.8,60.85c.33.69.66,1.37,1,2.06a2.18,2.18,0,0,1,.11.44l-.12-.09h0l-.06-.13h0l-.1-.28h0l-.07-.14h0l-.06-.13h0l-.06-.12h0l-.09-.18h0l-.07-.14h0L43.2,62h0l-.05-.16h0a8.27,8.27,0,0,0-.76-1.19c-.93-1-1.9-2-2.86-3l-.18-.2-1-1.2v-.09a30.8,30.8,0,0,1-4.66-7.69A44.39,44.39,0,0,1,31,39.83l-.27-1-.34-3.21a6.68,6.68,0,0,0-2.27,1.3L28,36.87l.51-.73a5.58,5.58,0,0,1-.59-.09,3.74,3.74,0,0,1-2.78-2.92,4.89,4.89,0,0,1,.41-3.56c.17-.23.32-.47.5-.68a3,3,0,0,1,4.13-.69c.2.13.38.29.58.43.15-.79.28-1.55.43-2.32,0-.16,0-.26-.15-.35a5.56,5.56,0,0,0-3-.61,6.39,6.39,0,0,0-2.41.78.21.21,0,0,1,0-.11,3.28,3.28,0,0,1,2.73-2,2.87,2.87,0,0,1,2.89,1.65l.13.12c.48-2.49,1-4.93,1.4-7.38.19-1.11.19-2.25.27-3.38V14.5c0-.18.07-.14.11-.22,0,1.14,0,2.28,0,3.4a67.61,67.61,0,0,1-1.28,8c-.2,1.13-.36,2.27-.54,3.4a.33.33,0,0,0,0,.24A4.89,4.89,0,0,1,31,35.08l1.21.17v.06L31,35.49c.07.78.12,1.54.22,2.3a40.4,40.4,0,0,0,3.57,11.82,32.51,32.51,0,0,0,6.07,8.84c.7.74,1.32,1.55,2,2.33h0ZM29.85,35.32a3.62,3.62,0,0,0,.76-.45,4.37,4.37,0,0,0,0-5.75,2.63,2.63,0,0,0-3.71-.29,4,4,0,0,0-.29.29,3.34,3.34,0,0,0-.35.4,4.43,4.43,0,0,0,0,4.93A3,3,0,0,0,28,35.67,2.15,2.15,0,0,0,29.85,35.32Z" transform="translate(-1.29 0)"/><path class="j" d="M25.65,26.13a6.39,6.39,0,0,1,2.41-.78,5.56,5.56,0,0,1,3,.61c.17.09.18.19.15.35-.15.77-.28,1.53-.43,2.32-.2-.14-.38-.3-.58-.43a3,3,0,0,0-4.05.65c-.18.21-.33.45-.5.68-.06-.08-.17-.14-.19-.23a4.17,4.17,0,0,1,.17-3.14l.07-.08Z" transform="translate(-1.29 0)"/><path class="c" d="M32.46,18.56c-.21.81-.4,1.62-.62,2.43a7.74,7.74,0,0,1-.35,1.06c.45-3.1,1-6.19.38-9.36.06.09.11.18.16.27a5.78,5.78,0,0,1,.55,2.52c0,.93-.1,1.86-.16,2.79v.29Z" transform="translate(-1.29 0)"/><path class="q" d="M28.21,39.15l.59-.47h1.39a1.72,1.72,0,0,1,.49.19l.14.86c-.26.15-.45.13-.51-.2s-.25-.36-.49-.38h-.44a.5.5,0,0,0-.54.41.48.48,0,0,0,.39.55l.94.26.07.68L29,40.6c-.73-.25-.91-.55-.77-1.31C28.25,39.25,28.22,39.2,28.21,39.15Z" transform="translate(-1.29 0)"/><path class="b" d="M23.83,39.55l-1-.19V37.44c0-.23.06-.32.3-.32.71,0,.71,0,.72.71Z" transform="translate(-1.29 0)"/><path class="b" d="M22,39.11l-.93-.41V37.45c0-.13.13-.26.2-.4l.07-.06.65.21Z" transform="translate(-1.29 0)"/><path class="b" d="M25.51,39.55h-.94l-.24-.66c-.06-.17,0-.27.17-.26h0C25.3,38.64,25.44,38.77,25.51,39.55Z" transform="translate(-1.29 0)"/><path class="b" d="M27.54,39l-1.07.34a3.77,3.77,0,0,1,.14-.58.31.31,0,0,1,.2-.11h.81V39h0Z" transform="translate(-1.29 0)"/><path class="c" d="M32.53,18.5Z" transform="translate(-1.29 0)"/><polygon class="f" points="27.96 38.23 27.96 38.21 27.95 38.22 27.96 38.23"/><path class="f" d="M25.65,26.12l-.07.08Z" transform="translate(-1.29 0)"/><path class="c" d="M32.53,18.49l-.07.07h0l.07-.06Z" transform="translate(-1.29 0)"/><path class="f" d="M29.24,38.23h0Z" transform="translate(-1.29 0)"/><path class="r" d="M39,68.45l-.28-.22-2.36-1.54.07-.13h0a.57.57,0,0,0,.16.11,5.81,5.81,0,0,0,3.07.55,2.74,2.74,0,0,0,2.17-1.54v-.06a11.09,11.09,0,0,0,.67-1.22,6.7,6.7,0,0,0,.41-2.62h.22v.07h0l.08.14h0l.08.13h0l.07.14h0l.09.18h0l.06.12h0l.06.13h0l.07.14h0a.46.46,0,0,0,.08.19h0l.06.13h0v.22h0l.13.34h0l.07.19h0l.07.2c.46.34.31.9.46,1.36a4.2,4.2,0,0,0,1,1.81c-.24.64-.48,1.29-.74,1.93a1.55,1.55,0,0,1-.75.86c-.16.09-.26.3-.39.45h-.06c-.57-.27-1.15-.53-1.72-.81l-2.72-1.25Z" transform="translate(-1.29 0)"/><path class="j" d="M33.48,38.74v.37h-.14c-.58,0-.58,0-.58.63V41c0,.73,0,.75.73.8.19.4.18.41-.22.5a.87.87,0,0,1-1.08-.56.92.92,0,0,1,0-.29V39.59c0-.33,0-.5-.41-.44h-.17v-.4h.07c.5,0,.51,0,.5-.54,0-.22,0-.35.3-.36s.33.14.32.37,0,.31,0,.48l.75.11Z" transform="translate(-1.29 0)"/><path class="k" d="M15.46,38.68a8.05,8.05,0,0,1-.31,2.72,4.43,4.43,0,0,1-.2.45V38.72Z" transform="translate(-1.29 0)"/><path class="h" d="M32.82,73.94Z" transform="translate(-1.29 0)"/><path class="h" d="M38.27,79.37Z" transform="translate(-1.29 0)"/><path class="h" d="M38.15,79.18Z" transform="translate(-1.29 0)"/><path class="l" d="M11.67,78.58Z" transform="translate(-1.29 0)"/><path class="b" d="M36.15,42.33v-.55a1.7,1.7,0,0,0,.34-2.15v-.14l.14-.61a2.17,2.17,0,0,1,.22,3l-.16.16a4.16,4.16,0,0,1-.47.24Z" transform="translate(-1.29 0)"/><path class="h" d="M36.59,38.85l-.14.61c-.22-.18-.42-.4-.75-.34l.07-.53.81.2Z" transform="translate(-1.29 0)"/><path class="s" d="M43.94,63.79l-.13-.34H44l.1.25Z" transform="translate(-1.29 0)"/><path class="s" d="M44.08,64.2,44,64l.14-.15h.07Z" transform="translate(-1.29 0)"/><path class="s" d="M44,64l-.07-.14Z" transform="translate(-1.29 0)"/><path class="s" d="M43.81,63.45v-.22l.12.09Z" transform="translate(-1.29 0)"/><path class="j" d="M42.8,60.85" transform="translate(-1.29 0)"/><path class="f" d="M35.8,38.15Z" transform="translate(-1.29 0)"/><path class="h" d="M35.7,39.15c.33-.06.53.16.75.34v.14l-.3,2.15v.07h-.61c0-.76.06-1.52.1-2.28a2.94,2.94,0,0,1,0-.42Z" transform="translate(-1.29 0)"/><path class="f" d="M10.84,41.67h0" transform="translate(-1.29 0)"/><path class="s" d="M41.85,65.68a2.74,2.74,0,0,1-2.17,1.54,5.81,5.81,0,0,1-3.07-.55.57.57,0,0,1-.16-.11l.17-.08-.12-.09,0,.17-.07.13h-.07l-.22-.18h0L36,66.42,34,64.9l-.12-.1-.62-.51-.13-.1-.34-.3-.12-.11-.49-.42L32,63.25l-.35-.32-.23-.21-.18-.17-.12-.08h0l-.06-.06h0l-.1-.1-.75-.75-.1-.1h0l-.07-.07h0L30,61.31l-2.13-2.4.23-1.25a.39.39,0,0,0,.49-.26s0,0,0-.06.13-.12.21-.15a.39.39,0,0,0,.29-.47h0v-.07c.05,0,.11-.07.14,0,.27.1.43.07.41-.27,0-.09.11-.25.16-.25.4,0,.38-.24.3-.51v-.07l.07-.07.27-.13.07-.07.13-.07.9.66.18-.12.11-.05-.11-.08-.06-.14-.2-.13-.14-.14h-.16c-.21,0-.45,0-.4-.33l.13.06L31,55H31l.2-.54v-.2l-.88-.07-.2-.14v-.2h0v-.29l-.38.09-.14-.07-.13-.13-.07-.07-.2-.2-.14-.07a.81.81,0,0,1,0-.22c0-.39,0-.42-.39-.35l.26.93.23-.11c.11.13.21.22.29.33s.45.22.4.53.1.29.28.35.25.14.24.21-.09.34-.18.36c-.4.06-.34.34-.34.6l-.13.14c-.37-.09-.54.2-.71.42a1.81,1.81,0,0,0-.17.59l-.2.07c-.46-.13-.5.45-.77.48l-.24.6h0l-.36.16-.05-.08a.47.47,0,0,0-.16-.65h0c-.14-.09-.18-.32-.27-.49l.07-.1h-.54v-.6l-.34.12-.27-.4a1.19,1.19,0,0,0,.15-.35,1.51,1.51,0,0,0-.1-.42l-.3.11-.16.05-.16-.19c.16-.42.11-.5-.32-.51l-.17-.26c.28-.24.11-.53,0-.79h-.5l-.26-.43.31-.24c.43-.32.94-.54,1.15-1.08h0a1.65,1.65,0,0,0,.41-.28,2.55,2.55,0,0,0,.18-.53c.36.41.59-.06.89-.09a1,1,0,0,0,0-.24,1.85,1.85,0,0,1,.06-.57c.05-.1.27-.12.45-.2-.11-.23,0-.38.31-.39.07,0,.16-.11.2-.19s.13-.34.38-.29a.71.71,0,0,0,.15-.09s.34-.33.5-.51a.38.38,0,0,0,.08-.25c0-.22,0-.3.25-.2s.35.06.29-.23.1-.28.29-.32a1,1,0,0,0,.31-.22c.23-.19.45-.38.69-.55a.34.34,0,0,1,.22.08l.35.16.09.26-.14.29.28.11.06.18c-.07.14-.12.28.12.3l.19.48c-.21.23-.09.5.25.59l.22.49c-.25.13,0,.28,0,.42h.19l.11.23c-.09.06-.2.1-.25.18s0,.2.11.22c.52.16.36.74.78,1l-.44.1.07.63v.07l-.59.13v.14h.45c.21.2.33.14.44-.11s.18-.19.28-.28a1.88,1.88,0,0,1,.23-.16c.47.64.89,1.32,1.41,1.92.77.87,1.6,1.68,2.41,2.52l-.32.3h-.13c-.38-.15-.38-.15-.41.24v.09a2.1,2.1,0,0,0-.5.24A.93.93,0,0,0,36,58a1,1,0,0,0,0,.39s-.28,0-.43,0l-.56.1h-.28l-.2-.07-.14-.14v-.06c0-.4-.34-.29-.54-.41v-.06c0-.14.08-.35-.2-.34l-.13.07c-.16,0-.18.11,0,.19l.24.08v.06l-.22.41c.41-.09.51.15.63.4s.19.15.31.23l.09-.29h.07l.2.2.07.07c-.38.38-.29,1-.75,1.35l-.1.05.1.08c.21.14.35.08.4-.15a.35.35,0,0,1,.39-.31H35a.76.76,0,0,0,.65-.16h.24v-.07h-.16l-.07-.07a.79.79,0,0,1-.07-.81h.14c.47.18.44-.41.75-.49a.22.22,0,0,0,.11-.12.15.15,0,0,0,0-.13c-.08-.28.1-.36.32-.36s.24,0,.21-.23v-.22l.14-.07h1c0,.33.29.57.7.57.22.28.35.11.48-.08,1,1,1.93,2,2.86,3a7.81,7.81,0,0,1,.83,1.15H43a6.7,6.7,0,0,1-.41,2.62,11.09,11.09,0,0,1-.67,1.22ZM31.93,53.85h.38a.53.53,0,0,1,.38-.57c.1,0,.14-.2.25-.37L32.6,53h-.07l-.2.2h-.07L32,53.09c0,.27-.12.47-.43.43l-.15.13c-.05,0,.08.11.13.12a.34.34,0,0,0,.2,0Zm1.28,3-.2-.07-.14-.14v-.06c0-.41,0-.41-.54-.41l-.07-.07-.11-.2-.22.75.48-.12c-.06.58.47.59.77.82l.12-.1.06-.14Zm-5.74-6c-.41.1-.51.32-.32.58a.25.25,0,0,0,.2.07s.11-.08.11-.13A4.51,4.51,0,0,0,27.47,50.85ZM27.58,52v.12h.57a1,1,0,0,0-.29-.31h-.07Zm4.11,2.19a.9.9,0,0,0-.15.19.13.13,0,0,0,.08.11.54.54,0,0,0,.15-.15l-.08-.16Zm7.76,9.16,0,.06.18-.12-.06-.07Zm-.44.54h0l.05-.12H39ZM31.63,54h0v0c0,.05,0,0,.06,0s-.07,0-.06-.06Zm7.74,9.58v-.06h0v.06Zm-1.55,1.55v-.06h-.06l.06.05Zm-1.39-4.88v.06h0Zm-.48-.4v-.06h-.06v.06ZM41,62h-.06v.12h0Zm-8.4-.12v-.06h0S32.53,61.85,32.55,61.85Zm5.49,0h0v.06c0,.06,0,0,.06,0S38,61.85,38,61.85Zm-.48,3.5H37.5v.13h0Zm.42-.43h.13l0-.07Zm1.39-1.72ZM28.52,52.29h-.07s0,0,0,.05Zm9.31,9.32h-.06v0ZM36.15,60h0Zm4.92,4.82h0Zm-.93-1Zm-1.78.85Zm2.5-.06Zm-4,1.62M32,55.85Zm4.7,4.65.73.79Zm3.72.35Zm-2.89.41Zm.71.83Z" transform="translate(-1.29 0)"/><path class="c" d="M37.71,56.61c-.81-.84-1.64-1.65-2.41-2.52-.52-.6-.94-1.28-1.41-1.92L33.71,52h0a.81.81,0,0,0,0-.22l-.84-1.51L32.76,50l-.17-.37-.22-.49-.25-.59-.19-.48-.12-.3-.06-.18-.14-.4-.09-.26c-.32-1.39-.65-2.78-1-4.18a3.53,3.53,0,0,1,0-.46l.27-.22c.34,1.11.64,2.24,1,3.35a31.52,31.52,0,0,0,5.65,10.3c.2.23.42.44.62.66s.3.35.44.53l.38.48-.5-.3h0l-.48-.38Z" transform="translate(-1.29 0)"/><path class="q" d="M26.25,40l1-.36a7.19,7.19,0,0,1-.2.8c-.28.81-.57,1.63-.86,2.44a1.18,1.18,0,0,1-1.29.9c-.2,0-.29-.06-.28-.27a.9.9,0,0,1,.09-.43,5.58,5.58,0,0,0,.64-.44.54.54,0,0,0,.06-.62c-.19-.48-.35-1-.51-1.46a2.29,2.29,0,0,1-.07-.36l.87-.08.21.65H26Z" transform="translate(-1.29 0)"/><path class="q" d="M20.47,38.61l1.61,1.08A1.86,1.86,0,0,0,22,40v2c0,.23-.07.31-.29.29h-.3c-.19,0-.42.06-.39-.21l-.64.21-.08-.74c.61,0,.75-.15.75-.76q0-.32,0-.63c.08-.59-.26-1-1-.71L20,38.61Z" transform="translate(-1.29 0)"/><path class="q" d="M22.81,40l1,.22V42c0,.24,0,.34-.31.33-.71,0-.71,0-.71-.68Z" transform="translate(-1.29 0)"/><path class="q" d="M30.38,42.26a2.59,2.59,0,0,1-1.78,0c-.27-.11-.45-.26-.39-.59a2.81,2.81,0,0,0,0-.41c.32-.08.55-.09.61.3a.46.46,0,0,0,.29.27,1.11,1.11,0,0,0,1.19-.21Z" transform="translate(-1.29 0)"/><path class="c" d="M30.38,42.26l-.08-.68-.06-.53-.09-.68v-.65h.07l.18.79.32,1.43v.13l-.27.22Z" transform="translate(-1.29 0)"/><path class="s" d="M26.15,50.85v.06h-.06v-.06Z" transform="translate(-1.29 0)"/><path class="t" d="M18.63,28.75a3.15,3.15,0,0,1,2.23-1.4,2.73,2.73,0,0,1,2,.56,4.77,4.77,0,0,1,.67,6.7l-.27.3c-.15.14-.34.26-.51.39a.59.59,0,0,0-.23,0,3.13,3.13,0,0,1-2.91-1,5.08,5.08,0,0,1-1.15-4.69C18.51,29.25,18.57,29,18.63,28.75Zm2.52,4.9a1.23,1.23,0,0,0,0-2.45,1.25,1.25,0,0,0-1.23,1.25A1.22,1.22,0,0,0,21.15,33.65Z" transform="translate(-1.29 0)"/><path class="u" d="M18.63,28.75c-.06.25-.12.5-.17.75a5.08,5.08,0,0,0,1.15,4.69,3.13,3.13,0,0,0,2.91,1,.59.59,0,0,1,.23.05,2.73,2.73,0,0,1-3.2,0,9.18,9.18,0,0,1-1-1.07l-.07-.09m0,0-.08-.14h0l-.15-.28h0c.14-.36-.12-.58-.3-.82a4.79,4.79,0,0,1,.68-4Z" transform="translate(-1.29 0)"/><path class="v" d="M17.91,32.85c.18.24.44.46.3.82A1.9,1.9,0,0,1,17.91,32.85Z" transform="translate(-1.29 0)"/><path class="v" d="M18.2,33.63l.15.28Z" transform="translate(-1.29 0)"/><path class="v" d="M18.34,33.9l.08.14Z" transform="translate(-1.29 0)"/><path class="v" d="M18.43,34.09l.07.09Z" transform="translate(-1.29 0)"/><path class="b" d="M20.84,36.2v-.06h.08Z" transform="translate(-1.29 0)"/><path class="q" d="M29.5,53.4l.13.13.14.07.38-.09v.34h0l.07.13.2.14.88.07v.2l-.2.54H31l-.12-.08-.2-.2h0l.07.14c-.05.32.19.32.4.33h.14l.14.14.2.13.06.14v.13l-.18.12-.9-.66-.13.07-.07.07-.27.13-.07.07h0c.08.27.1.5-.3.51,0,0-.16.16-.16.25,0,.34-.14.37-.41.27h-.14a.39.39,0,0,1-.28.48h0a.26.26,0,0,0-.21.15.39.39,0,0,1-.44.33h-.06l-.23,1.25-.39-.52V58l-.16.07h0L27.25,58h0l.36-.16h0l.24-.6c.27,0,.31-.61.77-.48l.2-.07a1.81,1.81,0,0,1,.17-.59c.17-.22.34-.51.71-.42l.13-.14c0-.26-.06-.54.34-.6.09,0,.17-.23.18-.36s-.14-.18-.24-.21-.31-.14-.28-.35-.28-.35-.4-.53a2.51,2.51,0,0,0-.29-.33l-.23.11-.26-.93c.41-.07.44,0,.39.35a.81.81,0,0,0,0,.22l.14.07.2.2Zm-1,3.69h0v0s0,0,.05,0Zm-.35.26Zm2.3-3Z" transform="translate(-1.29 0)"/><path class="q" d="M26.28,56.85h.54l-.07.1c.09.17.13.4.27.49a.47.47,0,0,1,.19.64v0Z" transform="translate(-1.29 0)"/><path class="q" d="M24.15,53.61h.5c.06.26.23.55,0,.79Z" transform="translate(-1.29 0)"/><path class="q" d="M25.27,55.37l.16,0,.3-.11a1.51,1.51,0,0,1,.1.42,1.19,1.19,0,0,1-.15.35Z" transform="translate(-1.29 0)"/><path class="q" d="M26,56.38l.34-.12v.44h-.14Z" transform="translate(-1.29 0)"/><path class="q" d="M24.84,54.68c.43,0,.48.09.32.51Z" transform="translate(-1.29 0)"/><path class="p" d="M31.42,62.72l.23.21Z" transform="translate(-1.29 0)"/><path class="p" d="M36.09,66.51l.22.18Z" transform="translate(-1.29 0)"/><path class="p" d="M27.33,58.26l.16-.07v.2Z" transform="translate(-1.29 0)"/><path class="p" d="M33.82,64.85l.12.1Z" transform="translate(-1.29 0)"/><path class="p" d="M33.07,64.2l.13.1Z" transform="translate(-1.29 0)"/><path class="p" d="M36,66.43l.12.09Z" transform="translate(-1.29 0)"/><path class="p" d="M32.61,63.79l.12.11Z" transform="translate(-1.29 0)"/><path class="p" d="M32,63.25l.12.11Z" transform="translate(-1.29 0)"/><path class="p" d="M30.15,61.46l.1.1Z" transform="translate(-1.29 0)"/><path class="p" d="M31,62.31l.1.1Z" transform="translate(-1.29 0)"/><path class="p" d="M31.15,62.47l.09.08Z" transform="translate(-1.29 0)"/><path class="p" d="M31.09,62.41l.06.06Z" transform="translate(-1.29 0)"/><path class="p" d="M30.07,61.39l.07.07Z" transform="translate(-1.29 0)"/><path class="p" d="M30,61.31l.09.08Z" transform="translate(-1.29 0)"/><path class="p" d="M27.27,58.19l.06.07Z" transform="translate(-1.29 0)"/><path class="p" d="M26.15,56.7h.07v.09Z" transform="translate(-1.29 0)"/><path class="p" d="M20.05,39.49c.75-.24,1.09.12,1,.71q0,.31,0,.63c0,.61-.14.74-.75.76h-.05l-.21-2A.17.17,0,0,1,20.05,39.49Z" transform="translate(-1.29 0)"/><path class="j" d="M20,39.56l.21,2c-.29,0-.4-.24-.46-.46a1.78,1.78,0,0,1,.12-1.48A.61.61,0,0,0,20,39.56Z" transform="translate(-1.29 0)"/><path class="f" d="M20.22,38.32l-.07-.06h0l.09.06Z" transform="translate(-1.29 0)"/><path class="t" d="M26.65,29.15a2.63,2.63,0,0,1,3.71-.29,4,4,0,0,1,.29.29,4.37,4.37,0,0,1,0,5.75,3.62,3.62,0,0,1-.76.45.9.9,0,0,1-.45-.08A4.4,4.4,0,0,1,28.37,35a4.18,4.18,0,0,1-2-4.45A13.52,13.52,0,0,1,26.65,29.15Zm2,2.33a1.24,1.24,0,0,0-1.23,1.21,1.23,1.23,0,1,0,1.25-1.21Z" transform="translate(-1.29 0)"/><path class="p" d="M30.7,42.06v-.13a.84.84,0,0,0,.06-1.19.8.8,0,0,0-.38-.24l-.18-.79h-.05v.65l-.94-.26a.48.48,0,0,1-.39-.55.5.5,0,0,1,.54-.41h.44a.44.44,0,0,1,.49.38c.05.28.25.35.51.2a44.39,44.39,0,0,0,2.74,8.65,30.8,30.8,0,0,0,4.66,7.69v.09l-.28.2c-.2-.22-.42-.43-.62-.66a31.52,31.52,0,0,1-5.65-10.3C31.34,44.3,31,43.17,30.7,42.06Z" transform="translate(-1.29 0)"/><path class="u" d="M26.65,29.15q-.21.68-.36,1.38a4.18,4.18,0,0,0,2,4.45,4.4,4.4,0,0,0,1.07.26.9.9,0,0,1,.45.08,2.14,2.14,0,0,1-1.8.38,3,3,0,0,1-1.72-1.22,4.43,4.43,0,0,1,0-4.93A3.42,3.42,0,0,1,26.65,29.15Z" transform="translate(-1.29 0)"/><path class="s" d="M38,56.37l.28-.2,1,1.2-.16.14H39l-.11-.08h0l-.14-.07h0l-.38-.48A3.16,3.16,0,0,0,38,56.37Z" transform="translate(-1.29 0)"/><path class="q" d="M39.15,57.51l.16-.14.18.2c-.13.19-.26.36-.48.08h0Z" transform="translate(-1.29 0)"/><path class="s" d="M43.71,63.08c0-.06-.05-.12-.08-.19S43.69,63,43.71,63.08Z" transform="translate(-1.29 0)"/><path class="s" d="M43.45,62.47l-.09-.18Z" transform="translate(-1.29 0)"/><path class="s" d="M43.77,63.23l-.06-.13Z" transform="translate(-1.29 0)"/><path class="s" d="M43.23,62l-.08-.17Z" transform="translate(-1.29 0)"/><path class="s" d="M43.3,62.15,43.22,62Z" transform="translate(-1.29 0)"/><path class="s" d="M43.36,62.29l-.07-.14Z" transform="translate(-1.29 0)"/><path class="s" d="M43.64,62.9l-.07-.14Z" transform="translate(-1.29 0)"/><path class="s" d="M43.57,62.75l-.06-.13Z" transform="translate(-1.29 0)"/><path class="s" d="M43.51,62.61l-.06-.12Z" transform="translate(-1.29 0)"/><path class="s" d="M43.15,61.85" transform="translate(-1.29 0)"/><path class="p" d="M26.25,40l-.24.77h-.09l-.21-.65Z" transform="translate(-1.29 0)"/><path class="b" d="M27.54,39l.09-.07Z" transform="translate(-1.29 0)"/><path class="p" d="M41.85,65.68" transform="translate(-1.29 0)"/><path class="p" d="M36.15,41.78l.34-2.15A1.7,1.7,0,0,1,36.15,41.78Z" transform="translate(-1.29 0)"/><path class="q" d="M37.82,56.7l.48.38h-1l-.14.07v.22c0,.18,0,.24-.21.23s-.4.08-.32.36a.15.15,0,0,1,0,.13.22.22,0,0,1-.11.12c-.31.08-.28.67-.75.49l-.09-.11v.11a.79.79,0,0,0,.07.81v.13a.76.76,0,0,1-.65.16.35.35,0,0,0-.43.25.43.43,0,0,0,0,.05c0,.23-.19.29-.4.15v-.1c.46-.34.37-1,.75-1.35v-.1h-.1l-.2-.2.13-.07h.28l.56-.1a1.13,1.13,0,0,0,.43,0c.1-.05,0-.26,0-.39a.93.93,0,0,1,.26-.41,2.1,2.1,0,0,1,.5-.24v-.09c0-.39,0-.39.41-.24h.13Zm-2.43,2.2-.24.07Zm.2.34Z" transform="translate(-1.29 0)"/><path class="q" d="M33.71,52l.18.21a1.88,1.88,0,0,0-.23.16c-.1.09-.23.17-.28.28a.26.26,0,0,1-.44.11h-.47v-.14l.59-.13h0L33,51.82l.44-.1c-.42-.29-.26-.87-.78-1-.06,0-.14-.19-.11-.22l.25-.18.84,1.51a.81.81,0,0,1,0,.22h0Zm-.25.3h0l-.11.06h0Z" transform="translate(-1.29 0)"/><path class="q" d="M32.33,56.23c.53,0,.53,0,.54.41h0l.14.14.2.07.13.2-.06.14s-.11.11-.12.1c-.3-.23-.83-.24-.77-.82l-.48.12.22-.75.13.26Z" transform="translate(-1.29 0)"/><path class="q" d="M31.72,53.85a.34.34,0,0,1-.2,0l-.13-.12c-.05,0,.11-.13.15-.13.31,0,.38-.16.43-.43l.29.08v.15h0v-.15l.2-.2h.07l.34-.06c-.11.17-.15.34-.25.37a.53.53,0,0,0-.38.57h-.38Zm.43-.3Z" transform="translate(-1.29 0)"/><path class="q" d="M34.56,58.53l-.09.29c-.12-.08-.26-.13-.31-.23s-.22-.49-.63-.4l.22-.41h.13c.2.12.56,0,.54.41h0l.14.14Z" transform="translate(-1.29 0)"/><path class="q" d="M27.47,50.85a4.51,4.51,0,0,1,0,.52c0,.05-.07.13-.11.13a.25.25,0,0,1-.2-.07C27,51.16,27.06,50.94,27.47,50.85Z" transform="translate(-1.29 0)"/><path class="q" d="M38.31,57.08l.5.3h0l.14.07h0v.09l.07.12h0C38.6,57.65,38.31,57.41,38.31,57.08Z" transform="translate(-1.29 0)"/><path class="q" d="M27.58,52l.22-.2h.07a1,1,0,0,1,.29.31h-.53Z" transform="translate(-1.29 0)"/><path class="q" d="M33.75,57.72l-.24-.08c-.14-.08-.12-.15,0-.19l.13-.07c.28,0,.18.2.2.34Z" transform="translate(-1.29 0)"/><path class="q" d="M32.05,48.54l.25.59C32,49,31.84,48.77,32.05,48.54Z" transform="translate(-1.29 0)"/><path class="q" d="M32.52,49.62l.17.37H32.5C32.52,49.9,32.27,49.75,32.52,49.62Z" transform="translate(-1.29 0)"/><path class="q" d="M31.54,47.18l.14.4-.28-.11Z" transform="translate(-1.29 0)"/><path class="q" d="M31.69,54.17c0,.08.09.14.08.15a.54.54,0,0,1-.15.15s-.09-.09-.08-.11A.9.9,0,0,1,31.69,54.17Z" transform="translate(-1.29 0)"/><path class="p" d="M37.82,56.7l-.43.21.32-.3Z" transform="translate(-1.29 0)"/><path class="p" d="M39.45,63.33l.17-.13.06.07-.18.12Z" transform="translate(-1.29 0)"/><path class="q" d="M31.74,47.76l.12.3C31.62,48,31.67,47.9,31.74,47.76Z" transform="translate(-1.29 0)"/><path class="p" d="M30.78,54.85l-.07-.14h0l.2.2Z" transform="translate(-1.29 0)"/><path class="p" d="M30.15,55.42l.27-.13Z" transform="translate(-1.29 0)"/><path class="p" d="M36.45,66.56l0-.17.12.09Z" transform="translate(-1.29 0)"/><path class="q" d="M35.71,59.61h.16v.07H35.7Z" transform="translate(-1.29 0)"/><path class="p" d="M30.37,54.14l-.2-.14Z" transform="translate(-1.29 0)"/><path class="p" d="M39,63.85v-.13h.06l0,.12Z" transform="translate(-1.29 0)"/><path class="p" d="M30.15,53.85H30V53.8h.18Z" transform="translate(-1.29 0)"/><path class="p" d="M31.72,53.85l.21.07Z" transform="translate(-1.29 0)"/><path class="p" d="M31.63,54h-.06c-.06,0,0-.05,0-.05Z" transform="translate(-1.29 0)"/><path class="p" d="M39.37,63.57h-.06v-.06h0A.13.13,0,0,1,39.37,63.57Z" transform="translate(-1.29 0)"/><path class="p" d="M37.82,65.12h0Z" transform="translate(-1.29 0)"/><path class="p" d="M31.25,54.41" transform="translate(-1.29 0)"/><path class="p" d="M36.43,60.24h0Z" transform="translate(-1.29 0)"/><path class="p" d="M34.15,60.15v.13l-.1-.08Z" transform="translate(-1.29 0)"/><path class="p" d="M33.28,57.25l.06-.14Z" transform="translate(-1.29 0)"/><path class="p" d="M37.15,57.18l.14-.07Z" transform="translate(-1.29 0)"/><path class="p" d="M33.21,56.91l-.2-.07Z" transform="translate(-1.29 0)"/><path class="p" d="M28.82,56.85l-.2.07Z" transform="translate(-1.29 0)"/><path class="p" d="M31.66,55.42l-.2-.13Z" transform="translate(-1.29 0)"/><path class="p" d="M36,59.85h-.06v-.06H36S35.94,59.85,36,59.85Z" transform="translate(-1.29 0)"/><path class="p" d="M31.72,55.69v-.13l.11.08Z" transform="translate(-1.29 0)"/><path class="p" d="M40.94,62v.1h0V62Z" transform="translate(-1.29 0)"/><path class="p" d="M32.55,61.85h.05S32.56,61.79,32.55,61.85Z" transform="translate(-1.29 0)"/><path class="p" d="M38,61.85H38c-.06,0,0,0,0-.06Z" transform="translate(-1.29 0)"/><path class="p" d="M34.83,58.73h.1v.1Z" transform="translate(-1.29 0)"/><path class="p" d="M37.56,65.32v.11h0v-.11Z" transform="translate(-1.29 0)"/><path class="p" d="M35.57,58.73v-.11l.09.11Z" transform="translate(-1.29 0)"/><path class="p" d="M34.56,58.53v-.14l.2.07-.13.07Z" transform="translate(-1.29 0)"/><path class="p" d="M38,64.85h.17v.06H38Z" transform="translate(-1.29 0)"/><path class="p" d="M39.37,63.17h0Z" transform="translate(-1.29 0)"/><path class="q" d="M28.52,52.29h-.1v0Z" transform="translate(-1.29 0)"/><path class="p" d="M29.83,55.69l-.13.14Z" transform="translate(-1.29 0)"/><path class="p" d="M37.83,61.61h-.1v0Z" transform="translate(-1.29 0)"/><path class="p" d="M36.15,60h.1S36.15,60.05,36.15,60Z" transform="translate(-1.29 0)"/><path class="p" d="M30.51,55.22l.13-.07Z" transform="translate(-1.29 0)"/><path class="p" d="M32.33,53.19v.15h0Z" transform="translate(-1.29 0)"/><path class="p" d="M41.07,64.85h0Z" transform="translate(-1.29 0)"/><path class="p" d="M40.15,63.78v.07h0v-.07Z" transform="translate(-1.29 0)"/><path class="p" d="M33.68,57.38l-.13.07Z" transform="translate(-1.29 0)"/><path class="p" d="M32.87,56.7h0Z" transform="translate(-1.29 0)"/><path class="p" d="M33.75,57.72h.13v.06h-.13Z" transform="translate(-1.29 0)"/><path class="p" d="M38.36,64.63Z" transform="translate(-1.29 0)"/><path class="p" d="M40.86,64.57Z" transform="translate(-1.29 0)"/><path class="p" d="M29.09,56.71h0Z" transform="translate(-1.29 0)"/><path class="p" d="M34.42,58.25h0Z" transform="translate(-1.29 0)"/><path class="p" d="M36.81,66.19" transform="translate(-1.29 0)"/><path class="p" d="M32.33,56.23l-.07-.07Z" transform="translate(-1.29 0)"/><path class="p" d="M35.71,59.61v.06h-.07v-.13Z" transform="translate(-1.29 0)"/><path class="p" d="M32,55.85Z" transform="translate(-1.29 0)"/><path class="p" d="M30.15,55.56h0Z" transform="translate(-1.29 0)"/><path class="p" d="M31.32,55.15" transform="translate(-1.29 0)"/><path class="p" d="M36.74,60.52" transform="translate(-1.29 0)"/><path class="p" d="M29.77,53.6l-.14-.07Z" transform="translate(-1.29 0)"/><path class="p" d="M29.5,53.4l-.07-.07Z" transform="translate(-1.29 0)"/><path class="p" d="M37.47,61.31Z" transform="translate(-1.29 0)"/><path class="p" d="M29.23,53.13l-.14-.07Z" transform="translate(-1.29 0)"/><path class="p" d="M41.15,61.66Z" transform="translate(-1.29 0)"/><path class="p" d="M32.87,52.72Z" transform="translate(-1.29 0)"/><path class="p" d="M33.07,52.38h0Z" transform="translate(-1.29 0)"/><path class="p" d="M38.3,62.07Z" transform="translate(-1.29 0)"/><path class="p" d="M39,62.9Z" transform="translate(-1.29 0)"/><path class="p" d="M31,55" transform="translate(-1.29 0)"/><path class="p" d="M32.6,53" transform="translate(-1.29 0)"/><path class="q" d="M30.39,40.5a.84.84,0,0,1,.56,1,.77.77,0,0,1-.24.38Z" transform="translate(-1.29 0)"/><path class="e" d="M21.15,33.65a1.22,1.22,0,0,1-1.23-1.2,1.25,1.25,0,0,1,1.23-1.25,1.23,1.23,0,0,1,0,2.45ZM22,32a.42.42,0,0,0-.41-.43h0a.42.42,0,0,0-.42.42h0A.42.42,0,0,0,22,32Z" transform="translate(-1.29 0)"/><path class="p" d="M28.52,57.09v.06h-.05v0Z" transform="translate(-1.29 0)"/><path class="p" d="M28.15,57.35Z" transform="translate(-1.29 0)"/><path class="p" d="M30.49,54.32Z" transform="translate(-1.29 0)"/><path class="p" d="M27.61,58" transform="translate(-1.29 0)"/><path class="p" d="M30.71,54.68Z" transform="translate(-1.29 0)"/><path class="e" d="M28.65,31.48a1.23,1.23,0,1,1-1.23,1.23v0A1.24,1.24,0,0,1,28.65,31.48Zm.5.37a.43.43,0,0,0-.46.39.4.4,0,0,0,.34.45h0a.43.43,0,0,0,.48-.37A.44.44,0,0,0,29.15,31.85Z" transform="translate(-1.29 0)"/><path class="p" d="M39,57.65l-.07-.12h.21Z" transform="translate(-1.29 0)"/><path class="c" d="M39,57.45l-.14-.07Z" transform="translate(-1.29 0)"/><path class="c" d="M39.05,57.52h-.11v-.09Z" transform="translate(-1.29 0)"/><path class="p" d="M35.39,58.9" transform="translate(-1.29 0)"/><path class="p" d="M35.15,59Z" transform="translate(-1.29 0)"/><path class="p" d="M35.35,59.31Z" transform="translate(-1.29 0)"/><path class="p" d="M33.46,52.26l-.1.06h0l.11-.06Z" transform="translate(-1.29 0)"/><path class="p" d="M33.71,52h0Z" transform="translate(-1.29 0)"/><path class="p" d="M32.15,53.55Z" transform="translate(-1.29 0)"/><path class="c" d="M22,32a.42.42,0,1,1-.43-.43h0A.42.42,0,0,1,22,32Z" transform="translate(-1.29 0)"/><path class="c" d="M29.15,31.85a.44.44,0,0,1,.38.47.43.43,0,0,1-.48.37.39.39,0,0,1-.36-.43v0A.43.43,0,0,1,29.15,31.85Z" transform="translate(-1.29 0)"/><rect class="b" x="18.75" y="38.05" width="3.53" height="1.21"/><rect class="b" x="21.79" y="37.96" width="6.41" height="3.36"/><rect class="b" x="20.16" y="38.68" width="2.91" height="2.02"/><path class="f" d="M29.12,40.24l-.81-.43-.93-.41-.82-.25-1-.19H23.88l-1,.17-1.07.34-.09.07h0l-1.5.68.34-.39.59-.47,1-.53,1-.36.54-.12.87-.08,1,.06,1,.22.73.27L28.9,39.9l.25.29Z" transform="translate(-1.29 0)"/><path class="w" d="M1.16,45" transform="translate(-1.29 0)"/><path class="w" d="M1.16,46" transform="translate(-1.29 0)"/><path class="w" d="M13.54,42.49a.92.92,0,0,0-.08-.38A5.56,5.56,0,0,0,13,43c0,.09.15.27.23.41a11.1,11.1,0,0,1-1.68.67c-1.06.25-2.14.39-3.21.58h0l.59.11a4.85,4.85,0,0,0,.61.49,6.92,6.92,0,0,0,2.81.79,2.37,2.37,0,0,1,2,1.63c.07.18.09.38.16.55a1.71,1.71,0,0,0,.21.26,9.07,9.07,0,0,1-1,.86,6.1,6.1,0,0,1-2.88.82H9.1v.07l.51.12c0,.1,0,.24,0,.3a5.12,5.12,0,0,0,2.87,1.74c.88.18,1.6.6,1.48,1.77a8.68,8.68,0,0,1-.33,1.21,1.6,1.6,0,0,0,0,.31,8,8,0,0,1-.72.35,6.79,6.79,0,0,1-3.84.15,8.86,8.86,0,0,1-4.76-2.68,9.34,9.34,0,0,1-2-4A18.66,18.66,0,0,1,2,42.42c.15-1.14.45-2.26.69-3.39l.84-.53A2.76,2.76,0,0,1,5.64,38a1.59,1.59,0,0,1,.42.19c-.2,0-.2.16-.2.3v2.64l-.52.06v.61h.19c.33,0,.33.11.33.36a1.39,1.39,0,0,0,.06.4,1.29,1.29,0,0,0,1.61.86.31.31,0,0,0,.14-.18q0-.3,0-.6H7.31a.43.43,0,0,1-.4-.35c-.15-.37,0-.51.32-.49s.35,0,.36-.36,0-.37-.36-.32-.39-.1-.39-.4V38.66l.88.44.47.23v2.22c0,.2.05.28.26.28h.37c.2,0,.39,0,.29-.36.35.3.65.52,1.11.38v-.71c0-.07-.07-.12-.21-.18a1.07,1.07,0,0,0-.43-.06.53.53,0,0,1-.44-.59V39.6l1.61.27v.07c0,.67,0,.67.68.67h.24v-.32h0l.61.27v.06a1.58,1.58,0,0,0,1.55,1.28l.48.08a1.77,1.77,0,0,1-.72,1.21A3.46,3.46,0,0,1,13.54,42.49Zm-2.41.57a4,4,0,0,0-2.06.38,1.38,1.38,0,0,0-.36.23c-.16.14-.18.32.07.32a3.6,3.6,0,0,0,3.53-1l.7-.86-.07-.07c-.3.15-.6.29-.9.46s-.06.34,0,.51A6.92,6.92,0,0,1,11.13,43.06ZM2.78,49.17a6.58,6.58,0,0,0,1.8,3.76,9.54,9.54,0,0,0,3.3,2.35,2.92,2.92,0,0,0,1.91.16l.2-.09c-.2-.11-.33-.19-.48-.26-.7-.3-1.37-.56-2-.89a6,6,0,0,1-2.58-2.59c-.31-.64-.76-1.37-1-1.89s-.6-.95-.86-1.44a3.3,3.3,0,0,0-.28-.35H2.66A9.11,9.11,0,0,0,2.78,49.17Zm9.86-.49a11.88,11.88,0,0,0-3.42.11c-.16,0-.29.18-.45.28.82.73,3.84.58,4.38-.27Zm-1.48-6.77a.51.51,0,0,0,.53-.47v0a.52.52,0,0,0-.53-.51h-.05a.52.52,0,0,0-.5.54v0a.5.5,0,0,0,.54.44Z" transform="translate(-1.29 0)"/><path class="w" d="M10.75,38.46a6.88,6.88,0,0,0-2.56-.59H7.94c.49-.38.88-.44,2.1-.33A3.57,3.57,0,0,0,8.5,35.6,2.82,2.82,0,0,0,6,35.42c1-.85,2.42-.55,4,.79A4,4,0,0,0,11.21,34a2.23,2.23,0,0,1-.06,1.35,6.61,6.61,0,0,1-.58,1.16c-.13.21-.19.35-.05.56a1.64,1.64,0,0,1,.14.33l1.83-.21,1.28-4.75c-2.43-1.52-5.5-2-7.83.21A8.83,8.83,0,0,0,4.19,35c-.19.36-.35.74-.53,1.12H4a2.25,2.25,0,0,1,1.63.2,4.11,4.11,0,0,1,1.44,1.37,1.56,1.56,0,0,0,1,.71c.1-.11.73-.23.84-.11s.07.29.1.44H9l1.61.2Z" transform="translate(-1.29 0)"/><path class="w" d="M9.59,50.41v.3a5.16,5.16,0,0,0,2.88,1.73c.88.18,1.6.6,1.48,1.77a8.68,8.68,0,0,1-.33,1.21,1.6,1.6,0,0,0,0,.31,3.67,3.67,0,0,0,1.69-1.66,1.71,1.71,0,0,1-.09-.3v-.94a1.23,1.23,0,0,0-.91-1.28c-.85-.22-1.71-.41-2.56-.6-.58-.12-1.17-.22-1.82-.34l.27-.12Z" transform="translate(-1.29 0)"/><path class="w" d="M10.2,50.49l-.27.12c.65.12,1.24.22,1.82.34.85.19,1.71.38,2.56.6a1.22,1.22,0,0,1,.88,1.28v.94a1.71,1.71,0,0,0,.09.3,1.21,1.21,0,0,0,.16-.16,6.48,6.48,0,0,0,.38-5.44c-.26.28-.47.58-.74.82a5.55,5.55,0,0,1-3.58,1.24C11.08,50.54,10.64,50.5,10.2,50.49Z" transform="translate(-1.29 0)"/><path class="w" d="M8.11,38.33a1.56,1.56,0,0,1-1-.71,4.11,4.11,0,0,0-1.44-1.37A2.25,2.25,0,0,0,4,36.05a2.16,2.16,0,0,1-.36,0l-1,2.9.84-.53A2.76,2.76,0,0,1,5.64,38a1.59,1.59,0,0,1,.42.19h.25c.56,0,.47,0,.48.48l.88.44.47.23v-1Z" transform="translate(-1.29 0)"/><path class="w" d="M8.85,44.81a4.85,4.85,0,0,0,.61.49,6.76,6.76,0,0,0,2.85.79,2.4,2.4,0,0,1,2,1.58c.07.18.09.38.16.55a1.71,1.71,0,0,0,.21.26,2.62,2.62,0,0,0,.63-1.37v-.44a2.29,2.29,0,0,0-2-1.34c-.14,0-.28-.12-.42-.18h0a1.09,1.09,0,0,1-.3.07,7.86,7.86,0,0,1-1.35-.2,1.62,1.62,0,0,1-.37-.19H9.4Z" transform="translate(-1.29 0)"/><path class="w" d="M12.84,45.15c.14.06.28.18.42.18a2.29,2.29,0,0,1,2.05,1.34l.08.1a5,5,0,0,0-1-3.17,6.21,6.21,0,0,1-3.57,1.23,1.62,1.62,0,0,0,.37.19c.45.08.9.15,1.35.2a1.09,1.09,0,0,0,.3-.07h0Z" transform="translate(-1.29 0)"/><path class="w" d="M13.7,39l-.5-.55c-.15.07-.37.09-.45.21a7.23,7.23,0,0,0-.46.87.08.08,0,0,0,0,.07l.81.61h0l.54.34.13-.19h.05l-.05.37c.37.17.08-.3.31-.29.07.15-.05.45.29.42l-.3-1.2h-.76l-.06-.15Z" transform="translate(-1.29 0)"/><path class="w" d="M13.11,40.22l-.81-.61-.07,1v.06c.4.28.8.54,1.19.83a2,2,0,0,1,.36.45l.48.08h0l.08-.21v-.88c-.34,0-.22-.27-.29-.42-.23,0,.06.46-.31.29l-.27.12a.38.38,0,0,1-.47-.19C13,40.52,12.86,40.34,13.11,40.22Z" transform="translate(-1.29 0)"/><path class="w" d="M11.64,39.27v-.09l.06-.43h.19c0-.07,0-.2-.08-.2-.2-.19-.42-.37-.65-.57a2,2,0,0,1,2.06.48c-.15.07-.37.09-.45.21a7.23,7.23,0,0,0-.46.87Zm.38-.42Z" transform="translate(-1.29 0)"/><path class="w" d="M13.59,43.19c0-.2-.06-.4-.08-.61a.92.92,0,0,0-.08-.38,5.56,5.56,0,0,0-.49.9c0,.09.15.27.23.41Z" transform="translate(-1.29 0)"/><path class="w" d="M11.62,39.2l.06-.43-.93-.31-.08.41v.07Z" transform="translate(-1.29 0)"/><path class="w" d="M13.7,39l-.39.49v.17h.74Z" transform="translate(-1.29 0)"/><path class="w" d="M10.31,44.84" transform="translate(-1.29 0)"/><path class="w" d="M14.31,41.77v0Z" transform="translate(-1.29 0)"/><path class="w" d="M9.4,44.83" transform="translate(-1.29 0)"/><path class="w" d="M14.85,39.36l-.09-.15Z" transform="translate(-1.29 0)"/><path class="w" d="M15.36,47.05v.06h0Z" transform="translate(-1.29 0)"/><path class="w" d="M2.66,47.93a5.48,5.48,0,0,0,.09,1.21,6.58,6.58,0,0,0,1.8,3.76,9.54,9.54,0,0,0,3.3,2.35,2.92,2.92,0,0,0,1.91.16l.2-.09c-.2-.11-.33-.19-.48-.26-.65-.3-1.32-.56-2-.89A6,6,0,0,1,4.9,51.58c-.33-.64-.73-1.24-1-1.89A9.42,9.42,0,0,0,3,48.25a3.3,3.3,0,0,0-.28-.35Z" transform="translate(-1.29 0)"/><path class="w" d="M6.76,38.67c0-.51.08-.48-.48-.48H6c-.24,0-.2.16-.2.3v2.64l-.51.06v.61H5.5c.29,0,.33.11.33.36a1.28,1.28,0,0,0,1.26,1.31,1.13,1.13,0,0,0,.41,0,.31.31,0,0,0,.14-.18q0-.3,0-.6l-.33,0a.42.42,0,0,1-.45-.32c-.15-.37-.07-.5.32-.49s.36-.08.36-.36-.11-.35-.36-.32-.4-.1-.39-.4C6.77,40.06,6.76,39.36,6.76,38.67Z" transform="translate(-1.29 0)"/><path class="w" d="M13.15,48.8l-.51-.12a11.88,11.88,0,0,0-3.42.11c-.16,0-.29.18-.45.28C9.59,49.81,12.61,49.67,13.15,48.8Z" transform="translate(-1.29 0)"/><path class="w" d="M8.11,39.41v2.15c0,.2.05.3.26.28a2.29,2.29,0,0,1,.37,0c.2,0,.39,0,.29-.36.35.3.65.52,1.11.38v-.71c0-.07-.13-.16-.21-.18a2,2,0,0,1-.43-.06.53.53,0,0,1-.44-.59v-.71h0Z" transform="translate(-1.29 0)"/><path class="w" d="M12,43a7.22,7.22,0,0,1-.93,0,4,4,0,0,0-2.06.38,1.38,1.38,0,0,0-.36.23c-.16.14-.18.29.07.32a3.6,3.6,0,0,0,3.53-1Z" transform="translate(-1.29 0)"/><path class="w" d="M10.68,38.94v-.07l-1.61-.2v.94h0l1.61.27C10.67,39.57,10.67,39.25,10.68,38.94Z" transform="translate(-1.29 0)"/><path class="w" d="M10.68,38.94v1l.94.34h0V39.2Z" transform="translate(-1.29 0)"/><path class="w" d="M9.06,39.61v-.94h0l-.94-.26v1Z" transform="translate(-1.29 0)"/><path class="w" d="M11.15,41.91a.51.51,0,0,0,.54-.46h0a.52.52,0,0,0-.5-.54h0a.52.52,0,0,0-.55.48v.06a.49.49,0,0,0,.51.47Z" transform="translate(-1.29 0)"/><path class="w" d="M13.78,41.9a2,2,0,0,0-.36-.45c-.39-.29-.79-.55-1.19-.83A1.58,1.58,0,0,0,13.78,41.9Z" transform="translate(-1.29 0)"/><path class="w" d="M11.62,39.27v1l.61.27.07-1a.08.08,0,0,1,0-.07Z" transform="translate(-1.29 0)"/><path class="w" d="M11.62,40.29,10.68,40c0,.69,0,.69.68.67h.24Z" transform="translate(-1.29 0)"/><path class="w" d="M12,43h.25c.24-.28.47-.57.7-.86l-.07-.07c-.3.15-.61.29-.9.46S12,42.86,12,43Z" transform="translate(-1.29 0)"/><path class="w" d="M8.11,38.4l.94.26a.64.64,0,0,0-.1-.44,1.19,1.19,0,0,0-.84.11Z" transform="translate(-1.29 0)"/><path class="w" d="M12.84,45.15h0Z" transform="translate(-1.29 0)"/><path class="w" d="M13.11,40.22c-.25.12-.14.3-.07.47a.38.38,0,0,0,.47.19,1.59,1.59,0,0,0,.27-.12l.05-.37h-.05l-.13.19c-.12.06-.24.18-.35.16s-.14-.19-.19-.31a.6.6,0,0,1,0-.19Z" transform="translate(-1.29 0)"/><path class="w" d="M13.11,40.22a.6.6,0,0,0,0,.19c.05.12.11.3.19.31s.23-.1.35-.16Z" transform="translate(-1.29 0)"/><path class="w" d="M12,38.85Z" transform="translate(-1.29 0)"/><path class="f" d="M1.16,45" transform="translate(-1.29 0)"/><path class="f" d="M1.16,46" transform="translate(-1.29 0)"/><path class="x" d="M13.54,42.49a.92.92,0,0,0-.08-.38A5.56,5.56,0,0,0,13,43c0,.09.15.27.23.41a11.1,11.1,0,0,1-1.68.67c-1.06.25-2.14.39-3.21.58h0l.59.11a4.85,4.85,0,0,0,.61.49,6.92,6.92,0,0,0,2.81.79,2.37,2.37,0,0,1,2,1.63c.07.18.09.38.16.55a1.71,1.71,0,0,0,.21.26,9.07,9.07,0,0,1-1,.86,6.1,6.1,0,0,1-2.88.82H9.1v.07l.51.12c0,.1,0,.24,0,.3a5.12,5.12,0,0,0,2.87,1.74c.88.18,1.6.6,1.48,1.77a8.68,8.68,0,0,1-.33,1.21,1.6,1.6,0,0,0,0,.31,8,8,0,0,1-.72.35,6.79,6.79,0,0,1-3.84.15,8.86,8.86,0,0,1-4.76-2.68,9.34,9.34,0,0,1-2-4A18.66,18.66,0,0,1,2,42.42c.15-1.14.45-2.26.69-3.39l.84-.53A2.76,2.76,0,0,1,5.64,38a1.59,1.59,0,0,1,.42.19c-.2,0-.2.16-.2.3v2.64l-.52.06v.61h.19c.33,0,.33.11.33.36a1.39,1.39,0,0,0,.06.4,1.29,1.29,0,0,0,1.61.86.31.31,0,0,0,.14-.18q0-.3,0-.6H7.31a.43.43,0,0,1-.4-.35c-.15-.37,0-.51.32-.49s.35,0,.36-.36,0-.37-.36-.32-.39-.1-.39-.4V38.66l.88.44.47.23v2.22c0,.2.05.28.26.28h.37c.2,0,.39,0,.29-.36.35.3.65.52,1.11.38v-.71c0-.07-.07-.12-.21-.18a1.07,1.07,0,0,0-.43-.06.53.53,0,0,1-.44-.59V39.6l1.61.27v.07c0,.67,0,.67.68.67h.24v-.32h0l.61.27v.06a1.58,1.58,0,0,0,1.55,1.28l.48.08a1.77,1.77,0,0,1-.72,1.21A3.46,3.46,0,0,1,13.54,42.49Zm-2.41.57a4,4,0,0,0-2.06.38,1.38,1.38,0,0,0-.36.23c-.16.14-.18.32.07.32a3.6,3.6,0,0,0,3.53-1l.7-.86-.07-.07c-.3.15-.6.29-.9.46s-.06.34,0,.51A6.92,6.92,0,0,1,11.13,43.06ZM2.78,49.17a6.58,6.58,0,0,0,1.8,3.76,9.54,9.54,0,0,0,3.3,2.35,2.92,2.92,0,0,0,1.91.16l.2-.09c-.2-.11-.33-.19-.48-.26-.7-.3-1.37-.56-2-.89a6,6,0,0,1-2.58-2.59c-.31-.64-.76-1.37-1-1.89s-.6-.95-.86-1.44a3.3,3.3,0,0,0-.28-.35H2.66A9.11,9.11,0,0,0,2.78,49.17Zm9.86-.49a11.88,11.88,0,0,0-3.42.11c-.16,0-.29.18-.45.28.82.73,3.84.58,4.38-.27Zm-1.48-6.77a.51.51,0,0,0,.53-.47v0a.52.52,0,0,0-.53-.51h-.05a.52.52,0,0,0-.5.54v0a.5.5,0,0,0,.54.44Z" transform="translate(-1.29 0)"/><path class="k" d="M10.75,38.46a6.88,6.88,0,0,0-2.56-.59H7.94c.49-.38.88-.44,2.1-.33A3.57,3.57,0,0,0,8.5,35.6,2.82,2.82,0,0,0,6,35.42c1-.85,2.42-.55,4,.79A4,4,0,0,0,11.21,34a2.23,2.23,0,0,1-.06,1.35,6.61,6.61,0,0,1-.58,1.16c-.13.21-.19.35-.05.56a1.64,1.64,0,0,1,.14.33l2.56.26,1.54-5.78a7.71,7.71,0,0,0-8.82.77A8.83,8.83,0,0,0,4.19,35c-.19.36-.35.74-.53,1.12H4a2.25,2.25,0,0,1,1.63.2,4.11,4.11,0,0,1,1.44,1.37,1.56,1.56,0,0,0,1,.71c.1-.11.73-.23.84-.11s.07.29.1.44H9l1.61.2Z" transform="translate(-1.29 0)"/><path class="h" d="M9.59,50.41v.3a5.16,5.16,0,0,0,2.88,1.73c.88.18,1.6.6,1.48,1.77a8.68,8.68,0,0,1-.33,1.21,1.6,1.6,0,0,0,0,.31,3.67,3.67,0,0,0,1.69-1.66,1.71,1.71,0,0,1-.09-.3v-.94a1.23,1.23,0,0,0-.91-1.28c-.85-.22-1.71-.41-2.56-.6-.58-.12-1.17-.22-1.82-.34l.27-.12Z" transform="translate(-1.29 0)"/><path class="l" d="M10.2,50.49l-.27.12c.65.12,1.24.22,1.82.34.85.19,1.71.38,2.56.6a1.22,1.22,0,0,1,.88,1.28v.94a1.71,1.71,0,0,0,.09.3,1.21,1.21,0,0,0,.16-.16,6.48,6.48,0,0,0,.38-5.44c-.26.28-.47.58-.74.82a5.55,5.55,0,0,1-3.58,1.24C11.08,50.54,10.64,50.5,10.2,50.49Z" transform="translate(-1.29 0)"/><path class="h" d="M8.11,38.33a1.56,1.56,0,0,1-1-.71,4.11,4.11,0,0,0-1.44-1.37A2.25,2.25,0,0,0,4,36.05a2.16,2.16,0,0,1-.36,0l-1,2.9.84-.53A2.76,2.76,0,0,1,5.64,38a1.59,1.59,0,0,1,.42.19h.25c.56,0,.47,0,.48.48l.88.44.47.23v-1Z" transform="translate(-1.29 0)"/><path class="h" d="M8.85,44.81a4.85,4.85,0,0,0,.61.49,6.76,6.76,0,0,0,2.85.79,2.4,2.4,0,0,1,2,1.58c.07.18.09.38.16.55a1.71,1.71,0,0,0,.21.26,2.62,2.62,0,0,0,.63-1.37v-.44a2.29,2.29,0,0,0-2-1.34c-.14,0-.28-.12-.42-.18h0a1.09,1.09,0,0,1-.3.07,7.86,7.86,0,0,1-1.35-.2,1.62,1.62,0,0,1-.37-.19H9.4Z" transform="translate(-1.29 0)"/><path class="l" d="M12.84,45.15c.14.06.28.18.42.18a2.29,2.29,0,0,1,2.05,1.34l.08.1a5,5,0,0,0-1-3.17,6.21,6.21,0,0,1-3.57,1.23,1.62,1.62,0,0,0,.37.19c.45.08.9.15,1.35.2a1.09,1.09,0,0,0,.3-.07h0Z" transform="translate(-1.29 0)"/><path class="l" d="M13.7,39l-.5-.55c-.15.07-.37.09-.45.21a7.23,7.23,0,0,0-.46.87.08.08,0,0,0,0,.07l.81.61h0l.54.34.13-.19h.05l-.05.37c.37.17.08-.3.31-.29.07.15-.05.45.29.42l-.3-1.2h-.76l-.06-.15Z" transform="translate(-1.29 0)"/><path class="h" d="M13.11,40.22l-.81-.61-.07,1v.06c.4.28.8.54,1.19.83a2,2,0,0,1,.36.45l.48.08h0l.08-.21v-.88c-.34,0-.22-.27-.29-.42-.23,0,.06.46-.31.29l-.27.12a.38.38,0,0,1-.47-.19C13,40.52,12.86,40.34,13.11,40.22Z" transform="translate(-1.29 0)"/><path class="l" d="M11.64,39.27v-.09l.06-.43h.19c0-.07,0-.2-.08-.2-.2-.19-.42-.37-.65-.57a2,2,0,0,1,2.06.48c-.15.07-.37.09-.45.21a7.23,7.23,0,0,0-.46.87Zm.38-.42Z" transform="translate(-1.29 0)"/><path class="x" d="M13.59,43.19c0-.2-.06-.4-.08-.61a.92.92,0,0,0-.08-.38,5.56,5.56,0,0,0-.49.9c0,.09.15.27.23.41Z" transform="translate(-1.29 0)"/><path class="k" d="M11.62,39.2l.06-.43-.93-.31-.08.41v.07Z" transform="translate(-1.29 0)"/><path class="k" d="M13.7,39l-.39.49v.17h.74Z" transform="translate(-1.29 0)"/><path class="l" d="M10.31,44.84" transform="translate(-1.29 0)"/><path class="x" d="M14.31,41.77v0Z" transform="translate(-1.29 0)"/><path class="l" d="M9.4,44.83" transform="translate(-1.29 0)"/><path class="k" d="M14.85,39.36l-.09-.15Z" transform="translate(-1.29 0)"/><path class="l" d="M15.36,47.05v.06h0Z" transform="translate(-1.29 0)"/><path class="c" d="M2.66,47.93a5.48,5.48,0,0,0,.09,1.21,6.58,6.58,0,0,0,1.8,3.76,9.54,9.54,0,0,0,3.3,2.35,2.92,2.92,0,0,0,1.91.16l.2-.09c-.2-.11-.33-.19-.48-.26-.65-.3-1.32-.56-2-.89A6,6,0,0,1,4.9,51.58c-.33-.64-.73-1.24-1-1.89A9.42,9.42,0,0,0,3,48.25a3.3,3.3,0,0,0-.28-.35Z" transform="translate(-1.29 0)"/><path class="x" d="M6.76,38.67c0-.51.08-.48-.48-.48H6c-.24,0-.2.16-.2.3v2.64l-.51.06v.61H5.5c.29,0,.33.11.33.36a1.28,1.28,0,0,0,1.26,1.31,1.13,1.13,0,0,0,.41,0,.31.31,0,0,0,.14-.18q0-.3,0-.6l-.33,0a.42.42,0,0,1-.45-.32c-.15-.37-.07-.5.32-.49s.36-.08.36-.36-.11-.35-.36-.32-.4-.1-.39-.4C6.77,40.06,6.76,39.36,6.76,38.67Z" transform="translate(-1.29 0)"/><path class="c" d="M13.15,48.8l-.51-.12a11.88,11.88,0,0,0-3.42.11c-.16,0-.29.18-.45.28C9.59,49.81,12.61,49.67,13.15,48.8Z" transform="translate(-1.29 0)"/><path class="x" d="M8.11,39.41v2.15c0,.2.05.3.26.28a2.29,2.29,0,0,1,.37,0c.2,0,.39,0,.29-.36.35.3.65.52,1.11.38v-.71c0-.07-.13-.16-.21-.18a2,2,0,0,1-.43-.06.53.53,0,0,1-.44-.59v-.71h0Z" transform="translate(-1.29 0)"/><path class="c" d="M12,43a7.22,7.22,0,0,1-.93,0,4,4,0,0,0-2.06.38,1.38,1.38,0,0,0-.36.23c-.16.14-.18.29.07.32a3.6,3.6,0,0,0,3.53-1Z" transform="translate(-1.29 0)"/><path class="h" d="M10.68,38.94v-.07l-1.61-.2v.94h0l1.61.27C10.67,39.57,10.67,39.25,10.68,38.94Z" transform="translate(-1.29 0)"/><path class="h" d="M10.68,38.94v1l.94.34h0V39.2Z" transform="translate(-1.29 0)"/><path class="h" d="M9.06,39.61v-.94h0l-.94-.26v1Z" transform="translate(-1.29 0)"/><path class="x" d="M11.15,41.91a.51.51,0,0,0,.54-.46h0a.52.52,0,0,0-.5-.54h0a.52.52,0,0,0-.55.48v.06a.49.49,0,0,0,.51.47Z" transform="translate(-1.29 0)"/><path class="x" d="M13.78,41.9a2,2,0,0,0-.36-.45c-.39-.29-.79-.55-1.19-.83A1.58,1.58,0,0,0,13.78,41.9Z" transform="translate(-1.29 0)"/><path class="j" d="M11.62,39.27v1l.61.27.07-1a.08.08,0,0,1,0-.07Z" transform="translate(-1.29 0)"/><path class="x" d="M11.62,40.29,10.68,40c0,.69,0,.69.68.67h.24Z" transform="translate(-1.29 0)"/><path class="x" d="M12,43h.25c.24-.28.47-.57.7-.86l-.07-.07c-.3.15-.61.29-.9.46S12,42.86,12,43Z" transform="translate(-1.29 0)"/><path class="k" d="M8.11,38.4l.94.26a.64.64,0,0,0-.1-.44,1.19,1.19,0,0,0-.84.11Z" transform="translate(-1.29 0)"/><path class="h" d="M12.84,45.15h0Z" transform="translate(-1.29 0)"/><path class="j" d="M13.11,40.22c-.25.12-.14.3-.07.47a.38.38,0,0,0,.47.19,1.59,1.59,0,0,0,.27-.12l.05-.37h-.05l-.13.19c-.12.06-.24.18-.35.16s-.14-.19-.19-.31a.6.6,0,0,1,0-.19Z" transform="translate(-1.29 0)"/><path class="h" d="M13.11,40.22a.6.6,0,0,0,0,.19c.05.12.11.3.19.31s.23-.1.35-.16Z" transform="translate(-1.29 0)"/><path class="f" d="M12,38.85Z" transform="translate(-1.29 0)"/></svg>