<svg xmlns="http://www.w3.org/2000/svg" viewBox="0 0 72.87 72.87"><defs><style>.a{fill:#5fb561;}.b{fill:none;stroke:#fff;stroke-miterlimit:10;stroke-width:2px;}.c{fill:#ea5740;}.d{fill:#643e4c;}.e{fill:#8fc037;}.f{fill:#fff;}</style></defs><title>tomato</title><rect class="a" x="1" y="1" width="70.87" height="70.87" rx="14.17"/><rect class="b" x="1" y="1" width="70.87" height="70.87" rx="14.17"/><path class="c" d="M48.33,31.17c6.73.85,9.17,5.16,9.17,10.53,0,10.61-9.92,12.89-15,12.89s-15-1.24-15-12.21c0-6.09,4.13-11,9.22-11a7.91,7.91,0,0,1,1.55.15Z" transform="translate(-5.95 -5.82)"/><path class="d" d="M32.85,39.18h-.1a.77.77,0,0,1-.65-.85c.07-.46.15-.91.25-1.35a.74.74,0,0,1,.89-.56.75.75,0,0,1,.57.9c-.09.39-.16.79-.22,1.21A.74.74,0,0,1,32.85,39.18Z" transform="translate(-5.95 -5.82)"/><path class="d" d="M34.07,35.33a.7.7,0,0,1-.39-.11.74.74,0,0,1-.25-1,7.71,7.71,0,0,1,4.83-3.45.75.75,0,0,1,.4,1.45A6.31,6.31,0,0,0,34.71,35,.75.75,0,0,1,34.07,35.33Z" transform="translate(-5.95 -5.82)"/><path class="d" d="M42.49,55.34c-10.12,0-15.7-4.6-15.7-13,0-6.49,4.48-11.77,10-11.77a8.83,8.83,0,0,1,1.7.17.75.75,0,1,1-.3,1.47,7.3,7.3,0,0,0-1.4-.14c-4.67,0-8.47,4.61-8.47,10.27,0,9.48,7.72,11.46,14.2,11.46,1.46,0,14.26-.34,14.26-12.14,0-5.78-2.87-9.08-8.51-9.79a.74.74,0,0,1-.65-.83.76.76,0,0,1,.83-.66c6.43.81,9.83,4.71,9.83,11.28C58.25,52.47,48.34,55.34,42.49,55.34Z" transform="translate(-5.95 -5.82)"/><path class="e" d="M47.08,30.47l-.52-.2c-.16-.06-.33-.12-.51-.17-.34-.09-.67-.16-1-.21h0l.1-.12a3.41,3.41,0,0,1,.38-.38c.12-.1.35-.26.47-.34a4.93,4.93,0,0,1,3.18-.64,4.89,4.89,0,0,0-1-.35,5.17,5.17,0,0,0-3.23.28,3.78,3.78,0,0,0-.63.33,5.46,5.46,0,0,0-1,.79,5.33,5.33,0,0,0-.61.71l-.13.17h-.06a6,6,0,0,0-.81,0c-.25-.09-.54-.19-.89-.28a10,10,0,0,0-1.71-.29,7.74,7.74,0,0,0-1,0,8.54,8.54,0,0,0-1,.07,9.49,9.49,0,0,0-1.86.42,9.24,9.24,0,0,0-1.5.65,8,8,0,0,0-1.31.87,8.45,8.45,0,0,1,1.43-.57,8.78,8.78,0,0,1,1.53-.31,8.47,8.47,0,0,1,1.75,0c.27,0,.58.07.86.12s.55.12.81.2l.06,0a6.65,6.65,0,0,0-.91.62,3.68,3.68,0,0,0-.35.33c-.1.1-.21.21-.32.34a5.08,5.08,0,0,0-.54.73,6.1,6.1,0,0,0-.65,1.43,5.45,5.45,0,0,0-.27,1.46,5.64,5.64,0,0,1,.57-1.33,5.24,5.24,0,0,1,.87-1.16,4.07,4.07,0,0,1,.59-.51l.34-.24a3,3,0,0,1,.35-.19,5,5,0,0,1,2.34-.56l.16.1.32.22v0l.19.1a1,1,0,0,0,1.07-.18.76.76,0,0,0,.26,0,.67.67,0,0,0,.09.14,4.92,4.92,0,0,1,.54.4,3.88,3.88,0,0,1,.93,1.25c.07.17.11.27.16.42a3,3,0,0,1,.12.43,4.36,4.36,0,0,1,.07,1.61,4.38,4.38,0,0,0,.36-.76,5,5,0,0,0,.23-.86,4.35,4.35,0,0,0,.06-.52c0-.14,0-.34,0-.49V34a5.5,5.5,0,0,0-.5-2c0-.09-.09-.16-.13-.24l.27-.07a6.65,6.65,0,0,1,.78-.13c.14,0,.3,0,.47,0h.47a6.74,6.74,0,0,1,1.79.31,6,6,0,0,1,.81.29A8,8,0,0,0,47.08,30.47Z" transform="translate(-5.95 -5.82)"/><path class="d" d="M44.82,37.15a.57.57,0,0,1-.18,0,.51.51,0,0,1-.31-.55,3.77,3.77,0,0,0,0-.71,3.93,3.93,0,0,0-.09-.71,2.59,2.59,0,0,0-.11-.37,1.49,1.49,0,0,0-.11-.28l0-.11a3.49,3.49,0,0,0-.8-1.07,2.77,2.77,0,0,0-.43-.32l-.05,0a1.54,1.54,0,0,1-1.34.08,1.25,1.25,0,0,1-.28-.15l-.34-.24h0a4.5,4.5,0,0,0-2,.5l-.12.06-.18.1-.32.22a4.48,4.48,0,0,0-.55.48,4.83,4.83,0,0,0-.79,1,5,5,0,0,0-.51,1.21.51.51,0,0,1-.54.38.51.51,0,0,1-.45-.49,6.34,6.34,0,0,1,.29-1.62A6.6,6.6,0,0,1,36.34,33a6.46,6.46,0,0,1,.59-.8c.11-.13.22-.24.33-.35a3.6,3.6,0,0,1,.34-.31.46.46,0,0,1,.07-.07l-.57-.07a8.25,8.25,0,0,0-1.65,0,8.44,8.44,0,0,0-1.43.3,7.85,7.85,0,0,0-1.35.53.5.5,0,0,1-.56-.82,8.83,8.83,0,0,1,1.4-.93,10.16,10.16,0,0,1,1.58-.68A10.5,10.5,0,0,1,37,29.34a9.92,9.92,0,0,1,1.06-.07,8.46,8.46,0,0,1,1,0,10.58,10.58,0,0,1,1.8.31c.32.08.59.17.83.25l.55,0a6.86,6.86,0,0,1,.64-.74,5.76,5.76,0,0,1,1.12-.86,4.52,4.52,0,0,1,.69-.36,6.65,6.65,0,0,1,.75-.26,5.87,5.87,0,0,1,2.8-.05,5,5,0,0,1,1.16.4.49.49,0,0,1,.24.6.5.5,0,0,1-.56.33,4.7,4.7,0,0,0-1,0,4,4,0,0,0-1.86.59l-.2.13.07,0,.54.18a5.25,5.25,0,0,1,.55.22,8.65,8.65,0,0,1,2.52,1.71.51.51,0,0,1,0,.64.49.49,0,0,1-.61.16s-.31-.13-.75-.27A6.79,6.79,0,0,0,46.82,32h-.43c-.16,0-.3,0-.43,0l-.39.05A5.78,5.78,0,0,1,46,34c0,.23,0,.45,0,.61a5.17,5.17,0,0,1-.07.55,5.32,5.32,0,0,1-.25,1,5.22,5.22,0,0,1-.41.86A.51.51,0,0,1,44.82,37.15Zm-1.46-5a5,5,0,0,1,.51.39A4.41,4.41,0,0,1,44.92,34l0,.12V34a4.89,4.89,0,0,0-.45-1.86l-.1-.2a.52.52,0,0,1,0-.44.5.5,0,0,1,.32-.3l.29-.08c.24,0,.53-.1.84-.14l.51,0a4.16,4.16,0,0,1,.5,0H47l-.12,0h0c-.15-.07-.32-.13-.49-.19a3.68,3.68,0,0,0-.47-.15,6.51,6.51,0,0,0-.9-.2.51.51,0,0,1-.32-.81l.11-.14a6,6,0,0,1,.44-.43,5.08,5.08,0,0,1,.53-.38l.13-.09-.15,0a5.65,5.65,0,0,0-.62.22,4.48,4.48,0,0,0-.58.29,5.33,5.33,0,0,0-.93.73,5.81,5.81,0,0,0-.56.64l-.12.17a.47.47,0,0,1-.43.21,5.64,5.64,0,0,0-.81,0,.71.71,0,0,1-.21,0,8.71,8.71,0,0,0-.85-.27A9.45,9.45,0,0,0,39,30.3a7,7,0,0,0-.92,0c-.32,0-.61,0-1,.06l-.17,0h.2l.91.13q.45.09.87.21a.55.55,0,0,1,.38.44.5.5,0,0,1-.22.5,5.21,5.21,0,0,0-.83.57l-.14.12.06,0,.1-.05a5.6,5.6,0,0,1,2.58-.62.5.5,0,0,1,.27.08l.5.34.11.06a.53.53,0,0,0,.55-.1.48.48,0,0,1,.37-.11h.13a.5.5,0,0,1,.49.21S43.34,32.15,43.36,32.18Z" transform="translate(-5.95 -5.82)"/><path class="d" d="M45.87,55.05a.76.76,0,0,1-.73-.58.74.74,0,0,1,.55-.9A8.51,8.51,0,0,0,51.52,48c0-.07,0-.14.07-.22a.74.74,0,0,1,.92-.51.75.75,0,0,1,.52.92l-.09.29A10,10,0,0,1,46,55Z" transform="translate(-5.95 -5.82)"/><path class="d" d="M52.55,45.8a.75.75,0,0,1-.75-.71c0-.23,0-.45,0-.64a.75.75,0,0,1,1.5-.12c0,.2,0,.43,0,.68a.76.76,0,0,1-.71.79Z" transform="translate(-5.95 -5.82)"/><path class="d" d="M42.42,31.56h0a.75.75,0,0,1-.72-.78,7.17,7.17,0,0,0-.76-3.47,2.56,2.56,0,0,0-2.7-1.42.75.75,0,0,1,0-1.5,4,4,0,0,1,4,2.25,8.55,8.55,0,0,1,.92,4.2A.76.76,0,0,1,42.42,31.56Z" transform="translate(-5.95 -5.82)"/><path class="f" d="M31.14,63.18v3.39H30.2V63.18H28.92v-.81h3.51v.81Z" transform="translate(-5.95 -5.82)"/><path class="f" d="M37.16,64.47a2.26,2.26,0,1,1-2.26-2.13A2.16,2.16,0,0,1,37.16,64.47Zm-3.54,0a1.31,1.31,0,0,0,1.3,1.32,1.31,1.31,0,1,0-1.3-1.32Z" transform="translate(-5.95 -5.82)"/><path class="f" d="M41.73,66.57V63.74l-1.11,2.41H40l-1.12-2.41v2.83H38v-4.2h1.06l1.22,2.57,1.22-2.57h1v4.2Z" transform="translate(-5.95 -5.82)"/><path class="f" d="M44.58,65.76l-.33.81h-1l1.82-4.2h1l1.79,4.2h-1l-.33-.81Zm1-2.4L44.9,65h1.32Z" transform="translate(-5.95 -5.82)"/><path class="f" d="M49.92,63.18v3.39H49V63.18H47.7v-.81h3.51v.81Z" transform="translate(-5.95 -5.82)"/><path class="f" d="M55.94,64.47a2.26,2.26,0,1,1-2.26-2.13A2.16,2.16,0,0,1,55.94,64.47Zm-3.54,0a1.31,1.31,0,0,0,1.3,1.32,1.31,1.31,0,1,0-1.3-1.32Z" transform="translate(-5.95 -5.82)"/></svg>