<svg xmlns="http://www.w3.org/2000/svg" viewBox="0 0 49.34 80.73"><defs><style>.a{fill:#080704;}.b{fill:#090902;}.c{fill:#834c3f;}.d{fill:#fdd301;}.e{fill:#fdeb01;}.f{fill:#fdeb02;}.g{fill:#fdba01;}.h{fill:#fbd401;}.i{fill:#fcba01;}.j{fill:#fbba01;}.k{fill:#cdc92e;}.l{fill:#bcb41a;}.m{fill:#90863d;}.n{fill:#fdeb05;}.o{fill:#feeb01;}.p{fill:#fefdf7;}.q{fill:#fde001;}.r{fill:#fdeb00;}.s{fill:#fdfdfd;}.t{fill:#e0d9c3;}.u{fill:#e5e5e5;}</style></defs><title>upvote</title><path class="a" d="M17.85,36a1.67,1.67,0,0,0,.08-.32A12.47,12.47,0,0,1,20.34,29a1.93,1.93,0,0,1,.27-.3A1.65,1.65,0,0,0,21,26.93c-.28-1.36-.6-2.71-.94-4.06a4.63,4.63,0,0,1,.59-4.06,3.24,3.24,0,0,1,3.18-1.3,5.37,5.37,0,0,1,1.31.28,4.25,4.25,0,0,1,2.64,3.11A11.83,11.83,0,0,1,28,25.45a.66.66,0,0,1,0,.14l1.72.34c.31-.82.61-1.69.95-2.54a25.78,25.78,0,0,1,5.67-8.87A16.25,16.25,0,0,1,43,10.43a23.55,23.55,0,0,1,2.89-.61.91.91,0,0,0,.83-.69c.25-.84.51-1.68.76-2.52.46-1.48.91-3,1.36-4.46h.27c.6.11,1.2.23,1.8.33s1.26.15,1.86.31a5.75,5.75,0,0,1,1.44.62,8.84,8.84,0,0,1,3.09,4.2,35.35,35.35,0,0,0-4,3.74c-.54.54-1.06,1.1-1.57,1.67a.77.77,0,0,0-.07,1.12,6.47,6.47,0,0,1,1.18,3.45A30.7,30.7,0,0,1,52.38,24a87.67,87.67,0,0,0-.88,9.43.59.59,0,0,1,0,.13l-.15,0-.07-.06-.07-.07-.07-.07,0,0h0l0,0,.06.07.07.06.07.07.15,0s0,0,0,0c-.19.81.22,1.26.87,1.71a16,16,0,0,1,4.12,3.92c.33.48.58,1,.87,1.51l.18.55a5.62,5.62,0,0,1-.42,2.59l-.22.56-1,1.95a2.28,2.28,0,0,1,.7,2.11.44.44,0,0,0,.17.29,2,2,0,0,1,.94,2.38c-.24.82-.8,1.19-1.86,1.2,0,.08,0,.15.08.22a44.7,44.7,0,0,0,4,6.79,11.36,11.36,0,0,0,1,1.19,14.69,14.69,0,0,1,3.46,6.58c.08.32.13.64.22,1a1,1,0,0,0,.2.37c.23.26.48.51.73.75a4.94,4.94,0,0,1,1.62,2.37V73c0,.08-.12.16-.13.25a3.23,3.23,0,0,1-2.12,2.72,4,4,0,0,1-1.79.08c-2-.32-4.08-.61-6.12-1-1-.17-2-.46-2.94-.71l-.16,1.6c.55.12,1.07.22,1.58.34a20.43,20.43,0,0,1,4.23,1.35A4,4,0,0,1,62,80.5a6.83,6.83,0,0,1,.07,1.43c0,.19-.11.26-.3.28l-4.28.41c-.88.08-1.76.13-2.64.2-.05,0-.09,0-.14.06h-.54l-.46,0-1.09,0h-.4s0,0-.07-.06a6.24,6.24,0,0,1-2.82-2,2.84,2.84,0,0,1-.83-2.64c0-.06,0-.11,0-.17a2.71,2.71,0,0,1,1-1.86.74.74,0,0,0,.27-.45c.1-.91.16-1.82.24-2.74A35.46,35.46,0,0,1,41.23,68,24.73,24.73,0,0,0,41,75.62a.66.66,0,0,0,.16.41,2.72,2.72,0,0,1,1.09,1.9,3.08,3.08,0,0,1-.76,2.8,6.48,6.48,0,0,1-3.06,2.15h-2.5a1.22,1.22,0,0,0-.17-.07l-6.68-.59c-.26,0-.42-.11-.4-.37a8.84,8.84,0,0,1,.17-1.63A3.63,3.63,0,0,1,31,77.65a28,28,0,0,1,2.78-1c1-.28,1.95-.45,2.92-.67l.09,0c0-1.1-.15-2.17-.16-3.25a25.48,25.48,0,0,1,1.17-7.8.7.7,0,0,0-.13-.72c-.77-1.07-1.57-2.12-2.24-3.25-1-1.63-1.86-3.29-2.68-5S31.34,52.59,30.67,51a26.4,26.4,0,0,1-2.55,1,5.94,5.94,0,0,1-6.51-2.07,14.76,14.76,0,0,1-2.68-5.3,23.12,23.12,0,0,1-1-5,1.29,1.29,0,0,0-.08-.26V36Zm13.68,7.35h0l-.09.15-.64.95c-.3.24-.6.46-.89.71a.27.27,0,0,0-.1.23c.12.56.27,1.12.4,1.67a46.24,46.24,0,0,0,2.87,8.19c0,.12.1.25.16.37q1.39,2.61,2.8,5.22c.21.39.42.78.66,1.14s.42.46.61.7c1,1.17,1.86,2.38,2.86,3.5A16.73,16.73,0,0,0,44,69.26a41.68,41.68,0,0,0,6.78,3.31,45.83,45.83,0,0,0,7.51,2.12c.93.17,1.87.28,2.8.42l3,.39a2.64,2.64,0,0,1-.41-1.87A11.62,11.62,0,0,1,64,72.44c.36-.94.85-1.75,2.11-1.75l-2-2.06c-.16-.68-.29-1.37-.49-2a13.23,13.23,0,0,0-3.3-5.79l0,0h0a35.7,35.7,0,0,1-3-4.32,48,48,0,0,1-5.81-15,4,4,0,0,0-.16-.57h0c0-.13,0-.25,0-.37l-.42-3.61-.06-2v-.74l.06-2.11a1,1,0,0,0,0-.17c.2-2,.38-4,.58-6,.23-2.18.54-4.35.71-6.53A7,7,0,0,0,51,14.3c0-.06-.07-.14-.11-.2l-.07-.28s0,0,0-.05v-.4a3.26,3.26,0,0,1,.41-.73Q53.3,10.51,55.4,8.4c.23-.24.49-.45.77-.7a2.08,2.08,0,0,0-.26-.07l-2-.35a4.62,4.62,0,0,1-2.25-.71c-.52-.7-1-1.38-1.55-2.08-.3-.41-.58-.83-.9-1.29-.28.89-.54,1.73-.79,2.58-.35,1.15-.68,2.3-1.06,3.44a4.55,4.55,0,0,1-.58,1c-.32.09-.64.19-1,.26l-2.07.42c-.57.19-1.15.36-1.7.58A15.6,15.6,0,0,0,37.88,14a22.63,22.63,0,0,0-6.05,8.33c-.57,1.27-1,2.58-1.56,3.87l.17.11a5.51,5.51,0,0,1,2.84,3.65,7.18,7.18,0,0,1-.22,4.51,2.19,2.19,0,0,0-.19,1.29,2.05,2.05,0,0,1,0,.74,6,6,0,0,1-1.38,3.1A3.86,3.86,0,0,1,31.64,43a1.74,1.74,0,0,0-.05.22h0ZM29.77,79.63h0l-.08.14h0l-.09.17-.28.73-.09.93.28,0c1.16.11,2.32.25,3.49.33,1.62.12,3.25.22,4.88.28A2.31,2.31,0,0,0,39,82a6.85,6.85,0,0,0,2.58-2.49.6.6,0,0,0,.08-.29,10.41,10.41,0,0,0-.1-1.48,1.55,1.55,0,0,0-1-1.27.33.33,0,0,1-.14-.23c-.08-.77-.17-1.54-.23-2.31a20.87,20.87,0,0,1,.31-5.41A1.57,1.57,0,0,0,40,66.79a20.35,20.35,0,0,1-1.61-1.71L38,66.41l-.27,1.22a22.41,22.41,0,0,0-.5,5.72c0,1,.15,2.05.23,3.09-.71.14-1.44.28-2.18.44a18.16,18.16,0,0,0-4.11,1.35,2.71,2.71,0,0,0-1.38,1.31h0ZM52.89,36.5h0l-.07-.06-.47-.34h0L52.28,36l-.78-.6a32.6,32.6,0,0,0,.69,6.37,2.58,2.58,0,0,1,1.16-1.39h.2l-.13.2a1.32,1.32,0,0,0-.62.95.68.68,0,0,0-.12.22c0,.49-.08,1-.11,1.46l.26,1.15c.28.93.53,1.88.87,2.8.52,1.43,1.11,2.83,1.69,4.24a.51.51,0,0,0,.21.28A1.15,1.15,0,0,0,57.14,51a1.41,1.41,0,0,0-.78-1.65l-.44.37.2-.94L56,47.67l-.9-1.16,1.21-2.43.26-.67a3.42,3.42,0,0,0,.18-.6c.05-.48.05-1,.08-1.44l-.2-.56a2,2,0,0,0-.14-.3A12.9,12.9,0,0,0,53,36.57h0Zm7.85,42.71-.05-.07h0a2.55,2.55,0,0,0-1.38-1c-1.1-.41-2.2-.78-3.32-1.1-.9-.25-1.83-.4-2.75-.6l.17-1.77c0-.18.23-.43-.11-.56l-2.72-.93c-.07.92-.13,1.81-.22,2.69,0,.22-.09.54-.23.6a1.69,1.69,0,0,0-1,1.3,7.16,7.16,0,0,0-.1,1.31,1.11,1.11,0,0,0,.19.62A25,25,0,0,0,51,81.52a2.79,2.79,0,0,0,2.17.75c2-.15,4.05-.28,6.08-.44.75,0,1.49-.14,2.27-.22a3.55,3.55,0,0,0-.28-1.5l-.44-.75,0-.14h0ZM28.37,43.9l.19,0c0,.07,0,.16-.08.2-.2.19-.42.37-.65.57a2,2,0,0,0,2.06-.48l.5-.55.37-.64.31-1.24,0-.88L31,40.69h0a1.71,1.71,0,0,0-.67-1.21l-.42-.32a10.89,10.89,0,0,0-1.68-.67c-1.06-.25-2.14-.39-3.21-.58l0,0,.59-.09.55,0H27.5a6.18,6.18,0,0,1,3.57,1.23,5,5,0,0,0,1-3.17l0-.29v0l0,0a2.56,2.56,0,0,0-.66-1.42,8.2,8.2,0,0,0-1-.86,6,6,0,0,0-2.88-.82c-.57,0-1.14,0-1.71,0v-.07l.51-.12.61-.08c.44,0,.88,0,1.31,0a5.48,5.48,0,0,1,3.58,1.24c.27.24.48.54.74.82a6.48,6.48,0,0,0-.38-5.44A.81.81,0,0,0,32,28.6a3.59,3.59,0,0,0-1.65-1.66,6.82,6.82,0,0,0-.72-.35,6.7,6.7,0,0,0-3.84-.15A8.85,8.85,0,0,0,21,29.12a9.25,9.25,0,0,0-2,4,18.62,18.62,0,0,0-.36,7.13c.15,1.14.45,2.26.69,3.39l1,2.9c.18.38.34.76.53,1.12a9.16,9.16,0,0,0,1.75,2.36c2.33,2.25,5.4,1.73,7.83.21l-1.28-4.75-1.83-.21a1.85,1.85,0,0,1-.14.33c-.14.21-.08.35.05.56a6.29,6.29,0,0,1,.58,1.16,2.22,2.22,0,0,1,.06,1.35,4,4,0,0,0-1.17-2.22c-1.62,1.34-3,1.64-4,.79a2.84,2.84,0,0,0,2.5-.18,3.59,3.59,0,0,0,1.54-1.94c-1.22.11-1.61.05-2.1-.33l.25,0a6.88,6.88,0,0,0,2.56-.59Zm-1-18.3a11,11,0,0,0-.26-4.79,3.64,3.64,0,0,0-3.39-2.7,2.75,2.75,0,0,0-2.95,1.72,4.34,4.34,0,0,0-.1,2.93c.26.95.52,1.9.74,2.86.14.67.21,1.36.31,2A10.23,10.23,0,0,1,27.35,25.6ZM49.7,2.91c.49.71.93,1.32,1.35,1.94,1,1.5,1,1.5,2.79,1.8l2.52.44L56.42,7c-.32-.51-.62-1-1-1.52a4.77,4.77,0,0,0-3.58-2.25C51.17,3.2,50.49,3,49.7,2.91ZM64.29,74.14a1.92,1.92,0,0,0,0,.24c0,.3.06.62.38.77a.7.7,0,0,0,.82-.23,5.69,5.69,0,0,0,.62-.84,3.33,3.33,0,0,0,.41-2.35.5.5,0,0,0-.23-.29,1,1,0,0,0-1.26.37A4.13,4.13,0,0,0,64.29,74.14Z" transform="translate(-17.85 -2.15)"/><path class="b" d="M37,82.88h0Z" transform="translate(-17.85 -2.15)"/><path class="b" d="M52.61,82.88l1.09-.06a.13.13,0,0,0,0,.06Z" transform="translate(-17.85 -2.15)"/><path class="b" d="M17.85,37.66v0Z" transform="translate(-17.85 -2.15)"/><path class="b" d="M17.85,36.71v0Z" transform="translate(-17.85 -2.15)"/><path class="c" d="M53.69,82.88a.13.13,0,0,1,0-.06l.46.06Z" transform="translate(-17.85 -2.15)"/><path class="c" d="M51.33,33.54l.15,0h0l-.15,0Z" transform="translate(-17.85 -2.15)"/><path class="d" d="M43.7,10.86l2.07-.42c.32-.07.64-.17,1-.26,0,.05.06.09.06.14,0,.52.11.71.61.89.31.11.69.13.83.53v.07c-.48.38-1.09.6-1.45,1.14,0,0-.07,0-.1,0L46.6,13h0a1.23,1.23,0,0,0-.29.08,15.46,15.46,0,0,0-1.45.92,14.71,14.71,0,0,0-3.94,5,22.05,22.05,0,0,0-2,5.63c0,.05-.09.1-.08.15s.09.16.07.23-.11.42-.16.63-.09.39-.35.35v.1A3,3,0,0,0,36,28.26a5.27,5.27,0,0,1,4.07-.71,15.93,15.93,0,0,1,1.74.66h0l.08.05.06.16a4.24,4.24,0,0,1,.33,2.38c0,.06-.1.12-.15.17a9.81,9.81,0,0,0-1.24-1.33A3.3,3.3,0,0,0,36.5,30a5.3,5.3,0,0,0-.23,7,2.38,2.38,0,0,1,.18.22h-.51l-.47.06-.42.09a8.35,8.35,0,0,1,2.38.62l.13.1h0l.14.08h0l.13,2.57a1.16,1.16,0,0,0-1,.87,4.31,4.31,0,0,0-.16,1.29,1.45,1.45,0,0,0,1.61,1.62c0,.19.05.38.09.57.26,1.19.5,2.4.8,3.58a29.67,29.67,0,0,0,2.09,5.72,29.09,29.09,0,0,0,5.18,8.37c.84.95,1.77,1.84,2.66,2.75-.63,0-1.27.14-1.9.13a12.14,12.14,0,0,1-1.69-.19,11.24,11.24,0,0,1-4-1.49,16.15,16.15,0,0,1-4.3-3.55c-.82-1-1.63-2-2.38-3-.55-.73-1-1.54-1.5-2.33l-.18.1A46.24,46.24,0,0,1,30.22,47c.12,0,.27.06.34,0a6,6,0,0,0,1.09-1,20.57,20.57,0,0,0,1.18-1.84c0,.2.06.29.27.27a1.53,1.53,0,0,1,.37,0c.29,0,.39-.06.38-.37,0-.67,0-1.35,0-2,0-.4.14-.52.6-.52s.54.11.54.5c0,.56,0,1.13,0,1.69,0,.76,0,.75.77.72.19,0,.25-.07.25-.26,0-.74,0-1.49,0-2.22s-.35-1.32-1.35-1.22a3,3,0,0,0-.83.33l-.09-.28h-.41a1.29,1.29,0,0,0,0-.44c-.14-.35,0-.59.21-.86a5.52,5.52,0,0,0,.76-3.77,2.79,2.79,0,0,1-.06-1.35,7.84,7.84,0,0,0,.39-3.16,8.44,8.44,0,0,0-.88-3.2,10.93,10.93,0,0,0-1.18-1.87A.94.94,0,0,1,32.43,25c.72-1.5,1.39-3,2.16-4.48a20.9,20.9,0,0,1,2.92-4.24c.77-.87,1.66-1.64,2.47-2.48a16.12,16.12,0,0,1,2.78-2.15c.37-.27.76-.5,1.14-.75l.09,0,0,0-.07,0Z" transform="translate(-17.85 -2.15)"/><path class="e" d="M38.43,26.09V26c.26,0,.3-.15.35-.35s.12-.42.16-.63-.06-.15-.07-.23.05-.1.08-.15.14-.09.17-.16c.49-1.15,1-2.31,1.47-3.45a25.66,25.66,0,0,1,2.5-4.38A14.94,14.94,0,0,1,46.61,13h0l.07-.08s.09,0,.1,0c.36-.54,1-.76,1.45-1.14a1.35,1.35,0,0,0,1.34,1.46,3,3,0,0,1,1.27.1v.4l0,0,0,0,.07.28-.27-.62a7.66,7.66,0,0,0,0,.95,2.28,2.28,0,0,0,.23,1c.14.22.22.32-.07.52l.34.1L51,16.4c0,.08-.11.15-.11.22s.05.35,0,.53c-.08,1.13-.08,2.27-.27,3.38-.41,2.45-.92,4.89-1.4,7.38l-.13-.12a2.89,2.89,0,0,0-2.89-1.65,3.27,3.27,0,0,0-2.73,2,.21.21,0,0,0,0,.11h0l-.07.08a4.17,4.17,0,0,0-.17,3.14c0,.09.13.15.19.23A4.9,4.9,0,0,0,43,35.28a3.73,3.73,0,0,0,2.74,2.95,4.89,4.89,0,0,0,.59.09l-.51.73.06.07a6.7,6.7,0,0,1,2.27-1.3L48.53,41a1.56,1.56,0,0,0-.49-.19c-.46,0-.93,0-1.39,0l.34-.39-1.5.68,0-.29c-.28,0-.55,0-.81,0a.27.27,0,0,0-.2.11,3.77,3.77,0,0,0-.14.58l-1,.17c-.07-.78-.21-.91-1-.87h0c-.19,0-.23.09-.17.26l.24.66-.74,0V40c0-.72,0-.71-.72-.71-.24,0-.3.09-.3.32,0,.64,0,1.28,0,1.92l-.82-.25V39.35l-.65-.21-.5-.79.05-.05a4.58,4.58,0,0,0,.83-.08,3.94,3.94,0,0,0,2.91-2.76A5.44,5.44,0,0,0,42.13,31s.14-.11.15-.17A4.24,4.24,0,0,0,42,28.42l-.06-.16-.08-.05h0a.48.48,0,0,0,0-.12A3.26,3.26,0,0,0,38.43,26.09Zm8.66,14.29v0H47v0Zm3.29-19.74s0,0,0,0,0,0,0,0l-.07.06a2.89,2.89,0,0,1,0-.29c.06-.93.16-1.86.16-2.79a5.81,5.81,0,0,0-.55-2.52,1.91,1.91,0,0,0-.16-.27c.6,3.17.07,6.26-.38,9.36a7.74,7.74,0,0,0,.35-1.06c.22-.81.41-1.62.62-2.43Z" transform="translate(-17.85 -2.15)"/><path class="f" d="M30.28,39.48A1.71,1.71,0,0,1,31,40.69l-.48.08a1.57,1.57,0,0,0-1.55,1.28v.06l-.61.27h0l0-.32h-.24c-.69,0-.69,0-.68.67v.07l-1.61.27c0-.24,0-.47,0-.71a.53.53,0,0,1,.44-.59c.14,0,.29,0,.43-.06s.2-.11.21-.18c0-.24,0-.48,0-.71-.46-.14-.76.08-1.11.38.1-.37-.09-.37-.29-.36a2.28,2.28,0,0,1-.37,0c-.21,0-.27.08-.26.28,0,.72,0,1.43,0,2.15v.07l-.47.23-.88.44c0-.69,0-1.39,0-2.09,0-.3.07-.45.39-.4s.37,0,.36-.32-.07-.38-.36-.36-.47-.12-.32-.49A.42.42,0,0,1,24,40l.36,0a5.85,5.85,0,0,0,0-.6.28.28,0,0,0-.14-.18,1.29,1.29,0,0,0-1.67,1.26c0,.25,0,.4-.33.36a.68.68,0,0,0-.19,0v.61l.52.06v2.64c0,.14,0,.31.2.3a2.26,2.26,0,0,1-.42.19,2.81,2.81,0,0,1-2.12-.47l-.84-.53c-.24-1.13-.54-2.25-.69-3.39A18.62,18.62,0,0,1,19,33.15a9.25,9.25,0,0,1,2-4,8.85,8.85,0,0,1,4.76-2.68,6.7,6.7,0,0,1,3.84.15,6.82,6.82,0,0,1,.72.35,1.61,1.61,0,0,0,0,.31,7.78,7.78,0,0,1,.33,1.21c.12,1.17-.6,1.59-1.48,1.77A5.11,5.11,0,0,0,26.3,32c-.05.06,0,.2,0,.3l-.51.12v.07c.57,0,1.14,0,1.71,0a6,6,0,0,1,2.88.82,8.2,8.2,0,0,1,1,.86,1.26,1.26,0,0,0-.21.26c-.07.17-.09.37-.16.55a2.4,2.4,0,0,1-2,1.63,6.73,6.73,0,0,0-2.81.79,4.68,4.68,0,0,0-.61.49L25,38l0,0c1.07.19,2.15.33,3.21.58a10.89,10.89,0,0,1,1.68.67c-.08.14-.27.32-.23.41a6.56,6.56,0,0,0,.49.9.84.84,0,0,0,.08-.38C30.22,39.88,30.25,39.68,30.28,39.48Zm-1.55.16c-.06.17-.3.34,0,.51s.6.31.9.46l.07-.07-.7-.86a3.58,3.58,0,0,0-3.53-1c-.25,0-.23.18-.07.32a1.69,1.69,0,0,0,.36.23,4.06,4.06,0,0,0,2.06.38A7.25,7.25,0,0,1,28.73,39.64Zm-9.38-4.9.13,0a3.07,3.07,0,0,0,.28-.35c.26-.49.62-.92.86-1.44s.69-1.25,1-1.89a6,6,0,0,1,2.58-2.59c.63-.33,1.3-.59,2-.89.15-.07.28-.15.48-.26l-.2-.09a2.85,2.85,0,0,0-1.91.16,9.41,9.41,0,0,0-3.3,2.35,6.55,6.55,0,0,0-1.8,3.76C19.38,33.93,19.38,34.34,19.35,34.74Zm10.49-.87c-.54-.85-3.56-1-4.38-.27.16.1.29.25.45.28a12.25,12.25,0,0,0,3.42.11A4.09,4.09,0,0,0,29.84,33.87Zm-2,6.89a.49.49,0,0,0-.54.47.52.52,0,0,0,.55.54.52.52,0,0,0,.53-.54A.5.5,0,0,0,27.84,40.76Z" transform="translate(-17.85 -2.15)"/><path class="g" d="M33.09,55.21l.18-.1c.5.79.95,1.6,1.5,2.33.75,1,1.56,2,2.38,3A16.15,16.15,0,0,0,41.45,64a11.24,11.24,0,0,0,4,1.49,12.14,12.14,0,0,0,1.69.19c.63,0,1.27-.08,1.9-.13l.4.34a29.65,29.65,0,0,0,5.36,3.75c.67.36,1.37.66,2.06,1,0,0,.09,0,.12,0L59.74,72c.57.28,1.15.54,1.72.81a1.44,1.44,0,0,0,0,1.34.45.45,0,0,1,0,.35c-.08.22-.19.43-.29.64-.93-.14-1.87-.25-2.8-.42a45.83,45.83,0,0,1-7.51-2.12A41.68,41.68,0,0,1,44,69.26a16.73,16.73,0,0,1-3.84-3.12c-1-1.12-1.9-2.33-2.86-3.5-.19-.24-.44-.44-.61-.7s-.45-.75-.66-1.14q-1.41-2.61-2.8-5.22C33.19,55.46,33.14,55.33,33.09,55.21Z" transform="translate(-17.85 -2.15)"/><path class="h" d="M51,16.4l.12-.33-.34-.1c.29-.2.21-.3.07-.52a2.28,2.28,0,0,1-.23-1,7.66,7.66,0,0,1,0-.95l.27.62c0,.06.07.14.11.2a7,7,0,0,1,1.21,5.12c-.17,2.18-.48,4.35-.71,6.53-.2,2-.38,4-.58,6a1,1,0,0,1,0,.17,1.24,1.24,0,0,0-.12.32c0,.33,0,.67,0,1s0,.52.06.79V35s-.06.08-.06.12v1.67c0,.06.08.11.12.17l.42,3.61c0,.12,0,.24,0,.37l-.75-.11c0-.17,0-.32,0-.48s0-.37-.32-.37-.3.14-.3.36c0,.51,0,.51-.5.54l-.07,0v.4a.62.62,0,0,0,.17,0c.36-.06.43.11.41.44,0,.63,0,1.26,0,1.89a.86.86,0,0,0,1.12.89c.4-.09.41-.1.22-.5-.71-.05-.73-.07-.73-.8V41.93c0-.6,0-.6.58-.63a.51.51,0,0,0,.14,0l0-.37a4,4,0,0,1,.16.57,48,48,0,0,0,5.81,15,35.7,35.7,0,0,0,3,4.32,1.25,1.25,0,0,0,0,.38,5.52,5.52,0,0,1,.36,1.76c-.65-.78-1.27-1.59-2-2.33a32.66,32.66,0,0,1-6.07-8.84A40.49,40.49,0,0,1,49,39.93c-.1-.76-.15-1.52-.22-2.3L50,37.45v-.06l-1.21-.17a4.89,4.89,0,0,0,.39-5.76.38.38,0,0,1,0-.24c.18-1.13.34-2.27.54-3.4a67.62,67.62,0,0,0,1.28-8C51,18.68,51,17.54,51,16.4Z" transform="translate(-17.85 -2.15)"/><path class="i" d="M43.9,10.93c-.38.25-.77.48-1.14.75A16.12,16.12,0,0,0,40,13.83c-.81.84-1.7,1.61-2.47,2.48a20.9,20.9,0,0,0-2.92,4.24c-.77,1.47-1.44,3-2.16,4.48a.94.94,0,0,0,.11,1.15,10.93,10.93,0,0,1,1.18,1.87,8.44,8.44,0,0,1,.88,3.2,7.84,7.84,0,0,1-.39,3.16,2.79,2.79,0,0,0,.06,1.35,5.52,5.52,0,0,1-.76,3.77c-.17.27-.35.51-.21.86a1.29,1.29,0,0,1,0,.44h0l-.45,0c0,.07,0,.1,0,.13,0,1,0,2,0,3v.21a20.57,20.57,0,0,1-1.18,1.84,6,6,0,0,1-1.09,1c-.07.06-.22,0-.34,0-.13-.55-.28-1.11-.4-1.67a.27.27,0,0,1,.1-.23c.29-.25.59-.47.89-.71a1.28,1.28,0,0,0,1.24-.47c.31-.3.24-.57-.17-.71a.94.94,0,0,0-.29,0,1.74,1.74,0,0,1,.05-.22,3.86,3.86,0,0,0-.16-3.44,6,6,0,0,0,1.38-3.1,2.05,2.05,0,0,0,0-.74,2.19,2.19,0,0,1,.19-1.29,7.18,7.18,0,0,0,.22-4.51,5.51,5.51,0,0,0-2.84-3.65l-.17-.11c.51-1.29,1-2.6,1.56-3.87A22.63,22.63,0,0,1,37.88,14,15.6,15.6,0,0,1,42,11.44c.55-.22,1.13-.39,1.7-.58l.2.07Z" transform="translate(-17.85 -2.15)"/><path class="e" d="M27.35,25.6a10.23,10.23,0,0,0-5.65,2c-.1-.67-.17-1.36-.31-2-.22-1-.48-1.91-.74-2.86a4.34,4.34,0,0,1,.1-2.93,2.75,2.75,0,0,1,2.95-1.72,3.64,3.64,0,0,1,3.39,2.7A11,11,0,0,1,27.35,25.6Zm-.94-4.76c0-.09,0-.13,0-.18a2.67,2.67,0,0,0-2.46-2.08c-.36,0-.53.3-.31.6a1.33,1.33,0,0,0,.47.41,5.08,5.08,0,0,0,.83.36,1.37,1.37,0,0,1,1,1,.71.71,0,0,0,.11.21c.13.18.25.16.34-.05A1.57,1.57,0,0,0,26.41,20.84Z" transform="translate(-17.85 -2.15)"/><path class="i" d="M27.44,44.21a6.88,6.88,0,0,1-2.56.59l-.25,0c.49.38.88.44,2.1.33a3.59,3.59,0,0,1-1.54,1.94,2.84,2.84,0,0,1-2.5.18c1,.85,2.42.55,4-.79A4,4,0,0,1,27.9,48.7a2.22,2.22,0,0,0-.06-1.35,6.29,6.29,0,0,0-.58-1.16c-.13-.21-.19-.35-.05-.56a1.85,1.85,0,0,0,.14-.33l1.83.21,1.28,4.75c-2.43,1.52-5.5,2-7.83-.21a9.16,9.16,0,0,1-1.75-2.36c-.19-.36-.35-.74-.53-1.12a2.08,2.08,0,0,1,.36,0,2.26,2.26,0,0,0,1.63-.2,4.11,4.11,0,0,0,1.44-1.37,1.56,1.56,0,0,1,1-.71c.1.11.73.23.84.11s.07-.29.1-.44h0l1.61-.2Z" transform="translate(-17.85 -2.15)"/><path class="e" d="M29.82,79.54a2.71,2.71,0,0,1,1.38-1.31,18.16,18.16,0,0,1,4.11-1.35c.74-.16,1.47-.3,2.18-.44-.08-1-.19-2.06-.23-3.09a22.41,22.41,0,0,1,.5-5.72l.29.32a2.58,2.58,0,0,1,.79,1.59c0,1.38,0,2.76.07,4.14,0,.56,0,1.12.07,1.68a5.72,5.72,0,0,0,.12.83c.08.41.22.82.27,1.24a3.71,3.71,0,0,1-.43,2.14c-.19.38-.35.83-.88.88a10.85,10.85,0,0,1-1.5.13c-1.37-.06-2.75-.14-4.12-.27A7.14,7.14,0,0,1,29.82,79.54Z" transform="translate(-17.85 -2.15)"/><path class="e" d="M53.42,74.65l-.17,1.77c.92.2,1.85.35,2.75.6,1.12.32,2.22.69,3.32,1.1a2.55,2.55,0,0,1,1.38,1,1.42,1.42,0,0,0-.29.1,8.13,8.13,0,0,1-3.37.93,13.48,13.48,0,0,1-2.46,0,9.57,9.57,0,0,1-2.13-.42,1.66,1.66,0,0,1-1-2.54,1.58,1.58,0,0,0,.13-.57c0-.46,0-.92.06-1.38,0-.22.13-.3.34-.27l1.3.16v-.5h.13Z" transform="translate(-17.85 -2.15)"/><path class="j" d="M38,66.41l.33-1.33A20.35,20.35,0,0,0,40,66.79a1.57,1.57,0,0,1,.58,1.73,20.87,20.87,0,0,0-.31,5.41c.06.77.15,1.54.23,2.31a.33.33,0,0,0,.14.23,1.55,1.55,0,0,1,1,1.27,10.41,10.41,0,0,1,.1,1.48.6.6,0,0,1-.08.29A6.85,6.85,0,0,1,39,82a2.31,2.31,0,0,1-1.13.25c-1.63-.06-3.26-.16-4.88-.28-1.17-.08-2.33-.22-3.49-.33l-.28,0,.09-.93.18.07h0c.87.12,1.74.26,2.62.35,1.21.13,2.42.25,3.64.32a17.38,17.38,0,0,0,2-.06,2.14,2.14,0,0,0,1.87-1.07,3.79,3.79,0,0,0,.38-2.92,18.59,18.59,0,0,1-.5-4.52c0-.26,0-.52,0-.77,0-.85,0-1.71,0-2.56a2.19,2.19,0,0,0-.35-1.75C38.81,67.31,38.42,66.86,38,66.41Z" transform="translate(-17.85 -2.15)"/><path class="k" d="M50.83,13.37a3,3,0,0,0-1.27-.1,1.35,1.35,0,0,1-1.34-1.46v-.07s.08-.05.1-.09q1.26-1.89,2.51-3.8c.27-.42.51-.86.77-1.28a4.62,4.62,0,0,0,2.25.71l2,.35a2.08,2.08,0,0,1,.26.07c-.28.25-.54.46-.77.7q-2.1,2.12-4.16,4.24A3.26,3.26,0,0,0,50.83,13.37Z" transform="translate(-17.85 -2.15)"/><path class="j" d="M53.36,74.65h-.07c-.58-.12-1.16-.23-1.73-.37-.23-.06-.35,0-.39.22a14.58,14.58,0,0,0-.27,1.84,1,1,0,0,1-.3.77,1.5,1.5,0,0,0-.41,1.2,2.56,2.56,0,0,0,1.1,1.86,6.21,6.21,0,0,0,3.42,1.1c.43,0,.85,0,1.27.07h0l0,0c.35,0,.7-.1,1-.13a11.2,11.2,0,0,0,2.8-.6l1.39-.49a3.55,3.55,0,0,1,.28,1.5c-.78.08-1.52.17-2.27.22-2,.16-4.06.29-6.08.44A2.79,2.79,0,0,1,51,81.52a25,25,0,0,1-1.72-1.84,1.11,1.11,0,0,1-.19-.62,7.16,7.16,0,0,1,.1-1.31,1.69,1.69,0,0,1,1-1.3c.14-.06.21-.38.23-.6.09-.88.15-1.77.22-2.69l2.72.93Zm-2.69,1.44h0v0h0Zm5.45,5.43,0,0h0s0,0,0,0Z" transform="translate(-17.85 -2.15)"/><path class="d" d="M38,66.41c.39.45.78.9,1.18,1.33a2.19,2.19,0,0,1,.35,1.75c0,.85,0,1.71,0,2.56,0,.25,0,.51,0,.77a18.59,18.59,0,0,0,.5,4.52,3.79,3.79,0,0,1-.38,2.92,2.14,2.14,0,0,1-1.87,1.07,17.38,17.38,0,0,1-2,.06c-1.22-.07-2.43-.19-3.64-.32-.88-.09-1.75-.23-2.62-.35h0l0,0-.18-.07c.09-.24.19-.48.28-.73l.09-.17h0l.08-.14h0l.05-.08h0a7.14,7.14,0,0,0,2.62.77c1.37.13,2.75.21,4.12.27a10.85,10.85,0,0,0,1.5-.13c.53,0,.69-.5.88-.88a3.71,3.71,0,0,0,.43-2.14c0-.42-.19-.83-.27-1.24a5.72,5.72,0,0,1-.12-.83c0-.56-.06-1.12-.07-1.68,0-1.38,0-2.76-.07-4.14A2.58,2.58,0,0,0,38.05,68l-.29-.32Z" transform="translate(-17.85 -2.15)"/><path class="l" d="M51.61,6.57c-.26.42-.5.86-.77,1.28q-1.25,1.9-2.51,3.8s-.07.06-.1.09c-.14-.4-.52-.42-.83-.53-.5-.18-.63-.37-.61-.89,0-.05,0-.09-.06-.14a4.55,4.55,0,0,0,.58-1c.38-1.14.71-2.29,1.06-3.44.25-.85.51-1.69.79-2.58.32.46.6.88.9,1.29C50.57,5.19,51.09,5.87,51.61,6.57Z" transform="translate(-17.85 -2.15)"/><path class="e" d="M53,36.57a12.9,12.9,0,0,1,3.56,3.94,2,2,0,0,1,.14.3,6,6,0,0,0-.44.43A2.25,2.25,0,0,0,55.8,43c.06.42.1.88.55,1.13l-1.21,2.43.9,1.16c-.2-.12-.16.08-.22.16s-.29.44-.46.45-.35-.23-.53-.38,0-.07-.06-.11A8.62,8.62,0,0,1,54,44.48a3.45,3.45,0,0,0,.47-.24A2.16,2.16,0,0,0,54.44,41V41l.33-1.28c-.53-.1-1-.17-1.51-.28a.46.46,0,0,1-.29-.33C53,38.24,53,37.4,53,36.57Z" transform="translate(-17.85 -2.15)"/><path class="d" d="M56,81.34c-.42,0-.84-.06-1.27-.07a6.21,6.21,0,0,1-3.42-1.1,2.56,2.56,0,0,1-1.1-1.86,1.5,1.5,0,0,1,.41-1.2,1,1,0,0,0,.3-.77,14.58,14.58,0,0,1,.27-1.84c0-.23.16-.28.39-.22.57.14,1.15.25,1.73.37v.5L52,75c-.21,0-.33.05-.34.27,0,.46,0,.92-.06,1.38a1.58,1.58,0,0,1-.13.57,1.66,1.66,0,0,0,1,2.54,9.57,9.57,0,0,0,2.13.42,13.48,13.48,0,0,0,2.46,0,8.13,8.13,0,0,0,3.37-.93,1.42,1.42,0,0,1,.29-.1h0l.05.07,0,0h0s0,.09,0,.14l.44.75-1.39.49a11.2,11.2,0,0,1-2.8.6c-.35,0-.7.09-1,.13Z" transform="translate(-17.85 -2.15)"/><path class="m" d="M49.7,2.91c.79.13,1.47.29,2.17.34A4.77,4.77,0,0,1,55.45,5.5c.35.49.65,1,1,1.52l-.06.07-2.52-.44c-1.81-.3-1.75-.3-2.79-1.8C50.63,4.23,50.19,3.62,49.7,2.91Z" transform="translate(-17.85 -2.15)"/><path class="j" d="M60.62,62.92a5.52,5.52,0,0,0-.36-1.76,1.25,1.25,0,0,1,0-.38h0l0,0,.05,0a13.23,13.23,0,0,1,3.3,5.79c.2.66.33,1.35.49,2l-.7.89a4.22,4.22,0,0,1-1-1.81c-.15-.46,0-1-.46-1.36l.17-.29L62,66l-.17.11h0L61.79,66h0l.15-.1-.1-.25h-.18l.07-.13a2,2,0,0,0-.11-.44c-.31-.69-.64-1.37-1-2.06l0,0Z" transform="translate(-17.85 -2.15)"/><path class="d" d="M26.28,32.26c0-.1,0-.24,0-.3a5.11,5.11,0,0,1,2.88-1.73c.88-.18,1.6-.6,1.48-1.77a7.78,7.78,0,0,0-.33-1.21,1.61,1.61,0,0,1,0-.31A3.59,3.59,0,0,1,32,28.6a1.71,1.71,0,0,0-.09.3c0,.32,0,.63,0,.94A1.23,1.23,0,0,1,31,31.12c-.85.22-1.71.41-2.56.6-.58.12-1.17.22-1.82.34l.27.12Z" transform="translate(-17.85 -2.15)"/><path class="j" d="M26.89,32.18l-.27-.12c.65-.12,1.24-.22,1.82-.34.85-.19,1.71-.38,2.56-.6a1.23,1.23,0,0,0,.88-1.28c0-.31,0-.62,0-.94a1.71,1.71,0,0,1,.09-.3.81.81,0,0,1,.16.16,6.48,6.48,0,0,1,.38,5.44c-.26-.28-.47-.58-.74-.82a5.48,5.48,0,0,0-3.58-1.24C27.77,32.13,27.33,32.17,26.89,32.18Z" transform="translate(-17.85 -2.15)"/><path class="k" d="M63.4,69.52l.7-.89,2,2.06c-1.26,0-1.75.81-2.11,1.75a11.62,11.62,0,0,0-.34,1.19l-2.16-.87c.13-.15.23-.36.39-.45a1.58,1.58,0,0,0,.75-.86C62.92,70.81,63.16,70.16,63.4,69.52Z" transform="translate(-17.85 -2.15)"/><path class="d" d="M24.8,44.34a1.56,1.56,0,0,0-1,.71,4.11,4.11,0,0,1-1.44,1.37,2.26,2.26,0,0,1-1.63.2,2.08,2.08,0,0,0-.36,0l-1-2.9.84.53a2.81,2.81,0,0,0,2.12.47,2.26,2.26,0,0,0,.42-.19H23c.56,0,.47,0,.48-.48l.88-.44.47-.23v1Z" transform="translate(-17.85 -2.15)"/><path class="d" d="M25.54,37.86a4.68,4.68,0,0,1,.61-.49A6.73,6.73,0,0,1,29,36.58,2.4,2.4,0,0,0,31,35c.07-.18.09-.38.16-.55a1.26,1.26,0,0,1,.21-.26A2.56,2.56,0,0,1,32,35.56l0,.06,0,.29L32,36A2.31,2.31,0,0,1,30,37.34c-.14,0-.28.12-.42.18h0a.82.82,0,0,0-.3-.07c-.45,0-.9.12-1.35.2a1.44,1.44,0,0,0-.37.19H26.09Z" transform="translate(-17.85 -2.15)"/><path class="j" d="M56.12,48.73l-.2.94.44-.37A1.41,1.41,0,0,1,57.14,51a1.15,1.15,0,0,1-1.54.78.51.51,0,0,1-.21-.28c-.58-1.41-1.17-2.81-1.69-4.24-.34-.92-.59-1.87-.87-2.8l.52.14.27,1.51a6.77,6.77,0,0,0,.82,2.36c.45.73.84.8,1.56.37Z" transform="translate(-17.85 -2.15)"/><path class="c" d="M64.29,74.14A4.13,4.13,0,0,1,65,71.81a1,1,0,0,1,1.26-.37.5.5,0,0,1,.23.29,3.33,3.33,0,0,1-.41,2.35,5.69,5.69,0,0,1-.62.84.7.7,0,0,1-.82.23c-.32-.15-.34-.47-.38-.77A1.92,1.92,0,0,1,64.29,74.14Z" transform="translate(-17.85 -2.15)"/><path class="m" d="M61.52,72.76l2.16.87a2.64,2.64,0,0,0,.41,1.87l-3-.39c.1-.21.21-.42.29-.64a.45.45,0,0,0,0-.35,1.44,1.44,0,0,1,0-1.34Z" transform="translate(-17.85 -2.15)"/><path class="j" d="M53.35,40.41a2.58,2.58,0,0,0-1.16,1.39,32.6,32.6,0,0,1-.69-6.37l.78.6.07.08h0c0,.93.06,1.85.14,2.78,0,.58.17,1.14.84,1.35C53.36,40.24,53.35,40.35,53.35,40.41Z" transform="translate(-17.85 -2.15)"/><path class="j" d="M29.53,37.52c.14-.06.28-.18.42-.18A2.31,2.31,0,0,0,32,36l.08-.1a5,5,0,0,1-1,3.17,6.18,6.18,0,0,0-3.57-1.23,1.44,1.44,0,0,1,.37-.19c.45-.08.9-.15,1.35-.2a.82.82,0,0,1,.3.07l.08,0v0Z" transform="translate(-17.85 -2.15)"/><path class="d" d="M56.12,48.73l-.12.06c-.72.43-1.11.36-1.56-.37a6.77,6.77,0,0,1-.82-2.36l-.27-1.51.61-.07H54a8.62,8.62,0,0,0,.74,3.31s0,.09.06.11.36.4.53.38.32-.28.46-.45,0-.28.22-.16Z" transform="translate(-17.85 -2.15)"/><path class="d" d="M53.35,40.41c0-.06,0-.17,0-.18-.67-.21-.8-.77-.84-1.35-.08-.93-.1-1.85-.14-2.78l.47.34.07.06h0l.08.07h0c0,.83,0,1.67,0,2.51a.46.46,0,0,0,.29.33c.48.11,1,.18,1.51.28L54.43,41l-.81-.2-.2-.14.13-.2.09-.1s0,0,0,0l0,0s0,0,0,0a.05.05,0,0,0,0,0,1,1,0,0,1-.24.09Z" transform="translate(-17.85 -2.15)"/><path class="j" d="M30.39,43.66l-.5.55c-.15-.07-.37-.09-.45-.21a7.23,7.23,0,0,1-.46-.87.15.15,0,0,1,0-.07l.81-.61h0l.54-.34.13.19.05,0-.05-.37c.37-.17.08.3.31.29.07-.15-.05-.45.29-.42L30.76,43H30l-.06.15Z" transform="translate(-17.85 -2.15)"/><path class="d" d="M29.8,42.45l-.81.61-.07-1v-.06c.4-.28.8-.54,1.19-.83a2.3,2.3,0,0,0,.36-.45l.48-.08h0l.08.21,0,.88c-.34,0-.22.27-.29.42-.23,0,.06-.46-.31-.29a1.31,1.31,0,0,0-.27-.12.37.37,0,0,0-.47.19C29.66,42.15,29.55,42.33,29.8,42.45Z" transform="translate(-17.85 -2.15)"/><path class="e" d="M56.35,44.08c-.45-.25-.49-.71-.55-1.13a2.25,2.25,0,0,1,.43-1.71,6,6,0,0,1,.44-.43l.2.56a2.66,2.66,0,0,0-.36.74,1.64,1.64,0,0,0,.1,1.3Z" transform="translate(-17.85 -2.15)"/><path class="i" d="M52.57,43.26c0-.49.07-1,.11-1.46a.68.68,0,0,1,.12-.22l.69-.27a3,3,0,0,0,0,.42c0,.76-.07,1.52-.1,2.28a1.7,1.7,0,0,1-.39-.24A4.91,4.91,0,0,1,52.57,43.26Z" transform="translate(-17.85 -2.15)"/><path class="j" d="M29,43.13a7.23,7.23,0,0,0,.46.87c.08.12.3.14.45.21a2,2,0,0,1-2.06.48c.23-.2.45-.38.65-.57.05,0,.06-.13.08-.2l-.19,0-.06-.43V43.4Zm-.29.69,0,0,0,0,0,0Z" transform="translate(-17.85 -2.15)"/><path class="i" d="M31.59,43.23a.94.94,0,0,1,.29,0c.41.14.48.41.17.71a1.28,1.28,0,0,1-1.24.47l.64-.95.09-.15h0l.06-.08Z" transform="translate(-17.85 -2.15)"/><path class="d" d="M52.57,43.26a4.91,4.91,0,0,0,.39.51,1.7,1.7,0,0,0,.39.24H54v.47l-.61.07-.52-.14Z" transform="translate(-17.85 -2.15)"/><path class="n" d="M56.61,43.41a1.64,1.64,0,0,1-.1-1.3,2.66,2.66,0,0,1,.36-.74c0,.48,0,1-.08,1.44A3.42,3.42,0,0,1,56.61,43.41Z" transform="translate(-17.85 -2.15)"/><path class="f" d="M30.28,39.48c0,.2-.06.4-.08.61a.84.84,0,0,1-.08.38,6.56,6.56,0,0,1-.49-.9c0-.09.15-.27.23-.41Z" transform="translate(-17.85 -2.15)"/><path class="i" d="M28.31,43.47l.06.43-.93.31-.08-.41v-.07Z" transform="translate(-17.85 -2.15)"/><path class="i" d="M53.49,41.31l-.69.27a1.32,1.32,0,0,1,.62-.95l.2.14-.07.53Z" transform="translate(-17.85 -2.15)"/><path class="i" d="M30.39,43.66,30,43.17,30,43h.74Z" transform="translate(-17.85 -2.15)"/><path class="e" d="M50.85,34.22c0-.27-.05-.53-.06-.79s0-.67,0-1a1.24,1.24,0,0,1,.12-.32Z" transform="translate(-17.85 -2.15)"/><path class="e" d="M50.91,36.92c0-.06-.11-.11-.12-.17V35.08s0-.08.06-.12Z" transform="translate(-17.85 -2.15)"/><path class="d" d="M53.36,74.65l0-.56c.34.13.07.38.11.56h-.06Z" transform="translate(-17.85 -2.15)"/><path class="j" d="M27,37.83h0Z" transform="translate(-17.85 -2.15)"/><path class="f" d="M31,40.9,31,40.69Z" transform="translate(-17.85 -2.15)"/><path class="b" d="M53.62,40.36l-.07.07H53.4Z" transform="translate(-17.85 -2.15)"/><path class="j" d="M26.09,37.84h0Z" transform="translate(-17.85 -2.15)"/><path class="e" d="M60.79,79.36s0-.1,0-.14Z" transform="translate(-17.85 -2.15)"/><path class="e" d="M52.89,36.5l-.07-.06Z" transform="translate(-17.85 -2.15)"/><path class="e" d="M29.78,79.63l-.08.14Z" transform="translate(-17.85 -2.15)"/><path class="e" d="M29.71,79.76l-.09.17Z" transform="translate(-17.85 -2.15)"/><path class="i" d="M31.54,43.31l-.09.15Z" transform="translate(-17.85 -2.15)"/><path class="d" d="M52.35,36.11,52.28,36Z" transform="translate(-17.85 -2.15)"/><path class="h" d="M60.31,60.81l-.05,0,0,0Z" transform="translate(-17.85 -2.15)"/><path class="j" d="M32.05,35.62l0-.06,0,0Z" transform="translate(-17.85 -2.15)"/><path class="e" d="M53,36.57l-.08-.07Z" transform="translate(-17.85 -2.15)"/><path class="c" d="M51.26,33.48l.07.06h0l-.07-.07Z" transform="translate(-17.85 -2.15)"/><path class="c" d="M51.19,33.41l.07.07h0l-.07-.06Z" transform="translate(-17.85 -2.15)"/><path class="c" d="M51.12,33.34l.07.07h0l-.06-.07Z" transform="translate(-17.85 -2.15)"/><path class="c" d="M51.13,33.34l0,0h0l0,0Z" transform="translate(-17.85 -2.15)"/><path class="e" d="M60.74,79.21l-.05-.07Z" transform="translate(-17.85 -2.15)"/><path class="e" d="M29.82,79.55l-.05.08Z" transform="translate(-17.85 -2.15)"/><path class="k" d="M50.83,13.82l0,0,0,0S50.85,13.81,50.83,13.82Z" transform="translate(-17.85 -2.15)"/><path class="i" d="M31.59,43.24l-.06.08Z" transform="translate(-17.85 -2.15)"/><path class="o" d="M41.21,54.41a29.67,29.67,0,0,1-2.09-5.72c-.3-1.18-.54-2.39-.8-3.58,0-.19-.06-.38-.09-.57,0,0,0,0,0-.06l.64-.21c0,.27.2.2.39.21h.3c.22,0,.29-.06.29-.29q0-1,0-2a1.86,1.86,0,0,1,.07-.34l.73.27V43.8c0,.69,0,.68.71.68.26,0,.32-.09.31-.33,0-.61,0-1.22,0-1.82l1,.06a2.09,2.09,0,0,0,.07.36c.16.49.32,1,.51,1.46a.54.54,0,0,1-.06.62,4.83,4.83,0,0,1-.64.44.91.91,0,0,0-.09.43c0,.21.08.26.28.27a1.18,1.18,0,0,0,1.29-.9c.29-.81.58-1.63.86-2.44a7.19,7.19,0,0,0,.2-.8l1-.53c0,.05,0,.1,0,.14-.14.76,0,1.06.77,1.31l1.23.45.06.53a1.11,1.11,0,0,1-1.19.21.46.46,0,0,1-.29-.27c-.06-.39-.29-.38-.61-.3a2.8,2.8,0,0,1,0,.41c-.06.33.12.48.39.59a2.65,2.65,0,0,0,1.78,0l.05,0a3.59,3.59,0,0,0,0,.46c.32,1.4.65,2.79,1,4.18L49,48.91c-.07,0-.18-.11-.22-.08-.24.17-.46.36-.69.55a1,1,0,0,1-.31.22c-.19,0-.34.09-.29.32s-.07.32-.29.23-.28,0-.25.2a.38.38,0,0,1-.08.25c-.16.18-.33.34-.5.51s-.11.1-.15.09c-.25-.05-.3.12-.38.29s-.13.19-.2.19c-.33,0-.42.16-.31.39-.18.08-.4.1-.45.2a1.75,1.75,0,0,0-.06.57.66.66,0,0,1,0,.24c-.3,0-.53.5-.89.09a2.33,2.33,0,0,1-.18.53,1.74,1.74,0,0,1-.41.28s0,0,0,0c-.21.54-.72.76-1.15,1.08l-.31.24ZM44,53l0,0s0,0,0,.06L44,53S44,53,44,53Z" transform="translate(-17.85 -2.15)"/><path class="b" d="M42.13,31a5.44,5.44,0,0,1,.35,4.49,3.94,3.94,0,0,1-2.91,2.76,4.58,4.58,0,0,1-.83.08h-.08l0,.06.5.79-.07.06-1.42-1h0l-.14-.08h0l-.13-.1a8.35,8.35,0,0,0-2.38-.62l.42-.09.47-.06h.51a2.38,2.38,0,0,0-.18-.22,5.3,5.3,0,0,1,.23-7,3.3,3.3,0,0,1,4.39-.36A9.81,9.81,0,0,1,42.13,31Zm-5.94,5.08.08.14a0,0,0,0,0,0,.05l.07.09a8.86,8.86,0,0,0,1,1.07,2.73,2.73,0,0,0,3.2,0c.17-.13.36-.25.51-.39a4.76,4.76,0,0,0-.4-7,2.71,2.71,0,0,0-2-.56,3.15,3.15,0,0,0-2.23,1.4A4.76,4.76,0,0,0,35.76,35a1.85,1.85,0,0,0,.3.82h0l.15.28Z" transform="translate(-17.85 -2.15)"/><path class="b" d="M41.21,54.41l.57.92.26.43.48.81.17.26.32.51.11.18.41.61.27.4.24.32.06.09,0,.07.92,1.21.05.08a.05.05,0,0,0,0,0l.06.07h0l.14.13.39.52,2.13,2.4.09.08h0l.07.07h0l.1.1.75.75.1.1h0l.06.06h0l.09.08.18.17.23.21.35.32.12.11.49.43.12.11.34.3.13.1.62.51.12.1,2,1.52.12.09h0l.22.18h.07l2.36,1.54.28.22c-.69-.32-1.39-.62-2.06-1a29.65,29.65,0,0,1-5.36-3.75l-.4-.34c-.89-.91-1.82-1.8-2.66-2.75A29.09,29.09,0,0,1,41.21,54.41Z" transform="translate(-17.85 -2.15)"/><path class="d" d="M32.83,44.21V44a3.62,3.62,0,0,0,.2-.45,8,8,0,0,0,.28-2.72h.41l.09.28a3,3,0,0,1,.83-.33c1-.1,1.3.4,1.35,1.22s0,1.48,0,2.22c0,.19-.06.25-.25.26-.77,0-.77,0-.77-.72,0-.56,0-1.13,0-1.69,0-.39-.12-.5-.54-.5s-.6.12-.6.52c0,.67,0,1.35,0,2,0,.31-.09.41-.38.37a1.53,1.53,0,0,0-.37,0C32.89,44.5,32.81,44.41,32.83,44.21Z" transform="translate(-17.85 -2.15)"/><path class="b" d="M46.61,13a14.94,14.94,0,0,0-3.52,3.62A25.66,25.66,0,0,0,40.59,21c-.51,1.14-1,2.3-1.47,3.45,0,.07-.11.11-.17.16a22.05,22.05,0,0,1,2-5.63,14.71,14.71,0,0,1,3.94-5,15.46,15.46,0,0,1,1.45-.92A1.23,1.23,0,0,1,46.61,13Z" transform="translate(-17.85 -2.15)"/><path class="a" d="M38.43,26.09a3.26,3.26,0,0,1,3.38,2,.48.48,0,0,1,0,.12,15.93,15.93,0,0,0-1.74-.66,5.27,5.27,0,0,0-4.07.71A3,3,0,0,1,38.43,26.09Z" transform="translate(-17.85 -2.15)"/><path class="d" d="M38.24,44.48s0,0,0,.06a1.45,1.45,0,0,1-1.61-1.62,4.31,4.31,0,0,1,.16-1.29,1.16,1.16,0,0,1,1-.87h0l.07.87a.17.17,0,0,0,0,.07s-.11,0-.13.08a1.79,1.79,0,0,0-.12,1.48c.06.22.17.44.46.46h.06Z" transform="translate(-17.85 -2.15)"/><path class="e" d="M37.7,38.19l1.42,1c-.07.14-.19.27-.2.4,0,.42,0,.83,0,1.25l-.81-.43L38,40.36l0,0,.11.06.25.29h-.49Z" transform="translate(-17.85 -2.15)"/><path class="a" d="M41.81,28.21l.08.05Z" transform="translate(-17.85 -2.15)"/><path class="e" d="M37.43,38l.13.1Z" transform="translate(-17.85 -2.15)"/><path class="e" d="M37.56,38.12l.14.08Z" transform="translate(-17.85 -2.15)"/><path class="i" d="M43.9,10.93l.07,0,0,0-.09,0Z" transform="translate(-17.85 -2.15)"/><path class="b" d="M46.67,13,46.6,13Z" transform="translate(-17.85 -2.15)"/><path class="b" d="M60.65,63c.33.69.66,1.37,1,2.06a2,2,0,0,1,.11.44l-.12-.09h0l-.06-.13v0L61.48,65h0l-.07-.14h0l-.06-.13h0l-.06-.12v0l-.09-.18h0l-.07-.14h0l-.08-.13h0L61,64h0L61,64v0a8.59,8.59,0,0,0-.76-1.19c-.93-1-1.9-2-2.86-3l-.18-.2-1-1.2a.73.73,0,0,0,0-.09,30.8,30.8,0,0,1-4.66-7.69,44.39,44.39,0,0,1-2.74-8.65L48.53,41l-.34-3.21a6.7,6.7,0,0,0-2.27,1.3l-.06-.07.51-.73a4.89,4.89,0,0,1-.59-.09A3.73,3.73,0,0,1,43,35.28a4.9,4.9,0,0,1,.41-3.56c.17-.23.32-.47.5-.68a3,3,0,0,1,4.13-.69c.2.13.38.29.58.43.15-.79.28-1.55.43-2.32,0-.16,0-.26-.15-.35a5.59,5.59,0,0,0-3-.61,6.39,6.39,0,0,0-2.41.78.21.21,0,0,1,0-.11,3.27,3.27,0,0,1,2.73-2,2.89,2.89,0,0,1,2.89,1.65l.13.12c.48-2.49,1-4.93,1.4-7.38.19-1.11.19-2.25.27-3.38,0-.18,0-.35,0-.53s.07-.14.11-.22c0,1.14.05,2.28,0,3.4a67.62,67.62,0,0,1-1.28,8c-.2,1.13-.36,2.27-.54,3.4a.38.38,0,0,0,0,.24,4.89,4.89,0,0,1-.39,5.76l1.21.17v.06l-1.21.18c.07.78.12,1.54.22,2.3a40.49,40.49,0,0,0,3.57,11.82,32.66,32.66,0,0,0,6.07,8.84c.7.74,1.32,1.55,2,2.33h0A0,0,0,0,0,60.65,63ZM47.7,37.47a3.55,3.55,0,0,0,.76-.45,4.36,4.36,0,0,0,0-5.75,2.63,2.63,0,0,0-4,0,3.34,3.34,0,0,0-.35.4,4.44,4.44,0,0,0,0,4.93,3.09,3.09,0,0,0,1.72,1.22A2.14,2.14,0,0,0,47.7,37.47Z" transform="translate(-17.85 -2.15)"/><path class="h" d="M43.5,28.28a6.39,6.39,0,0,1,2.41-.78,5.59,5.59,0,0,1,3,.61c.17.09.18.19.15.35-.15.77-.28,1.53-.43,2.32-.2-.14-.38-.3-.58-.43A3,3,0,0,0,44,31c-.18.21-.33.45-.5.68-.06-.08-.17-.14-.19-.23a4.17,4.17,0,0,1,.17-3.14l.07-.08Z" transform="translate(-17.85 -2.15)"/><path class="b" d="M38.1,40.42l.81.43.93.41.82.25,1,.19.74,0,.94,0,1-.17,1.07-.34.09-.07h0l1.5-.68-.34.39-.59.47-1,.53-1,.36-.54.12-.87.08-1-.06-1-.22-.73-.27-1.61-1.08-.25-.29Z" transform="translate(-17.85 -2.15)"/><path class="p" d="M50.31,20.71c-.21.81-.4,1.62-.62,2.43a7.74,7.74,0,0,1-.35,1.06c.45-3.1,1-6.19.38-9.36a1.91,1.91,0,0,1,.16.27,5.81,5.81,0,0,1,.55,2.52c0,.93-.1,1.86-.16,2.79a2.89,2.89,0,0,0,0,.29Z" transform="translate(-17.85 -2.15)"/><path class="o" d="M46.06,41.3l.59-.47c.46,0,.93,0,1.39,0a1.56,1.56,0,0,1,.49.19l.14.86c-.26.15-.45.13-.51-.2s-.25-.36-.49-.38a3.2,3.2,0,0,0-.44,0,.5.5,0,0,0-.54.41.48.48,0,0,0,.39.55l.94.26.07.68-1.23-.45c-.73-.25-.91-.55-.77-1.31C46.1,41.4,46.07,41.35,46.06,41.3Z" transform="translate(-17.85 -2.15)"/><path class="e" d="M41.68,41.7l-1-.19c0-.64,0-1.28,0-1.92,0-.23.06-.32.3-.32.71,0,.71,0,.72.71Z" transform="translate(-17.85 -2.15)"/><path class="e" d="M39.84,41.26l-.93-.41c0-.42,0-.83,0-1.25,0-.13.13-.26.2-.4l.07-.06.65.21Z" transform="translate(-17.85 -2.15)"/><path class="e" d="M43.36,41.7l-.94,0-.24-.66c-.06-.17,0-.27.17-.26h0C43.15,40.79,43.29,40.92,43.36,41.7Z" transform="translate(-17.85 -2.15)"/><path class="e" d="M45.39,41.19l-1.07.34a3.77,3.77,0,0,1,.14-.58.27.27,0,0,1,.2-.11c.26,0,.53,0,.81,0l0,.29h0Z" transform="translate(-17.85 -2.15)"/><path class="p" d="M50.38,20.65s0,0,0,0,0,0,0,0Z" transform="translate(-17.85 -2.15)"/><polygon class="b" points="29.25 38.23 29.25 38.21 29.24 38.22 29.25 38.23"/><path class="b" d="M43.5,28.27l-.07.08Z" transform="translate(-17.85 -2.15)"/><path class="p" d="M50.38,20.64l-.07.07h0l.07-.06Z" transform="translate(-17.85 -2.15)"/><path class="b" d="M47.09,40.38l-.08,0v0Z" transform="translate(-17.85 -2.15)"/><path class="p" d="M19.35,34.74c0-.4,0-.81.09-1.21a6.55,6.55,0,0,1,1.8-3.76,9.41,9.41,0,0,1,3.3-2.35,2.85,2.85,0,0,1,1.91-.16l.2.09c-.2.11-.33.19-.48.26-.65.3-1.32.56-2,.89a6,6,0,0,0-2.58,2.59c-.33.64-.73,1.24-1,1.89s-.6,1-.86,1.44a3.07,3.07,0,0,1-.28.35Z" transform="translate(-17.85 -2.15)"/><path class="f" d="M23.45,44c0,.51.08.48-.48.48h-.26c-.24,0-.2-.16-.2-.3V41.54L22,41.48v-.61a.68.68,0,0,1,.19,0c.29,0,.33-.11.33-.36a1.29,1.29,0,0,1,1.67-1.26.28.28,0,0,1,.14.18,5.85,5.85,0,0,1,0,.6L24,40a.42.42,0,0,0-.45.32c-.15.37-.07.5.32.49s.36.08.36.36-.11.35-.36.32-.4.1-.39.4C23.46,42.61,23.45,43.31,23.45,44Z" transform="translate(-17.85 -2.15)"/><path class="p" d="M29.84,33.87a4.09,4.09,0,0,1-.51.12,12.25,12.25,0,0,1-3.42-.11c-.16,0-.29-.18-.45-.28C26.28,32.86,29.3,33,29.84,33.87Z" transform="translate(-17.85 -2.15)"/><path class="f" d="M24.8,43.26c0-.72,0-1.43,0-2.15,0-.2.05-.3.26-.28a2.28,2.28,0,0,0,.37,0c.2,0,.39,0,.29.36.35-.3.65-.52,1.11-.38,0,.23,0,.47,0,.71,0,.07-.13.16-.21.18s-.29,0-.43.06a.53.53,0,0,0-.44.59c0,.24,0,.47,0,.71h0Z" transform="translate(-17.85 -2.15)"/><path class="p" d="M28.73,39.64a7.25,7.25,0,0,0-.93,0,4.06,4.06,0,0,1-2.06-.38,1.69,1.69,0,0,1-.36-.23c-.16-.14-.18-.29.07-.32a3.58,3.58,0,0,1,3.53,1Z" transform="translate(-17.85 -2.15)"/><path class="d" d="M27.37,43.73v.07l-1.61.2v-.94h0l1.61-.27C27.36,43.1,27.36,43.42,27.37,43.73Z" transform="translate(-17.85 -2.15)"/><path class="d" d="M27.37,43.73c0-.31,0-.63,0-.94v-.07l.94-.34h0v1.09Z" transform="translate(-17.85 -2.15)"/><path class="d" d="M25.75,43.06V44h0l-.94.26v-1Z" transform="translate(-17.85 -2.15)"/><path class="f" d="M27.84,40.76a.5.5,0,0,1,.54.47.52.52,0,0,1-.53.54.52.52,0,0,1-.55-.54A.49.49,0,0,1,27.84,40.76Z" transform="translate(-17.85 -2.15)"/><path class="f" d="M30.47,40.77a2.3,2.3,0,0,1-.36.45c-.39.29-.79.55-1.19.83A1.57,1.57,0,0,1,30.47,40.77Z" transform="translate(-17.85 -2.15)"/><path class="h" d="M28.31,43.4v-1l.61-.27.07,1a.15.15,0,0,0,0,.07Z" transform="translate(-17.85 -2.15)"/><path class="f" d="M28.31,42.38l-.94.34c0-.69,0-.69.68-.67h.24Z" transform="translate(-17.85 -2.15)"/><path class="f" d="M28.73,39.64l.25,0c.24.28.47.57.7.86l-.07.07c-.3-.15-.61-.29-.9-.46S28.67,39.81,28.73,39.64Z" transform="translate(-17.85 -2.15)"/><path class="q" d="M56.87,70.6l-.28-.22-2.36-1.54.07-.13h0a.57.57,0,0,0,.16.11,5.82,5.82,0,0,0,3.07.55,2.73,2.73,0,0,0,2.17-1.54v-.06a11.26,11.26,0,0,0,.67-1.22,6.7,6.7,0,0,0,.41-2.62H61v0L61,64h0l.08.14h0l.08.13h0l.07.14h0l.09.18v0l.06.12h0l.06.13h0l.07.14h0c0,.07.05.13.08.19v0l.06.13h0l0,.22h0l.13.34h0l.07.19h0l.07.2c.46.34.31.9.46,1.36a4.22,4.22,0,0,0,1,1.81c-.24.64-.48,1.29-.74,1.93a1.58,1.58,0,0,1-.75.86c-.16.09-.26.3-.39.45l-.06,0c-.57-.27-1.15-.53-1.72-.81L57,70.6S56.91,70.6,56.87,70.6Z" transform="translate(-17.85 -2.15)"/><path class="h" d="M51.33,40.89l0,.37a.51.51,0,0,1-.14,0c-.58,0-.58,0-.58.63v1.29c0,.73,0,.75.73.8.19.4.18.41-.22.5A.86.86,0,0,1,50,43.63c0-.63,0-1.26,0-1.89,0-.33,0-.5-.41-.44a.62.62,0,0,1-.17,0v-.4l.07,0c.5,0,.51,0,.5-.54,0-.22,0-.35.3-.36s.33.14.32.37,0,.31,0,.48l.75.11Z" transform="translate(-17.85 -2.15)"/><path class="i" d="M33.31,40.83A8,8,0,0,1,33,43.55a3.62,3.62,0,0,1-.2.45c0-1,0-2,0-3,0,0,0-.06,0-.13Z" transform="translate(-17.85 -2.15)"/><path class="p" d="M26.41,20.84a1.57,1.57,0,0,1-.05.25c-.09.21-.21.23-.34.05a.71.71,0,0,1-.11-.21,1.37,1.37,0,0,0-1-1,5.08,5.08,0,0,1-.83-.36,1.33,1.33,0,0,1-.47-.41c-.22-.3-.05-.59.31-.6a2.67,2.67,0,0,1,2.46,2.08C26.4,20.71,26.41,20.75,26.41,20.84Z" transform="translate(-17.85 -2.15)"/><path class="i" d="M24.8,44.27l.94-.26c0,.15,0,.34-.1.44s-.74,0-.84-.11Z" transform="translate(-17.85 -2.15)"/><path class="d" d="M50.67,76.09v0h0v0Z" transform="translate(-17.85 -2.15)"/><path class="d" d="M56.12,81.52l0,0s0,0,0,0h0Z" transform="translate(-17.85 -2.15)"/><path class="d" d="M56,81.33l0,0h0Z" transform="translate(-17.85 -2.15)"/><path class="j" d="M29.52,80.73l0,0h0Z" transform="translate(-17.85 -2.15)"/><path class="e" d="M54,44.48v-.55a1.69,1.69,0,0,0,.34-2.15v-.14l.14-.61a2.16,2.16,0,0,1,.06,3.21,3.45,3.45,0,0,1-.47.24Z" transform="translate(-17.85 -2.15)"/><path class="d" d="M54.44,41l-.14.61c-.22-.18-.42-.4-.75-.34l.07-.53.81.2Z" transform="translate(-17.85 -2.15)"/><path class="r" d="M61.79,65.94l-.13-.34h.18l.1.25Z" transform="translate(-17.85 -2.15)"/><path class="r" d="M61.93,66.35l-.07-.2L62,66l.07,0Z" transform="translate(-17.85 -2.15)"/><path class="r" d="M61.86,66.14,61.79,66Z" transform="translate(-17.85 -2.15)"/><path class="r" d="M61.66,65.6l0-.22.12.09Z" transform="translate(-17.85 -2.15)"/><path class="h" d="M60.65,63a0,0,0,0,1,0,0Z" transform="translate(-17.85 -2.15)"/><path class="d" d="M29.53,37.52l.08,0v0l-.08,0Z" transform="translate(-17.85 -2.15)"/><path class="b" d="M53.65,40.3l0,0s0,0,0,0l0,0Z" transform="translate(-17.85 -2.15)"/><path class="h" d="M29.8,42.45c-.25-.12-.14-.3-.07-.47a.37.37,0,0,1,.47-.19,1.31,1.31,0,0,1,.27.12l.05.37-.05,0-.13-.19c-.12-.06-.24-.18-.35-.16s-.14.19-.19.31a.6.6,0,0,0,0,.19Z" transform="translate(-17.85 -2.15)"/><path class="d" d="M29.8,42.45a.6.6,0,0,1,0-.19c.05-.12.11-.3.19-.31s.23.1.35.16Z" transform="translate(-17.85 -2.15)"/><path class="d" d="M53.55,41.3c.33-.06.53.16.75.34v.14L54,43.93V44h-.61c0-.76.06-1.52.1-2.28a3,3,0,0,1,0-.42Z" transform="translate(-17.85 -2.15)"/><path class="b" d="M28.69,43.82l0,0,0,0,0,0Z" transform="translate(-17.85 -2.15)"/><path class="r" d="M59.7,67.83a2.73,2.73,0,0,1-2.17,1.54,5.82,5.82,0,0,1-3.07-.55.57.57,0,0,1-.16-.11l.17-.08-.12-.09-.05.17-.07.13h-.07l-.22-.18h0l-.12-.09-2-1.52-.12-.1-.62-.51-.13-.1-.34-.3-.12-.11L50,65.51l-.12-.11-.35-.32-.23-.21-.18-.17L49,64.62h0l-.06-.06h0l-.1-.1-.75-.75-.1-.1h0l-.07-.07h0l-.09-.08-2.13-2.4.23-1.25a.39.39,0,0,0,.5-.32c0-.06.13-.12.21-.15a.39.39,0,0,0,.29-.48v-.07c.05,0,.11-.07.14,0,.27.1.43.07.41-.27,0-.09.11-.25.16-.25.4,0,.38-.24.3-.51v-.07l.07-.07.27-.13.07-.07.13-.07.9.66.18-.12.11-.05-.11-.08-.06-.14-.2-.13-.14-.14H49c-.21,0-.45,0-.4-.33l.13.06.07.07h.07l.2-.54v-.2l-.88-.07-.2-.14L48,56V56l0-.29-.38.09-.14-.07-.13-.13-.07-.07-.2-.2-.14-.07a.59.59,0,0,1,0-.22c0-.39,0-.42-.39-.35l.26.93.23-.11c.11.13.21.22.29.33s.45.22.4.53.1.29.28.35.25.14.24.21-.09.34-.18.36c-.4.06-.34.34-.34.6l-.13.14c-.37-.09-.54.2-.71.42a1.84,1.84,0,0,0-.17.59l-.2.07c-.46-.13-.5.45-.77.48l-.24.6h0l-.36.16-.05-.08a.47.47,0,0,0-.18-.66c-.14-.09-.18-.32-.27-.49l.07-.1-.54,0,0-.07v-.09l0-.44-.34.12-.27-.4a1.32,1.32,0,0,0,.15-.35,1.6,1.6,0,0,0-.1-.42l-.3.11-.16.05L43,57.34c.16-.42.11-.5-.32-.51l-.17-.26c.28-.24.11-.53,0-.79,0,0-.33,0-.5,0h0l-.26-.43.31-.24c.43-.32.94-.54,1.15-1.08,0,0,0,0,0,0a1.74,1.74,0,0,0,.41-.28,2.33,2.33,0,0,0,.18-.53c.36.41.59-.06.89-.09a.66.66,0,0,0,0-.24,1.75,1.75,0,0,1,.06-.57c.05-.1.27-.12.45-.2-.11-.23,0-.38.31-.39.07,0,.16-.11.2-.19s.13-.34.38-.29c0,0,.11-.05.15-.09s.34-.33.5-.51a.38.38,0,0,0,.08-.25c0-.22,0-.3.25-.2s.35.06.29-.23.1-.28.29-.32a1,1,0,0,0,.31-.22c.23-.19.45-.38.69-.55,0,0,.15,0,.22.08l.35.16.09.26-.14.29.28.11.06.18c-.07.14-.12.28.12.3l.19.48c-.21.23-.09.5.25.59l.22.49c-.25.13,0,.28,0,.42l.19,0,.11.23c-.09.06-.2.1-.25.18s.05.2.11.22c.52.16.36.74.78,1l-.44.1.07.63v.07l-.59.13v.14h.45c.21.2.33.14.44-.11s.18-.19.28-.28a1.88,1.88,0,0,1,.23-.16c.47.64.89,1.32,1.41,1.92.77.87,1.6,1.68,2.41,2.52l-.32.3a.59.59,0,0,1-.13,0c-.38-.15-.38-.15-.41.24,0,.06,0,.11,0,.09a1.94,1.94,0,0,0-.5.24.93.93,0,0,0-.26.41c-.05.13,0,.34,0,.39s-.28,0-.43.05l-.56.1-.28,0-.2-.07-.14-.14v-.06c0-.4-.34-.29-.54-.41v-.06c0-.14.08-.35-.2-.34l-.13.07c-.16,0-.18.11,0,.19a1.69,1.69,0,0,0,.24.08v.06l-.22.41c.41-.09.51.15.63.4s.19.15.31.23l.09-.29h.07l.2.2.07.07c-.38.38-.29,1-.75,1.35l-.1.05.1.08c.21.14.35.08.4-.15a.35.35,0,0,1,.44-.3.75.75,0,0,0,.65-.16h.07l.17,0v-.07l-.16,0-.07-.07a.79.79,0,0,1-.07-.81h.14c.47.18.44-.41.75-.49a.22.22,0,0,0,.11-.12.19.19,0,0,0,0-.13c-.08-.28.1-.36.32-.36s.24-.05.21-.23a1.64,1.64,0,0,1,0-.22l.14-.07,1,0h0c0,.33.29.57.7.57.22.28.35.11.48-.08,1,1,1.93,2,2.86,3A8.59,8.59,0,0,1,61,63.93h-.18a6.7,6.7,0,0,1-.41,2.62,11.26,11.26,0,0,1-.67,1.22ZM49.78,56h.38a.52.52,0,0,1,.38-.57c.1,0,.14-.2.25-.37l-.34.06h-.07l-.2.2h-.07l-.29-.08c0,.27-.12.47-.43.43,0,0-.1.09-.15.13s.08.11.13.12a.45.45,0,0,0,.2,0Zm1.28,3-.2-.07-.14-.14v-.06c0-.41,0-.41-.54-.41l-.07-.07L50,58.05l-.22.75.48-.12c-.06.58.47.59.77.82,0,0,.08-.07.12-.1l.06-.14ZM45.32,53c-.41.1-.51.32-.32.58a.25.25,0,0,0,.2.07s.11-.08.11-.13A4.38,4.38,0,0,0,45.32,53Zm.11,1.14,0,.12H46a1,1,0,0,0-.29-.31h-.07Zm4.11,2.19a1,1,0,0,0-.15.19s0,.07.08.11a.53.53,0,0,0,.15-.15S49.58,56.4,49.54,56.32Zm7.76,9.16.05.06.18-.12-.06-.07Zm-.44.54h0l.05-.12-.06,0Zm-7.38-9.88s0,0,0,0,0,0,0,.05,0,0,.06,0S49.47,56.16,49.48,56.14Zm7.74,9.58a.21.21,0,0,0,0-.06l-.05,0,0,.06Zm-1.55,1.55s0,0,0-.06l-.06,0s0,0,0,0S55.65,67.26,55.67,67.27Zm-1.39-4.88,0,.06s0,0,.05,0,0,0,0,0ZM53.8,62s0,0,0-.06l-.06,0s0,.05,0,.06Zm5,2.12-.06,0,0,.12h0ZM50.4,64s0,0,0-.06l-.05,0s0,0,0,0S50.38,64,50.4,64Zm5.49,0,0,0s0,0,0,.06,0,0,.06,0S55.88,64,55.89,64Zm-.48,3.5-.06,0,0,.13h0Zm.42-.43v0l.13,0L56,67Zm1.39-1.72v0h-.1v0ZM46.37,54.44s-.06,0-.07,0,0,0,0,.05Zm9.31,9.32-.06,0a.1.1,0,0,0,0,.05ZM54,62.18s.06,0,.07,0,0,0,0,0ZM58.92,67S59,67,59,67s0,0,0,0Zm-.93-1h0V66h0Zm-1.78.85h0v0h0Zm2.5-.06h0v0Zm-4.05,1.62h0ZM49.89,58h0v0h0Zm4.7,4.65h0Zm.73.79h0v0h0Zm3.72.35h0v0h0Zm-2.89.41h0s0,0,0,0Zm.71.83,0,0h0Z" transform="translate(-17.85 -2.15)"/><path class="p" d="M55.56,58.76c-.81-.84-1.64-1.65-2.41-2.52-.52-.6-.94-1.28-1.41-1.92l-.18-.21h0a1.19,1.19,0,0,0,0-.22l-.84-1.51-.11-.23-.17-.37-.22-.49-.25-.59-.19-.48-.12-.3-.06-.18-.14-.4-.09-.26c-.32-1.39-.65-2.78-1-4.18a3.59,3.59,0,0,1,0-.46l.27-.22c.34,1.11.64,2.24,1,3.35a31.62,31.62,0,0,0,5.65,10.3c.2.23.42.44.62.66s.3.35.44.53l.38.48-.5-.3h0l-.48-.38Z" transform="translate(-17.85 -2.15)"/><path class="o" d="M44.1,42.19l1-.36a7.19,7.19,0,0,1-.2.8c-.28.81-.57,1.63-.86,2.44a1.18,1.18,0,0,1-1.29.9c-.2,0-.29-.06-.28-.27a.91.91,0,0,1,.09-.43,4.83,4.83,0,0,0,.64-.44.54.54,0,0,0,.06-.62c-.19-.48-.35-1-.51-1.46a2.09,2.09,0,0,1-.07-.36l.87-.08.21.65h.09Z" transform="translate(-17.85 -2.15)"/><path class="o" d="M38.32,40.76l1.61,1.08a1.86,1.86,0,0,0-.07.34q0,1,0,2c0,.23-.07.31-.29.29h-.3c-.19,0-.42.06-.39-.21l-.64.21-.08-.74c.61,0,.75-.15.75-.76a4.42,4.42,0,0,1,0-.63c.08-.59-.26-1-1-.71l-.07-.87Z" transform="translate(-17.85 -2.15)"/><path class="o" d="M40.66,42.11l1,.22c0,.6,0,1.21,0,1.82,0,.24,0,.34-.31.33-.71,0-.71,0-.71-.68Z" transform="translate(-17.85 -2.15)"/><path class="o" d="M48.23,44.41a2.65,2.65,0,0,1-1.78,0c-.27-.11-.45-.26-.39-.59a2.8,2.8,0,0,0,0-.41c.32-.08.55-.09.61.3a.46.46,0,0,0,.29.27,1.11,1.11,0,0,0,1.19-.21Z" transform="translate(-17.85 -2.15)"/><path class="p" d="M48.23,44.41l-.08-.68-.06-.53L48,42.52l0-.65h.07l.18.79.32,1.43v.13l-.27.22Z" transform="translate(-17.85 -2.15)"/><path class="r" d="M44,53s0,0,0,.06l-.06,0s0,0,0-.06Z" transform="translate(-17.85 -2.15)"/><path class="s" d="M36.48,30.9a3.15,3.15,0,0,1,2.23-1.4,2.71,2.71,0,0,1,2,.56,4.76,4.76,0,0,1,.4,7c-.15.14-.34.26-.51.39a.59.59,0,0,0-.23-.05,3.12,3.12,0,0,1-2.91-1,5.07,5.07,0,0,1-1.15-4.69C36.36,31.4,36.42,31.15,36.48,30.9ZM39,35.8a1.23,1.23,0,0,0,0-2.45,1.25,1.25,0,0,0-1.23,1.25A1.22,1.22,0,0,0,39,35.8Z" transform="translate(-17.85 -2.15)"/><path class="t" d="M36.48,30.9c-.06.25-.12.5-.17.75a5.07,5.07,0,0,0,1.15,4.69,3.12,3.12,0,0,0,2.91,1,.59.59,0,0,1,.23.05,2.73,2.73,0,0,1-3.2,0,8.86,8.86,0,0,1-1-1.07l-.07-.09a0,0,0,0,1,0-.05l-.08-.14h0l-.15-.28h0c.14-.36-.12-.58-.3-.82A4.76,4.76,0,0,1,36.48,30.9Z" transform="translate(-17.85 -2.15)"/><path class="u" d="M35.76,35c.18.24.44.46.3.82A1.85,1.85,0,0,1,35.76,35Z" transform="translate(-17.85 -2.15)"/><path class="u" d="M36.05,35.78l.15.28Z" transform="translate(-17.85 -2.15)"/><path class="u" d="M36.19,36.05l.08.14Z" transform="translate(-17.85 -2.15)"/><path class="u" d="M36.28,36.24l.07.09Z" transform="translate(-17.85 -2.15)"/><path class="e" d="M38.69,38.35l0-.06h.08Z" transform="translate(-17.85 -2.15)"/><path class="o" d="M47.35,55.55l.13.13.14.07.38-.09L48,56h-.17V56L48,56l.07.13.2.14.88.07v.2l-.2.54h-.07L48.76,57l-.2-.2,0,0,0,0,.07.14c-.05.32.19.32.4.33h.14l.14.14.2.13.06.14v.13l-.18.12-.9-.66-.13.07-.07.07-.27.13-.07.07-.08,0,.08,0c.08.27.1.5-.3.51,0,0-.16.16-.16.25,0,.34-.14.37-.41.27,0,0-.09,0-.14,0l-.09,0,.09,0a.39.39,0,0,1-.29.48c-.08,0-.2.09-.21.15a.39.39,0,0,1-.5.32l-.23,1.25-.39-.52,0-.2-.16.07h0l-.06-.07a.05.05,0,0,1,0,0l.36-.16h0l.24-.6c.27,0,.31-.61.77-.48l.2-.07a1.84,1.84,0,0,1,.17-.59c.17-.22.34-.51.71-.42l.13-.14c0-.26-.06-.54.34-.6.09,0,.17-.23.18-.36s-.14-.18-.24-.21-.31-.14-.28-.35-.28-.35-.4-.53-.18-.2-.29-.33l-.23.11-.26-.93c.41-.07.44,0,.39.35a.59.59,0,0,0,0,.22l.14.07.2.2Zm-1,3.69,0,0s0,0,0,.05,0,0,.05,0ZM46,59.5h0v0h0Zm2.3-3h0v0h0Z" transform="translate(-17.85 -2.15)"/><path class="o" d="M44.13,59l.54,0-.07.1c.09.17.13.4.27.49a.47.47,0,0,1,.18.66Z" transform="translate(-17.85 -2.15)"/><path class="o" d="M42,55.76h0c.17,0,.49,0,.5,0,.06.26.23.55,0,.79Z" transform="translate(-17.85 -2.15)"/><path class="o" d="M43.12,57.52l.16-.05.3-.11a1.6,1.6,0,0,1,.1.42,1.32,1.32,0,0,1-.15.35Z" transform="translate(-17.85 -2.15)"/><path class="o" d="M43.8,58.53l.34-.12,0,.44H44Z" transform="translate(-17.85 -2.15)"/><path class="o" d="M42.69,56.83c.43,0,.48.09.32.51Z" transform="translate(-17.85 -2.15)"/><path class="n" d="M49.27,64.87l.23.21Z" transform="translate(-17.85 -2.15)"/><path class="n" d="M53.94,68.66l.22.18Z" transform="translate(-17.85 -2.15)"/><path class="n" d="M45.18,60.41l.16-.07,0,.2Z" transform="translate(-17.85 -2.15)"/><path class="n" d="M51.67,67l.12.1Z" transform="translate(-17.85 -2.15)"/><path class="n" d="M50.92,66.35l.13.1Z" transform="translate(-17.85 -2.15)"/><path class="n" d="M53.82,68.58l.12.09Z" transform="translate(-17.85 -2.15)"/><path class="n" d="M50.46,65.94l.12.11Z" transform="translate(-17.85 -2.15)"/><path class="n" d="M49.85,65.4l.12.11Z" transform="translate(-17.85 -2.15)"/><path class="n" d="M48,63.61l.1.1Z" transform="translate(-17.85 -2.15)"/><path class="n" d="M48.84,64.46l.1.1Z" transform="translate(-17.85 -2.15)"/><path class="n" d="M49,64.62l.09.08Z" transform="translate(-17.85 -2.15)"/><path class="n" d="M48.94,64.56l.06.06Z" transform="translate(-17.85 -2.15)"/><path class="n" d="M47.92,63.54l.07.07Z" transform="translate(-17.85 -2.15)"/><path class="n" d="M47.84,63.46l.09.08Z" transform="translate(-17.85 -2.15)"/><path class="n" d="M45.12,60.34l.06.07Z" transform="translate(-17.85 -2.15)"/><path class="n" d="M44,58.85h.07v.09Z" transform="translate(-17.85 -2.15)"/><path class="n" d="M37.9,41.64c.75-.24,1.09.12,1,.71a4.42,4.42,0,0,0,0,.63c0,.61-.14.74-.75.76H38.1l-.21-2A.17.17,0,0,1,37.9,41.64Z" transform="translate(-17.85 -2.15)"/><path class="h" d="M37.89,41.71l.21,2c-.29,0-.4-.24-.46-.46a1.79,1.79,0,0,1,.12-1.48S37.85,41.74,37.89,41.71Z" transform="translate(-17.85 -2.15)"/><path class="b" d="M38.07,40.47,38,40.41l0,0,.09.06Z" transform="translate(-17.85 -2.15)"/><path class="s" d="M44.5,31.3a2.63,2.63,0,0,1,4,0,4.36,4.36,0,0,1,0,5.75,3.55,3.55,0,0,1-.76.45c-.15,0-.3,0-.45-.08a4.65,4.65,0,0,1-1.07-.26,4.18,4.18,0,0,1-2-4.45A13.33,13.33,0,0,1,44.5,31.3Zm2,2.33a1.25,1.25,0,0,0-1.23,1.21,1.23,1.23,0,1,0,1.23-1.21Z" transform="translate(-17.85 -2.15)"/><path class="n" d="M48.55,44.21v-.13a.84.84,0,0,0-.32-1.43l-.18-.79H48l0,.65-.94-.26a.48.48,0,0,1-.39-.55.5.5,0,0,1,.54-.41,3.2,3.2,0,0,1,.44,0c.24,0,.44.1.49.38s.25.35.51.2a44.39,44.39,0,0,0,2.74,8.65,30.8,30.8,0,0,0,4.66,7.69.73.73,0,0,1,0,.09l-.28.2c-.2-.22-.42-.43-.62-.66a31.62,31.62,0,0,1-5.65-10.3C49.19,46.45,48.89,45.32,48.55,44.21Z" transform="translate(-17.85 -2.15)"/><path class="t" d="M44.5,31.3a13.33,13.33,0,0,0-.36,1.38,4.18,4.18,0,0,0,2,4.45,4.65,4.65,0,0,0,1.07.26c.15,0,.3,0,.45.08a2.14,2.14,0,0,1-1.8.38,3.09,3.09,0,0,1-1.72-1.22,4.44,4.44,0,0,1,0-4.93A3.34,3.34,0,0,1,44.5,31.3Z" transform="translate(-17.85 -2.15)"/><path class="r" d="M55.84,58.52l.28-.2,1,1.2-.16.14h-.1l-.11-.08h0l-.14-.07h0l-.38-.48C56.14,58.87,56,58.7,55.84,58.52Z" transform="translate(-17.85 -2.15)"/><path class="o" d="M57,59.66l.16-.14.18.2c-.13.19-.26.36-.48.08h0Z" transform="translate(-17.85 -2.15)"/><path class="r" d="M61.56,65.23c0-.06-.05-.12-.08-.19S61.54,65.17,61.56,65.23Z" transform="translate(-17.85 -2.15)"/><path class="r" d="M61.3,64.62l-.09-.18Z" transform="translate(-17.85 -2.15)"/><path class="r" d="M61.62,65.38l-.06-.13Z" transform="translate(-17.85 -2.15)"/><path class="r" d="M61.08,64.17,61,64Z" transform="translate(-17.85 -2.15)"/><path class="r" d="M61.15,64.3l-.08-.13Z" transform="translate(-17.85 -2.15)"/><path class="r" d="M61.21,64.44l-.07-.14Z" transform="translate(-17.85 -2.15)"/><path class="r" d="M61.49,65.05l-.07-.14Z" transform="translate(-17.85 -2.15)"/><path class="r" d="M61.42,64.9l-.06-.13Z" transform="translate(-17.85 -2.15)"/><path class="r" d="M61.36,64.76l-.06-.12Z" transform="translate(-17.85 -2.15)"/><path class="r" d="M61,64,61,64Z" transform="translate(-17.85 -2.15)"/><path class="n" d="M44.1,42.19l-.24.77h-.09l-.21-.65Z" transform="translate(-17.85 -2.15)"/><path class="e" d="M45.39,41.19l.09-.07Z" transform="translate(-17.85 -2.15)"/><path class="n" d="M59.7,67.83v0Z" transform="translate(-17.85 -2.15)"/><path class="n" d="M54,43.93l.34-2.15A1.69,1.69,0,0,1,54,43.93Z" transform="translate(-17.85 -2.15)"/><path class="o" d="M55.67,58.85l.48.38-1,0-.14.07a1.64,1.64,0,0,0,0,.22c0,.18,0,.24-.21.23s-.4.08-.32.36a.19.19,0,0,1,0,.13.22.22,0,0,1-.11.12c-.31.08-.28.67-.75.49l-.09-.11,0,.11a.79.79,0,0,0,.07.81v.13a.75.75,0,0,1-.65.16.35.35,0,0,0-.44.3c0,.23-.19.29-.4.15V62.3c.46-.34.37-1,.75-1.35l0-.1-.1,0-.2-.2.13-.07.28,0,.56-.1c.15,0,.33,0,.43-.05s0-.26,0-.39a.93.93,0,0,1,.26-.41,1.94,1.94,0,0,1,.5-.24s0,0,0-.09c0-.39,0-.39.41-.24a.59.59,0,0,0,.13,0Zm-2.43,2.2h0Zm-.24.07h0v0h0Zm.2.34h0v0h0Z" transform="translate(-17.85 -2.15)"/><path class="o" d="M51.56,54.11l.18.21a1.88,1.88,0,0,0-.23.16c-.1.09-.23.17-.28.28s-.23.31-.44.11l-.09,0,0,0h-.38v-.14l.59-.13.13,0-.13,0-.07-.63.44-.1c-.42-.29-.26-.87-.78-1-.06,0-.14-.19-.11-.22s.16-.12.25-.18l.84,1.51a1.19,1.19,0,0,1,0,.22l0,0Zm-.25.3,0,0-.11.06,0,0Z" transform="translate(-17.85 -2.15)"/><path class="o" d="M50.18,58.38c.53,0,.53,0,.54.41l-.13,0,.13,0,.14.14.2.07.13.2-.06.14s-.11.11-.12.1c-.3-.23-.83-.24-.77-.82l-.48.12.22-.75.13.26Z" transform="translate(-17.85 -2.15)"/><path class="o" d="M49.57,56a.45.45,0,0,1-.2,0s-.08-.07-.13-.12.11-.13.15-.13c.31,0,.38-.16.43-.43l.29.08,0,.15h0v-.15l.2-.2h.07l.34-.06c-.11.17-.15.34-.25.37a.52.52,0,0,0-.38.57h-.38ZM50,55.7h0v0h0Z" transform="translate(-17.85 -2.15)"/><path class="o" d="M52.41,60.68l-.09.29c-.12-.08-.26-.13-.31-.23s-.22-.49-.63-.4l.22-.41h.13c.2.12.56,0,.54.41l-.13,0,.13,0,.14.14Z" transform="translate(-17.85 -2.15)"/><path class="o" d="M45.32,53a4.38,4.38,0,0,1,0,.52c0,.05-.07.13-.11.13a.25.25,0,0,1-.2-.07C44.81,53.31,44.91,53.09,45.32,53Z" transform="translate(-17.85 -2.15)"/><path class="o" d="M56.16,59.23l.5.3h0l.14.07h0v.09l.07.12h0C56.45,59.8,56.16,59.56,56.16,59.23Z" transform="translate(-17.85 -2.15)"/><path class="o" d="M45.43,54.13l.22-.2h.07a1,1,0,0,1,.29.31h-.53Z" transform="translate(-17.85 -2.15)"/><path class="o" d="M51.6,59.87a1.69,1.69,0,0,1-.24-.08c-.14-.08-.12-.15,0-.19l.13-.07c.28,0,.18.2.2.34Z" transform="translate(-17.85 -2.15)"/><path class="o" d="M49.9,50.69l.25.59C49.81,51.19,49.69,50.92,49.9,50.69Z" transform="translate(-17.85 -2.15)"/><path class="o" d="M50.37,51.77l.17.37-.19,0C50.37,52.05,50.12,51.9,50.37,51.77Z" transform="translate(-17.85 -2.15)"/><path class="o" d="M49.39,49.33l.14.4-.28-.11Z" transform="translate(-17.85 -2.15)"/><path class="o" d="M49.54,56.32c0,.08.09.14.08.15a.53.53,0,0,1-.15.15s-.09-.09-.08-.11A1,1,0,0,1,49.54,56.32Z" transform="translate(-17.85 -2.15)"/><path class="n" d="M55.67,58.85l-.43.21.32-.3Z" transform="translate(-17.85 -2.15)"/><path class="n" d="M57.3,65.48l.17-.13.06.07-.18.12Z" transform="translate(-17.85 -2.15)"/><path class="o" d="M49.59,49.91l.12.3C49.47,50.19,49.52,50.05,49.59,49.91Z" transform="translate(-17.85 -2.15)"/><path class="n" d="M48.63,57l-.07-.14h0l.2.2Z" transform="translate(-17.85 -2.15)"/><path class="n" d="M48,57.57l.27-.13Z" transform="translate(-17.85 -2.15)"/><path class="n" d="M54.3,68.71l.05-.17.12.09-.17.08Z" transform="translate(-17.85 -2.15)"/><path class="o" d="M53.56,61.76l.16,0v.07l-.17,0Z" transform="translate(-17.85 -2.15)"/><path class="n" d="M48.22,56.29l-.2-.14Z" transform="translate(-17.85 -2.15)"/><path class="n" d="M56.86,66l0-.13.06,0-.05.12Z" transform="translate(-17.85 -2.15)"/><path class="n" d="M48,56l-.18,0v-.05H48Z" transform="translate(-17.85 -2.15)"/><path class="n" d="M49.57,56l.21.07Z" transform="translate(-17.85 -2.15)"/><path class="n" d="M49.48,56.14s0,0,0,0,0,0-.06,0,0-.05,0-.05S49.46,56.13,49.48,56.14Z" transform="translate(-17.85 -2.15)"/><path class="n" d="M57.22,65.72l-.06,0,0-.06.05,0A.21.21,0,0,1,57.22,65.72Z" transform="translate(-17.85 -2.15)"/><path class="n" d="M55.67,67.27s-.05,0-.06,0,0,0,0,0l.06,0S55.67,67.25,55.67,67.27Z" transform="translate(-17.85 -2.15)"/><path class="n" d="M49.1,56.56v0Z" transform="translate(-17.85 -2.15)"/><path class="n" d="M54.28,62.39l.06,0s0,0,0,0,0,0-.05,0Z" transform="translate(-17.85 -2.15)"/><path class="n" d="M52,62.3v.13l-.1-.08Z" transform="translate(-17.85 -2.15)"/><path class="n" d="M51.13,59.4l.06-.14Z" transform="translate(-17.85 -2.15)"/><path class="n" d="M55,59.33l.14-.07Z" transform="translate(-17.85 -2.15)"/><path class="n" d="M51.06,59.06l-.2-.07Z" transform="translate(-17.85 -2.15)"/><path class="n" d="M46.67,59l-.2.07Z" transform="translate(-17.85 -2.15)"/><path class="n" d="M49.51,57.57l-.2-.13Z" transform="translate(-17.85 -2.15)"/><path class="n" d="M53.8,62l-.06,0s0,0,0-.06l.06,0S53.79,62,53.8,62Z" transform="translate(-17.85 -2.15)"/><path class="n" d="M49.57,57.84v-.13l.11.08Z" transform="translate(-17.85 -2.15)"/><path class="n" d="M58.79,64.1l0,.1h0l0-.12Z" transform="translate(-17.85 -2.15)"/><path class="n" d="M50.4,64s0,0,0,0,0,0,0,0l.05,0S50.41,63.94,50.4,64Z" transform="translate(-17.85 -2.15)"/><path class="n" d="M55.89,64s0,0,0,0,0,0-.06,0,0,0,0-.06Z" transform="translate(-17.85 -2.15)"/><path class="n" d="M52.68,60.88l.1,0,0,.1Z" transform="translate(-17.85 -2.15)"/><path class="n" d="M55.41,67.47l0,.11h0l0-.13Z" transform="translate(-17.85 -2.15)"/><path class="n" d="M53.42,60.88l0-.11.09.11Z" transform="translate(-17.85 -2.15)"/><path class="n" d="M52.41,60.68v-.14l.2.07-.13.07Z" transform="translate(-17.85 -2.15)"/><path class="n" d="M55.83,67,56,67l0,.06-.13,0Z" transform="translate(-17.85 -2.15)"/><path class="n" d="M57.22,65.32h-.1v0h.1Z" transform="translate(-17.85 -2.15)"/><path class="o" d="M46.37,54.44l-.1,0s0-.05,0-.05S46.33,54.42,46.37,54.44Z" transform="translate(-17.85 -2.15)"/><path class="n" d="M47.68,57.84l-.13.14Z" transform="translate(-17.85 -2.15)"/><path class="n" d="M55.68,63.76h-.1a.1.1,0,0,1,0-.05Z" transform="translate(-17.85 -2.15)"/><path class="n" d="M54,62.18h.1s0,0,0,0S54,62.2,54,62.18Z" transform="translate(-17.85 -2.15)"/><path class="n" d="M48.36,57.37l.13-.07Z" transform="translate(-17.85 -2.15)"/><path class="n" d="M50.18,55.34v.15h0l0-.15Z" transform="translate(-17.85 -2.15)"/><path class="n" d="M58.92,67H59s0,0,0,0S59,67,58.92,67Z" transform="translate(-17.85 -2.15)"/><path class="n" d="M58,65.93V66h0v-.1Z" transform="translate(-17.85 -2.15)"/><path class="n" d="M51.53,59.53l-.13.07Z" transform="translate(-17.85 -2.15)"/><path class="n" d="M50.72,58.85l-.13,0,.13,0Z" transform="translate(-17.85 -2.15)"/><path class="n" d="M51.6,59.87h.13v.06H51.6Z" transform="translate(-17.85 -2.15)"/><path class="n" d="M56.21,66.78v0h0v0Z" transform="translate(-17.85 -2.15)"/><path class="n" d="M58.71,66.72l0,0v0Z" transform="translate(-17.85 -2.15)"/><path class="n" d="M46.94,58.86l-.09,0,.09,0Z" transform="translate(-17.85 -2.15)"/><path class="n" d="M52.27,60.4l-.13,0,.13,0Z" transform="translate(-17.85 -2.15)"/><path class="n" d="M54.66,68.34h0Z" transform="translate(-17.85 -2.15)"/><path class="n" d="M50.18,58.38l-.07-.07Z" transform="translate(-17.85 -2.15)"/><path class="n" d="M53.56,61.76v.06h-.07v-.13Z" transform="translate(-17.85 -2.15)"/><path class="n" d="M49.89,58v0h0v0Z" transform="translate(-17.85 -2.15)"/><path class="n" d="M48,57.71l-.08,0,.08,0Z" transform="translate(-17.85 -2.15)"/><path class="n" d="M49.17,57.3h0Z" transform="translate(-17.85 -2.15)"/><path class="n" d="M54.59,62.67h0Z" transform="translate(-17.85 -2.15)"/><path class="n" d="M47.62,55.75l-.14-.07Z" transform="translate(-17.85 -2.15)"/><path class="n" d="M47.35,55.55l-.07-.07Z" transform="translate(-17.85 -2.15)"/><path class="n" d="M55.32,63.46v0h0v0Z" transform="translate(-17.85 -2.15)"/><path class="n" d="M47.08,55.28l-.14-.07Z" transform="translate(-17.85 -2.15)"/><path class="n" d="M59,63.81v0h0v0Z" transform="translate(-17.85 -2.15)"/><path class="n" d="M50.72,54.87l0,0,.09,0Z" transform="translate(-17.85 -2.15)"/><path class="n" d="M50.92,54.53l.13,0-.13,0Z" transform="translate(-17.85 -2.15)"/><path class="n" d="M56.15,64.22l0,0s0,0,0,0Z" transform="translate(-17.85 -2.15)"/><path class="n" d="M56.86,65.05l0,0h0Z" transform="translate(-17.85 -2.15)"/><path class="n" d="M48.83,57.1h0Z" transform="translate(-17.85 -2.15)"/><path class="n" d="M50.45,55.14h0Z" transform="translate(-17.85 -2.15)"/><path class="o" d="M48.24,42.65a.84.84,0,0,1,.32,1.43Z" transform="translate(-17.85 -2.15)"/><path class="a" d="M39,35.8a1.22,1.22,0,0,1-1.23-1.2A1.25,1.25,0,0,1,39,33.35a1.23,1.23,0,0,1,0,2.45Zm.84-1.64a.42.42,0,0,0-.42-.43.42.42,0,0,0-.42.43.42.42,0,0,0,.84,0Z" transform="translate(-17.85 -2.15)"/><path class="n" d="M46.37,59.24l0,.06s-.05,0-.05,0,0,0,0-.05Z" transform="translate(-17.85 -2.15)"/><path class="n" d="M46,59.5v0h0v0Z" transform="translate(-17.85 -2.15)"/><path class="n" d="M48.34,56.47v0h0v0Z" transform="translate(-17.85 -2.15)"/><path class="n" d="M45.46,60.14h0Z" transform="translate(-17.85 -2.15)"/><path class="n" d="M48.56,56.83l0,0,0,0Z" transform="translate(-17.85 -2.15)"/><path class="a" d="M46.5,33.63a1.23,1.23,0,1,1-1.23,1.21A1.25,1.25,0,0,1,46.5,33.63ZM47,34a.43.43,0,0,0-.46.39.4.4,0,0,0,.36.45.43.43,0,0,0,.48-.37A.44.44,0,0,0,47,34Z" transform="translate(-17.85 -2.15)"/><path class="n" d="M56.86,59.8l-.07-.12H57Z" transform="translate(-17.85 -2.15)"/><path class="p" d="M56.8,59.6l-.14-.07Z" transform="translate(-17.85 -2.15)"/><path class="p" d="M56.9,59.67h-.11v-.09Z" transform="translate(-17.85 -2.15)"/><path class="n" d="M53.24,61.05h0Z" transform="translate(-17.85 -2.15)"/><path class="n" d="M53,61.12v0h0v0Z" transform="translate(-17.85 -2.15)"/><path class="n" d="M53.2,61.46v0h0v0Z" transform="translate(-17.85 -2.15)"/><path class="n" d="M51.31,54.41l-.1.06,0,0,.11-.06Z" transform="translate(-17.85 -2.15)"/><path class="n" d="M51.56,54.11l-.06,0,0,0Z" transform="translate(-17.85 -2.15)"/><path class="n" d="M50,55.7v0h0v0Z" transform="translate(-17.85 -2.15)"/><path class="p" d="M39.86,34.16a.42.42,0,0,1-.84,0,.42.42,0,0,1,.42-.43A.42.42,0,0,1,39.86,34.16Z" transform="translate(-17.85 -2.15)"/><path class="p" d="M47,34a.44.44,0,0,1,.38.47.43.43,0,0,1-.48.37.4.4,0,0,1-.36-.45A.43.43,0,0,1,47,34Z" transform="translate(-17.85 -2.15)"/></svg>