<svg xmlns="http://www.w3.org/2000/svg" viewBox="0 0 72.87 72.87"><defs><style>.a{fill:#8b7ab7;}.b{fill:none;stroke:#fff;stroke-miterlimit:10;stroke-width:2px;}.c{fill:#5fb561;}.d{fill:#ea5740;}.e{fill:#643e4c;}.f{fill:#77bf84;}.g{fill:#449346;}.h{fill:#fff;}</style></defs><title>watermelon</title><rect class="a" x="1" y="1" width="70.87" height="70.87" rx="14.17"/><rect class="b" x="1" y="1" width="70.87" height="70.87" rx="14.17"/><path class="c" d="M43.79,52.72a14.13,14.13,0,0,0,5.72,1.18c7,0,12.71-5,12.71-11.11h-14Z" transform="translate(-5.99 -5.9)"/><path class="d" d="M59.72,42.79c0,4.75-4.58,8.61-10.21,8.61a11.8,11.8,0,0,1-3.3-.46L49,42.79Z" transform="translate(-5.99 -5.9)"/><path class="e" d="M49.51,54.65a14.84,14.84,0,0,1-6-1.25.74.74,0,0,1-.38-1,.76.76,0,0,1,1-.38,13.25,13.25,0,0,0,5.42,1.12c6.59,0,12-4.65,12-10.36a.75.75,0,1,1,1.5,0C63,49.33,56.93,54.65,49.51,54.65Z" transform="translate(-5.99 -5.9)"/><path class="e" d="M49.51,52.15A12.5,12.5,0,0,1,46,51.66a.75.75,0,1,1,.42-1.44,11,11,0,0,0,3.09.43c5.21,0,9.46-3.52,9.46-7.86a.75.75,0,1,1,1.5,0C60.47,48,55.55,52.15,49.51,52.15Z" transform="translate(-5.99 -5.9)"/><path class="e" d="M62.22,43.54H50.11a.75.75,0,0,1,0-1.5H62.22a.75.75,0,0,1,0,1.5Z" transform="translate(-5.99 -5.9)"/><path class="e" d="M52.17,46.91a.75.75,0,0,1-.75-.75V45.4a.75.75,0,1,1,1.5,0v.76A.75.75,0,0,1,52.17,46.91Z" transform="translate(-5.99 -5.9)"/><path class="e" d="M55,47.43a.76.76,0,0,1-.75-.75v-.77a.75.75,0,0,1,1.5,0v.77A.75.75,0,0,1,55,47.43Z" transform="translate(-5.99 -5.9)"/><path class="e" d="M50.41,49.86a.74.74,0,0,1-.75-.75v-.76a.75.75,0,1,1,1.5,0v.76A.75.75,0,0,1,50.41,49.86Z" transform="translate(-5.99 -5.9)"/><ellipse class="f" cx="33.13" cy="35.29" rx="11.11" ry="12.71"/><path class="e" d="M39.12,54.65c-6.54,0-11.86-6-11.86-13.46s5.32-13.47,11.86-13.47S51,33.76,51,41.19,45.66,54.65,39.12,54.65Zm0-25.43c-5.71,0-10.36,5.37-10.36,12s4.65,12,10.36,12,10.37-5.36,10.37-12S44.84,29.22,39.12,29.22Z" transform="translate(-5.99 -5.9)"/><path class="e" d="M39.44,28.84a.76.76,0,0,1-.75-.67,3,3,0,0,0-.4-1.2A3,3,0,0,0,37,25.81a.75.75,0,1,1,.63-1.36,4.58,4.58,0,0,1,1.95,1.75,4.41,4.41,0,0,1,.6,1.81.74.74,0,0,1-.66.82Z" transform="translate(-5.99 -5.9)"/><ellipse class="g" cx="33.13" cy="35.29" rx="7.69" ry="12.71"/><path class="e" d="M39.12,54.65c-4.73,0-8.43-5.91-8.43-13.46s3.78-13.47,8.43-13.47,8.44,5.92,8.44,13.47S43.86,54.65,39.12,54.65Zm0-25.43c-3.82,0-6.93,5.37-6.93,12s3.11,12,6.93,12,6.94-5.36,6.94-12S43,29.22,39.12,29.22Z" transform="translate(-5.99 -5.9)"/><ellipse class="f" cx="33.13" cy="35.29" rx="2.81" ry="12.71"/><path class="e" d="M39.12,54.65c-2.81,0-3.56-8.46-3.56-13.46s.75-13.47,3.56-13.47,3.57,8.47,3.57,13.47S41.94,54.65,39.12,54.65Zm0-25.43c-.68.27-2,4.62-2,12s1.36,11.7,2.09,12c.68-.27,2-4.62,2-12S39.83,29.49,39.1,29.22Z" transform="translate(-5.99 -5.9)"/><path class="h" d="M23.39,66.38l-.85-3-.86,3h-1l-1.39-4.2h1l.88,3.17.88-3.17H23l.89,3.17.87-3.17h1l-1.39,4.2Z" transform="translate(-5.99 -5.9)"/><path class="h" d="M26.92,65.57l-.33.81h-1l1.83-4.2h1l1.8,4.2h-1l-.33-.81Zm1-2.39-.67,1.63h1.33Z" transform="translate(-5.99 -5.9)"/><path class="h" d="M32.26,63v3.39h-.95V63H30v-.81h3.5V63Z" transform="translate(-5.99 -5.9)"/><path class="h" d="M35.24,63v.91h2v.79h-2v.93h2.32v.78H34.3v-4.2h3.19V63Z" transform="translate(-5.99 -5.9)"/><path class="h" d="M40.46,65.18h-1v1.2h-1v-4.2h1.83c1.09,0,1.72.53,1.72,1.46A1.39,1.39,0,0,1,41.3,65l.9,1.38H41.12Zm-.09-.79c.52,0,.82-.24.82-.72s-.3-.7-.82-.7h-.88v1.42Z" transform="translate(-5.99 -5.9)"/><path class="h" d="M46.83,66.38V63.55L45.72,66H45.1L44,63.55v2.83h-.86v-4.2h1.06l1.22,2.57,1.22-2.57h1.06v4.2Z" transform="translate(-5.99 -5.9)"/><path class="h" d="M49.81,63v.91h2v.79h-2v.93h2.31v.78H48.86v-4.2h3.19V63Z" transform="translate(-5.99 -5.9)"/><path class="h" d="M55.85,65.56v.82H53.11v-4.2h.94v3.38Z" transform="translate(-5.99 -5.9)"/><path class="h" d="M60.87,64.28a2.26,2.26,0,0,1-4.51,0,2.26,2.26,0,0,1,4.51,0Zm-3.54,0a1.31,1.31,0,0,0,1.29,1.32,1.31,1.31,0,1,0-1.29-1.32Z" transform="translate(-5.99 -5.9)"/><path class="h" d="M64.67,66.38l-2-2.69v2.69h-.91v-4.2h.87l2,2.7v-2.7h.9v4.2Z" transform="translate(-5.99 -5.9)"/></svg>